<?xml version="1.0" encoding="utf-8"?>
<!-- Generator: Adobe Illustrator 16.0.0, SVG Export Plug-In . SVG Version: 6.00 Build 0)  -->
<!DOCTYPE svg PUBLIC "-//W3C//DTD SVG 1.1//EN" "http://www.w3.org/Graphics/SVG/1.1/DTD/svg11.dtd">
<svg version="1.1" id="Layer_1" xmlns="http://www.w3.org/2000/svg" xmlns:xlink="http://www.w3.org/1999/xlink" x="0px" y="0px"
	 width="128px" height="128px" viewBox="193.955 0 128 128" enable-background="new 193.955 0 128 128" xml:space="preserve">
<path d="M310.039,30.29L261.145,2.148c-0.811-0.506-1.925-0.708-3.139-0.708c-1.215,0-2.329,0.303-3.138,0.708l-48.591,28.243
	c-1.721,1.012-2.936,3.543-2.936,5.467v56.386c0,1.114,0.202,2.429,1.012,3.543l108.116-62.764
	C311.861,31.808,310.949,30.897,310.039,30.29L310.039,30.29z"/>
<path d="M204.05,95.686c0.506,0.809,1.215,1.518,1.923,1.923l48.793,28.244c0.81,0.506,1.923,0.708,3.138,0.708
	s2.328-0.304,3.138-0.708l48.592-28.244c1.721-1.012,2.936-3.543,2.936-5.466V35.757c0-0.911-0.101-1.924-0.606-2.834L204.05,95.686
	L204.05,95.686z"/>
<path fill="#FFFFFF" d="M279.569,76.249c-4.253,7.49-12.352,12.553-21.563,12.553c-13.667,0-24.802-11.136-24.802-24.802
	s11.135-24.802,24.802-24.802c9.211,0,17.31,5.061,21.563,12.654l13.159-7.593c-6.884-12.046-19.841-20.246-34.722-20.246
	c-22.069,0-39.986,17.918-39.986,39.986c0,22.068,17.917,39.987,39.986,39.987c14.779,0,27.736-8.099,34.621-20.044L279.569,76.249
	L279.569,76.249z M291.411,66.227l0.911-4.353h-4.251v-4.758h5.162l1.216-6.277h4.96l-1.214,6.175h3.847l1.214-6.175h4.859
	l-1.215,6.175h2.43v4.758h-3.341l-0.911,4.354h4.252v4.758h-5.163l-1.214,6.073h-4.962l1.216-6.073h-3.847l-1.216,6.073h-4.858
	l1.215-6.073h-2.43v-4.758h3.34V66.227z M296.271,66.227h3.848l0.911-4.353h-3.848L296.271,66.227z"/>
</svg>
