<?xml version="1.0" encoding="utf-8"?>
<!-- Generator: Adobe Illustrator 21.1.0, SVG Export Plug-In . SVG Version: 6.00 Build 0)  -->
<svg version="1.1" id="Layer_1" xmlns="http://www.w3.org/2000/svg" xmlns:xlink="http://www.w3.org/1999/xlink" x="0px" y="0px"
	 viewBox="0 0 128 128" style="enable-background:new 0 0 128 128;" xml:space="preserve">
<g>
	<path d="M108.2,64.8c-0.1-0.1-0.2-0.2-0.4-0.2l-0.1-0.1c-0.1-0.1-0.2-0.1-0.2-0.2l-0.1-0.1c-0.1,0-0.2-0.1-0.2-0.1L107,64
		c-0.1,0-0.2-0.1-0.2-0.1l-0.2-0.1c-0.1,0-0.2-0.1-0.2-0.1c-0.1,0-0.1,0-0.2-0.1l-0.3-0.1c-0.1,0-0.1,0-0.2-0.1l-0.3-0.1h-0.1
		l-0.4-0.1h-0.2c-0.1,0-0.2,0-0.3-0.1h-2.3c-0.6-13.3,0.6-26.8-2.8-39.6c12.9-4.6,2.8-22.3-8.4-14.4c-7.4-6.4-17.6-7.8-28.3-7.8
		C52.1,2,42.2,4.2,35.2,9.7c-2.8-1.4-5.5-1.8-7.9-1.1v0.1c-0.1,0-0.3,0.1-0.4,0.2c-0.1,0-0.3,0.1-0.4,0.2h-0.1
		c-0.1,0-0.2,0.1-0.4,0.2h-0.1l-0.3,0.2h-0.1l-0.3,0.2h-0.1l-0.3,0.2c0,0-0.1,0-0.1,0.1l-0.3,0.2c0,0-0.1,0-0.1,0.1L24,10.5
		c0,0-0.1,0-0.1,0.1l-0.3,0.2l-0.1,0.1c-0.1,0.1-0.2,0.1-0.2,0.2l-0.1,0.1L23,11.4l-0.1,0.1c-0.1,0.1-0.1,0.2-0.2,0.2l-0.1,0.1
		c-0.1,0.1-0.1,0.2-0.2,0.2l-0.1,0.1c-0.1,0.1-0.1,0.2-0.2,0.2L22,12.4c-0.1,0.1-0.1,0.2-0.2,0.2l-0.1,0.1c-0.1,0.1-0.1,0.2-0.2,0.2
		L21.4,13l-0.1,0.3c0,0,0,0.1-0.1,0.1l-0.1,0.3c0,0,0,0.1-0.1,0.1l-0.1,0.3c0,0,0,0.1-0.1,0.1l-0.1,0.3c0,0,0,0.1-0.1,0.1
		C21,14.9,21,15,21,15v0.1l-0.1,0.3v0.1c0,0.1,0,0.2-0.1,0.3v3.1c0,0.1,0,0.2,0.1,0.3v0.1l0.1,0.3v0.1l0.1,0.3c0,0,0,0.1,0.1,0.1
		l0.1,0.3c0,0,0,0.1,0.1,0.1l0.1,0.3c0,0,0,0.1,0.1,0.1l0.2,0.3c0,0,0,0.1,0.1,0.1l0.2,0.3c0,0,0,0.1,0.1,0.1l0.2,0.3l0.1,0.1
		l0.3,0.3l0.3,0.3h0.1c1,0.9,2,1.6,4,2.2v-0.2C23,37.3,26.5,50,26.7,63c-0.6,0-0.7,0.4-1.7,0.5h-0.5c-0.1,0-0.3,0-0.5,0.1
		c-0.1,0-0.3,0-0.4,0.1l-0.4,0.1h-0.1l-0.4,0.1h-0.1L22.3,64h-0.1l-0.3,0.1c0,0-0.1,0-0.1,0.1l-0.3,0.1l-0.2,0.1
		c-0.1,0-0.2,0.1-0.2,0.1l-0.2,0.1l-0.2,0.1c-0.1,0-0.2,0.1-0.2,0.1l-0.2,0.1l-0.4,0.3c-0.1,0.1-0.2,0.2-0.3,0.2l-0.4,0.4l-0.1,0.1
		c-0.1,0.2-0.3,0.4-0.4,0.5l-0.2,0.3l-0.3,0.6l-0.1,0.3v0.3c0,0.5,0.2,0.9,0.9,1.2c0.2,3.7,3.9,2,5.6,0.8l0.1-0.1
		c0.2-0.2,0.5-0.3,0.6-0.3h0.1l0.2-0.1c0.1,0,0.1,0,0.2-0.1c0.2-0.1,0.4-0.1,0.5-0.2c0.1,0,0.1-0.1,0.1-0.2l0.1-0.1
		c0.1-0.2,0.2-0.6,0.2-1.2l0.1-1.3v1.8c-0.5,13.1-4,30.7,3.3,42.5c1.3,2.1,2.9,3.9,4.7,5.4h-0.5c-0.2,0.2-0.5,0.4-0.8,0.6l-0.9,0.6
		l-0.3,0.2l-0.6,0.4l-0.9,0.7l-1.1,1c-0.2,0.2-0.3,0.4-0.4,0.5l-0.4,0.6l-0.2,0.3c-0.1,0.2-0.2,0.4-0.2,0.6l-0.1,0.3
		c-0.2,0.8,0,1.7,0.6,2.7l0.4,0.4h0.2c0.1,0,0.2,0,0.4,0.1c0.2,0.4,1.2,2.5,3.9,0.9c2.8-1.5,4.7-4.6,8.1-5.1l-0.5-0.6
		c5.9,2.8,12.8,4,19,4.2c8.7,0.3,18.6-0.9,26.5-5.2c2.2,0.7,3.9,3.9,5.8,5.4l0.1,0.1l0.1,0.1l0.1,0.1l0.1,0.1c0,0,0.1,0,0.1,0.1
		c0,0,0.1,0,0.1,0.1c0,0,0.1,0,0.1,0.1h2.1c0,0,0.1,0,0.1-0.1h0.1c0,0,0.1,0,0.1-0.1H96c0,0,0.1,0,0.1-0.1c0,0,0.1,0,0.1-0.1
		l0.1-0.1c0,0,0.1,0,0.1-0.1l0.1-0.1h0.1l0.2-0.2l0.2-0.1h0.1l0.1-0.1h0.1l0.1-0.1l0.1-0.1l0.1-0.1l0.1-0.1l0.1-0.1l0.1-0.1l0.1-0.1
		v-0.1c0,0,0-0.1,0.1-0.1v-0.1c0,0,0-0.1,0.1-0.1V123c0,0,0-0.1,0.1-0.1v-1.4c0,0-0.3,0-0.3-0.1l-0.3-0.1v-0.1l0.3-0.1
		c0,0,0.2,0,0.2-0.1l0.1-0.1v-2.1c0,0,0-0.1-0.1-0.1v-0.1c0,0,0-0.1-0.1-0.1v-0.1c0,0,0-0.1-0.1-0.1c0,0,0-0.1-0.1-0.1
		c0,0,0-0.1-0.1-0.1c0,0,0-0.1-0.1-0.1c0,0,0-0.1-0.1-0.1c0,0,0-0.1-0.1-0.1c0,0,0-0.1-0.1-0.1c0,0,0-0.1-0.1-0.1c0,0,0-0.1-0.1-0.1
		c0,0,0-0.1-0.1-0.1c0,0,0-0.1-0.1-0.1c0,0,0-0.1-0.1-0.1c0,0,0-0.1-0.1-0.1c0,0,0-0.1-0.1-0.1l-0.1-0.1l-0.1-0.1l-0.1-0.1l-0.1-0.1
		l-0.1-0.1l-0.1-0.1l-0.1-0.1l-0.1-0.1l-0.1-0.1l-0.1-0.1l-0.1-0.1l-0.1-0.1v-0.1l-0.1-0.1l-0.1-0.1l-0.1-0.1l-0.1-0.1l-0.1-0.1
		l-0.1-0.1l-0.1-0.1l-0.1-0.1l-0.1-0.1l-0.1-0.1l-0.1-0.1l-0.1-0.1l-0.1-0.1l-0.1-0.1l-0.1-0.1l-0.1-0.1l-0.1-0.1l-0.1-0.1l-0.1-0.1
		c2-1.9,3.8-4.2,5.1-6.9c5.9-11.8,4.9-26.2,4.1-39.2h0.1c0.1,0,0.2,0.1,0.2,0.1h0.3c0,0,0.1,0,0.1,0.1h0.1c0,0,0.1,0,0.1,0.1
		l0.2,0.1c1.7,1.2,5.4,2.9,5.6-0.8C111.1,67.9,109.2,65.5,108.2,64.8L108.2,64.8z M36,23C32.8,7,58.4,4,59.3,19.6
		C60.1,32.6,39.3,35.9,36,23z M72.1,38c-1.3,1.4-2.7,1.2-4.1,0.7c0,1.9,0.4,3.9,0.1,5.9c-0.5,0.9-1.5,1-2.3,1.4
		c-1.2-0.2-2.1-0.9-2.6-2L63,43.9c-3.9,5.2-6.3-1.1-5.2-5c-1.2,0.1-2.2-0.2-3-1.5c-1.4-2.6,0.7-5.8,3.4-6.3c0.7,3,8.7,2.6,10.1-0.2
		C71.4,32.4,74.8,35.2,72.1,38z M65.1,20.5C64.2,6.7,85.4,3,88.5,16.5C92,31.5,67.7,35.4,65.1,20.5z M41.7,17
		c-1.9,0-3.5,1.7-3.5,3.8s1.6,3.8,3.5,3.8s3.5-1.7,3.5-3.8S43.7,17,41.7,17z M43.3,22.7c-0.5,0-0.8-0.4-0.8-1c0-0.5,0.4-1,0.8-1
		c0.5,0,0.8,0.4,0.8,1C44.1,22.2,43.8,22.7,43.3,22.7z M71.1,16.1c-1.9,0-3.4,1.7-3.4,3.8s1.5,3.8,3.4,3.8s3.4-1.7,3.4-3.8
		S73,16.1,71.1,16.1z M72.7,21.7c-0.4,0-0.8-0.4-0.8-1c0-0.5,0.4-1,0.8-1s0.8,0.4,0.8,1S73.1,21.7,72.7,21.7z"/>
</g>
</svg>
