<?xml version="1.0" encoding="utf-8"?>
<!-- Generator: Adobe Illustrator 16.0.0, SVG Export Plug-In . SVG Version: 6.00 Build 0)  -->
<!DOCTYPE svg PUBLIC "-//W3C//DTD SVG 1.1//EN" "http://www.w3.org/Graphics/SVG/1.1/DTD/svg11.dtd">
<svg version="1.1" id="Layer_1" xmlns="http://www.w3.org/2000/svg" xmlns:xlink="http://www.w3.org/1999/xlink" x="0px" y="0px"
	 width="128px" height="128px" viewBox="193.955 0 128 128" enable-background="new 193.955 0 128 128" xml:space="preserve">
<path d="M309.933,30.359L261.138,2.273c-0.808-0.505-1.92-0.707-3.132-0.707c-1.212,0-2.324,0.303-3.132,0.707l-48.492,28.186
	c-1.718,1.01-2.93,3.536-2.93,5.456v56.271c0,1.111,0.202,2.424,1.01,3.535l107.895-62.635
	C311.751,31.874,310.841,30.965,309.933,30.359L309.933,30.359z"/>
<path d="M204.16,95.62c0.505,0.809,1.212,1.516,1.919,1.919l48.694,28.186c0.808,0.504,1.919,0.707,3.132,0.707
	s2.325-0.303,3.132-0.707l48.49-28.186c1.719-1.01,2.931-3.536,2.931-5.456V35.814c0-0.909-0.101-1.919-0.605-2.829L204.16,95.62
	L204.16,95.62z"/>
<path fill="#FFFFFF" d="M279.525,76.224c-4.243,7.476-12.325,12.527-21.519,12.527c-13.639,0-24.751-11.113-24.751-24.751
	c0-13.639,11.112-24.751,24.751-24.751c9.193,0,17.275,5.051,21.519,12.628l13.133-7.577c-6.868-12.021-19.801-20.205-34.651-20.205
	c-22.023,0-39.905,17.882-39.905,39.905c0,22.023,17.881,39.905,39.905,39.905c14.749,0,27.681-8.082,34.551-20.002L279.525,76.224
	L279.525,76.224z"/>
<g>
	<path fill="#FFFFFF" d="M276.291,61.778h5.254v-5.355h4.445v5.355h5.354v4.444h-5.354v5.254h-4.445v-5.254h-5.254V61.778
		L276.291,61.778z M294.982,61.778h5.253v-5.355h4.445v5.355h5.354v4.444h-5.354v5.254h-4.445v-5.254h-5.253V61.778L294.982,61.778z
		"/>
</g>
</svg>
