<?xml version="1.0" encoding="utf-8"?>
<!-- Generator: Adobe Illustrator 21.1.0, SVG Export Plug-In . SVG Version: 6.00 Build 0)  -->
<svg version="1.1" id="Swift" xmlns="http://www.w3.org/2000/svg" xmlns:xlink="http://www.w3.org/1999/xlink" x="0px" y="0px"
	 viewBox="0 0 128 128" style="enable-background:new 0 0 128 128;" xml:space="preserve">
<style type="text/css">
	.st0{fill:#FEFEFE;}
</style>
<title>Artboard 1</title>
<path d="M126.3,34.1c0-2.6-0.3-5.3-0.8-7.8c-0.5-2.6-1.4-5.2-2.7-7.6c-1.3-2.3-2.9-4.4-4.8-6.3c-1.9-1.9-4.2-3.4-6.6-4.6
	c-2.4-1.2-5-2.1-7.7-2.5c-2.7-0.5-5.6-0.5-8.2-0.8H30.3c-2,0-4.1,0.2-6.1,0.5c-2,0.2-4,0.7-5.8,1.5C17.8,6.8,17,7,16.5,7.3
	c-1.8,0.9-3.4,2-5,3.3c-0.5,0.5-1.1,0.8-1.6,1.3c-1.9,1.8-3.6,3.9-4.8,6.3c-1.3,2.4-2.2,4.9-2.7,7.6c-0.4,2.6-0.7,5.2-0.8,7.8v60.4
	c0,2.6,0.3,5.3,0.8,7.8c0.5,2.6,1.4,5.2,2.7,7.6c1.3,2.3,2.9,4.4,4.8,6.3c1.9,1.9,4.2,3.4,6.6,4.6c2.4,1.2,5,2.1,7.7,2.5
	c2.6,0.5,5.6,0.5,8.2,0.8h63.2c2.8,0,5.5-0.3,8.2-0.8c2.7-0.5,5.3-1.3,7.7-2.5c2.4-1.2,4.6-2.7,6.6-4.6c1.9-1.8,3.6-3.9,4.8-6.3
	c1.3-2.4,2.2-4.9,2.7-7.6c0.4-2.6,0.7-5.2,0.8-7.8L126.3,34.1L126.3,34.1z"/>
<path class="st0" d="M85,96.5c-11.1,6.1-26.4,6.8-41.8,0.5c-12-4.9-22.2-13.2-29.4-24c3.3,2.6,7,4.7,10.9,6.3
	c15.9,7.1,31.7,6.6,42.9,0l0,0C51.7,67.7,38.2,52.5,28.1,40.1c-2-2.1-3.8-4.4-5.3-6.8c12.2,10.6,31.5,24,38.4,27.8
	c-9.8-10.1-18.9-20.9-27-32.3c13.5,13.2,28.5,24.9,44.5,34.9c0.7,0.4,1.3,0.7,1.7,1c0.5-1.1,0.9-2.3,1.2-3.5
	c3.7-12.9-0.5-27.5-9.8-39.7C93.3,33.8,106,57,100.7,76.5c-0.1,0.5-0.3,1-0.4,1.6l0.2,0.2c10.6,12.6,7.7,26,6.3,23.5
	C101,91,90.4,94.3,85,96.5z"/>
</svg>
