<?xml version="1.0" encoding="utf-8"?>
<!-- Generator: Adobe Illustrator 21.1.0, SVG Export Plug-In . SVG Version: 6.00 Build 0)  -->
<svg version="1.1" id="typescript" xmlns="http://www.w3.org/2000/svg" xmlns:xlink="http://www.w3.org/1999/xlink" x="0px" y="0px"
	 viewBox="0 0 128 128" style="enable-background:new 0 0 128 128;" xml:space="preserve">
<style type="text/css">
	.st0{fill:#FFFFFF;}
</style>
<title>Artboard 3</title>
<rect x="22.7" y="47" class="st0" width="99.7" height="73.7"/>
<path id="original-2" d="M1.5,63.9v62.5h125V1.4H1.5V63.9z M102.2,58.9c3,0.7,5.7,2.3,7.8,4.5c1.2,1.2,2.2,2.5,3,4
	c0,0.2-5.4,3.8-8.7,5.8c-0.1,0.1-0.6-0.4-1.1-1.2c-1.2-2.1-3.4-3.4-5.9-3.5c-3.8-0.3-6.2,1.7-6.2,5c0,0.8,0.2,1.6,0.5,2.3
	c0.8,1.7,2.4,2.8,7.2,4.9c8.9,3.8,12.8,6.4,15.2,10c2.7,4,3.3,10.5,1.4,15.2c-2,5.2-6.9,8.7-13.8,9.9c-3.2,0.4-6.4,0.3-9.5-0.1
	c-4.8-0.8-9.3-3.1-12.7-6.6c-1.2-1.3-3.4-4.6-3.3-4.8c0.4-0.3,0.7-0.5,1.2-0.7L82,101l3.6-2.1l0.8,1.1c1.3,1.8,2.9,3.4,4.7,4.5
	c4,2.1,9.5,1.8,12.2-0.6c1.9-1.8,2.2-4.7,0.7-6.9c-1-1.4-3-2.6-8.6-5c-6.4-2.8-9.2-4.5-11.8-7.2c-1.6-1.8-2.8-3.9-3.4-6.3
	c-0.5-2.6-0.6-5.3-0.2-8c1.3-6.2,6-10.6,12.8-11.9C95.9,58.3,99.1,58.4,102.2,58.9L102.2,58.9z M72.9,64.2v5.1H56.7v46.2H45.2V69.3
	H28.9v-5c-0.1-1.7,0-3.4,0.1-5.2C29.1,59,39,59,51,59h21.8L72.9,64.2z"/>
</svg>
