<svg xmlns="http://www.w3.org/2000/svg" width="191.194" height="187.672" viewBox="0 0 191.194 187.672"><defs><style>.a{fill:#15b8cf;}.b{fill:#fff;stroke:#333;stroke-miterlimit:10;stroke-width:0.7px;}</style></defs><g transform="translate(0.026 -1.133)"><circle class="a" cx="52.5" cy="52.5" r="52.5" transform="translate(38.333 45.493)"/><g transform="translate(0.333 1.493)"><path class="b" d="M191.354,86.771a15.108,15.108,0,0,0-30.041-.47l-27.854,2.531A43.152,43.152,0,0,0,125.849,72.2l7.4-7.873a17.469,17.469,0,0,0,8.217,2.058c.54,0,1.087-.025,1.631-.074a17.7,17.7,0,1,0-14.862-5.952l-6.594,7.013A43.341,43.341,0,0,0,87.119,54.922a44.2,44.2,0,0,0-5.643.93l-5.787-14.6A21.2,21.2,0,1,0,64.751,44.29c.641,0,1.289-.029,1.939-.087a21.671,21.671,0,0,0,3.1-.538L75.35,57.692A43.151,43.151,0,0,0,57.685,70.374a43.736,43.736,0,0,0-5.5,8.479L33.345,71.461a12.33,12.33,0,0,0,.006-2.192,12.052,12.052,0,1,0-12.01,13.142c.365,0,.732-.017,1.1-.049a11.975,11.975,0,0,0,8.168-4.288c.175-.21.33-.431.489-.648L49.75,84.742a43.372,43.372,0,0,0,1.324,30.4L32.237,126.764a17.8,17.8,0,0,0-2.333-2.353,17.66,17.66,0,1,0-11.317,31.227c.532,0,1.073-.023,1.613-.072a17.6,17.6,0,0,0,15.124-23.214l18.689-11.534a43.213,43.213,0,0,0,28.519,19.943l-4.758,19.375c-.179.01-.357.006-.536.021a14.354,14.354,0,0,0,1.273,28.65c.441,0,.883-.021,1.328-.06a14.36,14.36,0,0,0,4.238-27.541l4.832-19.676c.689.033,1.376.089,2.071.089q2,0,4.008-.182a43.088,43.088,0,0,0,28.03-13.924L135.825,141.2a18.714,18.714,0,0,0,15.06,29.791c.575,0,1.155-.025,1.733-.078A18.737,18.737,0,1,0,140.4,136.761L127.053,122.49a43.067,43.067,0,0,0,7.3-27.332l27.549-2.5a15.135,15.135,0,0,0,14.4,10.6c.456,0,.918-.021,1.382-.062A15.133,15.133,0,0,0,191.354,86.771ZM140.478,37.49c.349-.033.7-.047,1.042-.047a11.285,11.285,0,1,1-1.042.047Zm-74.366.359A14.847,14.847,0,1,1,63.42,8.278c.458-.041.918-.062,1.372-.062a14.847,14.847,0,0,1,1.32,29.634ZM25.707,73.988a5.626,5.626,0,0,1-3.845,2.019A5.676,5.676,0,1,1,20.831,64.7c.177-.017.351-.025.526-.025a5.679,5.679,0,0,1,4.35,9.312ZM27.264,145.2a11.284,11.284,0,1,1-9.688-18.462c.347-.033.689-.047,1.031-.047A11.284,11.284,0,0,1,27.264,145.2Zm59.215,28.525a7.978,7.978,0,1,1-8.665-7.223c.247-.023.491-.035.736-.035a7.975,7.975,0,0,1,7.93,7.258ZM149.8,139.943c.379-.035.755-.05,1.128-.05a12.378,12.378,0,0,1,12.3,11.241v0A12.36,12.36,0,1,1,149.8,139.943ZM119.523,121.9A37.06,37.06,0,1,1,87.7,61.27q1.706-.157,3.385-.155A37.061,37.061,0,0,1,119.523,121.9ZM177.1,96.836a8.733,8.733,0,1,1-1.58-17.395c.27-.025.538-.039.806-.039a8.735,8.735,0,0,1,.775,17.434Z" transform="translate(-0.938 -1.845)"/></g></g></svg>