<svg version="1.1" id="Layer_1" xmlns="http://www.w3.org/2000/svg" xmlns:xlink="http://www.w3.org/1999/xlink" x="0px" y="0px"
	 viewBox="0 0 185 185" style="enable-background:new 0 0 185 185;" xml:space="preserve">
<style type="text/css">
	.st0{fill:#E6E6E6;}
	.st1{fill:none;stroke:#465867;stroke-miterlimit:10;}
	.st2{fill:#FFFFFF;stroke:#FF7300;stroke-width:1.25;stroke-miterlimit:10;}
	.st3{fill:#465867;}
</style>
<g>
	<path class="st0" d="M147.7,136.3l0.5,0.2c4.4,1.6,9.3-0.2,11.5-4.4l1.9-3.4c2.2-4.1,1.1-9.3-2.6-12.1l-0.7-0.5
		c-2.9-2.2-4.2-6-3.5-9.6c0.5-2.4,0.8-4.8,1-7.1c0.3-3.8,2.7-7.1,6.2-8.4l0.4-0.2c4.4-1.6,7-6.2,6.1-10.8l-0.8-3.8
		c-0.9-4.6-5.1-7.9-9.7-7.6l-1,0c-3.7,0.2-7.1-1.8-8.8-5.1c-1.1-2.1-2.4-4.1-3.7-6c-2.2-3.1-2.5-7.1-0.6-10.4l0.3-0.6
		c2.3-4.1,1.4-9.2-2.3-12.2l-3-2.4c-3.7-2.9-8.9-2.8-12.3,0.4l-1,0.9c-2.7,2.5-6.5,3.1-10,1.8c-2.1-0.8-4.2-1.5-6.4-2.1
		c-3.7-1-6.5-3.9-7.2-7.6l-0.2-1c-0.8-4.6-4.9-8-9.5-7.9l-3.9,0.1c-4.7,0.1-8.6,3.6-9.2,8.3L79,26.7c-0.5,3.6-3,6.6-6.4,7.8
		c-2,0.7-4,1.5-5.9,2.4c-3.4,1.6-7.4,1.2-10.3-1.2l-1-0.9c-3.6-3-8.8-3-12.3,0.1l-2.9,2.6c-3.5,3.1-4.2,8.3-1.7,12.3l1.1,1.6
		c1.9,3,2.1,6.9,0.2,9.9c-0.5,0.8-0.9,1.6-1.4,2.4c-0.6,1.1-1.2,2.3-1.7,3.5c-1.6,3.4-4.9,5.6-8.6,5.6l-1.5,0
		c-4.7,0-8.7,3.4-9.4,8.1l-0.6,3.8c-0.7,4.6,2.1,9.1,6.6,10.5l1.8,0.6c3.5,1.1,6,4.2,6.6,7.8c0.3,2.1,0.8,4.1,1.3,6.2
		c0.9,3.6-0.2,7.5-3,9.9l-1.1,0.9c-3.6,3-4.4,8.2-2,12.2l2,3.3c2.4,4,7.4,5.6,11.7,3.8l1.5-0.6c3.4-1.4,7.3-0.7,10.1,1.8
		c1.6,1.4,3.3,2.8,5.1,4.1c3,2.2,4.7,5.8,4,9.5l-0.2,1.2c-0.8,4.6,1.9,9.2,6.3,10.7l3.7,1.3c4.4,1.5,9.3-0.5,11.4-4.6l0.6-1.1
		c1.7-3.3,5.2-5.2,8.9-5.1c2.3,0.1,4.6,0,6.9-0.2c3.7-0.3,7.3,1.5,9.2,4.7l0.4,0.7c2.3,4.1,7.3,5.8,11.6,4.1l3.6-1.4
		c4.4-1.7,6.8-6.4,5.8-10.9l-0.2-0.9c-0.8-3.6,0.6-7.3,3.5-9.7c1.8-1.5,3.6-3.1,5.3-4.8C140.3,136,144.2,135,147.7,136.3z"/>
	<path class="st1" d="M132.5,134.3l12.6,6.4l11-15.5l-10.4-10c2.5-5.7,4-11.6,4.6-17.6l13.8-3.2l-1.5-19l-14.5-1
		c-1.7-5.7-4.3-11.2-7.7-16.3l8.6-11.5l-13.4-13.6l-12,8.7c-5.1-3.3-10.5-5.7-16.1-7.3l-0.8-14.6l-19-1.8l-3.6,14.7
		c-5.8,0.7-11.4,2.3-16.8,4.7L57.2,26.5L41.5,37.3l6.7,13.8c-1.8,1.9-3.4,3.9-5,6.1c-1.8,2.6-3.4,5.3-4.8,8l-15-1.8l-5.1,18.4
		l14,6.2c-0.3,5.8,0.2,11.6,1.5,17.2l-12.6,8.2l7.9,17.3l14.5-4.2c3.4,4.6,7.5,8.8,12.4,12.4l-4.3,14.1l17.2,8.2l8.3-12.3
		c5.9,1.4,11.8,2,17.8,1.6l5.7,13.2l18.4-4.8l-1.5-14.4C123.1,142.1,128,138.6,132.5,134.3z"/>
	<g>
		<g>
			<path class="st2" d="M143.3,134.9h-96c-3.7,0-6.6-3-6.6-6.6V54.9c0-3.7,3-6.6,6.6-6.6h96c3.7,0,6.6,3,6.6,6.6v73.3
				C149.9,131.9,147,134.9,143.3,134.9z"/>
			<line class="st2" x1="40.7" y1="62.5" x2="149.9" y2="62.5"/>
			<g>
				<circle class="st2" cx="50.1" cy="55.4" r="3"/>
				<circle class="st2" cx="60.1" cy="55.4" r="3"/>
				<circle class="st2" cx="70" cy="55.4" r="3"/>
			</g>
		</g>
		<g>
			<path class="st3" d="M106.9,71.9H50.3c-0.8,0-1.5-0.3-1.5-0.7l0,0c0-0.4,0.7-0.7,1.5-0.7h56.6c0.8,0,1.5,0.3,1.5,0.7l0,0
				C108.3,71.6,107.7,71.9,106.9,71.9z"/>
			<g>
				<path class="st3" d="M69.2,91.7H49.4c-0.3,0-0.6-0.3-0.6-0.6v-0.2c0-0.3,0.3-0.6,0.6-0.6h19.7c0.3,0,0.6,0.3,0.6,0.6v0.2
					C69.8,91.4,69.5,91.7,69.2,91.7z"/>
				<path class="st3" d="M80,91.8h-6.7c-0.2,0-0.4-0.2-0.4-0.4v-0.8c0-0.2,0.2-0.4,0.4-0.4H80c0.2,0,0.4,0.2,0.4,0.4v0.8
					C80.4,91.6,80.2,91.8,80,91.8z"/>
			</g>
			<g>
				<path class="st3" d="M106.1,86.8H86.4c-0.3,0-0.6-0.3-0.6-0.6V86c0-0.3,0.3-0.6,0.6-0.6h19.7c0.3,0,0.6,0.3,0.6,0.6v0.2
					C106.7,86.6,106.4,86.8,106.1,86.8z"/>
				<path class="st3" d="M83.2,86.8H70.2c-0.3,0-0.5-0.2-0.5-0.5v-0.4c0-0.3,0.2-0.5,0.5-0.5h13.1c0.3,0,0.5,0.2,0.5,0.5v0.4
					C83.7,86.6,83.5,86.8,83.2,86.8z"/>
				<path class="st3" d="M126.6,86.9h-6.7c-0.2,0-0.4-0.2-0.4-0.4v-0.8c0-0.2,0.2-0.4,0.4-0.4h6.7c0.2,0,0.4,0.2,0.4,0.4v0.8
					C127,86.7,126.9,86.9,126.6,86.9z"/>
				<path class="st3" d="M55.9,86.9h-6.7c-0.2,0-0.4-0.2-0.4-0.4v-0.8c0-0.2,0.2-0.4,0.4-0.4h6.7c0.2,0,0.4,0.2,0.4,0.4v0.8
					C56.3,86.7,56.1,86.9,55.9,86.9z"/>
				<path class="st3" d="M66.8,86.9h-6.7c-0.2,0-0.4-0.2-0.4-0.4v-0.8c0-0.2,0.2-0.4,0.4-0.4h6.7c0.2,0,0.4,0.2,0.4,0.4v0.8
					C67.2,86.7,67,86.9,66.8,86.9z"/>
				<path class="st3" d="M115.8,86.9H109c-0.2,0-0.4-0.2-0.4-0.4v-0.8c0-0.2,0.2-0.4,0.4-0.4h6.7c0.2,0,0.4,0.2,0.4,0.4v0.8
					C116.1,86.7,116,86.9,115.8,86.9z"/>
			</g>
			<g>
				<path class="st3" d="M69.2,108.7H49.4c-0.3,0-0.6-0.3-0.6-0.6v-0.2c0-0.3,0.3-0.6,0.6-0.6h19.7c0.3,0,0.6,0.3,0.6,0.6v0.2
					C69.8,108.5,69.5,108.7,69.2,108.7z"/>
				<path class="st3" d="M90.3,108.8h-6.7c-0.2,0-0.4-0.2-0.4-0.4v-0.8c0-0.2,0.2-0.4,0.4-0.4h6.7c0.2,0,0.4,0.2,0.4,0.4v0.8
					C90.7,108.7,90.5,108.8,90.3,108.8z"/>
				<path class="st3" d="M80.6,108.8h-6.7c-0.2,0-0.4-0.2-0.4-0.4v-0.8c0-0.2,0.2-0.4,0.4-0.4h6.7c0.2,0,0.4,0.2,0.4,0.4v0.8
					C81,108.7,80.8,108.8,80.6,108.8z"/>
			</g>
			<g>
				<path class="st3" d="M107.6,113.2H87.9c-0.3,0-0.6-0.3-0.6-0.6v-0.2c0-0.3,0.3-0.6,0.6-0.6h19.7c0.3,0,0.6,0.3,0.6,0.6v0.2
					C108.3,113,108,113.2,107.6,113.2z"/>
				<path class="st3" d="M62.4,113.2H49.3c-0.3,0-0.5-0.2-0.5-0.5v-0.4c0-0.3,0.2-0.5,0.5-0.5h13.1c0.3,0,0.5,0.2,0.5,0.5v0.4
					C62.9,113,62.7,113.2,62.4,113.2z"/>
				<path class="st3" d="M124,113.2H111c-0.3,0-0.5-0.2-0.5-0.5v-0.4c0-0.3,0.2-0.5,0.5-0.5H124c0.3,0,0.5,0.2,0.5,0.5v0.4
					C124.5,113,124.3,113.2,124,113.2z"/>
				<path class="st3" d="M73.1,113.3h-4.9c-0.7,0-1.3-0.4-1.3-0.8l0,0c0-0.4,0.6-0.8,1.3-0.8h4.9c0.7,0,1.3,0.4,1.3,0.8l0,0
					C74.4,113,73.8,113.3,73.1,113.3z"/>
				<path class="st3" d="M84,113.3h-5.9c-0.4,0-0.8-0.4-0.8-0.8l0,0c0-0.4,0.4-0.8,0.8-0.8H84c0.4,0,0.8,0.4,0.8,0.8l0,0
					C84.8,113,84.4,113.3,84,113.3z"/>
			</g>
			<g>
				<path class="st3" d="M112.7,117.7H93c-0.3,0-0.6-0.3-0.6-0.6v-0.2c0-0.3,0.3-0.6,0.6-0.6h19.7c0.3,0,0.6,0.3,0.6,0.6v0.2
					C113.3,117.5,113,117.7,112.7,117.7z"/>
				<path class="st3" d="M69.2,117.7H49.4c-0.3,0-0.6-0.3-0.6-0.6v-0.2c0-0.3,0.3-0.6,0.6-0.6h19.7c0.3,0,0.6,0.3,0.6,0.6v0.2
					C69.8,117.5,69.5,117.7,69.2,117.7z"/>
				<path class="st3" d="M90.1,117.8h-6.7c-0.2,0-0.4-0.2-0.4-0.4v-0.8c0-0.2,0.2-0.4,0.4-0.4h6.7c0.2,0,0.4,0.2,0.4,0.4v0.8
					C90.5,117.6,90.3,117.8,90.1,117.8z"/>
				<path class="st3" d="M80,117.8h-6.7c-0.2,0-0.4-0.2-0.4-0.4v-0.8c0-0.2,0.2-0.4,0.4-0.4H80c0.2,0,0.4,0.2,0.4,0.4v0.8
					C80.4,117.6,80.2,117.8,80,117.8z"/>
				<path class="st3" d="M121.9,117.8h-4.9c-0.7,0-1.3-0.4-1.3-0.8l0,0c0-0.4,0.6-0.8,1.3-0.8h4.9c0.7,0,1.3,0.4,1.3,0.8l0,0
					C123.1,117.4,122.6,117.8,121.9,117.8z"/>
			</g>
			<g>
				<path class="st3" d="M69.2,77.1H49.4c-0.3,0-0.6-0.3-0.6-0.6v-0.2c0-0.3,0.3-0.6,0.6-0.6h19.7c0.3,0,0.6,0.3,0.6,0.6v0.2
					C69.8,76.8,69.5,77.1,69.2,77.1z"/>
				<path class="st3" d="M127.1,77.1h-19.7c-0.3,0-0.6-0.3-0.6-0.6v-0.2c0-0.3,0.3-0.6,0.6-0.6h19.7c0.3,0,0.6,0.3,0.6,0.6v0.2
					C127.7,76.8,127.4,77.1,127.1,77.1z"/>
				<path class="st3" d="M86,77.1H72.9c-0.3,0-0.5-0.2-0.5-0.5v-0.4c0-0.3,0.2-0.5,0.5-0.5H86c0.3,0,0.5,0.2,0.5,0.5v0.4
					C86.5,76.9,86.2,77.1,86,77.1z"/>
				<path class="st3" d="M139.3,77.2h-6.7c-0.2,0-0.4-0.2-0.4-0.4V76c0-0.2,0.2-0.4,0.4-0.4h6.7c0.2,0,0.4,0.2,0.4,0.4v0.8
					C139.7,77,139.5,77.2,139.3,77.2z"/>
				<path class="st3" d="M90.5,77.1c-0.3,0-0.6-0.2-0.6-0.4v-0.7c0-0.2,0.3-0.4,0.6-0.4h12.8c0.3,0,0.6,0.2,0.6,0.4v0.7
					c0,0.2-0.3,0.4-0.6,0.4"/>
			</g>
			<g>
				<path class="st3" d="M101.9,82H88.8c-0.3,0-0.5-0.2-0.5-0.5V81c0-0.3,0.2-0.5,0.5-0.5h13.1c0.3,0,0.5,0.2,0.5,0.5v0.4
					C102.4,81.8,102.2,82,101.9,82z"/>
				<path class="st3" d="M73.9,82.1h-6.7c-0.2,0-0.4-0.2-0.4-0.4v-0.8c0-0.2,0.2-0.4,0.4-0.4h6.7c0.2,0,0.4,0.2,0.4,0.4v0.8
					C74.3,81.9,74.1,82.1,73.9,82.1z"/>
				<path class="st3" d="M84.3,82.1h-6.7c-0.2,0-0.4-0.2-0.4-0.4v-0.8c0-0.2,0.2-0.4,0.4-0.4h6.7c0.2,0,0.4,0.2,0.4,0.4v0.8
					C84.7,81.9,84.5,82.1,84.3,82.1z"/>
				<path class="st3" d="M112.5,82.1h-4.9c-0.7,0-1.3-0.4-1.3-0.8l0,0c0-0.4,0.6-0.8,1.3-0.8h4.9c0.7,0,1.3,0.4,1.3,0.8l0,0
					C113.8,81.7,113.2,82.1,112.5,82.1z"/>
				<path class="st3" d="M123.2,82.1h-4.9c-0.7,0-1.3-0.4-1.3-0.8l0,0c0-0.4,0.6-0.8,1.3-0.8h4.9c0.7,0,1.3,0.4,1.3,0.8l0,0
					C124.4,81.7,123.8,82.1,123.2,82.1z"/>
				<path class="st3" d="M135,82.1h-5.9c-0.4,0-0.8-0.4-0.8-0.8l0,0c0-0.4,0.4-0.8,0.8-0.8h5.9c0.4,0,0.8,0.4,0.8,0.8l0,0
					C135.8,81.7,135.4,82.1,135,82.1z"/>
				<path class="st3" d="M49.5,82c-0.3,0-0.6-0.2-0.6-0.4v-0.7c0-0.2,0.3-0.4,0.6-0.4h12.8c0.3,0,0.6,0.2,0.6,0.4v0.7
					c0,0.2-0.3,0.4-0.6,0.4"/>
			</g>
			<g>
				<path class="st3" d="M62.4,96.5H49.3c-0.3,0-0.5-0.2-0.5-0.5v-0.4c0-0.3,0.2-0.5,0.5-0.5h13.1c0.3,0,0.5,0.2,0.5,0.5V96
					C62.9,96.3,62.7,96.5,62.4,96.5z"/>
				<path class="st3" d="M72.6,96.6h-6.7c-0.2,0-0.4-0.2-0.4-0.4v-0.8c0-0.2,0.2-0.4,0.4-0.4h6.7c0.2,0,0.4,0.2,0.4,0.4v0.8
					C73,96.4,72.8,96.6,72.6,96.6z"/>
				<path class="st3" d="M82.9,96.6h-4.9c-0.7,0-1.3-0.4-1.3-0.8l0,0c0-0.4,0.6-0.8,1.3-0.8h4.9c0.7,0,1.3,0.4,1.3,0.8l0,0
					C84.1,96.3,83.6,96.6,82.9,96.6z"/>
				<path class="st3" d="M93.5,96.6h-4.9c-0.7,0-1.3-0.4-1.3-0.8l0,0c0-0.4,0.6-0.8,1.3-0.8h4.9c0.7,0,1.3,0.4,1.3,0.8l0,0
					C94.8,96.3,94.2,96.6,93.5,96.6z"/>
				<path class="st3" d="M104.9,96.6h-4.9c-0.7,0-1.3-0.4-1.3-0.8l0,0c0-0.4,0.6-0.8,1.3-0.8h4.9c0.7,0,1.3,0.4,1.3,0.8l0,0
					C106.1,96.3,105.6,96.6,104.9,96.6z"/>
				<path class="st3" d="M117.1,96.6h-6.7c-0.2,0-0.4-0.2-0.4-0.4v-0.8c0-0.2,0.2-0.4,0.4-0.4h6.7c0.2,0,0.4,0.2,0.4,0.4v0.8
					C117.4,96.4,117.3,96.6,117.1,96.6z"/>
			</g>
			<g>
				<path class="st3" d="M85.3,122.2H65.5c-0.3,0-0.6-0.3-0.6-0.6v-0.2c0-0.3,0.3-0.6,0.6-0.6h19.7c0.3,0,0.6,0.3,0.6,0.6v0.2
					C85.9,121.9,85.6,122.2,85.3,122.2z"/>
				<path class="st3" d="M62.4,122.2H49.3c-0.3,0-0.5-0.2-0.5-0.5v-0.4c0-0.3,0.2-0.5,0.5-0.5h13.1c0.3,0,0.5,0.2,0.5,0.5v0.4
					C62.9,122,62.7,122.2,62.4,122.2z"/>
				<path class="st3" d="M105.8,122.3h-6.7c-0.2,0-0.4-0.2-0.4-0.4v-0.8c0-0.2,0.2-0.4,0.4-0.4h6.7c0.2,0,0.4,0.2,0.4,0.4v0.8
					C106.2,122.1,106,122.3,105.8,122.3z"/>
				<path class="st3" d="M94.9,122.3h-6.7c-0.2,0-0.4-0.2-0.4-0.4v-0.8c0-0.2,0.2-0.4,0.4-0.4h6.7c0.2,0,0.4,0.2,0.4,0.4v0.8
					C95.3,122.1,95.1,122.3,94.9,122.3z"/>
			</g>
			<g>
				<path class="st3" d="M101.9,126.7H88.8c-0.3,0-0.5-0.2-0.5-0.5v-0.4c0-0.3,0.2-0.5,0.5-0.5h13.1c0.3,0,0.5,0.2,0.5,0.5v0.4
					C102.4,126.5,102.2,126.7,101.9,126.7z"/>
				<path class="st3" d="M73.9,126.8h-6.7c-0.2,0-0.4-0.2-0.4-0.4v-0.8c0-0.2,0.2-0.4,0.4-0.4h6.7c0.2,0,0.4,0.2,0.4,0.4v0.8
					C74.3,126.6,74.1,126.8,73.9,126.8z"/>
				<path class="st3" d="M84.3,126.8h-6.7c-0.2,0-0.4-0.2-0.4-0.4v-0.8c0-0.2,0.2-0.4,0.4-0.4h6.7c0.2,0,0.4,0.2,0.4,0.4v0.8
					C84.7,126.6,84.5,126.8,84.3,126.8z"/>
				<path class="st3" d="M49.5,126.7c-0.3,0-0.6-0.2-0.6-0.4v-0.7c0-0.2,0.3-0.4,0.6-0.4h12.8c0.3,0,0.6,0.2,0.6,0.4v0.7
					c0,0.2-0.3,0.4-0.6,0.4"/>
			</g>
		</g>
	</g>
</g>
</svg>
