<svg xmlns="http://www.w3.org/2000/svg" width="177.616" height="177.616" viewBox="0 0 177.616 177.616"><defs><style>.a{fill:none;stroke:#707070;}.b{fill:#fca574;}.c{fill:#fff;stroke:#333;stroke-miterlimit:10;stroke-width:0.7px;}</style></defs><g transform="translate(24.632 16.606)"><circle class="a" cx="88.308" cy="88.308" r="88.308" transform="translate(-24.132 -16.106)"/><circle class="b" cx="52.308" cy="52.308" r="52.308" transform="translate(12.257 19.635)"/><g transform="translate(1.868 19.894)"><path class="c" d="M108.4,51.222A17.622,17.622,0,0,0,91.239,64.946H76.857L60.478,48.588H5.781V56.32h51.5L73.658,72.678H91.241A17.594,17.594,0,1,0,108.4,51.222Zm0,27.441a9.854,9.854,0,1,1,9.866-9.853A9.873,9.873,0,0,1,108.4,78.663Z" transform="translate(-0.339 1.28)"/><path class="c" d="M81.885,88.068,64.517,70.714H37.625a17.585,17.585,0,1,0,0,7.73H61.317L78.685,95.8H122.7V88.066H81.885ZM20.472,84.432a9.854,9.854,0,1,1,9.864-9.853A9.873,9.873,0,0,1,20.472,84.432Z" transform="translate(-2.868 8.575)"/><path class="c" d="M95.4,44.514H71.354a17.589,17.589,0,1,0,0,7.73H95.4v-7.73ZM54.2,58.237a9.854,9.854,0,1,1,9.866-9.856A9.874,9.874,0,0,1,54.2,58.237Z" transform="translate(26.414 -14.167)"/><path class="c" d="M73.032,21.9,53.239,41.668H37.625a17.589,17.589,0,1,0,0,7.73H56.439L76.234,29.626H122.7V21.894H73.032Zm-52.56,33.5a9.854,9.854,0,1,1,9.864-9.856A9.875,9.875,0,0,1,20.472,55.392Z" transform="translate(-2.868 -21.894)"/></g></g></svg>