<svg version="1.1" id="Layer_1" xmlns="http://www.w3.org/2000/svg" xmlns:xlink="http://www.w3.org/1999/xlink" x="0px" y="0px"
	 viewBox="0 0 185 185" style="enable-background:new 0 0 185 185;" xml:space="preserve">
<style type="text/css">
	.st0{opacity:0.63;fill:#FFC808;}
	.st1{clip-path:url(#SVGID_2_);}
	.st2{fill:none;stroke:#465867;stroke-width:1.25;stroke-miterlimit:10;}
	.st3{fill:none;stroke:#FF7300;stroke-width:1.5;stroke-miterlimit:10;}
	.st4{fill:#D7E2DE;}
	.st5{fill:none;stroke:#465867;stroke-miterlimit:10;}
	.st6{fill:none;stroke:#465867;stroke-width:0.75;stroke-miterlimit:10;}
	.st7{fill:#465867;}
</style>
<g>
	<path class="st0" d="M110,96.2c10,8.5,10.2,16.4,10.6,28.6c0.4,12.7-5,22.6-24.1,26.4c-14.4,2.8-34.2-5.2-38.3-22.2
		s2.6-29.2,21.9-37.3C89.1,88,98.6,86.6,110,96.2z"/>
	<g>
		<defs>
			<circle id="SVGID_1_" cx="90.7" cy="73.3" r="40"/>
		</defs>
		<clipPath id="SVGID_2_">
			<use xlink:href="#SVGID_1_"  style="overflow:visible;"/>
		</clipPath>
		<g class="st1">
			<g>
				<path class="st2" d="M138.4,69.5l4.9,0.6l1.8-6.3l-4.5-2c0.1-2.1,0-4.2-0.5-6.2l4.1-2.6l-2.7-6l-4.8,1.4
					c-1.2-1.7-2.7-3.2-4.4-4.4l1.5-4.7l-5.9-2.9l-2.9,4.2c-2-0.5-4.1-0.6-6.1-0.5l-2-4.7l-6.4,1.6l0.5,5.2c-1.8,0.9-3.5,2.1-4.9,3.5
					l-4.6-2.4l-3.8,5.3l3.8,3.7c-0.4,0.8-0.7,1.7-0.9,2.6c-0.3,1.1-0.5,2.1-0.6,3.2l-5.1,1.2l0.5,6.6l5.3,0.4
					c0.6,1.9,1.4,3.7,2.5,5.4l-3.1,4.1l4.6,4.7l4.2-3c1.6,1.1,3.5,2,5.5,2.6l0.2,5.1l6.5,0.7l1.3-5c2.1-0.2,4.1-0.7,6-1.5l3.4,3.7
					l5.4-3.7l-2.2-4.5C136.2,73.2,137.5,71.4,138.4,69.5z"/>
				<circle class="st2" cx="120.1" cy="60.4" r="11.6"/>
			</g>
			<g>
				<path class="st2" d="M99,96.8l6.3-0.7l0.3-8.5l-6.3-1.2c-0.5-2.7-1.4-5.3-2.6-7.7l4.3-4.6l-5.2-6.7l-5.6,3.2
					c-2.1-1.7-4.4-3.1-6.9-4.1l0.4-6.4l-8.3-1.8L73,64.6c-2.7,0-5.3,0.5-7.8,1.2l-3.9-5.3l-7.5,4l2.3,6.4c-2,1.7-3.7,3.7-5.1,5.9
					l-6.5-1.5l-3.2,7.9l5.9,3.5c-0.2,1.1-0.3,2.3-0.4,3.5c0,1.4,0,2.8,0.2,4.2l-6,3l2.6,8.1l6.8-1.1c1.3,2.2,2.9,4.3,4.8,6l-2.7,6.2
					l7.2,4.5l4.4-5.1c2.4,0.9,5,1.4,7.6,1.6l1.9,6.3l8.4-1.2l0.1-6.6c2.5-0.9,4.9-2.2,7-3.8l5.4,3.5l5.7-6.3l-4.1-5
					C97.4,102,98.4,99.5,99,96.8z"/>
				<circle class="st2" cx="73.3" cy="91" r="14.9"/>
			</g>
		</g>
	</g>
	<circle class="st3" cx="90.7" cy="73.3" r="40"/>
	<path class="st4" d="M42,116c3.5,5.9,2.3,10.1,0.5,16.7c-1.9,6.9-6.1,11.5-16.1,11c-7.5-0.4-15.9-7.3-15.1-16.9
		c0.8-9.6,6.1-15.3,16.9-17.1C33.1,108.8,38,109.4,42,116z"/>
	<path class="st4" d="M166.8,112.1c6.5,3.5,7.3,7.5,8.7,13.8c1.5,6.5-0.7,12.1-11.1,15.6c-7.9,2.7-19.9,0.3-23.8-8.1
		c-3.9-8.4-1.3-15.2,8.9-21.1C154.2,109.7,159.4,108.2,166.8,112.1z"/>
	<circle class="st5" cx="25.6" cy="123.6" r="16.6"/>
	<circle class="st5" cx="156.5" cy="123.6" r="16.6"/>
	<line class="st5" x1="42.2" y1="123.3" x2="59.7" y2="123.5"/>
	<line class="st5" x1="122.1" y1="123.4" x2="139.9" y2="123.5"/>
	<circle class="st6" cx="90.8" cy="118" r="31.5"/>
	<g>
		<path class="st7" d="M101,126h-7.5v7.3H88V126h-7.4v-5.2H88v-7.3h5.5v7.3h7.5V126z"/>
	</g>
</g>
</svg>
