<?xml version="1.0" encoding="UTF-8" standalone="no"?>
<!-- Created with Inkscape (http://www.inkscape.org/) -->

<svg
   xmlns:dc="http://purl.org/dc/elements/1.1/"
   xmlns:cc="http://creativecommons.org/ns#"
   xmlns:rdf="http://www.w3.org/1999/02/22-rdf-syntax-ns#"
   xmlns:svg="http://www.w3.org/2000/svg"
   xmlns="http://www.w3.org/2000/svg"
   xmlns:sodipodi="http://sodipodi.sourceforge.net/DTD/sodipodi-0.dtd"
   xmlns:inkscape="http://www.inkscape.org/namespaces/inkscape"
   width="115.95155mm"
   height="74.421562mm"
   viewBox="0 0 115.95155 74.421562"
   version="1.1"
   id="svg5789"
   inkscape:version="0.92.2 (unknown)"
   sodipodi:docname="lifecycle.svg">
  <defs
     id="defs5783">
    <path
       transform="scale(0.26458333)"
       id="path5588"
       d="m 1738.3694,290.45336 a 290.37688,290.37688 0 0 1 268.3994,-179.55952 290.37688,290.37688 0 0 1 5.8758,0.0595"
       style="color:#000000;clip-rule:nonzero;display:inline;overflow:visible;visibility:visible;opacity:1;isolation:auto;mix-blend-mode:normal;color-interpolation:sRGB;color-interpolation-filters:linearRGB;solid-color:#000000;solid-opacity:1;vector-effect:none;fill:none;fill-opacity:1;fill-rule:nonzero;stroke:none;stroke-width:6.63282776;stroke-linecap:butt;stroke-linejoin:round;stroke-miterlimit:4;stroke-dasharray:none;stroke-dashoffset:0;stroke-opacity:1;color-rendering:auto;image-rendering:auto;shape-rendering:auto;text-rendering:auto;enable-background:accumulate"
       inkscape:connector-curvature="0" />
    <path
       transform="scale(0.26458333)"
       id="path5578"
       d="m 2103.6746,127.54094 a 290.37688,290.37688 0 0 1 193.3409,265.03704"
       style="color:#000000;clip-rule:nonzero;display:inline;overflow:visible;visibility:visible;opacity:1;isolation:auto;mix-blend-mode:normal;color-interpolation:sRGB;color-interpolation-filters:linearRGB;solid-color:#000000;solid-opacity:1;vector-effect:none;fill:none;fill-opacity:1;fill-rule:nonzero;stroke:none;stroke-width:6.63282776;stroke-linecap:butt;stroke-linejoin:round;stroke-miterlimit:4;stroke-dasharray:none;stroke-dashoffset:0;stroke-opacity:1;color-rendering:auto;image-rendering:auto;shape-rendering:auto;text-rendering:auto;enable-background:accumulate"
       inkscape:connector-curvature="0" />
    <path
       transform="scale(0.26458333)"
       id="path5547"
       d="m 1748.9295,534.82816 a 290.37688,290.37688 0 0 0 257.8393,156.81941 290.37688,290.37688 0 0 0 5.8709,-0.0593"
       style="color:#000000;clip-rule:nonzero;display:inline;overflow:visible;visibility:visible;opacity:1;isolation:auto;mix-blend-mode:normal;color-interpolation:sRGB;color-interpolation-filters:linearRGB;solid-color:#000000;solid-opacity:1;vector-effect:none;fill:none;fill-opacity:1;fill-rule:nonzero;stroke:none;stroke-width:6.63282776;stroke-linecap:butt;stroke-linejoin:round;stroke-miterlimit:4;stroke-dasharray:none;stroke-dashoffset:0;stroke-opacity:1;color-rendering:auto;image-rendering:auto;shape-rendering:auto;text-rendering:auto;enable-background:accumulate"
       inkscape:connector-curvature="0" />
    <path
       transform="scale(0.26458333)"
       id="path5737"
       d="m 1748.9295,534.82816 a 290.37688,290.37688 0 0 0 257.8393,156.81941 290.37688,290.37688 0 0 0 5.8709,-0.0593"
       style="color:#000000;clip-rule:nonzero;display:inline;overflow:visible;visibility:visible;opacity:1;isolation:auto;mix-blend-mode:normal;color-interpolation:sRGB;color-interpolation-filters:linearRGB;solid-color:#000000;solid-opacity:1;vector-effect:none;fill:none;fill-opacity:1;fill-rule:nonzero;stroke:none;stroke-width:6.63282776;stroke-linecap:butt;stroke-linejoin:round;stroke-miterlimit:4;stroke-dasharray:none;stroke-dashoffset:0;stroke-opacity:1;color-rendering:auto;image-rendering:auto;shape-rendering:auto;text-rendering:auto;enable-background:accumulate"
       inkscape:connector-curvature="0" />
  </defs>
  <sodipodi:namedview
     id="base"
     pagecolor="#ffffff"
     bordercolor="#666666"
     borderopacity="1.0"
     inkscape:pageopacity="0.0"
     inkscape:pageshadow="2"
     inkscape:zoom="1.4"
     inkscape:cx="234.87364"
     inkscape:cy="19.359903"
     inkscape:document-units="mm"
     inkscape:current-layer="layer1"
     showgrid="false"
     fit-margin-top="0"
     fit-margin-left="0"
     fit-margin-right="0"
     fit-margin-bottom="0"
     inkscape:window-width="1920"
     inkscape:window-height="993"
     inkscape:window-x="0"
     inkscape:window-y="24"
     inkscape:window-maximized="1" />
  <metadata
     id="metadata5786">
    <rdf:RDF>
      <cc:Work
         rdf:about="">
        <dc:format>image/svg+xml</dc:format>
        <dc:type
           rdf:resource="http://purl.org/dc/dcmitype/StillImage" />
        <dc:title></dc:title>
      </cc:Work>
    </rdf:RDF>
  </metadata>
  <g
     inkscape:label="Layer 1"
     inkscape:groupmode="layer"
     id="layer1"
     transform="translate(40.588866,-132.78922)">
    <g
       id="g5724"
       transform="matrix(0.36604829,0,0,0.36604829,-198.23936,131.1409)">
      <rect
         ry="3.96875"
         y="79.247917"
         x="699.82294"
         height="49.212502"
         width="47.625"
         id="rect5682"
         style="color:#000000;clip-rule:nonzero;display:inline;overflow:visible;visibility:visible;opacity:1;isolation:auto;mix-blend-mode:normal;color-interpolation:sRGB;color-interpolation-filters:linearRGB;solid-color:#000000;solid-opacity:1;vector-effect:none;fill:#000000;fill-opacity:0.98648652;fill-rule:nonzero;stroke:none;stroke-width:1.94336045;stroke-linecap:butt;stroke-linejoin:round;stroke-miterlimit:4;stroke-dasharray:none;stroke-dashoffset:0;stroke-opacity:1;color-rendering:auto;image-rendering:auto;shape-rendering:auto;text-rendering:auto;enable-background:accumulate" />
      <path
         sodipodi:nodetypes="ccccc"
         inkscape:connector-curvature="0"
         id="rect5664"
         d="m 625.6416,79.296967 h 88.73341 L 725.97454,102.5803 H 625.6416 Z"
         style="color:#000000;clip-rule:nonzero;display:inline;overflow:visible;visibility:visible;opacity:1;isolation:auto;mix-blend-mode:normal;color-interpolation:sRGB;color-interpolation-filters:linearRGB;solid-color:#000000;solid-opacity:1;vector-effect:none;fill:#319242;fill-opacity:1;fill-rule:nonzero;stroke:none;stroke-width:2.04130888;stroke-linecap:butt;stroke-linejoin:round;stroke-miterlimit:4;stroke-dasharray:none;stroke-dashoffset:0;stroke-opacity:1;color-rendering:auto;image-rendering:auto;shape-rendering:auto;text-rendering:auto;enable-background:accumulate" />
      <path
         sodipodi:nodetypes="ccccc"
         inkscape:connector-curvature="0"
         id="rect5666"
         d="m 625.6416,102.5803 h 100.33294 l -11.5995,26.19654 H 625.6416 Z"
         style="color:#000000;clip-rule:nonzero;display:inline;overflow:visible;visibility:visible;opacity:1;isolation:auto;mix-blend-mode:normal;color-interpolation:sRGB;color-interpolation-filters:linearRGB;solid-color:#000000;solid-opacity:1;vector-effect:none;fill:#5c5c5c;fill-opacity:1;fill-rule:nonzero;stroke:none;stroke-width:1.48530757;stroke-linecap:butt;stroke-linejoin:round;stroke-miterlimit:4;stroke-dasharray:none;stroke-dashoffset:0;stroke-opacity:1;color-rendering:auto;image-rendering:auto;shape-rendering:auto;text-rendering:auto;enable-background:accumulate" />
      <text
         transform="rotate(90)"
         xml:space="preserve"
         style="font-style:normal;font-weight:normal;font-size:9.87707615px;line-height:125%;font-family:sans-serif;letter-spacing:0px;word-spacing:0px;fill:#ffffff;fill-opacity:1;stroke:none;stroke-width:0.37039036px;stroke-linecap:butt;stroke-linejoin:miter;stroke-opacity:1"
         x="82.704865"
         y="-731.8595"
         id="text5657"><tspan
           sodipodi:role="line"
           id="tspan5655"
           x="82.704865"
           y="-731.8595"
           style="fill:#ffffff;fill-opacity:1;stroke-width:0.37039036px">RETIRED</tspan></text>
      <g
         transform="translate(-295.275,-82.55)"
         inkscape:transform-center-y="-42.305876"
         inkscape:transform-center-x="45.973301"
         id="g5412">
        <path
           inkscape:connector-curvature="0"
           style="color:#000000;clip-rule:nonzero;display:inline;overflow:visible;visibility:visible;opacity:1;isolation:auto;mix-blend-mode:normal;color-interpolation:sRGB;color-interpolation-filters:linearRGB;solid-color:#000000;solid-opacity:1;vector-effect:none;fill:#156aa1;fill-opacity:1;fill-rule:nonzero;stroke:none;stroke-width:0.0456327;stroke-linecap:butt;stroke-linejoin:round;stroke-miterlimit:4;stroke-dasharray:none;stroke-dashoffset:0;stroke-opacity:1;color-rendering:auto;image-rendering:auto;shape-rendering:auto;text-rendering:auto;enable-background:accumulate"
           d="M 827.51641,87.075821 C 771.83609,87.076083 726.62049,131.88146 725.95723,187.40613 l 10.76471,9.48521 11.83081,-9.0962 14.61577,12.21233 12.15896,-11.25382 c -0.17942,-0.80358 -0.1248,-2.12984 -0.17997,-3.12416 2.69489,-33.12413 29.85036,-49.47001 52.3689,-49.35259 0.11818,0.004 0.23632,0.008 0.35448,0.0124 l -10.58333,-12.59148 10.58333,-13.75833 10.05417,-12.170837 -10.05417,-10.675316 c -0.11816,-0.0061 -0.2363,-0.01193 -0.35448,-0.01757 z"
           id="path977"
           sodipodi:nodetypes="ccccccccccccccc" />
        <path
           style="fill:#000000;fill-opacity:0.2657658;fill-rule:evenodd;stroke:none;stroke-width:0.99999994px;stroke-linecap:butt;stroke-linejoin:miter;stroke-opacity:1"
           d="m 3129.5,411.08594 c -165.9056,-2.6e-4 -300.3987,134.49286 -300.3984,300.39844 0.087,7.74709 0.4743,15.4879 1.1601,23.20507 l 3.6802,2.77723 50.6909,37.77941 46.3067,-38.40429 c -1.1559,-8.4046 -1.7769,-16.87411 -1.8594,-25.35742 0.053,-109.15992 88.0891,-194.11422 199.8808,-196.37521 l -40,-47.58964 44.7969,-56.2832 c -1.4189,-0.0602 -2.8382,-0.11033 -4.2578,-0.15039 z"
           id="path5402"
           inkscape:connector-curvature="0"
           sodipodi:nodetypes="ccccccccccc"
           transform="scale(0.26458333)" />
        <path
           style="color:#000000;clip-rule:nonzero;display:inline;overflow:visible;visibility:visible;opacity:1;isolation:auto;mix-blend-mode:normal;color-interpolation:sRGB;color-interpolation-filters:linearRGB;solid-color:#000000;solid-opacity:1;vector-effect:none;fill:#ffffff;fill-opacity:1;fill-rule:nonzero;stroke:#ffffff;stroke-width:0.0456327;stroke-linecap:butt;stroke-linejoin:round;stroke-miterlimit:4;stroke-dasharray:none;stroke-dashoffset:0;stroke-opacity:1;color-rendering:auto;image-rendering:auto;shape-rendering:auto;text-rendering:auto;enable-background:accumulate"
           d="m 827.51662,87.075821 c -1.90846,8e-6 -3.80397,0.05473 -5.68648,0.158647 l 9.92138,10.53424 -10.05417,12.170832 -10.58333,13.75833 10.65641,12.84873 c 1.73212,-0.16968 2.48832,-0.25329 5.74619,-0.26965 0.11819,0.004 0.23635,0.008 0.35452,0.0124 L 817.2878,123.69787 827.87114,109.93954 837.9253,97.768708 827.87114,87.093392 c -0.11817,-0.0061 -0.23633,-0.01193 -0.35452,-0.01757 z"
           id="path987"
           inkscape:connector-curvature="0"
           sodipodi:nodetypes="cccccccccccccc" />
      </g>
      <g
         id="g5510">
        <path
           style="color:#000000;clip-rule:nonzero;display:inline;overflow:visible;visibility:visible;opacity:1;isolation:auto;mix-blend-mode:normal;color-interpolation:sRGB;color-interpolation-filters:linearRGB;solid-color:#000000;solid-opacity:1;vector-effect:none;fill:#209fbc;fill-opacity:1;fill-rule:nonzero;stroke:none;stroke-width:0.17247005;stroke-linecap:butt;stroke-linejoin:round;stroke-miterlimit:4;stroke-dasharray:none;stroke-dashoffset:0;stroke-opacity:1;color-rendering:auto;image-rendering:auto;shape-rendering:auto;text-rendering:auto;enable-background:accumulate"
           d="m 1670.0996,366.82617 -39.8359,38.53516 c -0.019,0.44685 -0.034,0.89487 -0.049,1.34179 2.8179,210.42645 174.433,379.03678 384.3047,378.73438 l 0.027,-0.0312 V 599.1856 c -2.8686,0.27891 -6.4056,0.24864 -9.2305,0.44336 -125.3187,-8.50874 -188.4666,-110.30828 -189.1621,-195.41602 0.01,-0.44682 0.018,-0.89307 0.029,-1.33984 l -47.0488,40.63281 -52.5313,-39.29883 z"
           transform="scale(0.26458333)"
           id="path5414"
           inkscape:connector-curvature="0" />
        <path
           style="fill:#000000;fill-opacity:0.2657658;fill-rule:evenodd;stroke:none;stroke-width:0.99999994px;stroke-linecap:butt;stroke-linejoin:miter;stroke-opacity:1"
           d="m 1712.2559,399.4668 c -0.041,1.41959 -0.073,2.83976 -0.094,4.25976 2.2115,165.21953 137.4056,297.47999 302.3848,296.35352 v -99.97266 c -108.8323,1.04377 -194.6139,-85.71231 -198.3633,-197.23437 l -47.0508,40.63281 z"
           transform="scale(0.26458333)"
           id="path5416"
           inkscape:connector-curvature="0" />
        <path
           sodipodi:nodetypes="cccccccccccccc"
           inkscape:connector-curvature="0"
           id="path5418"
           d="m 431.32744,107.60656 c 0.0255,1.90829 0.10564,3.8029 0.23475,5.68385 l 10.40049,-10.0615 12.30432,9.89036 13.89876,10.39822 12.70494,-10.82744 c -0.19285,-1.72969 -0.28658,-2.4847 -0.34654,-5.74206 0.002,-0.11824 0.005,-0.23644 0.008,-0.35466 l -12.44869,10.75094 -13.89876,-10.39824 -12.30432,-9.890346 -10.53978,10.196156 c -0.005,0.11824 -0.009,0.23646 -0.0128,0.35472 z"
           style="color:#000000;clip-rule:nonzero;display:inline;overflow:visible;visibility:visible;opacity:1;isolation:auto;mix-blend-mode:normal;color-interpolation:sRGB;color-interpolation-filters:linearRGB;solid-color:#000000;solid-opacity:1;vector-effect:none;fill:#ffffff;fill-opacity:1;fill-rule:nonzero;stroke:#ffffff;stroke-width:0.0456327;stroke-linecap:butt;stroke-linejoin:round;stroke-miterlimit:4;stroke-dasharray:none;stroke-dashoffset:0;stroke-opacity:1;color-rendering:auto;image-rendering:auto;shape-rendering:auto;text-rendering:auto;enable-background:accumulate" />
      </g>
      <g
         id="g5529">
        <path
           inkscape:connector-curvature="0"
           style="color:#000000;clip-rule:nonzero;display:inline;overflow:visible;visibility:visible;opacity:1;isolation:auto;mix-blend-mode:normal;color-interpolation:sRGB;color-interpolation-filters:linearRGB;solid-color:#000000;solid-opacity:1;vector-effect:none;fill:#5c5c5c;fill-opacity:1;fill-rule:nonzero;stroke:none;stroke-width:0.0456327;stroke-linecap:butt;stroke-linejoin:round;stroke-miterlimit:4;stroke-dasharray:none;stroke-dashoffset:0;stroke-opacity:1;color-rendering:auto;image-rendering:auto;shape-rendering:auto;text-rendering:auto;enable-background:accumulate"
           d="m 533.5918,207.17521 c 55.67949,-0.30473 100.6494,-45.35669 101.00903,-100.88416 l -10.81642,-9.426202 -11.78089,9.160762 -14.68233,-12.132228 -12.09724,11.320138 c 0.18381,0.80259 0.13644,2.12913 0.19705,3.12313 -2.51372,33.13837 -29.5794,49.6325 -52.09824,49.63822 -0.1182,-0.003 -0.23636,-0.007 -0.35455,-0.0105 l 1.62502,11.97209 -1.48093,14.37732 0.39571,11.85141 -0.27078,10.99441 c 0.11819,0.005 0.23636,0.0106 0.35457,0.0156 z"
           id="path5422"
           sodipodi:nodetypes="ccccccccccccccc" />
        <path
           style="fill:#000000;fill-opacity:0.2657658;fill-rule:evenodd;stroke:none;stroke-width:0.26458332px;stroke-linecap:butt;stroke-linejoin:miter;stroke-opacity:1"
           d="m 536.15174,185.40792 c 42.41375,-1.89906 76.10325,-37.00267 75.86896,-79.83419 -0.0342,-2.04959 -0.1479,-4.09709 -0.34051,-6.137901 l -0.97773,-0.729473 -13.46642,-9.922313 -12.19624,10.22798 c 0.31799,2.222007 0.49455,4.461967 0.52865,6.706357 0.14391,28.88154 -23.02571,51.48607 -52.60022,52.24602 2.96301,11.08072 0.13402,20.44334 0.17263,26.87631 0.005,0.94881 3.00204,-0.36233 3.01083,0.56721 z"
           id="path5424"
           inkscape:connector-curvature="0"
           sodipodi:nodetypes="ccccccccsc" />
        <rect
           style="color:#000000;clip-rule:nonzero;display:inline;overflow:visible;visibility:visible;opacity:1;isolation:auto;mix-blend-mode:normal;color-interpolation:sRGB;color-interpolation-filters:linearRGB;solid-color:#000000;solid-opacity:1;vector-effect:none;fill:#2f2f2f;fill-opacity:1;fill-rule:nonzero;stroke:none;stroke-width:0.05002055;stroke-linecap:butt;stroke-linejoin:round;stroke-miterlimit:4;stroke-dasharray:none;stroke-dashoffset:0;stroke-opacity:1;color-rendering:auto;image-rendering:auto;shape-rendering:auto;text-rendering:auto;enable-background:accumulate"
           id="rect5512"
           width="7.1923342"
           height="49.580479"
           x="530.5733"
           y="157.99036" />
      </g>
      <g
         transform="rotate(90.378431,721.28036,0.46178168)"
         id="g5436"
         inkscape:transform-center-x="-42.521008"
         inkscape:transform-center-y="-45.669698">
        <path
           sodipodi:nodetypes="ccccccccccccccc"
           id="path5430"
           d="M 827.51641,87.075821 C 771.83609,87.076083 727.27136,133.59025 726.6081,189.11492 l 10.60868,-10.12445 11.09884,9.24129 14.8529,11.77571 12.15896,-11.25382 c -0.17942,-0.80358 -0.1248,-2.12984 -0.17997,-3.12416 2.69489,-33.12413 29.85036,-49.47001 52.3689,-49.35259 0.11818,0.004 0.23632,0.008 0.35448,0.0124 l -10.58333,-12.59148 10.58333,-13.75833 10.05417,-12.170837 -10.05417,-10.675316 c -0.11816,-0.0061 -0.2363,-0.01193 -0.35448,-0.01757 z"
           style="color:#000000;clip-rule:nonzero;display:inline;overflow:visible;visibility:visible;opacity:1;isolation:auto;mix-blend-mode:normal;color-interpolation:sRGB;color-interpolation-filters:linearRGB;solid-color:#000000;solid-opacity:1;vector-effect:none;fill:#319242;fill-opacity:1;fill-rule:nonzero;stroke:none;stroke-width:0.0456327;stroke-linecap:butt;stroke-linejoin:round;stroke-miterlimit:4;stroke-dasharray:none;stroke-dashoffset:0;stroke-opacity:1;color-rendering:auto;image-rendering:auto;shape-rendering:auto;text-rendering:auto;enable-background:accumulate"
           inkscape:connector-curvature="0" />
        <path
           transform="scale(0.26458333)"
           sodipodi:nodetypes="ccccccccc"
           inkscape:connector-curvature="0"
           id="path5432"
           d="m 3129.5,411.08594 c -156.627,-2.5e-4 -285.2568,119.86992 -299.1545,272.87539 -1.5782,17.55865 -1.8921,20.67214 -2.0617,27.22355 12.9086,10.24821 35.8583,28.36717 56.1327,44.74887 5.4876,-6.19795 43.1487,-38.57582 45.9551,-42.53412 0.053,-109.15992 86.7976,-196.02947 198.5893,-198.29046 l -40,-47.58964 44.7969,-56.2832 c -1.4189,-0.0602 -2.8382,-0.11033 -4.2578,-0.15039 z"
           style="fill:#000000;fill-opacity:0.2657658;fill-rule:evenodd;stroke:none;stroke-width:0.99999994px;stroke-linecap:butt;stroke-linejoin:miter;stroke-opacity:1" />
        <path
           sodipodi:nodetypes="cccccccccccccc"
           inkscape:connector-curvature="0"
           id="path5434"
           d="m 827.51662,87.075821 c -1.90846,8e-6 -3.80397,0.05473 -5.68648,0.158647 l 9.92138,10.53424 -10.05417,12.170832 -10.58333,13.75833 10.65641,12.84873 c 1.73212,-0.16968 2.48832,-0.25329 5.74619,-0.26965 0.11819,0.004 0.23635,0.008 0.35452,0.0124 L 817.2878,123.69787 827.87114,109.93954 837.9253,97.768708 827.87114,87.093392 c -0.11817,-0.0061 -0.23633,-0.01193 -0.35452,-0.01757 z"
           style="color:#000000;clip-rule:nonzero;display:inline;overflow:visible;visibility:visible;opacity:1;isolation:auto;mix-blend-mode:normal;color-interpolation:sRGB;color-interpolation-filters:linearRGB;solid-color:#000000;solid-opacity:1;vector-effect:none;fill:#ffffff;fill-opacity:1;fill-rule:nonzero;stroke:#ffffff;stroke-width:0.0456327;stroke-linecap:butt;stroke-linejoin:round;stroke-miterlimit:4;stroke-dasharray:none;stroke-dashoffset:0;stroke-opacity:1;color-rendering:auto;image-rendering:auto;shape-rendering:auto;text-rendering:auto;enable-background:accumulate" />
      </g>
      <g
         aria-label="CREATED"
         transform="translate(3.7041666,0.52916663)"
         style="font-style:normal;font-weight:normal;font-size:11.49277878px;line-height:125%;font-family:sans-serif;letter-spacing:0px;word-spacing:0px;fill:#ffffff;fill-opacity:1;stroke:none;stroke-width:0.43097919px;stroke-linecap:butt;stroke-linejoin:miter;stroke-opacity:1"
         id="text5474">
        <path
           d="m 456.04103,66.801138 1.07958,0.51306 q -0.7272,0.288153 -1.24483,0.762884 -0.51522,0.469662 -0.82836,1.128561 -0.61663,1.297525 -0.14847,2.365007 0.46309,1.065073 1.96335,1.778059 1.4952,0.710577 2.61853,0.399439 1.11827,-0.313548 1.73491,-1.611073 0.31313,-0.658899 0.35192,-1.354982 0.0412,-0.701152 -0.19462,-1.446965 l 1.06945,0.508244 q 0.1096,0.710685 0.005,1.400546 -0.10176,0.684793 -0.41972,1.353829 -0.81656,1.718207 -2.33543,2.207948 -1.52394,0.487332 -3.34352,-0.377405 -1.82464,-0.867145 -2.40411,-2.354102 -0.58454,-1.489367 0.23202,-3.207574 0.32278,-0.679173 0.78947,-1.190537 0.46404,-0.51884 1.07441,-0.874939 z"
           style="fill:#ffffff;fill-opacity:1;stroke-width:0.43097919px"
           id="path6466" />
        <path
           d="m 462.60575,63.141044 q 0.2954,-0.247048 0.81861,-0.328772 0.52614,-0.08651 1.31094,-0.01517 l 2.55366,0.210715 -0.63435,1.039466 -2.39298,-0.204695 q -0.93485,-0.08402 -1.3742,0.108051 -0.43642,0.187281 -0.78721,0.7621 l -0.64313,1.053837 3.0226,1.844591 -0.59051,0.967614 -7.15171,-4.364461 1.33301,-2.184315 q 0.74836,-1.226283 1.62924,-1.517053 0.88089,-0.290769 1.91556,0.34066 0.67542,0.412182 0.92796,1.000199 0.25548,0.583226 0.0625,1.287234 z m -4.48261,0.590927 2.53879,1.549339 0.74251,-1.216702 q 0.4268,-0.699364 0.32218,-1.249696 -0.10649,-0.558046 -0.734,-0.940996 -0.62751,-0.38295 -1.16291,-0.216624 -0.53726,0.158612 -0.96406,0.857976 z"
           style="fill:#ffffff;fill-opacity:1;stroke-width:0.43097919px"
           id="path6468" />
        <path
           d="m 461.48055,56.771825 3.1954,-4.225214 0.76089,0.575442 -2.51163,3.32109 1.97833,1.496151 2.4067,-3.182339 0.7609,0.575443 -2.40671,3.182338 2.42145,1.831261 2.57256,-3.401656 0.7609,0.575443 -3.25633,4.30578 z"
           style="fill:#ffffff;fill-opacity:1;stroke-width:0.43097919px"
           id="path6470" />
        <path
           d="m 469.16704,49.127284 2.04111,3.947508 2.07803,-2.274494 z m -1.25595,-0.280936 0.86678,-0.948742 8.33919,3.293807 -0.79487,0.870025 -2.10153,-0.88625 -2.54738,2.788224 1.07199,2.013139 -0.80623,0.882454 z"
           style="fill:#ffffff;fill-opacity:1;stroke-width:0.43097919px"
           id="path6472" />
        <path
           d="m 470.90346,45.616192 5.2365,-4.7763 0.64289,0.704833 -2.19742,2.004307 5.0032,5.485257 -0.84165,0.767687 -5.00321,-5.485257 -2.19742,2.004306 z"
           style="fill:#ffffff;fill-opacity:1;stroke-width:0.43097919px"
           id="path6474" />
        <path
           d="m 477.6188,39.674367 4.22833,-3.191266 0.5747,0.761459 -3.32354,2.508389 1.49421,1.979793 3.18469,-2.403591 0.5747,0.761459 -3.18469,2.403591 1.82889,2.423231 3.40417,-2.56924 0.5747,0.761459 -4.30896,3.252116 z"
           style="fill:#ffffff;fill-opacity:1;stroke-width:0.43097919px"
           id="path6476" />
        <path
           d="m 485.65111,35.075448 3.35989,5.582012 1.17314,-0.706128 q 1.48565,-0.894235 1.76803,-1.981183 0.28719,-1.089842 -0.58679,-2.541838 -0.86819,-1.442381 -1.9628,-1.693952 -1.09269,-0.259274 -2.57834,0.634961 z m -1.4516,-0.213536 1.99529,-1.200996 q 2.08664,-1.255981 3.58646,-0.97322 1.49693,0.277953 2.60821,2.1242 1.11707,1.855863 0.66006,3.316468 -0.45701,1.460605 -2.53404,2.710798 l -1.99529,1.200996 z"
           style="fill:#ffffff;fill-opacity:1;stroke-width:0.43097919px"
           id="path6478" />
      </g>
      <g
         aria-label="PUBLISHED"
         style="font-style:normal;font-weight:normal;font-size:11.49277878px;line-height:125%;font-family:sans-serif;letter-spacing:0px;word-spacing:0px;fill:#ffffff;fill-opacity:1;stroke:none;stroke-width:0.43097919px;stroke-linecap:butt;stroke-linejoin:miter;stroke-opacity:1"
         id="text5478">
        <path
           d="m 561.51926,27.621105 -1.18283,2.917513 1.32094,0.535541 q 0.73328,0.297289 1.28764,0.08 0.55436,-0.217291 0.839,-0.919366 0.28253,-0.696875 0.036,-1.238865 -0.24653,-0.541989 -0.97981,-0.839278 z m -0.70051,-1.289195 2.37145,0.961444 q 1.30534,0.529217 1.73065,1.391959 0.43262,0.859651 -0.0291,1.998573 -0.46597,1.149323 -1.37509,1.464998 -0.90393,0.317784 -2.20927,-0.211432 l -1.32094,-0.535542 -1.26506,3.120334 -1.05051,-0.425903 z"
           style="fill:#ffffff;fill-opacity:1;stroke-width:0.43097919px"
           id="path6481" />
        <path
           d="m 567.86499,29.301093 1.00778,0.531132 -2.37309,4.502745 q -0.62794,1.191465 -0.47337,1.945323 0.15718,0.748895 1.12525,1.259096 0.9631,0.507584 1.66973,0.213946 0.70924,-0.298602 1.33718,-1.490067 l 2.37309,-4.502745 1.00778,0.531132 -2.4385,4.626856 q -0.76399,1.449616 -1.87368,1.809937 -1.10472,0.362937 -2.5047,-0.374892 -1.40493,-0.740445 -1.73493,-1.859527 -0.32503,-1.116465 0.43896,-2.56608 z"
           style="fill:#ffffff;fill-opacity:1;stroke-width:0.43097919px"
           id="path6483" />
        <path
           d="m 574.62904,38.127065 -1.71123,2.548362 1.50945,1.013601 q 0.75938,0.509929 1.33237,0.441805 0.58077,-0.06966 1.01562,-0.717227 0.43798,-0.652232 0.27641,-1.206856 -0.15379,-0.556154 -0.91317,-1.066084 z m 1.92084,-2.860501 -1.40778,2.096458 1.39298,0.935392 q 0.6895,0.463003 1.197,0.432014 0.51528,-0.03252 0.87192,-0.563622 0.3535,-0.526444 0.1886,-1.01571 -0.16024,-0.486138 -0.84974,-0.949141 z m -0.42176,-1.405297 2.40393,1.614254 q 1.07619,0.72266 1.35821,1.560955 0.28202,0.838294 -0.2717,1.662901 -0.42859,0.638255 -0.98016,0.8154 -0.55156,0.177145 -1.19182,-0.1176 0.59405,0.615213 0.65698,1.346939 0.0707,0.730195 -0.40481,1.438332 -0.62568,0.93176 -1.60027,1.014106 -0.97459,0.08235 -2.14395,-0.702882 l -2.49712,-1.676822 z"
           style="fill:#ffffff;fill-opacity:1;stroke-width:0.43097919px"
           id="path6485" />
        <path
           d="m 583.21659,38.833102 0.87824,0.716695 -4.69399,5.752086 3.16082,2.579391 -0.60316,0.739119 -4.03907,-3.296086 z"
           style="fill:#ffffff;fill-opacity:1;stroke-width:0.43097919px"
           id="path6487" />
        <path
           d="m 588.49829,43.319958 0.83081,0.771188 -5.69992,6.140562 -0.83081,-0.771188 z"
           style="fill:#ffffff;fill-opacity:1;stroke-width:0.43097919px"
           id="path6489" />
        <path
           d="m 594.6235,49.897889 -0.80655,0.756057 q -0.21617,-0.68191 -0.49709,-1.203137 -0.28092,-0.521226 -0.64551,-0.910171 -0.63325,-0.675536 -1.24068,-0.798388 -0.6036,-0.118757 -1.08671,0.33411 -0.40532,0.379947 -0.38769,0.817233 0.0256,0.437542 0.53573,1.236146 l 0.36586,0.595434 q 0.69131,1.090308 0.6557,1.946709 -0.0277,0.856658 -0.77282,1.555147 -0.88843,0.832815 -1.90731,0.664907 -1.01503,-0.163813 -2.09347,-1.314272 -0.40681,-0.433981 -0.76909,-1.017388 -0.35845,-0.579314 -0.65727,-1.283745 l 0.85159,-0.798274 q 0.18956,0.768394 0.49913,1.385829 0.30957,0.617436 0.74708,1.08417 0.66395,0.70829 1.30311,0.832167 0.63916,0.123876 1.15503,-0.359693 0.45036,-0.422164 0.44322,-0.938514 -0.003,-0.512256 -0.46741,-1.26173 l -0.3738,-0.59569 q -0.68311,-1.097984 -0.6777,-1.879928 0.005,-0.781944 0.70552,-1.438217 0.81064,-0.759895 1.81084,-0.628323 1.00403,0.135667 1.94431,1.138736 0.40297,0.429887 0.74351,0.949069 0.34054,0.519183 0.62247,1.131756 z"
           style="fill:#ffffff;fill-opacity:1;stroke-width:0.43097919px"
           id="path6491" />
        <path
           d="m 596.8799,52.088838 0.68561,0.902724 -2.73499,2.077193 2.49128,3.280193 2.73498,-2.077193 0.68561,0.902723 -6.67211,5.0674 -0.68561,-0.902723 3.17741,-2.413209 -2.49127,-3.280193 -3.17741,2.413209 -0.68561,-0.902723 z"
           style="fill:#ffffff;fill-opacity:1;stroke-width:0.43097919px"
           id="path6493" />
        <path
           d="m 602.47258,59.777914 2.7516,4.526779 -0.81521,0.49552 -2.1628,-3.558125 -2.11953,1.288353 2.07244,3.40947 -0.8152,0.49552 -2.07244,-3.40947 -2.59427,1.576921 2.21527,3.644441 -0.8152,0.49552 -2.80407,-4.613095 z"
           style="fill:#ffffff;fill-opacity:1;stroke-width:0.43097919px"
           id="path6495" />
        <path
           d="m 606.24398,68.231295 -5.89085,2.7831 0.58491,1.238042 q 0.74072,1.567849 1.79386,1.957821 1.05555,0.395045 2.58788,-0.328896 1.52218,-0.719147 1.88227,-1.783 0.36756,-1.061176 -0.37317,-2.629025 z m 0.35805,-1.422865 0.99482,2.105687 q 1.04036,2.202092 0.6086,3.665988 -0.42668,1.461499 -2.37508,2.382007 -1.95854,0.925303 -3.36595,0.324104 -1.4074,-0.601199 -2.44297,-2.793143 l -0.99482,-2.105687 z"
           style="fill:#ffffff;fill-opacity:1;stroke-width:0.43097919px"
           id="path6497" />
      </g>
      <g
         aria-label="PROTOTYPE"
         transform="translate(-3.7041667,1.0583333)"
         style="font-style:normal;font-weight:normal;font-size:11.49277878px;line-height:125%;font-family:sans-serif;letter-spacing:0px;word-spacing:0px;fill:#ffffff;fill-opacity:1;stroke:none;stroke-width:0.43097919px;stroke-linecap:butt;stroke-linejoin:miter;stroke-opacity:1"
         id="text5482">
        <path
           d="m 470.25037,139.78489 -2.72744,1.57227 0.71186,1.23488 q 0.39517,0.68551 0.96588,0.85527 0.5707,0.16977 1.22704,-0.20858 0.65148,-0.37555 0.79058,-0.9545 0.13911,-0.57894 -0.25606,-1.26445 z m 0.24093,-1.4473 1.27799,2.21696 q 0.70345,1.2203 0.50794,2.1621 -0.18784,0.94386 -1.25256,1.55763 -1.07445,0.61938 -1.98537,0.30891 -0.90811,-0.30562 -1.61156,-1.52592 l -0.71186,-1.23488 -2.91706,1.68156 -0.56612,-0.98207 z"
           style="fill:#ffffff;fill-opacity:1;stroke-width:0.43097919px"
           id="path6523" />
        <path
           d="m 472.27588,149.4416 q 0.11148,0.3686 -0.0184,0.88197 -0.12665,0.51794 -0.49993,1.21197 l -1.19488,2.26669 -0.70761,-0.99105 1.12636,-2.12123 q 0.44375,-0.82709 0.43927,-1.30657 -0.001,-0.47491 -0.39252,-1.02295 l -0.71739,-1.00475 -2.88181,2.05761 -0.6587,-0.92254 6.81861,-4.86849 1.48696,2.08257 q 0.83478,1.16916 0.75698,2.09353 -0.0778,0.92436 -1.06429,1.62871 -0.64395,0.45978 -1.2839,0.46162 -0.6367,0.006 -1.20872,-0.44709 z m 1.21354,-4.3555 -2.42054,1.72827 0.82826,1.16003 q 0.47609,0.66679 1.02339,0.78627 0.55512,0.12079 1.15341,-0.30638 0.59828,-0.42718 0.65514,-0.98492 0.0647,-0.55645 -0.4114,-1.22323 z"
           style="fill:#ffffff;fill-opacity:1;stroke-width:0.43097919px"
           id="path6525" />
        <path
           d="m 479.42937,152.39175 q -0.82434,-0.91905 -1.99655,-0.84762 -1.16847,0.0756 -2.3507,1.136 -1.17806,1.05665 -1.37981,2.21005 -0.198,1.15758 0.62633,2.07663 0.82434,0.91905 1.98906,0.83926 1.16847,-0.0756 2.34652,-1.13225 1.18223,-1.06039 1.38398,-2.21379 0.2055,-1.14923 -0.61883,-2.06828 z m 0.6851,-0.6145 q 1.17655,1.31173 0.99953,2.88771 -0.17284,1.57224 -1.65167,2.89867 -1.47466,1.32268 -3.06054,1.32792 -1.58171,0.001 -2.75826,-1.31024 -1.18029,-1.31591 -1.0112,-2.89232 0.17285,-1.57223 1.65168,-2.89866 1.47883,-1.32643 3.06054,-1.32793 1.58963,-0.001 2.76992,1.31485 z"
           style="fill:#ffffff;fill-opacity:1;stroke-width:0.43097919px"
           id="path6527" />
        <path
           d="m 482.41691,154.56531 5.25795,4.75267 -0.63971,0.70772 -2.20642,-1.99439 -4.97845,5.50774 -0.8451,-0.76389 4.97845,-5.50774 -2.20643,-1.99439 z"
           style="fill:#ffffff;fill-opacity:1;stroke-width:0.43097919px"
           id="path6529" />
        <path
           d="m 490.15215,162.0828 q -0.99727,-0.72776 -2.12907,-0.41437 -1.12727,0.31669 -2.06343,1.59954 -0.93285,1.27832 -0.8906,2.44847 0.0468,1.17346 1.04406,1.90121 0.99727,0.72776 2.12001,0.40776 1.12727,-0.31669 2.06012,-1.59501 0.93616,-1.28285 0.89391,-2.453 -0.0377,-1.16684 -1.035,-1.8946 z m 0.54251,-0.74342 q 1.42338,1.03871 1.57761,2.61708 0.15754,1.57384 -1.01349,3.17854 -1.16772,1.60017 -2.71791,1.93474 -1.54689,0.33004 -2.97027,-0.70867 -1.42791,-1.04201 -1.58998,-2.61916 -0.15754,-1.57384 1.01349,-3.17854 1.17102,-1.6047 2.71791,-1.93474 1.55473,-0.33126 2.98264,0.71075 z"
           style="fill:#ffffff;fill-opacity:1;stroke-width:0.43097919px"
           id="path6531" />
        <path
           d="m 493.52768,163.5895 6.12968,3.55821 -0.47893,0.82505 -2.57224,-1.49315 -3.72724,6.42088 -0.98522,-0.5719 3.72725,-6.42088 -2.57224,-1.49316 z"
           style="fill:#ffffff;fill-opacity:1;stroke-width:0.43097919px"
           id="path6533" />
        <path
           d="m 498.93855,166.773 1.10454,0.51273 0.65651,4.10348 3.54276,-2.15417 1.10454,0.51273 -4.53525,2.73284 -1.67995,3.61901 -1.03328,-0.47964 1.67995,-3.61902 z"
           style="fill:#ffffff;fill-opacity:1;stroke-width:0.43097919px"
           id="path6535" />
        <path
           d="m 506.44807,171.09123 -1.06099,2.964 1.34199,0.48037 q 0.74496,0.26667 1.28985,0.0266 0.54488,-0.24007 0.8002,-0.95333 0.25343,-0.70798 -0.0153,-1.23929 -0.26876,-0.53132 -1.01372,-0.79798 z m -0.7533,-1.25908 2.40924,0.86241 q 1.32613,0.4747 1.78681,1.31909 0.46785,0.841 0.0537,1.99807 -0.41797,1.16763 -1.31324,1.52069 -0.88999,0.35494 -2.21613,-0.11976 l -1.34198,-0.48038 -1.13475,3.17005 -1.06725,-0.38203 z"
           style="fill:#ffffff;fill-opacity:1;stroke-width:0.43097919px"
           id="path6537" />
        <path
           d="m 511.51689,171.85169 5.13123,1.31662 -0.2371,0.92405 -4.03323,-1.03488 -0.61647,2.40254 3.86473,0.99165 -0.23711,0.92406 -3.86473,-0.99165 -0.75454,2.94067 4.13108,1.05999 -0.23711,0.92406 -5.22907,-1.34172 z"
           style="fill:#ffffff;fill-opacity:1;stroke-width:0.43097919px"
           id="path6539" />
      </g>
      <path
         transform="scale(0.26458333)"
         id="path5769"
         d="m 1748.9295,534.82816 a 290.37688,290.37688 0 0 0 257.8393,156.81941 290.37688,290.37688 0 0 0 5.8709,-0.0593"
         style="color:#000000;clip-rule:nonzero;display:inline;overflow:visible;visibility:visible;opacity:1;isolation:auto;mix-blend-mode:normal;color-interpolation:sRGB;color-interpolation-filters:linearRGB;solid-color:#000000;solid-opacity:1;vector-effect:none;fill:none;fill-opacity:1;fill-rule:nonzero;stroke:none;stroke-width:6.63282776;stroke-linecap:butt;stroke-linejoin:round;stroke-miterlimit:4;stroke-dasharray:none;stroke-dashoffset:0;stroke-opacity:1;color-rendering:auto;image-rendering:auto;shape-rendering:auto;text-rendering:auto;enable-background:accumulate"
         inkscape:connector-curvature="0" />
      <path
         transform="scale(0.26458333)"
         id="path5771"
         d="m 2103.6746,127.54094 a 290.37688,290.37688 0 0 1 193.3409,265.03704"
         style="color:#000000;clip-rule:nonzero;display:inline;overflow:visible;visibility:visible;opacity:1;isolation:auto;mix-blend-mode:normal;color-interpolation:sRGB;color-interpolation-filters:linearRGB;solid-color:#000000;solid-opacity:1;vector-effect:none;fill:none;fill-opacity:1;fill-rule:nonzero;stroke:none;stroke-width:6.63282776;stroke-linecap:butt;stroke-linejoin:round;stroke-miterlimit:4;stroke-dasharray:none;stroke-dashoffset:0;stroke-opacity:1;color-rendering:auto;image-rendering:auto;shape-rendering:auto;text-rendering:auto;enable-background:accumulate"
         inkscape:connector-curvature="0" />
      <path
         transform="scale(0.26458333)"
         id="path5773"
         d="m 1738.3694,290.45336 a 290.37688,290.37688 0 0 1 268.3994,-179.55952 290.37688,290.37688 0 0 1 5.8758,0.0595"
         style="color:#000000;clip-rule:nonzero;display:inline;overflow:visible;visibility:visible;opacity:1;isolation:auto;mix-blend-mode:normal;color-interpolation:sRGB;color-interpolation-filters:linearRGB;solid-color:#000000;solid-opacity:1;vector-effect:none;fill:none;fill-opacity:1;fill-rule:nonzero;stroke:none;stroke-width:6.63282776;stroke-linecap:butt;stroke-linejoin:round;stroke-miterlimit:4;stroke-dasharray:none;stroke-dashoffset:0;stroke-opacity:1;color-rendering:auto;image-rendering:auto;shape-rendering:auto;text-rendering:auto;enable-background:accumulate"
         inkscape:connector-curvature="0" />
      <g
         aria-label="MAINTENANCE"
         transform="rotate(-78.005115,534.95746,103.49212)"
         inkscape:transform-center-x="-51.023067"
         inkscape:transform-center-y="50.155054"
         style="font-style:normal;font-weight:normal;font-size:11.49277878px;line-height:125%;font-family:sans-serif;letter-spacing:0px;word-spacing:0px;fill:#ffffff;fill-opacity:1;stroke:none;stroke-width:0.43097919px;stroke-linecap:butt;stroke-linejoin:miter;stroke-opacity:1"
         id="text5609">
        <path
           d="m 470.35711,138.22799 0.87183,1.44674 -3.7798,4.77404 5.99268,-1.10192 0.87183,1.44674 -7.17601,4.32439 -0.5706,-0.94687 6.30124,-3.79724 -6.03692,1.11548 -0.58798,-0.97571 3.80666,-4.81644 -6.30124,3.79725 -0.56771,-0.94207 z"
           style=""
           id="path6500" />
        <path
           d="m 475.92194,148.72528 -4.23914,1.33363 1.88428,2.43742 z m 0.49224,-1.18914 0.78597,1.0167 -4.6756,7.65049 -0.72076,-0.93235 1.23364,-1.91834 -2.30987,-2.98794 -2.1672,0.71073 -0.73106,-0.94566 z"
           style=""
           id="path6502" />
        <path
           d="m 479.63271,151.4673 0.75714,0.84363 -6.23534,5.59608 -0.75714,-0.84363 z"
           style=""
           id="path6504" />
        <path
           d="m 481.43345,153.53201 1.10503,1.05298 -2.1457,7.63696 4.83516,-5.07421 0.79627,0.75875 -5.77973,6.0655 -1.10503,-1.05297 2.14569,-7.63697 -4.83515,5.07422 -0.79627,-0.75876 z"
           style=""
           id="path6506" />
        <path
           d="m 486.19994,158.08267 5.60087,4.3433 -0.58461,0.75387 -2.35032,-1.8226 -4.54963,5.86694 -0.90022,-0.69809 4.54963,-5.86694 -2.35032,-1.8226 z"
           style=""
           id="path6508" />
        <path
           d="m 492.09452,162.57391 4.46948,2.84372 -0.51211,0.80488 -3.51309,-2.23521 -1.33149,2.0927 3.36632,2.14183 -0.51211,0.80488 -3.36632,-2.14182 -1.62971,2.56143 3.59831,2.28943 -0.51211,0.80489 -4.55471,-2.89794 z"
           style=""
           id="path6510" />
        <path
           d="m 497.52541,165.98447 1.36534,0.68242 0.1894,7.93041 3.1336,-6.26952 0.98385,0.49174 -3.74577,7.49431 -1.36534,-0.68241 -0.1894,-7.93041 -3.1336,6.26952 -0.98385,-0.49174 z"
           style=""
           id="path6512" />
        <path
           d="m 506.69108,171.36894 -2.89594,3.37083 2.88716,1.07508 z m -0.20982,-1.26978 1.20429,0.44845 0.0687,8.96585 -1.10438,-0.41124 0.0348,-2.2805 -3.53927,-1.31791 -1.46523,1.74785 -1.12016,-0.41711 z"
           style=""
           id="path6514" />
        <path
           d="m 510.9999,171.72515 1.47921,0.37654 1.87105,7.70886 1.72908,-6.7924 1.0659,0.27134 -2.06687,8.11933 -1.47921,-0.37655 -1.87105,-7.70885 -1.72908,6.7924 -1.0659,-0.27134 z"
           style=""
           id="path6516" />
        <path
           d="m 524.59637,175.05636 -0.16779,1.18346 q -0.49189,-0.60818 -1.09938,-0.9607 -0.60194,-0.35173 -1.32424,-0.45413 -1.42237,-0.20166 -2.30168,0.56352 -0.87852,0.75963 -1.11169,2.40425 -0.23238,1.63906 0.39958,2.6185 0.63275,0.97389 2.05512,1.17555 0.7223,0.10241 1.39828,-0.0681 0.68154,-0.16976 1.3231,-0.61725 l -0.16621,1.17235 q -0.64567,0.31654 -1.33521,0.42282 -0.68398,0.10707 -1.4174,0.003 -1.88353,-0.26704 -2.80392,-1.57077 -0.9196,-1.30929 -0.6368,-3.30394 0.28359,-2.00021 1.53009,-2.99673 1.2473,-1.00207 3.13083,-0.73503 0.74453,0.10556 1.37179,0.39853 0.63362,0.28821 1.15553,0.76462 z"
           style=""
           id="path6518" />
        <path
           d="m 525.61912,174.45839 5.29295,0.21839 -0.0393,0.95318 -4.16035,-0.17166 -0.10225,2.47827 3.98653,0.16448 -0.0393,0.95318 -3.98653,-0.16448 -0.12516,3.03335 4.26128,0.17582 -0.0393,0.95318 -5.39388,-0.22255 z"
           style=""
           id="path6520" />
      </g>
      <text
         id="text5629"
         y="106.90188"
         x="643.14221"
         style="font-style:normal;font-weight:normal;font-size:10.96589088px;line-height:125%;font-family:sans-serif;letter-spacing:0px;word-spacing:0px;fill:#f6f6f6;fill-opacity:1;stroke:none;stroke-width:0.41122091px;stroke-linecap:butt;stroke-linejoin:miter;stroke-opacity:1"
         xml:space="preserve"><tspan
           style="fill:#f6f6f6;fill-opacity:1;stroke-width:0.41122091px"
           y="106.90188"
           x="643.14221"
           id="tspan5627"
           sodipodi:role="line">DEPRECATED</tspan></text>
      <path
         sodipodi:nodetypes="ccccccc"
         inkscape:connector-curvature="0"
         id="path5676"
         d="m 708.48208,79.414903 11.6222,23.761237 -12.53495,25.63115 6.80571,-0.0305 11.5995,-26.19654 -11.59955,-23.283335 z"
         style="fill:#f4f8f5;fill-opacity:1;fill-rule:evenodd;stroke:none;stroke-width:0.26458332px;stroke-linecap:butt;stroke-linejoin:miter;stroke-opacity:1" />
      <path
         style="fill:#ffffff;fill-opacity:0.98648652;fill-rule:evenodd;stroke:none;stroke-width:0.13958649px;stroke-linecap:butt;stroke-linejoin:miter;stroke-opacity:1"
         d="m 630.35327,79.38601 10.91278,13.427644 -9.87659,9.919926 2.55717,3.74447 14.036,-13.993908 -11.60108,-13.154053 z"
         id="path5678"
         inkscape:connector-curvature="0"
         sodipodi:nodetypes="ccccccc" />
      <path
         sodipodi:nodetypes="ccccccc"
         inkscape:connector-curvature="0"
         id="path5680"
         d="m 631.94078,128.99156 10.91278,-13.42764 -9.87659,-9.91993 2.55717,-3.74447 14.036,13.99391 -11.60108,13.15405 z"
         style="fill:#ffffff;fill-opacity:0.98648652;fill-rule:evenodd;stroke:none;stroke-width:0.13958649px;stroke-linecap:butt;stroke-linejoin:miter;stroke-opacity:1" />
    </g>
  </g>
</svg>
