<?xml version="1.0" encoding="UTF-8" standalone="no"?>
<!-- Created with Inkscape (http://www.inkscape.org/) -->

<svg
   xmlns:dc="http://purl.org/dc/elements/1.1/"
   xmlns:cc="http://creativecommons.org/ns#"
   xmlns:rdf="http://www.w3.org/1999/02/22-rdf-syntax-ns#"
   xmlns:svg="http://www.w3.org/2000/svg"
   xmlns="http://www.w3.org/2000/svg"
   xmlns:sodipodi="http://sodipodi.sourceforge.net/DTD/sodipodi-0.dtd"
   xmlns:inkscape="http://www.inkscape.org/namespaces/inkscape"
   width="74.113937mm"
   height="7.6295605mm"
   viewBox="0 0 74.113937 7.6295607"
   version="1.1"
   id="svg8"
   inkscape:version="0.92.2 5c3e80d, 2017-08-06"
   sodipodi:docname="logo.svg"
   inkscape:export-filename="/Users/chanakajayasena/Documents/C5/design/prototype/05.png"
   inkscape:export-xdpi="89.941704"
   inkscape:export-ydpi="89.941704">
  <defs
     id="defs2" />
  <sodipodi:namedview
     id="base"
     pagecolor="#949494"
     bordercolor="#666666"
     borderopacity="1.0"
     inkscape:pageopacity="0"
     inkscape:pageshadow="2"
     inkscape:zoom="2"
     inkscape:cx="136.37213"
     inkscape:cy="5.4060295"
     inkscape:document-units="px"
     inkscape:current-layer="layer11"
     showgrid="false"
     inkscape:window-width="1440"
     inkscape:window-height="807"
     inkscape:window-x="1680"
     inkscape:window-y="151"
     inkscape:window-maximized="1"
     fit-margin-top="0"
     fit-margin-left="0"
     fit-margin-right="0"
     fit-margin-bottom="0"
     showguides="true"
     inkscape:guide-bbox="true"
     gridtolerance="1"
     objecttolerance="1"
     guidetolerance="1">
    <sodipodi:guide
       position="489.61781,-49.477228"
       orientation="1,0"
       id="guide15243"
       inkscape:locked="false" />
  </sodipodi:namedview>
  <metadata
     id="metadata5">
    <rdf:RDF>
      <cc:Work
         rdf:about="">
        <dc:format>image/svg+xml</dc:format>
        <dc:type
           rdf:resource="http://purl.org/dc/dcmitype/StillImage" />
        <dc:title />
      </cc:Work>
    </rdf:RDF>
  </metadata>
  <g
     inkscape:groupmode="layer"
     id="layer11"
     inkscape:label="save"
     transform="translate(-32.140527,93.411186)">
    <g
       inkscape:export-ydpi="90"
       inkscape:export-xdpi="90"
       inkscape:export-filename="tmp.png"
       transform="matrix(0.40961884,0,0,0.40961884,-126.75226,-278.3033)"
       id="g13654"
       style="display:inline">
      <path
         id="path13644"
         d="m 422.376,465.642 c 3.662,0 6.655,-2.989 6.655,-6.657 0,-3.664 -2.993,-6.65 -6.655,-6.65 -3.67,0 -6.656,2.986 -6.656,6.65 0,3.667 2.986,6.657 6.656,6.657 z"
         inkscape:connector-curvature="0"
         style="clip-rule:evenodd;fill:#f47b20;fill-rule:evenodd" />
      <polyline
         id="polyline13646"
         points="415.793,459.825     420.198,459.838 422.402,454.935 425.154,461.643 426.599,459.037 429.021,459.031   "
         style="clip-rule:evenodd;fill:none;stroke:#000000;stroke-width:0.71950001;stroke-opacity:1" />
      <path
         id="path13648"
         d="m 406.561,452.271 h 0.559 l -0.559,1.396 z m 0,11.806 c 0.248,0.437 0.554,0.812 0.925,1.11 0.724,0.61 1.646,0.912 2.76,0.912 1.185,0 2.184,-0.409 3.021,-1.215 0.827,-0.808 1.241,-1.794 1.241,-2.969 0,-1.046 -0.334,-1.844 -1,-2.385 -0.668,-0.547 -1.379,-0.986 -2.138,-1.329 l -0.39,-0.183 -0.366,-0.162 c -0.693,-0.355 -1.263,-0.688 -1.715,-0.994 -0.446,-0.318 -0.673,-0.772 -0.673,-1.37 0,-0.601 0.227,-1.084 0.686,-1.46 0.455,-0.376 1.009,-0.564 1.659,-0.564 0.425,0 0.782,0.085 1.084,0.249 0.297,0.168 0.582,0.427 0.853,0.792 l 0.143,0.227 c 0.045,0.032 0.099,0.096 0.166,0.202 l 1.203,-0.772 c -0.396,-0.697 -0.886,-1.218 -1.481,-1.584 -0.591,-0.355 -1.227,-0.534 -1.902,-0.534 -1.16,0 -2.103,0.321 -2.831,0.978 -0.738,0.654 -1.104,1.484 -1.104,2.51 0,0.965 0.334,1.706 0.999,2.232 0.663,0.527 1.379,0.952 2.141,1.296 l 0.247,0.121 0.242,0.102 c 0.734,0.365 1.356,0.73 1.875,1.079 0.517,0.357 0.773,0.881 0.773,1.575 0,0.784 -0.26,1.441 -0.782,1.965 -0.526,0.523 -1.188,0.787 -1.989,0.787 -0.706,0 -1.292,-0.217 -1.753,-0.654 -0.467,-0.435 -0.789,-1.059 -0.979,-1.874 l -0.913,0.277 v 1.635 z m -13.371,-1.628 4.259,-10.893 4.021,10.913 3.997,-10.198 h 1.093 v 1.396 l -5.136,12.908 -4.015,-10.898 -4.285,10.884 -5.22,-14.29 h 1.651 z m 13.371,-0.008 -0.56,0.169 c 0.13,0.551 0.318,1.042 0.56,1.467 z"
         inkscape:connector-curvature="0"
         style="fill:#f47b20" />
      <path
         id="path13650"
         d="m 422.406,451.376 c 2.174,0.022 3.996,0.765 5.47,2.216 1.493,1.488 2.238,3.311 2.238,5.474 0,2.146 -0.742,3.967 -2.234,5.456 -1.495,1.496 -3.309,2.239 -5.454,2.239 -0.007,0 -0.014,0 -0.02,0 v -1.426 c 1.124,0 2.165,-0.275 3.121,-0.823 0.968,-0.554 1.721,-1.308 2.263,-2.261 0.54,-0.953 0.813,-2.02 0.813,-3.186 0,-1.163 -0.273,-2.216 -0.813,-3.151 -0.542,-0.941 -1.304,-1.692 -2.284,-2.26 -0.976,-0.558 -2.008,-0.84 -3.1,-0.84 z m -0.099,0 c 0.032,0 0.069,0 0.1,0 v 1.438 c -0.011,0 -0.018,0 -0.03,0 -1.086,0 -2.107,0.274 -3.077,0.84 -0.972,0.567 -1.725,1.329 -2.273,2.285 -0.539,0.958 -0.813,2.023 -0.813,3.189 0,1.747 0.601,3.214 1.806,4.412 1.203,1.2 2.659,1.794 4.357,1.794 0.013,0 0.02,0 0.03,0 v 1.426 c -2.159,-0.005 -3.987,-0.746 -5.477,-2.232 -1.49,-1.482 -2.242,-3.282 -2.242,-5.399 0,-1.4 0.343,-2.71 1.021,-3.906 0.679,-1.204 1.609,-2.141 2.783,-2.825 1.179,-0.682 2.446,-1.022 3.815,-1.022 z"
         inkscape:connector-curvature="0"
         style="fill:#ffffff;fill-opacity:1" />
      <path
         id="path13652"
         d="m 430.629,458.597 c 0.341,-0.1 0.706,-0.15 1.098,-0.15 1.033,0 1.872,0.338 2.513,1.008 0.64,0.668 0.963,1.453 0.963,2.363 0,0.639 -0.152,1.238 -0.459,1.799 -0.308,0.556 -0.904,1.322 -1.787,2.271 l -2.801,3.028 h 5.2 v 1.086 h -7.65 l 4.303,-4.652 c 0.877,-0.934 1.441,-1.623 1.708,-2.082 0.261,-0.445 0.393,-0.924 0.393,-1.426 0,-0.63 -0.239,-1.174 -0.711,-1.632 -0.472,-0.454 -1.051,-0.686 -1.738,-0.686 -0.388,0 -0.746,0.068 -1.064,0.211 0.027,-0.273 0.041,-0.55 0.041,-0.827 -0.002,-0.104 -0.004,-0.209 -0.009,-0.311 z"
         inkscape:connector-curvature="0"
         style="fill:#ffffff;fill-opacity:1" />
    </g>
    <g
       aria-label="APIM ADMIN PORTAL"
       style="font-style:normal;font-variant:normal;font-weight:bold;font-stretch:normal;font-size:5.08131409px;line-height:1.25;font-family:'Open Sans';-inkscape-font-specification:'Open Sans, Bold';font-variant-ligatures:normal;font-variant-caps:normal;font-variant-numeric:normal;font-feature-settings:normal;text-align:start;letter-spacing:0px;word-spacing:0px;writing-mode:lr-tb;text-anchor:start;fill:#ffffff;fill-opacity:1;stroke:none;stroke-width:0.34645325"
       id="text843"
       transform="matrix(1,0,0,1.1062848,0,9.3773944)">
      <path
         d="m 55.490946,-88.278549 -0.262998,-0.863427 h -1.322432 l -0.262998,0.863427 h -0.82869 l 1.280252,-3.64227 h 0.940341 l 1.285216,3.64227 z m -0.4466,-1.508515 q -0.364723,-1.173566 -0.411865,-1.327394 -0.04466,-0.153829 -0.06451,-0.243149 -0.08188,0.317582 -0.46893,1.570543 z"
         style="font-style:normal;font-variant:normal;font-weight:bold;font-stretch:normal;font-size:5.08131409px;font-family:'Open Sans';-inkscape-font-specification:'Open Sans, Bold';font-variant-ligatures:normal;font-variant-caps:normal;font-variant-numeric:normal;font-feature-settings:normal;text-align:start;writing-mode:lr-tb;text-anchor:start;fill:#ffffff;fill-opacity:1;stroke-width:0.34645325"
         id="path828"
         inkscape:connector-curvature="0" />
      <path
         d="m 57.542824,-90.198929 h 0.253073 q 0.354799,0 0.530958,-0.138942 0.176159,-0.141423 0.176159,-0.409383 0,-0.270441 -0.148867,-0.399459 -0.146386,-0.129018 -0.461487,-0.129018 h -0.349836 z m 1.736777,-0.575617 q 0,0.585542 -0.367204,0.895681 -0.364723,0.310138 -1.039585,0.310138 h -0.329988 v 1.290178 H 56.77368 v -3.627384 h 1.158678 q 0.659976,0 1.002369,0.285328 0.344874,0.282847 0.344874,0.846059 z"
         style="font-style:normal;font-variant:normal;font-weight:bold;font-stretch:normal;font-size:5.08131409px;font-family:'Open Sans';-inkscape-font-specification:'Open Sans, Bold';font-variant-ligatures:normal;font-variant-caps:normal;font-variant-numeric:normal;font-feature-settings:normal;text-align:start;writing-mode:lr-tb;text-anchor:start;fill:#ffffff;fill-opacity:1;stroke-width:0.34645325"
         id="path830"
         inkscape:connector-curvature="0" />
      <path
         d="m 59.96935,-88.278549 v -3.627384 h 0.769144 v 3.627384 z"
         style="font-style:normal;font-variant:normal;font-weight:bold;font-stretch:normal;font-size:5.08131409px;font-family:'Open Sans';-inkscape-font-specification:'Open Sans, Bold';font-variant-ligatures:normal;font-variant-caps:normal;font-variant-numeric:normal;font-feature-settings:normal;text-align:start;writing-mode:lr-tb;text-anchor:start;fill:#ffffff;fill-opacity:1;stroke-width:0.34645325"
         id="path832"
         inkscape:connector-curvature="0" />
      <path
         d="m 63.192312,-88.278549 -0.87335,-2.845834 h -0.02233 q 0.04714,0.868389 0.04714,1.158679 v 1.687155 h -0.687268 v -3.627384 h 1.047029 l 0.858464,2.773882 h 0.01489 l 0.910568,-2.773882 h 1.047029 v 3.627384 H 64.81744 v -1.716929 q 0,-0.121574 0.0025,-0.280365 0.005,-0.158791 0.03474,-0.843578 h -0.02233 l -0.935378,2.840872 z"
         style="font-style:normal;font-variant:normal;font-weight:bold;font-stretch:normal;font-size:5.08131409px;font-family:'Open Sans';-inkscape-font-specification:'Open Sans, Bold';font-variant-ligatures:normal;font-variant-caps:normal;font-variant-numeric:normal;font-feature-settings:normal;text-align:start;writing-mode:lr-tb;text-anchor:start;fill:#ffffff;fill-opacity:1;stroke-width:0.34645325"
         id="path834"
         inkscape:connector-curvature="0" />
      <path
         d="m 69.990555,-88.278549 -0.262998,-0.863427 h -1.322432 l -0.262998,0.863427 h -0.82869 l 1.280252,-3.64227 h 0.940341 l 1.285215,3.64227 z m -0.4466,-1.508515 q -0.364723,-1.173566 -0.411865,-1.327394 -0.04466,-0.153829 -0.06451,-0.243149 -0.08188,0.317582 -0.46893,1.570543 z"
         style="font-style:normal;font-variant:normal;font-weight:bold;font-stretch:normal;font-size:5.08131409px;font-family:'Open Sans';-inkscape-font-specification:'Open Sans, Bold';font-variant-ligatures:normal;font-variant-caps:normal;font-variant-numeric:normal;font-feature-settings:normal;text-align:start;writing-mode:lr-tb;text-anchor:start;fill:#ffffff;fill-opacity:1;stroke-width:0.34645325"
         id="path836"
         inkscape:connector-curvature="0" />
      <path
         d="m 74.282876,-90.126976 q 0,0.89568 -0.511109,1.372054 -0.508627,0.476373 -1.471298,0.476373 h -1.02718 v -3.627384 h 1.13883 q 0.888237,0 1.379497,0.46893 0.49126,0.46893 0.49126,1.310027 z m -0.798917,0.01985 q 0,-1.168603 -1.032142,-1.168603 h -0.409384 v 2.362018 h 0.329988 q 1.111538,0 1.111538,-1.193415 z"
         style="font-style:normal;font-variant:normal;font-weight:bold;font-stretch:normal;font-size:5.08131409px;font-family:'Open Sans';-inkscape-font-specification:'Open Sans, Bold';font-variant-ligatures:normal;font-variant-caps:normal;font-variant-numeric:normal;font-feature-settings:normal;text-align:start;writing-mode:lr-tb;text-anchor:start;fill:#ffffff;fill-opacity:1;stroke-width:0.34645325"
         id="path838"
         inkscape:connector-curvature="0" />
      <path
         d="m 76.570459,-88.278549 -0.873351,-2.845834 h -0.02233 q 0.04714,0.868389 0.04714,1.158679 v 1.687155 H 75.03465 v -3.627384 h 1.047029 l 0.858464,2.773882 h 0.01489 l 0.910567,-2.773882 h 1.047029 v 3.627384 h -0.717041 v -1.716929 q 0,-0.121574 0.0025,-0.280365 0.005,-0.158791 0.03474,-0.843578 h -0.02233 l -0.935379,2.840872 z"
         style="font-style:normal;font-variant:normal;font-weight:bold;font-stretch:normal;font-size:5.08131409px;font-family:'Open Sans';-inkscape-font-specification:'Open Sans, Bold';font-variant-ligatures:normal;font-variant-caps:normal;font-variant-numeric:normal;font-feature-settings:normal;text-align:start;writing-mode:lr-tb;text-anchor:start;fill:#ffffff;fill-opacity:1;stroke-width:0.34645325"
         id="path840"
         inkscape:connector-curvature="0" />
      <path
         d="m 79.828158,-88.278549 v -3.627384 h 0.769144 v 3.627384 z"
         style="font-style:normal;font-variant:normal;font-weight:bold;font-stretch:normal;font-size:5.08131409px;font-family:'Open Sans';-inkscape-font-specification:'Open Sans, Bold';font-variant-ligatures:normal;font-variant-caps:normal;font-variant-numeric:normal;font-feature-settings:normal;text-align:start;writing-mode:lr-tb;text-anchor:start;fill:#ffffff;fill-opacity:1;stroke-width:0.34645325"
         id="path842"
         inkscape:connector-curvature="0" />
      <path
         d="m 84.733313,-88.278549 h -0.977558 l -1.577986,-2.744108 h -0.02233 q 0.04714,0.726965 0.04714,1.037104 v 1.707004 h -0.687267 v -3.627384 h 0.970114 l 1.575505,2.716816 h 0.01737 q -0.03722,-0.707116 -0.03722,-0.999887 v -1.716929 h 0.69223 z"
         style="font-style:normal;font-variant:normal;font-weight:bold;font-stretch:normal;font-size:5.08131409px;font-family:'Open Sans';-inkscape-font-specification:'Open Sans, Bold';font-variant-ligatures:normal;font-variant-caps:normal;font-variant-numeric:normal;font-feature-settings:normal;text-align:start;writing-mode:lr-tb;text-anchor:start;fill:#ffffff;fill-opacity:1;stroke-width:0.34645325"
         id="path844"
         inkscape:connector-curvature="0" />
      <path
         d="m 87.732974,-90.198929 h 0.253073 q 0.354799,0 0.530958,-0.138942 0.176158,-0.141423 0.176158,-0.409383 0,-0.270441 -0.148866,-0.399459 -0.146386,-0.129018 -0.461487,-0.129018 h -0.349836 z m 1.736777,-0.575617 q 0,0.585542 -0.367204,0.895681 -0.364724,0.310138 -1.039586,0.310138 h -0.329987 v 1.290178 h -0.769145 v -3.627384 h 1.158679 q 0.659975,0 1.002369,0.285328 0.344874,0.282847 0.344874,0.846059 z"
         style="font-style:normal;font-variant:normal;font-weight:bold;font-stretch:normal;font-size:5.08131409px;font-family:'Open Sans';-inkscape-font-specification:'Open Sans, Bold';font-variant-ligatures:normal;font-variant-caps:normal;font-variant-numeric:normal;font-feature-settings:normal;text-align:start;writing-mode:lr-tb;text-anchor:start;fill:#ffffff;fill-opacity:1;stroke-width:0.34645325"
         id="path846"
         inkscape:connector-curvature="0" />
      <path
         d="m 93.451934,-90.097203 q 0,0.900643 -0.4466,1.384459 -0.4466,0.483817 -1.280253,0.483817 -0.833653,0 -1.280253,-0.483817 -0.4466,-0.483816 -0.4466,-1.389421 0,-0.905606 0.4466,-1.381979 0.449081,-0.478854 1.285215,-0.478854 0.836135,0 1.277772,0.481335 0.444119,0.481336 0.444119,1.38446 z m -2.647345,0 q 0,0.607872 0.230744,0.91553 0.230743,0.307657 0.689748,0.307657 0.920492,0 0.920492,-1.223187 0,-1.225669 -0.91553,-1.225669 -0.459005,0 -0.692229,0.310139 -0.233225,0.307658 -0.233225,0.91553 z"
         style="font-style:normal;font-variant:normal;font-weight:bold;font-stretch:normal;font-size:5.08131409px;font-family:'Open Sans';-inkscape-font-specification:'Open Sans, Bold';font-variant-ligatures:normal;font-variant-caps:normal;font-variant-numeric:normal;font-feature-settings:normal;text-align:start;writing-mode:lr-tb;text-anchor:start;fill:#ffffff;fill-opacity:1;stroke-width:0.34645325"
         id="path848"
         inkscape:connector-curvature="0" />
      <path
         d="m 94.977816,-90.295692 h 0.248111 q 0.364723,0 0.538401,-0.121574 0.173678,-0.121575 0.173678,-0.382091 0,-0.258036 -0.17864,-0.367205 -0.176159,-0.109169 -0.548325,-0.109169 h -0.233225 z m 0,0.62524 v 1.391903 h -0.769144 v -3.627384 h 1.056953 q 0.739371,0 1.09417,0.270441 0.354798,0.26796 0.354798,0.816286 0,0.320063 -0.176158,0.570655 -0.176159,0.248111 -0.498704,0.389534 0.818767,1.223188 1.066878,1.580468 h -0.853502 l -0.865908,-1.391903 z"
         style="font-style:normal;font-variant:normal;font-weight:bold;font-stretch:normal;font-size:5.08131409px;font-family:'Open Sans';-inkscape-font-specification:'Open Sans, Bold';font-variant-ligatures:normal;font-variant-caps:normal;font-variant-numeric:normal;font-feature-settings:normal;text-align:start;writing-mode:lr-tb;text-anchor:start;fill:#ffffff;fill-opacity:1;stroke-width:0.34645325"
         id="path850"
         inkscape:connector-curvature="0" />
      <path
         d="m 98.96248,-88.278549 h -0.769144 v -2.987257 h -0.985001 v -0.640127 h 2.739146 v 0.640127 H 98.96248 Z"
         style="font-style:normal;font-variant:normal;font-weight:bold;font-stretch:normal;font-size:5.08131409px;font-family:'Open Sans';-inkscape-font-specification:'Open Sans, Bold';font-variant-ligatures:normal;font-variant-caps:normal;font-variant-numeric:normal;font-feature-settings:normal;text-align:start;writing-mode:lr-tb;text-anchor:start;fill:#ffffff;fill-opacity:1;stroke-width:0.34645325"
         id="path852"
         inkscape:connector-curvature="0" />
      <path
         d="m 102.73129,-88.278549 -0.263,-0.863427 h -1.32243 l -0.263,0.863427 h -0.82869 l 1.28025,-3.64227 h 0.94034 l 1.28522,3.64227 z m -0.4466,-1.508515 q -0.36473,-1.173566 -0.41187,-1.327394 -0.0447,-0.153829 -0.0645,-0.243149 -0.0819,0.317582 -0.46893,1.570543 z"
         style="font-style:normal;font-variant:normal;font-weight:bold;font-stretch:normal;font-size:5.08131409px;font-family:'Open Sans';-inkscape-font-specification:'Open Sans, Bold';font-variant-ligatures:normal;font-variant-caps:normal;font-variant-numeric:normal;font-feature-settings:normal;text-align:start;writing-mode:lr-tb;text-anchor:start;fill:#ffffff;fill-opacity:1;stroke-width:0.34645325"
         id="path854"
         inkscape:connector-curvature="0" />
      <path
         d="m 104.01402,-88.278549 v -3.627384 h 0.76914 v 2.99222 h 1.4713 v 0.635164 z"
         style="font-style:normal;font-variant:normal;font-weight:bold;font-stretch:normal;font-size:5.08131409px;font-family:'Open Sans';-inkscape-font-specification:'Open Sans, Bold';font-variant-ligatures:normal;font-variant-caps:normal;font-variant-numeric:normal;font-feature-settings:normal;text-align:start;writing-mode:lr-tb;text-anchor:start;fill:#ffffff;fill-opacity:1;stroke-width:0.34645325"
         id="path856"
         inkscape:connector-curvature="0" />
    </g>
  </g>
  <style
     type="text/css"
     id="style4833">
	.st0{display:none;fill:#FFFFFF;stroke:#1D56A0;stroke-width:0.75;}
	.st1{fill:#FFFFFF;stroke:#1D56A0;stroke-width:0.75;stroke-miterlimit:10;}
	.st2{fill:#FFFFFF;stroke:#1D56A0;stroke-width:0.75;}
	.st3{fill:none;stroke:#1D56A0;stroke-width:0.75;}
	.st4{clip-path:url(#SVGID_2_);fill:#FFFFFF;stroke:#1D56A0;stroke-width:0.75;}
	.st5{fill:none;stroke:#1D56A0;stroke-width:0.75;stroke-miterlimit:10;}
	.st6{fill:#FFFFFF;stroke:#E73847;stroke-width:0.75;stroke-miterlimit:10;}
</style>
  <style
     type="text/css"
     id="style4833-0">
	.st0{display:none;fill:#FFFFFF;stroke:#1D56A0;stroke-width:0.75;}
	.st1{fill:#FFFFFF;stroke:#1D56A0;stroke-width:0.75;stroke-miterlimit:10;}
	.st2{fill:#FFFFFF;stroke:#1D56A0;stroke-width:0.75;}
	.st3{fill:none;stroke:#1D56A0;stroke-width:0.75;}
	.st4{clip-path:url(#SVGID_2_);fill:#FFFFFF;stroke:#1D56A0;stroke-width:0.75;}
	.st5{fill:none;stroke:#1D56A0;stroke-width:0.75;stroke-miterlimit:10;}
	.st6{fill:#FFFFFF;stroke:#E73847;stroke-width:0.75;stroke-miterlimit:10;}
</style>
  <style
     id="style4833-9"
     type="text/css">
	.st0{display:none;fill:#FFFFFF;stroke:#1D56A0;stroke-width:0.75;}
	.st1{fill:#FFFFFF;stroke:#1D56A0;stroke-width:0.75;stroke-miterlimit:10;}
	.st2{fill:#FFFFFF;stroke:#1D56A0;stroke-width:0.75;}
	.st3{fill:none;stroke:#1D56A0;stroke-width:0.75;}
	.st4{clip-path:url(#SVGID_2_);fill:#FFFFFF;stroke:#1D56A0;stroke-width:0.75;}
	.st5{fill:none;stroke:#1D56A0;stroke-width:0.75;stroke-miterlimit:10;}
	.st6{fill:#FFFFFF;stroke:#E73847;stroke-width:0.75;stroke-miterlimit:10;}
</style>
  <style
     id="style4833-0-6"
     type="text/css">
	.st0{display:none;fill:#FFFFFF;stroke:#1D56A0;stroke-width:0.75;}
	.st1{fill:#FFFFFF;stroke:#1D56A0;stroke-width:0.75;stroke-miterlimit:10;}
	.st2{fill:#FFFFFF;stroke:#1D56A0;stroke-width:0.75;}
	.st3{fill:none;stroke:#1D56A0;stroke-width:0.75;}
	.st4{clip-path:url(#SVGID_2_);fill:#FFFFFF;stroke:#1D56A0;stroke-width:0.75;}
	.st5{fill:none;stroke:#1D56A0;stroke-width:0.75;stroke-miterlimit:10;}
	.st6{fill:#FFFFFF;stroke:#E73847;stroke-width:0.75;stroke-miterlimit:10;}
</style>
</svg>
