<?xml version="1.0" encoding="UTF-8" standalone="no"?>
<!-- Created with Inkscape (http://www.inkscape.org/) -->

<svg
   xmlns:dc="http://purl.org/dc/elements/1.1/"
   xmlns:cc="http://creativecommons.org/ns#"
   xmlns:rdf="http://www.w3.org/1999/02/22-rdf-syntax-ns#"
   xmlns:svg="http://www.w3.org/2000/svg"
   xmlns="http://www.w3.org/2000/svg"
   xmlns:sodipodi="http://sodipodi.sourceforge.net/DTD/sodipodi-0.dtd"
   xmlns:inkscape="http://www.inkscape.org/namespaces/inkscape"
   width="58.670731mm"
   height="5.2215991mm"
   viewBox="0 0 58.670731 5.2215991"
   version="1.1"
   id="svg8"
   inkscape:version="0.92.2 5c3e80d, 2017-08-06"
   sodipodi:docname="logo.svg"
   inkscape:export-filename="/Users/chanakajayasena/Documents/C5/design/prototype/05.png"
   inkscape:export-xdpi="89.941704"
   inkscape:export-ydpi="89.941704">
  <defs
     id="defs2" />
  <sodipodi:namedview
     id="base"
     pagecolor="#ffffff"
     bordercolor="#666666"
     borderopacity="1.0"
     inkscape:pageopacity="0.0"
     inkscape:pageshadow="2"
     inkscape:zoom="4"
     inkscape:cx="80.403686"
     inkscape:cy="-4.8789907"
     inkscape:document-units="px"
     inkscape:current-layer="layer11"
     showgrid="false"
     inkscape:window-width="1680"
     inkscape:window-height="957"
     inkscape:window-x="-1"
     inkscape:window-y="0"
     inkscape:window-maximized="0"
     fit-margin-top="0"
     fit-margin-left="0"
     fit-margin-right="0"
     fit-margin-bottom="0"
     showguides="true"
     inkscape:guide-bbox="true"
     gridtolerance="1"
     objecttolerance="1"
     guidetolerance="1">
    <sodipodi:guide
       position="159.75844,10.648315"
       orientation="1,0"
       id="guide15243"
       inkscape:locked="false" />
  </sodipodi:namedview>
  <metadata
     id="metadata5">
    <rdf:RDF>
      <cc:Work
         rdf:about="">
        <dc:format>image/svg+xml</dc:format>
        <dc:type
           rdf:resource="http://purl.org/dc/dcmitype/StillImage" />
        <dc:title />
      </cc:Work>
    </rdf:RDF>
  </metadata>
  <g
     inkscape:groupmode="layer"
     id="layer11"
     inkscape:label="save"
     transform="translate(-361.99988,30.877684)">
    <g
       style="display:inline"
       id="g4277"
       transform="translate(371.59163,-2.0363823)"
       inkscape:export-filename="/Users/chanakajayasena/Documents/C5/newpacks/wso2apim-3.0.0-SNAPSHOT/deployment/web-ui-apps/store/public/images/logo.png"
       inkscape:export-xdpi="89.941704"
       inkscape:export-ydpi="89.941704">
      <path
         sodipodi:nodetypes="sssssssss"
         inkscape:connector-curvature="0"
         id="rect4218"
         d="m 32.927249,-28.627899 h 15.650616 c 0.277621,0 0.50112,0.223499 0.50112,0.50112 v 2.777679 c 0,0.27762 -0.223499,0.50112 -0.50112,0.50112 H 34.481676 c -0.277621,0 -0.633413,-0.719594 -0.633413,-0.997214 v -2.314658 c 0,-0.277621 -1.198635,-0.468047 -0.921014,-0.468047 z"
         style="opacity:1;fill:#ff3900;fill-opacity:1;stroke:none;stroke-width:0.30356294;stroke-linecap:round;stroke-linejoin:round;stroke-miterlimit:4;stroke-dasharray:none;stroke-opacity:1" />
      <g
         aria-label="PORTAL"
         style="font-style:normal;font-weight:normal;font-size:2.9046464px;line-height:1.25;font-family:sans-serif;letter-spacing:0px;word-spacing:0px;display:inline;fill:#ffffff;fill-opacity:1;stroke:none;stroke-width:0.07261615"
         id="text4222">
        <path
           d="m 36.861688,-27.653378 v 0.795658 h 0.360244 q 0.199978,0 0.309186,-0.103535 0.109208,-0.103535 0.109208,-0.295003 0,-0.19005 -0.109208,-0.293585 -0.109208,-0.103535 -0.309186,-0.103535 z m -0.286494,-0.235435 h 0.646738 q 0.355989,0 0.53753,0.161684 0.182958,0.160266 0.182958,0.470871 0,0.31344 -0.182958,0.473707 -0.181541,0.160266 -0.53753,0.160266 h -0.360244 v 0.85097 h -0.286494 z"
           style="fill:#ffffff;fill-opacity:1;stroke-width:0.07261615"
           id="path848" />
        <path
           d="m 39.187674,-27.694508 q -0.312022,0 -0.496399,0.232598 -0.182959,0.232599 -0.182959,0.633974 0,0.399956 0.182959,0.632554 0.184377,0.232599 0.496399,0.232599 0.312023,0 0.493563,-0.232599 0.182959,-0.232598 0.182959,-0.632554 0,-0.401375 -0.182959,-0.633974 -0.18154,-0.232598 -0.493563,-0.232598 z m 0,-0.232599 q 0.445341,0 0.711979,0.299258 0.266637,0.29784 0.266637,0.799913 0,0.500654 -0.266637,0.799912 -0.266638,0.29784 -0.711979,0.29784 -0.446759,0 -0.714815,-0.29784 -0.266638,-0.29784 -0.266638,-0.799912 0,-0.502073 0.266638,-0.799913 0.268056,-0.299258 0.714815,-0.299258 z"
           style="fill:#ffffff;fill-opacity:1;stroke-width:0.07261615"
           id="path850" />
        <path
           d="m 41.618614,-26.764114 q 0.09219,0.0312 0.178704,0.133319 0.08793,0.102117 0.175867,0.28082 l 0.290748,0.57866 h -0.307767 l -0.270893,-0.543203 q -0.104953,-0.212742 -0.204233,-0.282238 -0.09786,-0.0695 -0.268055,-0.0695 h -0.312023 v 0.894937 h -0.286493 v -2.117498 h 0.646737 q 0.363081,0 0.541785,0.151756 0.178704,0.151757 0.178704,0.458106 0,0.199978 -0.09361,0.331879 -0.09219,0.1319 -0.269474,0.182958 z m -0.717652,-0.889264 v 0.751691 h 0.360244 q 0.20707,0 0.312023,-0.09502 0.106371,-0.09644 0.106371,-0.282239 0,-0.185795 -0.106371,-0.279402 -0.104953,-0.09502 -0.312023,-0.09502 z"
           style="fill:#ffffff;fill-opacity:1;stroke-width:0.07261615"
           id="path852" />
        <path
           d="m 42.133451,-27.888813 h 1.791293 v 0.241108 h -0.751691 v 1.87639 h -0.287911 v -1.87639 h -0.751691 z"
           style="fill:#ffffff;fill-opacity:1;stroke-width:0.07261615"
           id="path854" />
        <path
           d="m 44.686363,-27.606575 -0.38861,1.053786 h 0.778638 z m -0.161684,-0.282238 h 0.324787 l 0.807004,2.117498 h -0.29784 l -0.192887,-0.543203 h -0.954505 l -0.192887,0.543203 h -0.302095 z"
           style="fill:#ffffff;fill-opacity:1;stroke-width:0.07261615"
           id="path856" />
        <path
           d="m 45.964237,-27.888813 h 0.286494 v 1.87639 h 1.031092 v 0.241108 h -1.317586 z"
           style="fill:#ffffff;fill-opacity:1;stroke-width:0.07261615"
           id="path858" />
      </g>
      <g
         aria-label="DEVELOPER"
         style="font-style:normal;font-variant:normal;font-weight:bold;font-stretch:normal;font-size:5.41232157px;line-height:1.25;font-family:'Open Sans';-inkscape-font-specification:'Open Sans, Bold';font-variant-ligatures:normal;font-variant-caps:normal;font-variant-numeric:normal;font-feature-settings:normal;text-align:start;letter-spacing:0px;word-spacing:0px;writing-mode:lr-tb;text-anchor:start;fill:#ffffff;fill-opacity:1;stroke:none;stroke-width:0.11482353"
         id="text4226">
        <path
           d="m 7.7513926,-26.747993 q 0,0.954027 -0.5444034,1.461432 -0.5417607,0.507405 -1.567142,0.507405 H 4.5457549 v -3.863679 h 1.2130154 q 0.9460992,0 1.4693608,0.499477 0.5232615,0.499477 0.5232615,1.395365 z m -0.8509607,0.02114 q 0,-1.244728 -1.0993778,-1.244728 H 5.3650028 v 2.515884 h 0.3514838 q 1.1839453,0 1.1839453,-1.271156 z"
           style="fill:#ffffff;fill-opacity:1;stroke-width:0.11482353"
           id="path829" />
        <path
           d="M 10.777324,-24.779156 H 8.5521412 v -3.863679 h 2.2251828 v 0.671255 H 9.3713891 v 0.848318 h 1.3081539 v 0.671255 H 9.3713891 v 0.996311 h 1.4059349 z"
           style="fill:#ffffff;fill-opacity:1;stroke-width:0.11482353"
           id="path831" />
        <path
           d="m 13.790042,-28.642835 h 0.827176 l -1.313439,3.863679 h -0.893245 l -1.310796,-3.863679 h 0.827176 l 0.726752,2.29918 q 0.06078,0.203491 0.124208,0.475692 0.06607,0.269559 0.08193,0.375269 0.02907,-0.243132 0.198205,-0.850961 z"
           style="fill:#ffffff;fill-opacity:1;stroke-width:0.11482353"
           id="path833" />
        <path
           d="m 17.331307,-24.779156 h -2.225183 v -3.863679 h 2.225183 v 0.671255 h -1.405935 v 0.848318 h 1.308154 v 0.671255 h -1.308154 v 0.996311 h 1.405935 z"
           style="fill:#ffffff;fill-opacity:1;stroke-width:0.11482353"
           id="path835" />
        <path
           d="m 18.139985,-24.779156 v -3.863679 h 0.819247 v 3.187139 h 1.567142 v 0.67654 z"
           style="fill:#ffffff;fill-opacity:1;stroke-width:0.11482353"
           id="path837" />
        <path
           d="m 24.701895,-26.716281 q 0,0.959313 -0.475692,1.474647 -0.475692,0.515333 -1.363651,0.515333 -0.887959,0 -1.363652,-0.515333 -0.475692,-0.515334 -0.475692,-1.479932 0,-0.964598 0.475692,-1.472004 0.478335,-0.510047 1.368937,-0.510047 0.890602,0 1.361009,0.51269 0.473049,0.512691 0.473049,1.474646 z m -2.819798,0 q 0,0.647471 0.245774,0.97517 0.245775,0.327699 0.734681,0.327699 0.980454,0 0.980454,-1.302869 0,-1.305511 -0.975169,-1.305511 -0.488906,0 -0.737323,0.330342 -0.248417,0.327699 -0.248417,0.975169 z"
           style="fill:#ffffff;fill-opacity:1;stroke-width:0.11482353"
           id="path839" />
        <path
           d="m 26.327178,-26.824633 h 0.269559 q 0.377911,0 0.565545,-0.147993 0.187635,-0.150636 0.187635,-0.436051 0,-0.288058 -0.158564,-0.425481 -0.155922,-0.137422 -0.491549,-0.137422 h -0.372626 z m 1.849915,-0.613114 q 0,0.623685 -0.391125,0.954027 -0.388482,0.330342 -1.107306,0.330342 h -0.351484 v 1.374222 H 25.50793 v -3.863679 h 1.234158 q 0.702967,0 1.067665,0.303915 0.36734,0.301272 0.36734,0.901173 z"
           style="fill:#ffffff;fill-opacity:1;stroke-width:0.11482353"
           id="path841" />
        <path
           d="m 31.136956,-24.779156 h -2.225183 v -3.863679 h 2.225183 v 0.671255 h -1.405935 v 0.848318 h 1.308154 v 0.671255 h -1.308154 v 0.996311 h 1.405935 z"
           style="fill:#ffffff;fill-opacity:1;stroke-width:0.11482353"
           id="path843" />
        <path
           d="m 32.76488,-26.927699 h 0.264274 q 0.388482,0 0.573473,-0.129494 0.184992,-0.129494 0.184992,-0.406982 0,-0.274844 -0.190277,-0.391124 -0.187634,-0.116281 -0.584045,-0.116281 H 32.76488 Z m 0,0.665969 v 1.482574 h -0.819248 v -3.863679 h 1.125806 q 0.787535,0 1.165446,0.288059 0.377911,0.285415 0.377911,0.869459 0,0.340913 -0.187634,0.60783 -0.187634,0.264273 -0.53119,0.414909 0.872103,1.302868 1.136376,1.683422 h -0.909101 l -0.922314,-1.482574 z"
           style="fill:#ffffff;fill-opacity:1;stroke-width:0.11482353"
           id="path845" />
      </g>
      <g
         style="display:inline"
         id="g4238"
         transform="matrix(0.28033927,0,0,0.28033927,-118.33647,-155.37972)"
         inkscape:export-filename="tmp.png"
         inkscape:export-xdpi="90"
         inkscape:export-ydpi="90">
        <path
           style="clip-rule:evenodd;fill:#f47b20;fill-rule:evenodd"
           inkscape:connector-curvature="0"
           d="m 422.376,465.642 c 3.662,0 6.655,-2.989 6.655,-6.657 0,-3.664 -2.993,-6.65 -6.655,-6.65 -3.67,0 -6.656,2.986 -6.656,6.65 0,3.667 2.986,6.657 6.656,6.657 z"
           id="path4228" />
        <polyline
           style="clip-rule:evenodd;fill:none;stroke:#000000;stroke-width:0.71950001;stroke-opacity:1"
           points="415.793,459.825     420.198,459.838 422.402,454.935 425.154,461.643 426.599,459.037 429.021,459.031   "
           id="polyline4230" />
        <path
           style="fill:#f47b20"
           inkscape:connector-curvature="0"
           d="m 406.561,452.271 h 0.559 l -0.559,1.396 z m 0,11.806 c 0.248,0.437 0.554,0.812 0.925,1.11 0.724,0.61 1.646,0.912 2.76,0.912 1.185,0 2.184,-0.409 3.021,-1.215 0.827,-0.808 1.241,-1.794 1.241,-2.969 0,-1.046 -0.334,-1.844 -1,-2.385 -0.668,-0.547 -1.379,-0.986 -2.138,-1.329 l -0.39,-0.183 -0.366,-0.162 c -0.693,-0.355 -1.263,-0.688 -1.715,-0.994 -0.446,-0.318 -0.673,-0.772 -0.673,-1.37 0,-0.601 0.227,-1.084 0.686,-1.46 0.455,-0.376 1.009,-0.564 1.659,-0.564 0.425,0 0.782,0.085 1.084,0.249 0.297,0.168 0.582,0.427 0.853,0.792 l 0.143,0.227 c 0.045,0.032 0.099,0.096 0.166,0.202 l 1.203,-0.772 c -0.396,-0.697 -0.886,-1.218 -1.481,-1.584 -0.591,-0.355 -1.227,-0.534 -1.902,-0.534 -1.16,0 -2.103,0.321 -2.831,0.978 -0.738,0.654 -1.104,1.484 -1.104,2.51 0,0.965 0.334,1.706 0.999,2.232 0.663,0.527 1.379,0.952 2.141,1.296 l 0.247,0.121 0.242,0.102 c 0.734,0.365 1.356,0.73 1.875,1.079 0.517,0.357 0.773,0.881 0.773,1.575 0,0.784 -0.26,1.441 -0.782,1.965 -0.526,0.523 -1.188,0.787 -1.989,0.787 -0.706,0 -1.292,-0.217 -1.753,-0.654 -0.467,-0.435 -0.789,-1.059 -0.979,-1.874 l -0.913,0.277 v 1.635 z m -13.371,-1.628 4.259,-10.893 4.021,10.913 3.997,-10.198 h 1.093 v 1.396 l -5.136,12.908 -4.015,-10.898 -4.285,10.884 -5.22,-14.29 h 1.651 z m 13.371,-0.008 -0.56,0.169 c 0.13,0.551 0.318,1.042 0.56,1.467 z"
           id="path4232" />
        <path
           sodipodi:nodetypes="ccscsccccsccccsccaccscscccsccs"
           style="fill:#ffffff;fill-opacity:1"
           inkscape:connector-curvature="0"
           d="m 422.406,451.376 c 2.174,0.022 3.996,0.765 5.47,2.216 1.493,1.488 2.238,3.311 2.238,5.474 0,2.146 -0.742,3.967 -2.234,5.456 -1.495,1.496 -3.309,2.239 -5.454,2.239 h -0.02 v -1.426 c 1.124,0 2.165,-0.275 3.121,-0.823 0.968,-0.554 1.721,-1.308 2.263,-2.261 0.54,-0.953 0.813,-2.02 0.813,-3.186 0,-1.163 -0.273,-2.216 -0.813,-3.151 -0.542,-0.941 -1.304,-1.692 -2.284,-2.26 -0.976,-0.558 -2.008,-0.84 -3.1,-0.84 z m -0.099,0 h 0.1 v 1.438 c 0,0 -0.0201,-0.001 -0.03,0 -1.05377,0.14125 -2.107,0.274 -3.077,0.84 -0.972,0.567 -1.725,1.329 -2.273,2.285 -0.539,0.958 -0.813,2.023 -0.813,3.189 0,1.747 0.601,3.214 1.806,4.412 1.203,1.2 2.659,1.794 4.357,1.794 h 0.03 v 1.426 c -2.159,-0.005 -3.987,-0.746 -5.477,-2.232 -1.49,-1.482 -2.242,-3.282 -2.242,-5.399 0,-1.4 0.343,-2.71 1.021,-3.906 0.679,-1.204 1.609,-2.141 2.783,-2.825 1.179,-0.682 2.446,-1.022 3.815,-1.022 z"
           id="path4234" />
        <path
           style="fill:#ffffff;fill-opacity:1"
           inkscape:connector-curvature="0"
           d="m 430.629,458.597 c 0.341,-0.1 0.706,-0.15 1.098,-0.15 1.033,0 1.872,0.338 2.513,1.008 0.64,0.668 0.963,1.453 0.963,2.363 0,0.639 -0.152,1.238 -0.459,1.799 -0.308,0.556 -0.904,1.322 -1.787,2.271 l -2.801,3.028 h 5.2 v 1.086 h -7.65 l 4.303,-4.652 c 0.877,-0.934 1.441,-1.623 1.708,-2.082 0.261,-0.445 0.393,-0.924 0.393,-1.426 0,-0.63 -0.239,-1.174 -0.711,-1.632 -0.472,-0.454 -1.051,-0.686 -1.738,-0.686 -0.388,0 -0.746,0.068 -1.064,0.211 0.027,-0.273 0.041,-0.55 0.041,-0.827 -0.002,-0.104 -0.004,-0.209 -0.009,-0.311 z"
           id="path4236" />
      </g>
    </g>
  </g>
  <style
     type="text/css"
     id="style4833">
	.st0{display:none;fill:#FFFFFF;stroke:#1D56A0;stroke-width:0.75;}
	.st1{fill:#FFFFFF;stroke:#1D56A0;stroke-width:0.75;stroke-miterlimit:10;}
	.st2{fill:#FFFFFF;stroke:#1D56A0;stroke-width:0.75;}
	.st3{fill:none;stroke:#1D56A0;stroke-width:0.75;}
	.st4{clip-path:url(#SVGID_2_);fill:#FFFFFF;stroke:#1D56A0;stroke-width:0.75;}
	.st5{fill:none;stroke:#1D56A0;stroke-width:0.75;stroke-miterlimit:10;}
	.st6{fill:#FFFFFF;stroke:#E73847;stroke-width:0.75;stroke-miterlimit:10;}
</style>
  <style
     type="text/css"
     id="style4833-0">
	.st0{display:none;fill:#FFFFFF;stroke:#1D56A0;stroke-width:0.75;}
	.st1{fill:#FFFFFF;stroke:#1D56A0;stroke-width:0.75;stroke-miterlimit:10;}
	.st2{fill:#FFFFFF;stroke:#1D56A0;stroke-width:0.75;}
	.st3{fill:none;stroke:#1D56A0;stroke-width:0.75;}
	.st4{clip-path:url(#SVGID_2_);fill:#FFFFFF;stroke:#1D56A0;stroke-width:0.75;}
	.st5{fill:none;stroke:#1D56A0;stroke-width:0.75;stroke-miterlimit:10;}
	.st6{fill:#FFFFFF;stroke:#E73847;stroke-width:0.75;stroke-miterlimit:10;}
</style>
  <style
     id="style4833-9"
     type="text/css">
	.st0{display:none;fill:#FFFFFF;stroke:#1D56A0;stroke-width:0.75;}
	.st1{fill:#FFFFFF;stroke:#1D56A0;stroke-width:0.75;stroke-miterlimit:10;}
	.st2{fill:#FFFFFF;stroke:#1D56A0;stroke-width:0.75;}
	.st3{fill:none;stroke:#1D56A0;stroke-width:0.75;}
	.st4{clip-path:url(#SVGID_2_);fill:#FFFFFF;stroke:#1D56A0;stroke-width:0.75;}
	.st5{fill:none;stroke:#1D56A0;stroke-width:0.75;stroke-miterlimit:10;}
	.st6{fill:#FFFFFF;stroke:#E73847;stroke-width:0.75;stroke-miterlimit:10;}
</style>
  <style
     id="style4833-0-6"
     type="text/css">
	.st0{display:none;fill:#FFFFFF;stroke:#1D56A0;stroke-width:0.75;}
	.st1{fill:#FFFFFF;stroke:#1D56A0;stroke-width:0.75;stroke-miterlimit:10;}
	.st2{fill:#FFFFFF;stroke:#1D56A0;stroke-width:0.75;}
	.st3{fill:none;stroke:#1D56A0;stroke-width:0.75;}
	.st4{clip-path:url(#SVGID_2_);fill:#FFFFFF;stroke:#1D56A0;stroke-width:0.75;}
	.st5{fill:none;stroke:#1D56A0;stroke-width:0.75;stroke-miterlimit:10;}
	.st6{fill:#FFFFFF;stroke:#E73847;stroke-width:0.75;stroke-miterlimit:10;}
</style>
</svg>
