<?xml version="1.0" encoding="UTF-8"?>
<svg width="18px" height="18px" viewBox="0 0 18 18" version="1.1" xmlns="http://www.w3.org/2000/svg" xmlns:xlink="http://www.w3.org/1999/xlink">
    <title>7499E5DB-A4D2-49FA-92DE-660CE12CF970</title>
    <g id="Home" stroke="none" stroke-width="1" fill="none" fill-rule="evenodd" opacity="1">
        <g id="new-dashboard-+" transform="translate(-26.000000, -266.000000)" fill="#FFFFFF">
            <g id="Icon/main/Services" transform="translate(26.000000, 266.000000)">
                <path d="M10.5935681,5.36152673 L10.6265216,5.4580575 L10.9653418,6.72232841 C11.7228159,6.64289911 12.4692025,6.74925052 13.1508513,7.01040774 L13.8054725,5.87657432 C14.0125792,5.51785485 14.471272,5.39494849 14.8299915,5.60205527 C15.1561001,5.79033416 15.2873219,6.18653539 15.1528829,6.52652719 L15.1045106,6.62657432 L14.4503178,7.76075434 C15.0171068,8.22044333 15.4822405,8.81351979 15.7921123,9.50903392 L17.0564322,9.1703681 C17.4565318,9.06316175 17.8677845,9.30059861 17.9749908,9.70069819 C18.0732633,10.0674561 17.8819398,10.4435858 17.5411915,10.5863034 L17.4446608,10.6192568 L16.1803375,10.9575776 C16.2598659,11.7152231 16.1535251,12.4617879 15.8923105,13.1435866 L17.0261439,13.7982077 C17.3848634,14.0053145 17.5077698,14.4640073 17.300663,14.8227267 C17.1123841,15.1488354 16.7161829,15.2800571 16.3761911,15.1456181 L16.2761439,15.0972458 L15.1419639,14.443053 C14.6823843,15.0097072 14.0894806,15.4747545 13.3941806,15.7846264 L13.7323502,17.0491674 C13.8395565,17.449267 13.6021196,17.8605197 13.2020201,17.9677261 C12.8352621,18.0659986 12.4591324,17.874675 12.3164149,17.5339268 L12.2834614,17.437396 L11.9446413,16.1731251 C11.1871671,16.2525544 10.4407806,16.146203 9.7591317,15.8850457 L9.10451057,17.0188792 C8.89740379,17.3775986 8.43871098,17.500505 8.07999152,17.2933982 C7.75388291,17.1051193 7.62266116,16.7089181 7.75710017,16.3689263 L7.80547246,16.2688792 L8.45966528,15.1346991 C7.89301105,14.6751195 7.42796377,14.0822158 7.11809182,13.3869158 L5.85355084,13.7250854 C5.45345127,13.8322917 5.04219855,13.5948549 4.93499219,13.1947553 C4.83671969,12.8279974 5.02804324,12.4518677 5.3687915,12.3091501 L5.46532228,12.2761966 L6.72959318,11.9373765 C6.65016388,11.1799024 6.7565153,10.4335158 7.01767251,9.75186693 L5.88383909,9.0972458 C5.52511963,8.89013902 5.40221326,8.43144621 5.60932004,8.07272674 C5.79759893,7.74661814 6.19380016,7.61539639 6.53379197,7.74983539 L6.63383909,7.79820769 L7.7672147,8.45339261 C8.22690684,7.88628907 8.82009672,7.42087982 9.51580245,7.11082705 L9.17763288,5.84628607 C9.07042652,5.44618649 9.30786339,5.03493378 9.70796296,4.92772742 C10.0747209,4.82945492 10.4508506,5.02077847 10.5935681,5.36152673 Z M12.2513189,1.04805054e-13 C13.770102,1.04805054e-13 15.0013189,1.23121694 15.0013189,2.75 C15.0013189,3.16421356 14.6655325,3.5 14.2513189,3.5 C13.8716232,3.5 13.557828,3.21784612 13.5081655,2.85177056 L13.5013189,2.75 C13.5013189,2.10279131 13.0094443,1.5704661 12.3791242,1.50645361 L12.2513189,1.5 L2.75,1.5 C2.10279131,1.5 1.5704661,1.99187466 1.50645361,2.62219476 L1.5,2.75 L1.5,14.2565317 C1.5,14.9037404 1.99187466,15.4360656 2.62219476,15.5000781 L2.75,15.5065317 L4.76332092,15.5065317 C5.17753449,15.5065317 5.51332092,15.8423182 5.51332092,16.2565317 C5.51332092,16.6362275 5.23116704,16.9500227 4.86509148,16.9996851 L4.76332092,17.0065317 L2.75,17.0065317 C1.28746816,17.0065317 0.0915957212,15.8648271 0.00501879394,14.424054 L4.51194637e-13,14.2565317 L4.51194637e-13,2.75 C4.51194637e-13,1.28746816 1.1417046,0.0915957212 2.58247767,0.00501879394 L2.75,1.04805054e-13 L12.2513189,1.04805054e-13 Z M14.5942505,10.6065648 C14.1296896,8.87280001 12.3475945,7.84390692 10.6138296,8.30846781 C8.88006478,8.7730287 7.85117169,10.5551238 8.31573258,12.2888886 C8.78029347,14.0226535 10.5623886,15.0515466 12.2961534,14.5869857 C14.0299182,14.1224248 15.0588113,12.3403297 14.5942505,10.6065648 Z M12.4209173,11.1889077 C12.5638592,11.7223738 12.2472767,12.2707108 11.7138106,12.4136526 C11.1803445,12.5565944 10.6320075,12.2400119 10.4890657,11.7065458 C10.3461239,11.1730797 10.6627064,10.6247427 11.1961725,10.4818009 C11.7296386,10.3388591 12.2779755,10.6554416 12.4209173,11.1889077 Z" id="Combined-Shape"></path>
            </g>
        </g>
    </g>
</svg>