<?xml version="1.0" encoding="UTF-8"?>
<svg width="18px" height="20px" viewBox="0 0 18 20" version="1.1" xmlns="http://www.w3.org/2000/svg" xmlns:xlink="http://www.w3.org/1999/xlink">
    <title>35549707-9186-4AF8-BA26-576EAB292A8D</title>
    <g id="Home" stroke="none" stroke-width="1" fill="none" fill-rule="evenodd" opacity="1">
        <g id="new-dashboard-+" transform="translate(-26.000000, -313.000000)" fill="#FFFFFF">
            <g id="Icon/main/APIs" transform="translate(26.000000, 314.000000)">
                <path d="M4.06117597,10.1929778 C4.25952031,10.5669391 4.11795164,11.0293767 3.74497349,11.2258612 L1.68773914,12.3169944 C1.64250846,12.3408219 1.60557241,12.3777579 1.58174494,12.4229886 C1.52560653,12.5295538 1.55282105,12.6582015 1.64024147,12.7344181 L1.68886167,12.7678122 L8.41364151,16.3345506 C8.74539524,16.5105086 9.13468074,16.530937 9.47853019,16.3955795 L9.60514281,16.3375174 L16.3122435,12.8042245 C16.3574742,12.780397 16.3944103,12.743461 16.4182377,12.6982303 C16.4837326,12.5739043 16.4357748,12.4195215 16.3141904,12.3550258 L14.2484654,11.2673551 C13.8745042,11.0690108 13.7306308,10.6058624 13.9271153,10.2328843 C14.1235997,9.85990611 14.5860373,9.71833744 14.9599986,9.91668178 L17.0226542,11.0027333 C17.8952305,11.4655368 18.230935,12.5462164 17.7724713,13.4164987 C17.6334777,13.6803443 17.4307619,13.9038688 17.1838248,14.0675712 L17.0305119,14.158458 L10.3234112,17.691751 C9.55907478,18.0944025 8.65331468,18.1191175 7.86836675,17.7665489 L7.70210835,17.6852239 L0.977328512,14.1184856 C0.104752218,13.6556821 -0.230952342,12.5750025 0.227511392,11.7047202 C0.394303663,11.3881055 0.652856023,11.1295531 0.966636004,10.9642618 L3.0267051,9.87162761 C3.39968325,9.67514316 3.86283163,9.81901654 4.06117597,10.1929778 Z M7.6765888,0.308249209 C8.49552067,-0.123163161 9.47680117,-0.120719768 10.2978916,0.314776264 L10.2978916,0.314776264 L17.0226715,3.88151466 C17.8952478,4.34431812 18.2309523,5.42499767 17.7724886,6.29528001 C17.6056963,6.61189473 17.347144,6.87044709 17.0305293,7.03723936 L17.0305293,7.03723936 L10.3234285,10.5705323 C9.50449665,11.0019447 8.52321615,10.9995013 7.70212567,10.5640053 L7.70212567,10.5640053 L0.977345834,6.99726687 C0.10476954,6.53446341 -0.23093502,5.45378385 0.227528714,4.58350152 C0.394320985,4.2668868 0.652873345,4.00833444 0.969488067,3.84154216 L0.969488067,3.84154216 Z M9.58635849,1.6654496 C9.21313554,1.46749686 8.76709895,1.46638623 8.39485719,1.66248276 L8.39485719,1.66248276 L1.68775646,5.19577572 C1.64252578,5.21960318 1.60558973,5.25653923 1.58176226,5.30176991 C1.51626745,5.42609596 1.56422524,5.58047875 1.688879,5.64659353 L1.688879,5.64659353 L8.41365884,9.21333192 C8.78688178,9.41128466 9.23291837,9.4123953 9.60516013,9.21629877 L9.60516013,9.21629877 L16.3122609,5.68300581 C16.3574915,5.65917834 16.3944276,5.62224229 16.4182551,5.57701162 C16.4837499,5.45268557 16.4357921,5.29830278 16.3111383,5.232188 L16.3111383,5.232188 Z" id="Combined-Shape"></path>
            </g>
        </g>
    </g>
</svg>