<?xml version="1.0" encoding="UTF-8"?>
<svg width="24px" height="24px" viewBox="0 0 24 24" version="1.1" xmlns="http://www.w3.org/2000/svg" xmlns:xlink="http://www.w3.org/1999/xlink">
    <title>85D940F2-1A1B-4E2F-ADAE-D800BDF9B1C7</title>
    <g id="Home" stroke="none" stroke-width="1" fill="none" fill-rule="evenodd">
        <g id="new-home" transform="translate(-430.000000, -104.000000)" fill="#5567D5" fill-rule="nonzero">
            <g id="Group-7" transform="translate(414.000000, 88.000000)">
                <g id="Icon/main/Market" transform="translate(16.000000, 16.000000)">
                    <path d="M14.1247575,7.1487023 L14.1686955,7.27741 L14.6214133,8.9630042 C15.6310503,8.85728846 16.6258905,8.99911075 17.5344684,9.34721032 L18.4072966,7.83543243 C18.683439,7.35713981 19.2950294,7.19326465 19.773322,7.46940702 C20.2081335,7.72044555 20.3830958,8.24871385 20.2038438,8.70203626 L20.1393474,8.83543243 L19.2666674,10.3473295 C20.0225551,10.9602778 20.6428732,11.7511395 21.0561128,12.6786288 L22.7419096,12.2271575 C23.2753757,12.0842157 23.8237126,12.4007981 23.9666545,12.9342643 C24.0976845,13.4232748 23.8425864,13.9247811 23.3882554,14.1150711 L23.2595477,14.1590091 L21.5739535,14.6117269 C21.6796692,15.6213639 21.5378469,16.6162042 21.1897474,17.5247821 L22.7015253,18.3976103 C23.1798179,18.6737526 23.343693,19.285343 23.0675507,19.7636357 C22.8165121,20.1984471 22.2882438,20.3734095 21.8349214,20.1941575 L21.7015253,20.1296611 L20.1896282,19.256981 C19.5764591,20.013141 18.7852485,20.6336337 17.8573266,21.0468728 L18.3098002,22.7322232 C18.452742,23.2656893 18.1361595,23.8140263 17.6026934,23.9569681 C17.1136828,24.0879981 16.6121766,23.8329 16.4218865,23.378569 L16.3779486,23.2498613 L15.9262298,21.5641624 C14.9166192,21.6700377 13.9217806,21.528379 13.0131721,21.1804427 L12.1393474,22.6918389 C11.8632051,23.1701315 11.2516146,23.3340067 10.773322,23.0578643 C10.3385105,22.8068258 10.1635482,22.2785575 10.3428002,21.8252351 L10.4072966,21.6918389 L11.2799767,20.1799419 C10.524089,19.5669935 9.9037708,18.7761318 9.49053128,17.8486425 L7.80473446,18.3001138 C7.27126835,18.4430557 6.7229314,18.1264732 6.57998959,17.5930071 C6.44895959,17.1039965 6.70405766,16.6024902 7.15838867,16.4122002 L7.28709637,16.3682622 L8.97279525,15.9165434 C8.86692,14.9069328 9.00857869,13.9120942 9.356515,13.0034857 L7.84511879,12.1296611 C7.36682617,11.8535187 7.20295101,11.2419283 7.47909339,10.7636357 C7.73013191,10.3288242 8.25840021,10.1538619 8.71172262,10.3331139 L8.84511879,10.3976103 L10.3570158,11.2702903 C10.9699641,10.5144026 11.7608259,9.89408444 12.6883152,9.48084492 L12.2368438,7.79504809 C12.093902,7.26158199 12.4104845,6.71324503 12.9439506,6.57030322 C13.4329612,6.43927323 13.9344675,6.69437129 14.1247575,7.1487023 Z M16.3350919,-2.04873155e-13 C18.360136,-2.04873155e-13 20.0017586,1.64162258 20.0017586,3.66666667 L20.0020154,6.11830749 C19.0282542,5.79716167 17.9367471,6.1528605 17.3462646,7.01960489 L17.2525961,7.16876576 L16.9026667,7.772 L16.8664208,7.76290987 L16.4752897,7.69015957 C16.3006246,7.66235993 16.1249272,7.64062322 15.9484907,7.62502081 L15.6833183,7.60622682 L15.636,7.604 L15.4564493,6.93176859 L15.3865903,6.71794037 L15.3545776,6.63360972 L15.2679691,6.44962295 C14.793839,5.54648762 13.7780199,5.05094064 12.7671902,5.24383113 L12.5988586,5.28240212 L12.4066065,5.34278277 L12.2232606,5.41802731 C11.2611102,5.86156306 10.7076475,6.91394868 10.9105665,7.9729605 L10.9489427,8.14014015 L11.128,8.812 L11.0896314,8.83707054 L10.7611584,9.06327484 C10.6179538,9.16752118 10.4785151,9.27666347 10.3430608,9.390493 L10.1428949,9.56472664 L10.1146667,9.59066667 L9.51241953,9.24327603 L9.29210492,9.13272469 L9.08678389,9.06018633 C8.04734342,8.73945667 6.98826932,9.10795372 6.41530004,9.9519388 L6.32439285,10.096969 L6.22646045,10.285664 L6.14723964,10.4789936 C5.79372968,11.4656298 6.14520868,12.5866494 7.02666547,13.1889016 L7.17845213,13.2843616 L7.78133333,13.632 L7.6997892,14.0620243 C7.67199153,14.2367302 7.6502596,14.4124686 7.63466479,14.5889461 L7.61588435,14.8541801 L7.61333333,14.9 L6.94194748,15.0803763 L6.72762674,15.1503674 L6.52961632,15.2422994 C5.55987435,15.741714 5.06082176,16.7588638 5.25352774,17.7697636 L5.29208848,17.9380991 L5.35246914,18.1303512 L5.42771367,18.3136971 C5.87124942,19.2758475 6.92363504,19.8293102 7.98264686,19.6263912 L8.14982652,19.5880149 L8.82266667,19.408 L9.07324568,19.77619 C9.17747579,19.9193532 9.28659926,20.0587521 9.40040753,20.1941683 L9.57460746,20.3942784 L9.6,20.4213333 L9.25296239,21.0245382 L9.14241105,21.2448528 L9.0698727,21.4501738 C8.94149229,21.8662369 8.92354043,22.2854458 9.00230948,22.675366 L3.66666667,22.6753756 C1.71662422,22.6753756 0.122127628,21.1531028 0.00669172526,19.2320721 L7.12319093e-13,19.008709 L7.12319093e-13,3.66666667 C7.12319093e-13,1.71662422 1.52227279,0.122127628 3.44330356,0.00669172526 L3.66666667,-2.04873155e-13 L16.3350919,-2.04873155e-13 Z M14.1517728,11.0779571 C11.8400864,11.6973716 10.4682289,14.0734984 11.0876434,16.3851849 C11.707058,18.6968713 14.0831848,20.0687288 16.3948712,19.4493142 C18.7065577,18.8298997 20.0784151,16.4537729 19.4590006,14.1420865 C18.8395861,11.8304 16.4634593,10.4585426 14.1517728,11.0779571 Z M16.5612231,14.9185436 C16.7518122,15.6298317 16.3297022,16.3609477 15.6184141,16.5515368 C14.9071259,16.7421258 14.17601,16.3200159 13.9854209,15.6087277 C13.7948318,14.8974396 14.2169418,14.1663236 14.92823,13.9757346 C15.6395181,13.7851455 16.370634,14.2072555 16.5612231,14.9185436 Z" id="Combined-Shape"></path>
                </g>
            </g>
        </g>
    </g>
</svg>