<?xml version="1.0" encoding="UTF-8"?>
<svg width="24px" height="26px" viewBox="0 0 24 26" version="1.1"
    xmlns="http://www.w3.org/2000/svg"
    xmlns:xlink="http://www.w3.org/1999/xlink">
    <title>1300CEFF-E3F5-4FC2-9E03-C96AAC474921</title>
    <g id="Home" stroke="none" stroke-width="1" fill="none" fill-rule="evenodd">
        <g id="new-home" transform="translate(-677.000000, -103.000000)" fill="#b9ebff" fill-rule="nonzero">
            <g id="Group-4" transform="translate(661.000000, 88.000000)">
                <g id="Icon/main/Market" transform="translate(16.000000, 15.000000)">
                    <path d="M5.41490129,14.5906371 C5.67936041,15.0892521 5.49060218,15.7058356 4.99329799,15.9678149 L2.25031885,17.4226592 C2.19001128,17.4544292 2.14076321,17.5036772 2.10899326,17.5639848 C2.03414204,17.7060717 2.07042807,17.877602 2.18698863,17.9792241 L2.25181557,18.0237496 L11.2181887,22.7794008 C11.660527,23.0140115 12.1795743,23.0412494 12.6380403,22.8607727 L12.8068571,22.7833566 L21.7496581,18.0722993 C21.8099656,18.0405294 21.8592137,17.9912813 21.8909836,17.9309737 C21.9783101,17.7652057 21.9143663,17.5593619 21.7522539,17.4733678 L18.9979539,16.0231402 C18.4993389,15.758681 18.3075077,15.1411499 18.569487,14.6438457 C18.8314663,14.1465415 19.4480498,13.9577833 19.9466648,14.2222424 L22.6968722,15.6703111 C23.8603073,16.2873824 24.3079134,17.7282885 23.6966284,18.8886649 C23.5113036,19.2404591 23.2410158,19.5384917 22.9117663,19.7567617 L22.7073492,19.8779441 L13.7645483,24.5890013 C12.745433,25.1258701 11.5377529,25.1588234 10.4911557,24.6887318 L10.2694778,24.5802986 L1.30310468,19.8246474 C0.139669624,19.2075761 -0.307936456,17.76667 0.303348522,16.6062936 C0.525738217,16.1841406 0.870474697,15.8394042 1.28884801,15.6190158 L4.0356068,14.1621702 C4.53291099,13.9001909 5.15044217,14.0920221 5.41490129,14.5906371 Z M10.2354517,1.41099895 C11.3273609,0.835782452 12.6357349,0.839040309 13.7305222,1.41970168 L13.7305222,1.41970168 L22.6968953,6.17535288 C23.8603304,6.79242415 24.3079365,8.23333023 23.6966515,9.39370668 C23.4742618,9.81585964 23.1295253,10.1605961 22.7073723,10.3829858 L22.7073723,10.3829858 L13.7645714,15.0940431 C12.6726622,15.6692596 11.3642882,15.6660017 10.2695009,15.0853403 L10.2695009,15.0853403 L1.30312778,10.3296892 C0.13969272,9.71261788 -0.307913359,8.2717118 0.303371619,7.11133536 C0.525761314,6.68918239 0.870497794,6.34444591 1.29265076,6.12205622 L1.29265076,6.12205622 Z" id="Combined-Shape"></path>
                </g>
            </g>
        </g>
    </g>
</svg>