<?xml version="1.0" encoding="UTF-8" standalone="no"?>
<!-- Created with Inkscape (http://www.inkscape.org/) -->

<svg
   xmlns:dc="http://purl.org/dc/elements/1.1/"
   xmlns:cc="http://creativecommons.org/ns#"
   xmlns:rdf="http://www.w3.org/1999/02/22-rdf-syntax-ns#"
   xmlns:svg="http://www.w3.org/2000/svg"
   xmlns="http://www.w3.org/2000/svg"
   xmlns:sodipodi="http://sodipodi.sourceforge.net/DTD/sodipodi-0.dtd"
   xmlns:inkscape="http://www.inkscape.org/namespaces/inkscape"
   width="90mm"
   height="50mm"
   id="svg3851"
   version="1.1"
   inkscape:version="0.48.4 r9939"
   sodipodi:docname="wso2.svg">
  <defs
     id="defs3" />
  <sodipodi:namedview
     id="base"
     pagecolor="#ffffff"
     bordercolor="#666666"
     borderopacity="1.0"
     inkscape:pageopacity="0.0"
     inkscape:pageshadow="2"
     inkscape:zoom="1.2"
     inkscape:cx="-133.33333"
     inkscape:cy="90"
     inkscape:document-units="mm"
     inkscape:current-layer="layer1"
     showgrid="false"
     inkscape:window-width="1713"
     inkscape:window-height="927"
     inkscape:window-x="75"
     inkscape:window-y="24"
     inkscape:window-maximized="0" />
  <metadata
     id="metadata3855">
    <rdf:RDF>
      <cc:Work
         rdf:about="">
        <dc:format>image/svg+xml</dc:format>
        <dc:type
           rdf:resource="http://purl.org/dc/dcmitype/StillImage" />
        <dc:title />
      </cc:Work>
    </rdf:RDF>
  </metadata>
  <g
     inkscape:label="Layer 1"
     inkscape:groupmode="layer"
     id="layer1">
    <path
       sodipodi:type="arc"
       style="fill:#000000;fill-opacity:1;stroke:none"
       id="path2990"
       sodipodi:cx="-354.16666"
       sodipodi:cy="34.665359"
       sodipodi:rx="87.5"
       sodipodi:ry="70.833336"
       d="m -266.66666,34.665359 a 87.5,70.833336 0 1 1 -175,0 87.5,70.833336 0 1 1 175,0 z"
       transform="matrix(0.52103693,0,0,0.65539854,416.20058,61.112399)" />
    <g
       id="g3790"
       transform="matrix(0.18759225,0,0,0.18759225,292.37348,-34.361418)"
       inkscape:export-filename="/home/jo/Desktop/wso2.svg.png"
       inkscape:export-xdpi="90"
       inkscape:export-ydpi="90">
      <path
         transform="matrix(1.1967892,0,0,1.1870712,68.078699,-64.380435)"
         d="m -111.42856,603.79077 c 0,127.81447 -98.49735,231.42858 -220,231.42858 -121.50264,0 -220,-103.61411 -220,-231.42858 0,-127.81447 98.49736,-231.42857 220,-231.42857 121.50265,0 220,103.6141 220,231.42857 z"
         sodipodi:ry="231.42857"
         sodipodi:rx="220"
         sodipodi:cy="603.79077"
         sodipodi:cx="-331.42856"
         id="path3788"
         style="fill:#000000;fill-opacity:1;stroke:#ffffff;stroke-width:53.87975377000000066;stroke-miterlimit:4;stroke-opacity:1;stroke-dasharray:none;opacity:0"
         sodipodi:type="arc" />
      <g
         transform="translate(-1525.7143,-91.428567)"
         id="g2996">
        <path
           inkscape:connector-curvature="0"
           id="path3012"
           d="m -21.857143,783.79074 0,-329.5 839.000003,0 839.00004,0 0,329.5 0,329.49996 -839.00004,0 -839.000003,0 0,-329.49996 z"
           style="fill:#fdfdfc;fill-opacity:0" />
        <path
           inkscape:connector-curvature="0"
           id="path3006"
           d="m 1387.3096,1112.3785 c 0.29,-0.7938 49.1173,-53.734 115.8333,-125.59054 70.8629,-76.32291 87.5401,-96.16752 97.903,-116.49722 9.0695,-17.79214 11.5299,-28.81407 10.8659,-48.67586 -0.3804,-11.37846 -0.9265,-15.24318 -3.0867,-21.84522 -6.695,-20.46101 -23.4082,-39.0328 -44.0122,-48.90655 -14.3174,-6.86113 -20.358,-8.0791 -39.67,-7.99875 -16.68,0.0694 -16.8144,0.0894 -33.8309,5.02577 l -2.3309,0.67619 0.6988,-18.88779 c 0.3843,-10.38828 1.0126,-19.23217 1.3962,-19.65307 1.2124,-1.33049 14.676,-3.73264 26.041,-4.64621 13.8665,-1.11466 32.2926,0.28321 44.4778,3.37424 22.8831,5.80478 39.3225,15.24924 55.135,31.67527 30.0669,31.23341 40.7955,72.56069 29.943,115.34261 -4.8905,19.27872 -13.3532,35.77565 -29.3661,57.24523 -17.5238,23.49525 -23.6162,30.36375 -99.4139,112.0776 -24.0625,25.9406 -43.75,47.6219 -43.75,48.1807 0,0.6804 30.0512,1.0158 91,1.0158 l 91,0 0,19.5 0,19.5 -134.5833,0 c -80.6632,0 -134.4498,-0.3654 -134.25,-0.9122 z M 1180.1429,997.68189 c -10.4309,-0.73721 -31.5257,-3.56103 -41,-5.48838 -54.8214,-11.15229 -105.3182,-40.34342 -144.27574,-83.40277 -36.5026,-40.3459 -58.1408,-85.91992 -66.32686,-139.69645 -2.4702,-16.2275 -2.97673,-54.16554 -0.95867,-71.80355 5.24753,-45.86391 19.972,-86.38753 45.07395,-124.04924 11.61368,-17.4246 19.21278,-26.73062 33.46032,-40.97632 20.5729,-20.57031 40.9093,-35.1265 68.5225,-49.04646 26.5648,-13.3914 48.8674,-20.55055 80.0045,-25.6815 14.0426,-2.31401 18.9362,-2.64286 40,-2.68804 24.1622,-0.0518 26.7423,0.11514 46.2899,2.99533 46.0748,6.78875 85.734,23.27603 123.1396,51.192 21.9056,16.34832 49.6677,46.20217 65.3317,70.25423 36.9895,56.7975 50.2239,133.07849 35.6532,205.5 -14.4932,72.03649 -61.7813,137.38167 -128.1076,177.0257 -29.9622,17.90878 -67.5751,30.384 -103.8068,34.42997 -10.2917,1.14927 -44.0954,2.06483 -53,1.43548 z m 117.3699,-148.04071 c 0.9342,-1.95891 5.4386,-10.15162 10.0098,-18.20604 4.5713,-8.05442 10.027,-17.7944 12.1238,-21.6444 2.0969,-3.85 4.7914,-8.8 5.988,-11 2.2865,-4.20405 16.1525,-29.15528 20.006,-36 8.3111,-14.76247 10.9175,-19.08678 11.8945,-19.73469 0.6094,-0.40408 14.0297,-0.74158 29.8228,-0.75 28.2911,-0.0151 28.7317,-0.0468 29.8577,-2.15081 1.235,-2.30758 0.9746,-30.15076 -0.2939,-31.41919 -1.1541,-1.15417 -79.0232,-0.48723 -80.4404,0.68896 -0.6865,0.56977 -2.7817,3.81015 -4.656,7.20084 -1.8743,3.39069 -8.5623,15.38989 -14.8624,26.66489 -6.3,11.275 -12.9494,23.3125 -14.7765,26.75 -1.8271,3.4375 -3.7093,6.25 -4.1826,6.25 -0.4734,0 -0.8607,-0.14614 -0.8607,-0.32475 0,-0.17862 -2.5021,-6.36612 -5.5603,-13.75 -3.0581,-7.38389 -9.4097,-22.87525 -14.1147,-34.42525 -4.705,-11.55 -10.4951,-25.725 -12.8669,-31.5 -2.3719,-5.775 -8.657,-21.075 -13.9669,-34 -5.3099,-12.925 -12.4976,-30.475 -15.9725,-39 -28.1498,-69.05961 -33.9188,-82.45337 -35.6586,-82.78843 -1.4749,-0.28404 -2.9658,2.65155 -15.3827,30.28843 -1.2356,2.75 -3.697,8.15 -5.47,12 -3.5411,7.6897 -29.8382,66.37718 -36.5191,81.5 -2.3083,5.225 -6.5731,14.675 -9.4775,21 -2.9043,6.325 -7.6444,16.9 -10.5335,23.5 -2.8892,6.6 -6.9166,15.49383 -8.9499,19.76406 l -3.6969,7.76405 -64.0864,-0.0429 c -39.4885,-0.0264 -64.45344,0.32406 -65.04254,0.91317 -0.9806,0.98063 0.7469,24.39247 2.2012,29.83064 l 0.741,2.77098 73.81784,0.25649 c 50.5632,0.17568 74.2174,-0.0751 75.0861,-0.7961 0.6976,-0.57892 4.0659,-7.44434 7.4853,-15.25649 3.4193,-7.81214 7.4611,-16.9039 8.9818,-20.2039 6.3497,-13.7793 17.9852,-39.68246 17.9852,-40.03893 0,-0.21162 1.5316,-3.66443 3.4036,-7.67291 1.8719,-4.00849 7.4522,-16.28816 12.4006,-27.28816 4.9483,-11 10.4004,-23.11884 12.1156,-26.93076 1.8457,-4.10177 3.477,-6.55084 3.9966,-6 0.4829,0.51192 3.598,7.68076 6.9225,15.93076 3.3245,8.25 10.3796,25.575 15.678,38.5 14.5545,35.50429 22.0585,53.81353 29.5092,72 3.7179,9.075 9.8975,24.15 13.7325,33.5 3.8349,9.35 10.0178,24.425 13.7397,33.5 3.7218,9.075 7.7723,18.975 9.0011,22 4.8191,11.86415 5.7094,13.24084 7.9957,12.36352 0.647,-0.24829 1.9407,-2.05418 2.8748,-4.01308 z M 155.39269,968.07738 c -3.89229,-10.60765 -11.45286,-31.21164 -16.80125,-45.78664 -5.34839,-14.575 -10.75056,-29.425 -12.00481,-33 -2.41412,-6.88094 -8.33362,-23.11611 -20.96506,-57.5 -8.065043,-21.95375 -11.090783,-30.26665 -21.838903,-60 -3.57868,-9.9 -9.407527,-25.875 -12.952982,-35.5 -11.512843,-31.25441 -41.583495,-113.51664 -56.659672,-155 -2.098791,-5.775 -8.852286,-24.225 -15.007767,-41 -6.155481,-16.775 -12.732413,-34.75692 -14.615404,-39.95982 -1.882992,-5.2029 -3.869203,-9.9054 -4.413803,-10.45 -0.5446,-0.5446 -0.990182,-1.35018 -0.990182,-1.79018 0,-0.44 12.763864,-0.8 28.364142,-0.8 l 28.364142,0 1.584176,4.25 c 1.626361,4.36317 24.177982,67.61481 32.712374,91.75 4.105004,11.60892 11.824206,33.20934 33.592189,94 2.46181,6.875 7.1056,19.925 10.31955,29 3.21395,9.075 12.43675,34.95 20.49512,57.5 8.05837,22.55 15.76441,44.15 17.12454,48 8.52464,24.13005 12.14046,33 13.45237,33 1.66072,0 2.14958,-1.16859 23.00856,-55 2.13118,-5.5 7.77065,-19.89817 12.53216,-31.99594 4.76151,-12.09777 12.16976,-30.99777 16.46278,-42 4.29301,-11.00223 10.36124,-26.52906 13.48493,-34.50406 5.62063,-14.34981 9.70865,-24.79962 19.95145,-51 13.93036,-35.63287 38.41372,-98.1054 46.04895,-117.5 3.46437,-8.8 8.64156,-22.075 11.50487,-29.5 2.86331,-7.425 5.79809,-14.625 6.52173,-16 l 1.31572,-2.5 0.95249,2.5 c 0.52386,1.375 2.5799,6.88938 4.56896,12.25418 1.98906,5.3648 5.24962,14.1398 7.24569,19.5 1.99607,5.3602 7.66015,20.77082 12.58685,34.24582 16.9272,46.29754 20.70346,56.55833 29.81033,81 5.02073,13.475 11.54667,31.25 14.50209,39.5 2.95541,8.25 7.00733,19.275 9.00426,24.5 1.99693,5.225 6.2562,16.7 9.46506,25.5 7.19772,19.73913 17.26822,47.06406 28.00951,76 11.43242,30.79777 15.69987,42.40735 20.0331,54.5 2.83163,7.90218 4.19567,10.5 5.51323,10.5 2.28953,0 2.24096,0.0984 10.86018,-22 4.0759,-10.45 11.7395,-30.025 17.03021,-43.5 5.29071,-13.475 12.15339,-31.025 15.25039,-39 3.097,-7.975 9.42509,-24.175 14.06243,-36 4.63734,-11.825 9.93001,-25.325 11.76151,-30 1.83149,-4.675 7.13876,-18.175 11.79392,-30 4.65517,-11.825 10.3859,-26.45 12.73495,-32.5 2.34906,-6.05 8.96266,-22.925 14.6969,-37.5 5.73423,-14.575 11.92346,-30.325 13.75384,-35 1.83038,-4.675 5.8833,-15.025 9.0065,-23 3.1232,-7.975 6.96095,-17.65 8.52832,-21.5 l 2.84978,-7 27.56987,-0.26582 c 20.10236,-0.19382 27.56988,0.0425 27.56988,0.8725 0,0.62608 -4.68391,12.8957 -10.40868,27.26582 -5.72477,14.37013 -20.15064,50.6525 -32.05747,80.6275 -11.90684,29.975 -23.84864,59.9 -26.53733,66.5 -2.68869,6.6 -9.66204,24.15 -15.49632,39 -5.83429,14.85 -11.47427,29.025 -12.5333,31.5 -1.05903,2.475 -5.93771,14.625 -10.84153,27 -11.90309,30.03798 -38.72284,97.48143 -67.13714,168.82929 -12.77631,32.08111 -23.58201,57.95611 -24.01266,57.5 -0.43065,-0.45611 -9.40538,-24.22929 -19.94384,-52.82929 -10.53845,-28.6 -20.00702,-54.25 -21.04126,-57 -1.03424,-2.75 -4.11318,-11.075 -6.84209,-18.5 -2.7289,-7.425 -8.61632,-23.4 -13.08315,-35.5 -4.46683,-12.1 -10.1007,-27.4 -12.51972,-34 -7.05804,-19.25704 -17.21966,-46.85286 -23.0144,-62.5 -2.95345,-7.975 -7.84236,-21.25 -10.86424,-29.5 -3.02188,-8.25 -9.4025,-25.575 -14.17915,-38.5 -14.93361,-40.40837 -15.66645,-42.42265 -16.60548,-45.64176 -1.07013,-3.66849 -3.54862,-6.0942 -4.86957,-4.76586 -0.8563,0.8611 -2.80576,5.60606 -13.31467,32.40762 -2.48003,6.325 -8.77564,22.3 -13.99024,35.5 -5.2146,13.2 -11.85145,30.075 -14.74856,37.5 -7.95454,20.38669 -37.8806,96.40474 -47.43729,120.5 -3.49027,8.8 -8.89707,22.525 -12.01511,30.5 -3.11805,7.975 -8.06952,20.575 -11.00329,28 -2.93376,7.425 -9.47006,24.075 -14.52511,37 -19.34105,49.4521 -22.16751,56.52324 -22.89847,57.28664 -0.41426,0.43265 -3.93781,-7.89235 -7.8301,-18.5 z m 580.47443,3.11437 c -20.41419,-3.65296 -37.58848,-10.52932 -54.28513,-21.73503 -20.33032,-13.6444 -34.45114,-30.2373 -46.93858,-55.15594 -5.43371,-10.84294 -12.48218,-30.06085 -14.00663,-38.18957 l -0.69006,-3.67953 6.84807,-2.16137 c 17.09282,-5.39481 39.93755,-11.97957 41.56111,-11.97957 0.98283,0 1.78696,0.61984 1.78696,1.37742 0,2.22463 5.49275,18.49449 8.98785,26.62258 9.89524,23.012 25.58328,40.6547 44.46723,50.00762 15.83029,7.84049 22.7324,9.31818 43.54492,9.32263 15.81052,0.003 18.46448,-0.25406 27.49029,-2.66661 22.40619,-5.98905 42.46004,-20.2595 55.041,-39.16752 6.97463,-10.48221 9.93328,-17.04149 13.15714,-29.16918 2.27536,-8.55957 2.61455,-11.82596 2.63002,-25.32694 0.0205,-17.88123 -1.56863,-25.39066 -7.68909,-36.33507 -6.96074,-12.44697 -16.66185,-20.63854 -43.62936,-36.84044 -11.94897,-7.17886 -36.78459,-20.38109 -45.5,-24.1871 -38.89695,-16.98623 -78.02024,-40.80179 -97.77668,-59.51971 -16.1184,-15.27111 -25.36047,-38.03099 -26.44224,-65.11768 -1.45439,-36.41694 8.8783,-64.3074 32.63688,-88.09494 26.05987,-26.09163 55.24568,-38.0424 96.58204,-39.54764 26.12423,-0.9513 44.52573,2.58304 63.76488,12.24721 18.43874,9.26211 33.83898,21.33074 45.59777,35.73339 7.80528,9.56022 16.13735,21.94774 16.13735,23.99183 0,1.54131 -5.76697,5.58698 -30.90495,21.68058 l -8.40495,5.38094 -2.93402,-3.44568 c -1.61371,-1.89513 -5.09481,-6.59569 -7.73578,-10.44569 -18.19798,-26.52901 -43.35921,-38.97321 -75.0203,-37.10342 -21.68177,1.28045 -40.78237,8.6212 -54.95972,21.12213 -16.16993,14.2579 -22.98284,29.50399 -23.02292,51.52119 -0.0429,23.58923 9.09373,39.20962 31.46374,53.79161 22.05502,14.37667 40.47156,24.31064 75.4251,40.68468 24.56551,11.50775 40.53028,20.27575 55.0938,30.25805 11.44233,7.84294 30.32235,22.80315 34.5796,27.40029 10.09606,10.90214 18.43106,27.70637 22.10939,44.57486 3.33103,15.27584 3.78562,42.16586 0.96784,57.25061 -7.39366,39.58139 -30.13776,72.94946 -65.49887,96.09393 -16.7527,10.96494 -34.25747,17.73175 -55.08418,21.29385 -13.69306,2.342 -44.97507,2.08543 -59.34952,-0.48677 z"
           style="fill:#ea8435" />
        <path
           inkscape:connector-curvature="0"
           id="path3004"
           d="m 1387.3096,1112.3785 c 0.29,-0.7938 49.1173,-53.734 115.8333,-125.59054 70.8629,-76.32291 87.5401,-96.16752 97.903,-116.49722 9.0695,-17.79214 11.5299,-28.81407 10.8659,-48.67586 -0.3804,-11.37846 -0.9265,-15.24318 -3.0867,-21.84522 -6.695,-20.46101 -23.4082,-39.0328 -44.0122,-48.90655 -14.3174,-6.86113 -20.358,-8.0791 -39.67,-7.99875 -16.68,0.0694 -16.8144,0.0894 -33.8309,5.02577 l -2.3309,0.67619 0.6988,-18.88779 c 0.3843,-10.38828 1.0126,-19.23217 1.3962,-19.65307 1.2124,-1.33049 14.676,-3.73264 26.041,-4.64621 13.8665,-1.11466 32.2926,0.28321 44.4778,3.37424 22.8831,5.80478 39.3225,15.24924 55.135,31.67527 30.0669,31.23341 40.7955,72.56069 29.943,115.34261 -4.8905,19.27872 -13.3532,35.77565 -29.3661,57.24523 -17.5238,23.49525 -23.6162,30.36375 -99.4139,112.0776 -24.0625,25.9406 -43.75,47.6219 -43.75,48.1807 0,0.6804 30.0512,1.0158 91,1.0158 l 91,0 0,19.5 0,19.5 -134.5833,0 c -80.6632,0 -134.4498,-0.3654 -134.25,-0.9122 z M 1180.1429,997.68189 c -10.4309,-0.73721 -31.5257,-3.56103 -41,-5.48838 -54.8214,-11.15229 -105.3182,-40.34342 -144.27574,-83.40277 -36.5026,-40.3459 -58.1408,-85.91992 -66.32686,-139.69645 -2.4702,-16.2275 -2.97673,-54.16554 -0.95867,-71.80355 5.24753,-45.86391 19.972,-86.38753 45.07395,-124.04924 11.61368,-17.4246 19.21278,-26.73062 33.46032,-40.97632 20.5729,-20.57031 40.9093,-35.1265 68.5225,-49.04646 26.5648,-13.3914 48.8674,-20.55055 80.0045,-25.6815 14.0426,-2.31401 18.9362,-2.64286 40,-2.68804 24.1622,-0.0518 26.7423,0.11514 46.2899,2.99533 46.0748,6.78875 85.734,23.27603 123.1396,51.192 21.9056,16.34832 49.6677,46.20217 65.3317,70.25423 36.9895,56.7975 50.2239,133.07849 35.6532,205.5 -14.4932,72.03649 -61.7813,137.38167 -128.1076,177.0257 -29.9622,17.90878 -67.5751,30.384 -103.8068,34.42997 -10.2917,1.14927 -44.0954,2.06483 -53,1.43548 z m 31.75,-50.04849 c 6.1875,-0.35653 11.25,-0.95811 11.25,-1.33683 0,-0.59848 -39.6723,-0.62892 -41,-0.0315 -0.275,0.12375 0.625,0.58529 2,1.02564 3.2209,1.03151 13.5761,1.15938 27.75,0.34266 z m -32.75,-1.22247 c 0,-0.48389 -2.5875,-1.09282 -5.75,-1.35317 -3.1625,-0.26035 -6.2,-0.65194 -6.75,-0.87019 -0.55,-0.21826 -1.225,0.0532 -1.5,0.60317 -0.2778,0.55557 1.4999,1.26657 4,1.59981 7.1849,0.95768 10,0.96341 10,0.0204 z m 58.5,-2.11895 c 1.65,-0.47243 6.2852,-1.38546 10.3004,-2.02895 4.6862,-0.75104 7.1538,-1.58219 6.8912,-2.32114 -0.5159,-1.45124 -6.1031,-1.07253 -10.6916,0.72469 -4.2625,1.66953 -12.3284,3.62416 -14.9553,3.62416 -1.0597,0 -2.2352,0.49918 -2.6122,1.10928 -0.7246,1.17236 5.161,0.58311 11.0675,-1.10804 z m -76.7708,0.39459 c -0.3323,-0.33229 -1.1948,-0.36781 -1.9167,-0.0789 -0.7977,0.31922 -0.5608,0.55618 0.6042,0.60416 1.0541,0.0434 1.6448,-0.19293 1.3125,-0.52522 z m -4.7292,-1.32844 c 0,-1.43204 -3.7341,-2.29225 -6.25,-1.43977 -2.1392,0.72487 -2.1023,0.7962 0.75,1.44907 4.4663,1.02231 5.5,1.02056 5.5,-0.009 z m -9.4771,-2.03036 c -0.6711,-1.08578 -7.0227,-3.02297 -9.9396,-3.03145 -2.8887,-0.008 -0.9723,1.3489 3.7363,2.64624 5.38,1.48235 6.9413,1.5793 6.2033,0.38521 z m 114.4771,-2.64402 c 0,-0.21615 -0.675,-0.39301 -1.5,-0.39301 -0.825,0 -1.5,0.43588 -1.5,0.96862 0,0.53273 0.675,0.70959 1.5,0.39301 0.825,-0.31659 1.5,-0.75246 1.5,-0.96862 z m -131.5462,-2.31832 c 0.3146,-0.50891 -1.886,-1.63983 -4.8901,-2.51313 -3.004,-0.87331 -5.7364,-2.03193 -6.0718,-2.5747 -0.3355,-0.54277 -1.9599,-0.98686 -3.6099,-0.98686 -1.65,0 -2.7623,0.38466 -2.4717,0.85481 0.5105,0.82611 10.0073,4.49809 14.0897,5.44788 1.1,0.25592 2.0859,0.51751 2.191,0.58131 0.105,0.0638 0.4483,-0.30039 0.7628,-0.80931 z m 142.8833,-1.06718 c 1.4236,-1.32947 -0.6774,-1.75723 -4.0871,-0.83211 -1.7875,0.48498 -3.25,1.35467 -3.25,1.93265 0,1.14138 5.8811,0.25924 7.3371,-1.10054 z m 24.1629,-10.49796 c 33.5373,-16.3604 59.0246,-37.71379 79.8621,-66.90874 3.1008,-4.34456 5.6379,-8.26793 5.6379,-8.71862 0,-1.67932 -2.7713,0.32041 -3.9112,2.82229 -0.6502,1.42695 -3.6361,5.3896 -6.6355,8.80589 -2.9993,3.41629 -5.4533,6.67587 -5.4533,7.24352 0,1.59835 -22.9033,24.33395 -28.1472,27.94114 -2.5673,1.76598 -5.8131,4.24455 -7.2128,5.50792 -4.8981,4.42082 -9.4233,7.79705 -10.4505,7.79705 -0.5698,0 -2.3081,1.02243 -3.8628,2.27207 -1.5547,1.24964 -4.4017,3.04687 -6.3267,3.99384 -1.925,0.94697 -4.175,2.14915 -5,2.67151 -5.5078,3.4874 -14.0058,7.84661 -16.5202,8.47441 -1.6389,0.40919 -3.7472,1.43551 -4.6852,2.2807 -1.0829,0.9758 -2.971,1.38894 -5.1729,1.13189 -3.1081,-0.36285 -3.3655,-0.21426 -2.4837,1.43344 1.2923,2.41476 2.185,2.11891 20.362,-6.74831 z m -187.5,3.99045 c -0.6847,-0.825 -1.8789,-1.5 -2.6538,-1.5 -0.7749,0 -1.668,-0.675 -1.9846,-1.5 -0.3166,-0.825 -1.6179,-1.5 -2.8919,-1.5 -1.2739,0 -3.5883,-1.02713 -5.143,-2.28251 -4.7338,-3.82241 -11.1967,-7.71749 -12.8053,-7.71749 -4.0913,0 -0.6528,2.35927 16.9786,11.64955 8.6905,4.57916 10.4145,5.15731 8.5,2.85045 z m -32,-18.25792 c -1.925,-1.50465 -4.4516,-3.74966 -5.6147,-4.98891 -1.163,-1.23924 -2.5649,-2.25317 -3.1151,-2.25317 -0.5503,0 -2.2099,-0.9513 -3.688,-2.114 -1.4781,-1.16271 -2.9638,-1.83771 -3.3015,-1.5 -0.3377,0.3377 -0.4265,0.75686 -0.1974,0.93146 6.0016,4.57263 12.9804,9.6978 14.9167,10.95476 4.0806,2.64893 4.7822,1.92619 1,-1.03014 z m -18,-13.63509 c 0,-0.76616 -0.7394,-1.67675 -1.6431,-2.02354 -2.4768,-0.95044 -2.9698,0.24134 -0.7839,1.89508 2.4042,1.81888 2.427,1.82008 2.427,0.12846 z m -5,-4.54797 c 0,-1.17986 -1.9504,-2.442 -2.6667,-1.72569 -0.7163,0.71632 0.5459,2.66667 1.7257,2.66667 0.5176,0 0.941,-0.42344 0.941,-0.94098 z m -4,-3.63485 c 0,-0.31671 -3.0375,-3.70567 -6.75,-7.53101 -3.7125,-3.82535 -7.4699,-7.72873 -8.3497,-8.67417 -0.8799,-0.94545 -2.5128,-2.45539 -3.6288,-3.35544 -1.116,-0.90005 -2.2471,-2.25005 -2.5134,-3 -0.2664,-0.74995 -0.8269,-1.04506 -1.2456,-0.65578 -0.9253,0.8602 2.1866,4.69553 12.6108,15.54223 7.0326,7.31772 9.8767,9.52755 9.8767,7.67417 z m -29.4417,-33.75347 c -1.9932,-3.56416 -4.3139,-7.05286 -5.1571,-7.75267 -0.8432,-0.6998 -2.2509,-2.65514 -3.1283,-4.3452 -0.8839,-1.70251 -1.7833,-2.51623 -2.0168,-1.82469 -0.6136,1.81691 12.4232,21.90594 13.5103,20.81877 0.2288,-0.22875 -1.2149,-3.33204 -3.2081,-6.89621 z m 276.4073,-3.12169 c 0.8439,-1.61526 3.9712,-7.01208 6.9495,-11.99293 2.9784,-4.98084 6.3149,-10.85608 7.4145,-13.05608 1.0996,-2.2 2.547,-4.675 3.2166,-5.5 0.6695,-0.825 1.5487,-2.625 1.9538,-4 0.4051,-1.375 1.2986,-3.175 1.9855,-4 0.6869,-0.825 3.1809,-5.1 5.5422,-9.5 9.1348,-17.0216 10.286,-19.08174 12.1003,-21.65437 1.0296,-1.4599 1.872,-2.96735 1.872,-3.34988 0,-0.38253 2.5875,-5.17348 5.75,-10.64655 3.1625,-5.47308 6.7077,-11.84684 7.8781,-14.16392 1.1705,-2.31708 3.4886,-5.66917 5.1513,-7.44908 l 3.023,-3.2362 27.7279,0 27.728,0 -0.7073,8.10727 c -0.433,4.96456 -0.3447,7.88323 0.228,7.52931 1.6582,-1.0248 3.5588,-28.09149 2.8781,-40.98572 -0.6781,-12.84495 -1.7611,-18.9096 -3.0146,-16.88147 -0.4042,0.6541 -0.2724,2.05359 0.2929,3.10998 0.792,1.4798 0.6691,2.05843 -0.5355,2.52067 -0.8599,0.32998 -19.0437,0.59996 -40.4084,0.59996 l -38.8449,0 -2.5128,5.25 c -1.382,2.8875 -3.1838,6.375 -4.004,7.75 -4.1295,6.92285 -11.5661,20.12059 -14.0869,25 -1.5627,3.025 -3.2743,6.05648 -3.8035,6.73663 -0.5291,0.68015 -2.6203,4.50515 -4.647,8.5 -4.6634,9.19198 -7.4045,13.74898 -8.275,13.75705 -0.3754,0.003 -0.9796,-1.00618 -1.3426,-2.24368 -0.3629,-1.2375 -1.456,-4.05 -2.429,-6.25 -0.9731,-2.2 -3.9032,-9.175 -6.5114,-15.5 -2.6082,-6.325 -5.8205,-13.87247 -7.1383,-16.77215 -1.3179,-2.89969 -2.3961,-6.29719 -2.3961,-7.55 0,-1.25282 -0.3977,-2.70535 -0.8838,-3.22785 -1.4308,-1.53793 -11.7954,-25.63082 -13.51,-31.40431 -0.8661,-2.9166 -1.9931,-5.80754 -2.5044,-6.4243 -0.9019,-1.08794 -9.1521,-21.06989 -19.2491,-46.62139 -5.168,-13.07816 -7.0881,-17.62062 -9.4395,-22.33104 -0.7773,-1.55707 -1.416,-3.35707 -1.4194,-4 0,-0.64293 -0.7249,-2.51896 -1.6033,-4.16896 -0.8785,-1.65 -2.2365,-4.8 -3.0178,-7 -0.7814,-2.2 -3.6299,-9.175 -6.3301,-15.5 -11.7315,-27.48031 -16.0426,-37.95007 -16.0426,-38.96028 0,-0.5937 -1.1515,-2.9036 -2.559,-5.13311 -1.953,-3.09388 -2.8651,-3.79949 -3.8523,-2.9802 -0.7114,0.59039 -3.6807,6.58597 -6.5984,13.32351 -6.3192,14.59204 -9.9796,22.72817 -14.6247,32.50666 -1.8959,3.99113 -5.0317,10.96613 -6.9683,15.5 -1.9367,4.53388 -3.9434,8.67092 -4.4593,9.19342 -0.5159,0.5225 -0.938,1.56275 -0.938,2.31167 0,0.74891 -1.5489,4.59641 -3.4421,8.55 -1.8931,3.95358 -4.5592,9.88833 -5.9246,13.18833 -1.3653,3.3 -4.7017,10.5 -7.4141,16 -2.7125,5.5 -5.2769,11.125 -5.6988,12.5 -0.7001,2.28179 -2.3772,6.1004 -9.0035,20.5 -7.9303,17.23336 -12.5169,27.53047 -12.5169,28.10092 0,0.36095 -2.7106,6.2234 -6.0235,13.02768 -5.6441,11.59223 -7.7783,14.11917 -9.5304,11.28427 -0.4838,-0.78285 -0.9761,-0.78285 -1.759,0 -0.7584,0.75838 -19.0087,1.08713 -60.3519,1.08713 l -59.26484,0 -1.198,-2.23833 c -0.6856,-1.2811 -1.1828,-6.09221 -1.1626,-11.25 0.027,-6.88111 -0.1959,-8.42062 -0.9424,-6.51167 -1.1257,2.87878 -0.2367,37.44566 1.1831,46 1.6782,10.11119 5.0504,24.40087 5.9769,25.32744 0.504,0.50395 0.7053,1.46628 0.4473,2.13851 -1.3157,3.42857 14.24584,41.5446 19.71684,48.2939 1.3484,1.66347 1.9633,2.02039 1.5648,0.90836 -0.361,-1.00748 -0.6563,-2.6331 -0.6563,-3.61249 0,-0.97939 -1.3252,-3.44831 -2.945,-5.48648 -1.6197,-2.03818 -3.4733,-5.36256 -4.119,-7.38751 -0.6458,-2.02495 -2.51044,-5.89086 -4.14374,-8.59091 -1.6334,-2.70005 -3.2183,-6.52505 -3.5221,-8.5 -0.3038,-1.97495 -1.1639,-4.80597 -1.9113,-6.29116 -0.7474,-1.48519 -1.3589,-4.31352 -1.3589,-6.28518 0,-1.97167 -0.6324,-4.58151 -1.4053,-5.79966 -0.773,-1.21815 -1.7171,-5.02732 -2.0982,-8.46482 l -0.6929,-6.25 73.14924,0 73.1493,0 1.4338,-3.43162 c 0.7886,-1.88739 1.8408,-3.68314 2.3382,-3.99055 0.4974,-0.30741 1.183,-1.66926 1.5236,-3.02633 0.3406,-1.35707 2.6405,-6.76412 5.1108,-12.01567 2.4703,-5.25155 4.4915,-10.15979 4.4915,-10.90719 0,-0.74741 0.8346,-2.43211 1.8546,-3.74378 1.02,-1.31167 2.442,-4.18486 3.1599,-6.38486 0.718,-2.2 4.1207,-9.93915 7.5616,-17.1981 3.4409,-7.25896 6.5667,-14.23396 6.9462,-15.5 0.6746,-2.25029 2.5778,-6.4752 9.8765,-21.92479 1.9807,-4.19258 3.6012,-7.87847 3.6012,-8.19087 0,-0.60245 7.4214,-16.14472 8.9226,-18.68624 0.4873,-0.825 2.4299,-5.325 4.3168,-10 1.8869,-4.675 3.7951,-8.41356 4.2404,-8.30792 0.4453,0.10564 2.5994,4.83064 4.7869,10.5 3.8527,9.98498 6.935,17.35227 12.0527,28.80792 1.3514,3.025 3.5866,8.65 4.9671,12.5 1.3806,3.85 4.7533,12.175 7.4951,18.5 2.7417,6.325 5.3208,12.625 5.7312,14 0.4104,1.375 1.8129,4.62254 3.1167,7.21676 1.3038,2.59421 2.3705,5.41618 2.3705,6.27104 0,0.85485 1.3199,4.35731 2.9331,7.78324 4.2774,9.08397 10.7134,24.61284 12.1139,29.22896 0.6675,2.2 1.5663,4.45 1.9972,5 0.6979,0.89055 6.4949,14.85926 17.43,42 1.9944,4.95 4.2786,10.27397 5.076,11.83104 0.7974,1.55707 1.4498,3.51264 1.4498,4.34571 0,0.83307 0.6505,2.7091 1.4456,4.16896 0.795,1.45986 2.0875,4.22929 2.8721,6.15429 0.7845,1.925 2.609,6.25627 4.0544,9.62505 1.4453,3.36877 2.6279,6.59377 2.6279,7.16666 0,0.57289 0.5625,1.27378 1.25,1.55752 2.4022,0.99144 4.193,0.11409 5.7156,-2.80022 z m 90.4855,-10.89511 c 3.8575,-6.89793 4.371,-8.90658 2.0489,-8.01553 -0.825,0.31659 -1.5,1.60523 -1.5,2.86366 0,1.25843 -1.1172,3.34778 -2.4827,4.64301 -2.0836,1.97637 -3.5541,6.85496 -2.0662,6.85496 0.248,0 2.048,-2.85574 4,-6.3461 z m 9.2193,-19.31679 c -1.2279,-1.22793 -2.726,1.2012 -3.2374,5.2492 l -0.4943,3.91369 2.2177,-4.22956 c 1.2198,-2.32625 1.9011,-4.54625 1.514,-4.93333 z m 5.0774,-10.33711 c 5.96,-15.13487 12.2484,-38.20755 12.2509,-44.95 0,-5.70598 -2.0626,-2.09779 -2.9655,5.18215 -0.4411,3.55709 -1.3041,7.40544 -1.9176,8.5519 -0.6136,1.14646 -1.1267,3.35155 -1.1402,4.90021 -0.034,3.86623 -3.6334,14.35831 -9.595,27.96687 -1.5565,3.55315 -1.8934,8.29205 -0.4832,6.79887 0.4934,-0.5225 2.2262,-4.325 3.8506,-8.45 z M 982.14286,702.73172 c 0,-0.85746 -0.45,-1.2809 -1,-0.94098 -0.55,0.33992 -1,1.04148 -1,1.55902 0,0.51754 0.45,0.94098 1,0.94098 0.55,0 1,-0.70156 1,-1.55902 z m 433.49244,-8.69098 c -2.1401,-16.15892 -6.8766,-34.09784 -13.6638,-51.75 -4.3377,-11.28142 -7.6222,-16.46946 -6.3309,-10 0.3843,1.925 1.3294,4.49667 2.1005,5.71482 0.771,1.21815 1.4018,2.67078 1.4018,3.22806 0,0.55729 1.575,4.37732 3.5,8.48895 1.925,4.11163 3.5,8.14494 3.5,8.96291 0,0.81798 0.45,1.76534 1,2.10526 0.55,0.33992 1,2.69703 1,5.23802 0,2.54099 0.4285,6.00193 0.9522,7.69098 0.5238,1.68905 1.6854,6.446 2.5815,10.571 3.1667,14.57728 5.2909,19.80904 3.9587,9.75 z m -432.15844,-1.99073 c 0.5516,-3.23951 1.7042,-8.60808 3.4906,-16.25927 0.5136,-2.2 1.6632,-5.67305 2.5546,-7.71788 0.8915,-2.04484 1.6208,-4.87526 1.6208,-6.28984 0,-1.41458 0.8624,-4.26246 1.9165,-6.32863 2.2857,-4.48029 3.7035,-11.16365 2.3683,-11.16365 -1.9166,0 -10.7226,30.36839 -12.7587,44 -0.3697,2.475 -0.9125,5.34385 -1.2063,6.37523 -0.314,1.10251 -0.1234,1.62141 0.4626,1.25927 0.5481,-0.33878 1.2464,-2.08263 1.5516,-3.87523 z m 17.63004,-58.35428 c 0.039,-2.28755 3.2907,-5.81695 4.3672,-4.74051 0.8635,0.86359 0.7391,-2.63065 -0.1762,-4.94769 -0.5318,-1.34618 -1.6308,0.20026 -4.4842,6.31009 -5.02974,10.76993 -5.37384,12.02617 -2.32064,8.47312 1.4178,-1.65 2.59414,-3.94276 2.61384,-5.09501 z m 394.0006,-6.65499 c -0.02,-0.6875 -0.6786,-2.375 -1.4646,-3.75 -1.3685,-2.39399 -1.4306,-2.40806 -1.4646,-0.33179 -0.046,2.80271 0.9369,5.33179 2.0716,5.33179 0.4911,0 0.8771,-0.5625 0.8576,-1.25 z m -4.3506,-8.31353 c -1.5743,-4.10247 -9.5327,-16.57047 -16.3752,-25.65389 -8.2042,-10.89113 -23.7788,-27.57589 -24.7938,-26.56096 -0.5614,0.5614 2.6097,4.18394 16.305,18.62611 2.3375,2.46498 4.25,5.00165 4.25,5.63703 0,0.63538 1.575,2.99528 3.5,5.24421 1.925,2.24893 3.5,4.40246 3.5,4.78564 0,0.38317 1.125,2.03366 2.5,3.66776 1.375,1.63409 2.5,3.61155 2.5,4.39436 0,0.7828 0.4753,1.42327 1.0562,1.42327 0.581,0 1.9092,1.92827 2.9517,4.28504 1.0426,2.35677 2.2172,4.60677 2.6105,5 1.2989,1.29892 2.6063,0.74297 1.9956,-0.84857 z m -380.7621,-2.01934 c 0.1935,-1.05442 1.431,-3.34961 2.75,-5.10041 1.3189,-1.7508 2.3981,-3.58486 2.3981,-4.07568 0,-0.49083 1.125,-1.94929 2.5,-3.24104 1.375,-1.29175 2.5,-2.86675 2.5,-3.5 0,-0.63325 1.1531,-2.23464 2.5624,-3.55863 1.4093,-1.32399 3.5131,-3.98993 4.675,-5.92431 1.1619,-1.93438 2.8213,-4.26951 3.6876,-5.18916 0.8662,-0.91966 4.275,-4.76653 7.575,-8.5486 3.3,-3.78208 8.1311,-8.65463 10.7358,-10.8279 4.8122,-4.0151 5.744,-5.4514 3.5369,-5.4514 -1.9814,0 -19.6303,18.74082 -27.8226,29.54394 -8.0296,10.58854 -17.9501,25.82706 -17.9501,27.5725 0,1.8002 2.4809,0.32195 2.8519,-1.69931 z M 1347.9762,564.382 c -1.2148,-3.31181 -37.0036,-29.09126 -40.3865,-29.09126 -1.8452,0 -0.768,2.64721 1.3724,3.37243 0.9244,0.31323 2.3558,0.96161 3.1808,1.44084 0.825,0.47924 2.2202,1.2798 3.1004,1.77903 2.1087,1.196 8.4106,5.59428 13.3996,9.35204 2.2,1.65706 4.951,3.43796 6.1134,3.95756 1.1624,0.5196 4.2025,3.00423 6.7558,5.52141 4.2511,4.19089 7.2881,5.91418 6.4641,3.66795 z m -286.3874,-8.17793 c 3.6014,-3.16202 7.0198,-5.74876 14.0541,-10.63489 2.2,-1.52814 4.8724,-3.56594 5.9386,-4.52844 1.0662,-0.9625 2.9563,-1.75 4.2003,-1.75 1.2439,0 2.6216,-0.6319 3.0614,-1.40422 1.0921,-1.91763 22.9588,-13.20939 27.2997,-14.09731 1.925,-0.39375 5.075,-1.5663 7,-2.60566 3.8148,-2.05973 20.8025,-7.48704 28,-8.94559 2.475,-0.50156 9.45,-1.80982 15.5,-2.90727 14.4239,-2.61643 15.563,-3.06872 6.3773,-2.5322 -11.1995,0.65413 -30.1515,4.94569 -45.1758,10.22972 -12.1814,4.28423 -36.0218,15.59422 -44.9807,21.33912 -9.2924,5.95871 -26.6327,19.25701 -26.1431,20.04918 0.7881,1.27515 1.0119,1.17344 4.8682,-2.21244 z m 243.5541,-21.89301 c 0,-0.94852 -4.5056,-3.59043 -12.25,-7.18296 -2.601,-1.20655 -3.7345,-1.37154 -3.6995,-0.53847 0.028,0.66061 3.2903,2.87014 7.25,4.91006 7.7799,4.00797 8.6995,4.30515 8.6995,2.81137 z m -18.5354,-8.96307 c 0.5281,-0.8545 -5.1042,-3.85594 -10.3753,-5.52891 -4.4212,-1.40322 -1.8132,1.31026 3.6607,3.8088 6.7519,3.0819 5.9931,2.88751 6.7146,1.72011 z m -15.4646,-6.86779 c 0,-0.79914 -13.1702,-5.18979 -13.8501,-4.61732 -0.9539,0.80313 1.2456,2.42786 3.2867,2.42786 1.2752,0 2.8787,0.675 3.5634,1.5 1.2907,1.55515 7,2.11749 7,0.68946 z m -16,-5.02149 c 0,-0.91221 -15.4784,-4.66303 -23.6219,-5.72421 -5.9295,-0.77268 -8.3865,0.98618 -2.6075,1.86658 11.2341,1.71141 21.5147,3.64162 22.0044,4.13136 0.872,0.87198 4.225,0.65475 4.225,-0.27373 z m -69,-7.16797 c 1.1647,-0.75269 0.8721,-0.9728 -1.309,-0.98469 -1.6211,-0.009 -2.5477,0.40759 -2.191,0.98469 0.7674,1.24163 1.5787,1.24163 3.5,0 z m 14,0 c 0,-0.55 -1.1516,-1 -2.559,-1 -1.4514,0 -2.2915,0.43284 -1.941,1 0.3399,0.55 1.4915,1 2.559,1 1.0676,0 1.941,-0.45 1.941,-1 z m 17,0 c -3.6238,-1.16054 -8,-1.16054 -8,0 0,0.55234 2.3502,0.95538 5.25,0.90032 4.1306,-0.0784 4.717,-0.27039 2.75,-0.90032 z M 161.82725,984.20796 c -0.20964,-0.77947 -0.94358,-2.99222 -1.63098,-4.91722 -0.6874,-1.925 -2.31462,-6.65 -3.61605,-10.5 -1.30142,-3.85 -3.99142,-11.5 -5.97776,-17 -1.98635,-5.5 -4.89604,-13.6 -6.46597,-18 -1.56994,-4.4 -4.50606,-12.275 -6.5247,-17.5 -6.48291,-16.78017 -9.61243,-25.38664 -11.00212,-30.25693 -0.74654,-2.61632 -1.63652,-5.20865 -1.97773,-5.76074 -0.77521,-1.25432 -7.28444,-19.2594 -8.67013,-23.98233 -0.56479,-1.925 -1.34529,-3.95 -1.73445,-4.5 -0.81378,-1.15011 -3.50382,-8.29701 -11.85635,-31.5 -3.266783,-9.075 -8.068183,-22.35 -10.669783,-29.5 -2.60159,-7.15 -6.89927,-19.16212 -9.55039,-26.6936 -2.65113,-7.53147 -5.090797,-14.13138 -5.421495,-14.66646 -0.330698,-0.53509 -2.569301,-6.52297 -4.974673,-13.30641 -8.790395,-24.78998 -17.704944,-49.03173 -19.428761,-52.83353 -0.623454,-1.375 -3.891167,-10.15 -7.261585,-19.5 -3.370419,-9.35 -7.476192,-20.6 -9.123941,-25 -1.647749,-4.4 -3.563875,-10.26869 -4.258058,-13.04154 -0.694183,-2.77285 -1.769299,-5.92285 -2.389147,-7 -1.55322,-2.69914 -7.640096,-18.90661 -11.626756,-30.95846 -1.819358,-5.5 -4.015671,-11.575 -4.880695,-13.5 -1.938095,-4.31298 -12.452421,-33.02016 -14.101057,-38.5 -0.66188,-2.2 -1.498679,-4.675 -1.859554,-5.5 -2.481489,-5.67297 -15.600798,-41.41479 -15.308795,-41.7068 0.199858,-0.19985 12.23509,-0.36758 26.744958,-0.37271 20.569926,-0.007 26.53519,0.27582 27.078886,1.28509 1.396989,2.59325 11.802867,31.61642 11.808854,32.93622 0.0034,0.74701 0.727481,2.7082 1.609094,4.3582 0.881613,1.65 2.400455,5.7 3.375203,9 0.974748,3.3 2.256749,7.125 2.84889,8.5 2.938614,6.8237 14.160652,38.25842 14.160652,39.66624 0,0.88808 0.87634,3.46399 1.947422,5.72423 2.381496,5.02553 12.812978,33.58817 14.283368,39.10953 0.58587,2.2 1.63462,5.35 2.33055,7 0.69593,1.65 3.07544,8.175 5.28782,14.5 2.21237,6.325 5.66647,16 7.675783,21.5 2.00931,5.5 5.22889,14.5 7.15463,20 1.92574,5.5 4.09706,11.575 4.82515,13.5 2.42236,6.40445 14.23342,39.43117 15.73534,44 1.75866,5.34986 5.99139,17.19173 13.22521,37 2.9124,7.975 6.08604,17.2 7.05254,20.5 0.9665,3.3 2.06938,6.45 2.45085,7 0.74007,1.06702 4.82627,12.20125 8.99138,24.5 1.96855,5.81274 3.00721,7.56679 4.61695,7.79688 1.61303,0.23056 2.48556,-0.66295 3.90605,-4 1.00598,-2.36328 2.88384,-6.63151 4.17301,-9.48495 1.28917,-2.85345 2.34395,-5.64465 2.34395,-6.20269 0,-0.55804 1.95492,-5.8734 4.34426,-11.81193 2.38935,-5.93852 6.50564,-16.42231 9.14731,-23.29731 7.11605,-18.5196 14.30957,-36.90036 16.43718,-42 3.6006,-8.63021 7.9198,-19.58764 12.61376,-32 2.5999,-6.875 6.84479,-17.675 9.43308,-24 2.5883,-6.325 6.33847,-15.775 8.33373,-21 1.99525,-5.225 5.6877,-14.9 8.20544,-21.5 2.51774,-6.6 5.24844,-13.45285 6.06822,-15.22856 1.70147,-3.68553 5.87382,-14.61976 8.11688,-21.27144 2.66278,-7.89635 10.5584,-26.44305 11.95356,-28.07874 0.74062,-0.86831 1.34658,-2.57822 1.34658,-3.79981 0,-1.22159 3.18339,-10.18615 7.0742,-19.92126 3.89082,-9.7351 8.77864,-22.42519 10.86184,-28.20019 2.0832,-5.775 5.57758,-14.3441 7.7653,-19.04244 2.18771,-4.69835 4.2888,-9.87335 4.66908,-11.5 0.38029,-1.62666 1.99487,-6.10756 3.58795,-9.95756 1.59309,-3.85 4.08,-10.15 5.52646,-14 1.44647,-3.85 3.13957,-8.31199 3.76244,-9.91553 l 1.1325,-2.91554 1.92197,4.41554 c 1.67373,3.84524 9.34673,24.7675 11.70465,31.91553 0.45358,1.375 2.02247,5.425 3.48644,9 1.46397,3.575 4.22276,11.225 6.13063,17 1.90788,5.775 4.09912,11.85 4.86943,13.5 2.1104,4.5205 7.50711,19.50605 7.50711,20.84571 0,0.64615 1.56951,4.77021 3.48779,9.16456 1.91829,4.39435 3.49329,8.91223 3.5,10.03973 0.007,1.1275 0.38004,2.4775 0.82962,3 0.44957,0.5225 2.01826,4.1 3.48596,7.95 7.92433,20.78664 16.15238,43.05802 18.8417,51 1.67617,4.95 3.61809,10.125 4.31537,11.5 0.69728,1.375 1.58748,3.85 1.97823,5.5 0.39074,1.65 3.10278,9.075 6.02674,16.5 2.92396,7.425 7.13584,18.675 9.35974,25 2.2239,6.325 5.15187,14.425 6.50661,18 3.32732,8.78042 12.39078,33.43154 14.3391,39 0.86597,2.475 3.49692,9.45 5.84656,15.5 2.34964,6.05 4.9617,13.025 5.80457,15.5 1.78583,5.24392 5.40679,15.15426 12.42264,34 2.76416,7.425 5.33133,14.93141 5.70484,16.6809 0.82221,3.8513 2.69193,5.58581 5.04704,4.68206 1.65849,-0.63642 6.49649,-10.03162 6.50965,-12.64147 0.003,-0.67182 0.58333,-2.34649 1.28875,-3.72149 0.70542,-1.375 2.1099,-4.75 3.12105,-7.5 1.01115,-2.75 3.30935,-8.6 5.10711,-13 1.79776,-4.4 4.27808,-10.7 5.51181,-14 1.23373,-3.3 3.02159,-7.8 3.97303,-10 1.59904,-3.69745 3.46134,-8.45348 13.50906,-34.5 2.0156,-5.225 6.09885,-15.6608 9.07388,-23.19066 2.97503,-7.52986 5.40915,-14.06717 5.40915,-14.52735 0,-0.89368 6.99964,-17.92804 11.36438,-27.65642 1.44959,-3.23094 2.63562,-6.54967 2.63562,-7.37495 0,-0.82529 1.09241,-4.0318 2.42758,-7.12557 4.01258,-9.29776 12.6294,-31.03091 16.10711,-40.62505 1.7943,-4.95 5.04002,-13.275 7.21273,-18.5 2.17271,-5.225 6.12116,-15.125 8.77433,-22 2.65317,-6.875 6.59667,-16.775 8.76334,-22 2.16666,-5.225 4.96252,-12.425 6.21302,-16 1.2505,-3.575 2.99722,-7.85 3.8816,-9.5 0.88438,-1.65 1.61074,-3.70149 1.61413,-4.55887 0.003,-0.85738 0.66685,-2.43238 1.47436,-3.5 0.8075,-1.06762 1.4825,-2.77312 1.5,-3.79 0.0175,-1.01688 0.68442,-3.26688 1.48206,-5 0.79764,-1.73312 3.28838,-7.87613 5.53497,-13.65113 2.24659,-5.775 5.32421,-13.425 6.83915,-17 l 2.75443,-6.5 26.71059,-0.26633 c 14.69083,-0.14649 26.7106,-0.0506 26.7106,0.21298 0,0.74899 -3.89135,10.61431 -5.95557,15.09852 -1.02416,2.22484 -2.75338,6.76011 -3.84271,10.07836 -2.38075,7.25212 -12.11752,30.4883 -13.3364,31.82647 -0.47593,0.5225 -0.86532,1.71974 -0.86532,2.66053 0,1.57813 -10.13882,27.63126 -14.76311,37.93588 -1.09922,2.44948 -2.31796,5.57859 -2.70831,6.95359 -1.11995,3.94498 -5.39452,14.62832 -10.15453,25.37896 -2.40573,5.43342 -4.37405,10.26771 -4.37405,10.74286 0,1.15221 -10.63388,28.03345 -13.59695,34.37153 -1.28734,2.75366 -3.6678,8.83165 -5.28992,13.50665 -3.15318,9.08756 -7.48834,19.73369 -10.97041,26.94074 -1.1785,2.43921 -2.14272,4.8571 -2.14272,5.37311 0,1.0706 -5.51544,15.34212 -10.5065,27.18615 -1.85415,4.4 -4.81621,11.825 -6.58236,16.5 -1.76615,4.675 -5.679,14.35 -8.69522,21.5 -3.01622,7.15 -5.84067,14.35 -6.27656,16 -0.81739,3.09409 -11.3123,29.28861 -14.22318,35.5 -0.90212,1.925 -2.83639,6.875 -4.29837,11 -3.43322,9.68686 -11.29582,28.22376 -12.49149,29.45 -0.50948,0.5225 -0.92542,1.8725 -0.92432,3 0.002,1.94342 -2.49199,8.39941 -12.57375,32.55 -2.4108,5.775 -4.99678,12.525 -5.74664,15 -0.74985,2.475 -3.63434,9.9 -6.40997,16.5 -2.77563,6.6 -8.32672,20.325 -12.33575,30.5 -4.00903,10.175 -7.63554,18.90337 -8.0589,19.39638 -0.42336,0.493 -1.43555,-0.632 -2.24932,-2.5 -2.7536,-6.32088 -6.61053,-16.86705 -7.54905,-20.64168 -0.51346,-2.06508 -3.13997,-9.1547 -5.8367,-15.7547 -2.69672,-6.6 -5.71741,-14.475 -6.71263,-17.5 -2.48343,-7.54839 -10.33463,-28.72577 -12.23427,-33 -0.85555,-1.925 -2.57761,-6.65 -3.82679,-10.5 -3.02144,-9.31206 -3.88629,-11.66957 -10.13355,-27.62306 -2.93407,-7.49269 -5.33468,-14.00654 -5.33468,-14.47524 0,-0.91767 -3.06779,-9.25631 -8.97739,-24.4017 -2.03875,-5.225 -4.50125,-12.425 -5.47224,-16 -0.97098,-3.575 -2.20478,-7.04159 -2.74178,-7.70354 -0.537,-0.66194 -1.5925,-3.13694 -2.34555,-5.5 -0.75306,-2.36305 -3.21713,-9.02146 -5.47571,-14.79646 -5.66627,-14.48816 -10.99019,-28.91441 -11.99393,-32.5 -0.46189,-1.65 -4.2876,-12 -8.50156,-23 -4.21397,-11 -8.49822,-22.475 -9.52055,-25.5 -1.02234,-3.025 -3.19513,-9.1 -4.82843,-13.5 -1.6333,-4.4 -4.19434,-11.6 -5.6912,-16 -1.49686,-4.4 -3.31046,-9.35 -4.03021,-11 -2.55476,-5.85663 -9.61644,-24.62951 -12.86999,-34.21377 -1.81594,-5.34936 -3.97174,-10.14875 -4.79066,-10.66532 -2.61088,-1.6469 -4.60873,0.12791 -6.20869,5.51557 -0.856,2.88248 -2.4032,7.06847 -3.43822,9.3022 -1.03501,2.23373 -3.53544,8.33632 -5.5565,13.56132 -2.02106,5.225 -4.25326,10.85 -4.96044,12.5 -0.70718,1.65 -1.85364,4.575 -2.54769,6.5 -2.20107,6.10481 -3.81811,10.16149 -9.56668,24 -3.08438,7.425 -6.18702,15.53516 -6.89476,18.02257 -0.70774,2.48741 -1.79654,5.41241 -2.41955,6.5 -1.44342,2.51975 -14.16827,35.08781 -14.16827,36.26234 0,0.48392 -3.15,8.26273 -7,17.28623 -3.85,9.02351 -7,16.94428 -7,17.60171 0,0.65743 -1.09792,3.81248 -2.43982,7.01124 -1.34191,3.19875 -4.30773,10.54091 -6.59073,16.31591 -2.28299,5.775 -5.01007,12.38781 -6.06018,14.69514 -1.0501,2.30732 -1.90927,4.65703 -1.90927,5.22157 0,1.34008 -7.9482,20.8518 -11.90871,29.23424 -1.70021,3.59851 -3.09129,7.23066 -3.09129,8.07146 0,0.8408 -1.14836,4.12537 -2.55191,7.29905 -1.40355,3.17367 -4.38895,10.76269 -6.63423,16.86448 -2.24528,6.10178 -4.65006,11.99864 -5.34397,13.10411 -0.6939,1.10547 -1.5869,3.13495 -1.98443,4.50995 -0.66406,2.29685 -6.45232,17.81523 -8.39236,22.5 -5.04931,12.19298 -9.66437,24.06037 -11.17658,28.74005 -1.02018,3.15702 -2.54219,7.06918 -3.38225,8.69368 -0.84007,1.62451 -3.58375,8.49148 -6.09708,15.25996 -4.68568,12.61864 -6.07629,15.23882 -6.7528,12.72353 z m 93.31561,-243.11722 c 0,-1.61542 -0.29571,-1.90429 -1.11287,-1.08713 -0.61207,0.61207 -0.81052,1.60207 -0.44098,2.2 1.03439,1.67368 1.55385,1.30164 1.55385,-1.11287 z m 262.68311,-29.9875 c -0.31922,-0.79773 -0.55618,-0.56078 -0.60416,0.60417 -0.0434,1.05416 0.19293,1.64479 0.52522,1.3125 0.33229,-0.33229 0.36781,-1.1948 0.0789,-1.91667 z m 233.31689,261.14774 c -28.02714,-2.45702 -52.28993,-11.2835 -73.57821,-26.76678 -7.86134,-5.71766 -16.42179,-13.44146 -16.42179,-14.8168 0,-0.68304 -0.91688,-1.53289 -2.03751,-1.88857 -1.12063,-0.35567 -3.15337,-2.29849 -4.51719,-4.31738 -1.36382,-2.01889 -4.76113,-6.82071 -7.54957,-10.67071 -7.26594,-10.0321 -18.225,-32.92802 -22.43412,-46.86988 -1.97097,-6.52844 -3.36946,-12.42787 -3.10777,-13.10984 0.2617,-0.68198 2.65165,-1.76325 5.31099,-2.40282 2.65934,-0.63957 6.41017,-1.78972 8.33517,-2.55589 7.43302,-2.95841 32.88626,-10.11208 33.41589,-9.39159 0.13343,0.18151 1.64255,4.60502 3.35361,9.83002 9.09447,27.77158 19.34899,44.62243 35.03839,57.57721 8.80139,7.26733 26.22705,15.78486 36.69211,17.93482 10.82259,2.22341 28.26492,2.95521 38,1.5943 8.32649,-1.16399 26.19556,-5.76956 28.09027,-7.23998 0.59965,-0.46536 3.67574,-2.2258 6.83574,-3.91207 17.1889,-9.17251 33.07602,-26.1451 42.37214,-45.26714 1.28686,-2.64708 3.53541,-9.84708 4.99678,-16 3.38675,-14.25959 3.73898,-34.91277 0.78769,-46.18714 -4.08235,-15.59526 -16.18447,-32.42101 -27.75351,-38.58614 -1.28101,-0.68264 -6.82911,-4.17864 -12.32911,-7.76888 -5.5,-3.59025 -12.925,-8.07456 -16.5,-9.96516 -3.575,-1.89059 -6.98491,-3.82018 -7.57758,-4.28798 -0.59267,-0.46779 -3.96767,-2.34494 -7.5,-4.17143 -3.53233,-1.8265 -7.32242,-3.81472 -8.42242,-4.41828 -1.1,-0.60356 -5.825,-2.89465 -10.5,-5.09132 -22.55834,-10.59961 -47.95537,-23.35052 -52,-26.10728 -2.475,-1.68693 -4.87646,-3.07532 -5.33657,-3.08533 -0.46012,-0.01 -4.28512,-2.34362 -8.5,-5.18579 -4.21489,-2.84217 -9.46343,-6.32967 -11.66343,-7.75 -4.7722,-3.08094 -4.82347,-3.11849 -10.34461,-7.57531 -2.38954,-1.92891 -4.69009,-3.5071 -5.11233,-3.5071 -1.73348,0 -16.57148,-15.86661 -20.70372,-22.13895 -5.97118,-9.06369 -11.78932,-24.21508 -13.87315,-36.128 -1.94065,-11.09434 -1.67526,-36.42542 0.47389,-45.23305 2.32067,-9.51052 4.24484,-16.01217 5.62306,-19 0.76111,-1.65 1.87618,-4.35 2.47795,-6 2.91849,-8.00237 13.72375,-23.35119 22.9159,-32.55195 12.52058,-12.53231 31.48734,-25.10652 41.54301,-27.54137 1.65,-0.39952 4.5856,-1.54679 6.52356,-2.54949 1.93796,-1.00269 5.91027,-2.2757 8.82735,-2.82891 2.91707,-0.55322 5.77489,-1.29701 6.3507,-1.65289 2.85436,-1.76408 18.20189,-3.54301 34.79839,-4.03347 16.34067,-0.4829 19.72557,-0.29702 29,1.59255 11.61161,2.36575 22.66833,5.71985 23.54815,7.14345 0.31344,0.50714 1.39479,0.92208 2.40302,0.92208 2.08782,0 16.07743,7.6431 23.54883,12.86569 2.75,1.92228 8.2796,6.22639 12.288,9.56468 9.84954,8.20295 31.212,34.77626 31.212,38.82541 0,0.80615 -3.0375,3.38228 -6.75,5.72474 -3.7125,2.34245 -9.68099,6.23011 -13.2633,8.63924 -3.58232,2.40913 -7.02223,4.38024 -7.64424,4.38024 -0.62202,0 -2.5166,1.29439 -4.21018,2.87643 -5.09164,4.7563 -6.5377,4.59282 -10.93905,-1.23672 -2.13916,-2.8333 -4.6635,-6.64843 -5.60964,-8.47807 -2.76856,-5.35381 -16.48644,-19.02014 -24.19805,-24.10713 -15.09707,-9.95882 -32.62202,-14.02297 -54.17013,-12.56238 -29.88218,2.0255 -57.76231,18.78834 -69.03633,41.50787 -4.27632,8.61768 -8.17908,23.90187 -8.17908,32.0313 0,6.26096 2.77257,17.92518 6.24923,26.29056 2.71309,6.52812 4.58512,9.17452 11.31816,16 4.43707,4.49798 9.98074,9.30314 12.31928,10.67814 2.33854,1.375 7.70821,4.76396 11.93261,7.53102 4.2244,2.76706 10.27782,6.31308 13.45206,7.88003 3.17424,1.56695 5.98662,3.19732 6.24974,3.62305 0.49139,0.7951 22.44914,11.72781 41.97892,20.9012 17.14732,8.05433 33.52828,16.27728 36.91471,18.53053 1.69691,1.12908 4.32238,2.60134 5.83437,3.27167 3.7955,1.68271 15.98811,9.72284 23.47225,15.47823 3.42173,2.63135 6.46058,4.78427 6.753,4.78427 0.29242,0 4.24282,3.04034 8.77867,6.7563 13.58205,11.12701 20.62496,19.78415 27.045,33.2437 7.79128,16.33435 10.12824,28.41476 10.15615,52.5 0.0175,15.07563 -0.35054,19.70588 -2.26519,28.5 -4.70518,21.61123 -12.09442,39.1112 -22.18896,52.55018 -1.925,2.56277 -4.84171,6.52489 -6.48159,8.8047 -5.02684,6.98852 -21.3665,22.29222 -29.63449,27.75564 -1.98885,1.31422 -6.1484,4.06951 -9.24346,6.12288 -5.34114,3.54349 -19.57455,10.7666 -21.216,10.7666 -0.42215,0 -3.51328,1.09847 -6.86918,2.44104 -3.35591,1.34257 -10.59121,3.3552 -16.07846,4.47249 -19.73234,4.01784 -32.06976,4.74804 -51.47682,3.04671 z"
           style="fill:#f07a22" />
        <path
           inkscape:connector-curvature="0"
           id="path3000"
           d="m 1387.3096,1112.3785 c 0.29,-0.7938 49.1173,-53.734 115.8333,-125.59054 70.8629,-76.32291 87.5401,-96.16752 97.903,-116.49722 9.0695,-17.79214 11.5299,-28.81407 10.8659,-48.67586 -0.3804,-11.37846 -0.9265,-15.24318 -3.0867,-21.84522 -6.695,-20.46101 -23.4082,-39.0328 -44.0122,-48.90655 -14.3174,-6.86113 -20.358,-8.0791 -39.67,-7.99875 -16.68,0.0694 -16.8144,0.0894 -33.8309,5.02577 l -2.3309,0.67619 0.6988,-18.88779 c 0.3843,-10.38828 1.0126,-19.23217 1.3962,-19.65307 1.2124,-1.33049 14.676,-3.73264 26.041,-4.64621 13.8665,-1.11466 32.2926,0.28321 44.4778,3.37424 22.8831,5.80478 39.3225,15.24924 55.135,31.67527 30.0669,31.23341 40.7955,72.56069 29.943,115.34261 -4.8905,19.27872 -13.3532,35.77565 -29.3661,57.24523 -17.5238,23.49525 -23.6162,30.36375 -99.4139,112.0776 -24.0625,25.9406 -43.75,47.6219 -43.75,48.1807 0,0.6804 30.0512,1.0158 91,1.0158 l 91,0 0,19.5 0,19.5 -134.5833,0 c -80.6632,0 -134.4498,-0.3654 -134.25,-0.9122 z M 1180.1429,997.68189 c -10.4309,-0.73721 -31.5257,-3.56103 -41,-5.48838 -54.8214,-11.15229 -105.3182,-40.34342 -144.27574,-83.40277 -36.5026,-40.3459 -58.1408,-85.91992 -66.32686,-139.69645 -2.4702,-16.2275 -2.97673,-54.16554 -0.95867,-71.80355 5.24753,-45.86391 19.972,-86.38753 45.07395,-124.04924 11.61368,-17.4246 19.21278,-26.73062 33.46032,-40.97632 20.5729,-20.57031 40.9093,-35.1265 68.5225,-49.04646 26.5648,-13.3914 48.8674,-20.55055 80.0045,-25.6815 14.0426,-2.31401 18.9362,-2.64286 40,-2.68804 24.1622,-0.0518 26.7423,0.11514 46.2899,2.99533 46.0748,6.78875 85.734,23.27603 123.1396,51.192 21.9056,16.34832 49.6677,46.20217 65.3317,70.25423 36.9895,56.7975 50.2239,133.07849 35.6532,205.5 -14.4932,72.03649 -61.7813,137.38167 -128.1076,177.0257 -29.9622,17.90878 -67.5751,30.384 -103.8068,34.42997 -10.2917,1.14927 -44.0954,2.06483 -53,1.43548 z m 53.1158,-52.45015 c 25.7366,-4.1988 43.8561,-10.21478 68.1469,-22.62596 40.2819,-20.58173 72.6856,-53.47262 92.9297,-94.3272 22.2824,-44.96789 29.0618,-98.63671 18.7759,-148.63941 -11.8779,-57.74238 -43.6005,-104.46807 -92.9683,-136.93728 -26.6665,-17.53856 -54.4617,-28.76944 -85.3503,-34.48649 -14.4282,-2.67048 -44.9028,-3.6873 -59.6497,-1.99028 -49.5163,5.69814 -96.4308,28.36262 -131.5058,63.53064 -33.956,34.04612 -54.85734,76.1347 -61.95734,124.76235 -3.2145,22.01594 -2.9779,57.71551 0.4856,73.27263 4.2937,19.28616 5.5904,24.30929 8.6475,33.49681 17.47304,52.51245 59.91284,100.14875 111.83004,125.52276 22.1479,10.82459 48.4753,18.0945 74,20.43398 14.5444,1.33308 42.1163,0.35297 56.6158,-2.01255 z"
           style="fill:#ffffff;fill-opacity:1" />
      </g>
    </g>
    <rect
       style="opacity:0;fill:#000000;fill-opacity:1;stroke:#ffffff;stroke-width:12.04724406999999964;stroke-miterlimit:4;stroke-opacity:1;stroke-dasharray:none"
       id="rect3759"
       width="380.83334"
       height="308.33334"
       x="68.333336"
       y="-68.667976" />
  </g>
</svg>
