<svg xmlns="http://www.w3.org/2000/svg" viewBox="0 0 130 130" width="130" height="130">
	<defs>
		<clipPath clipPathUnits="userSpaceOnUse" id="cp1">
			<path d="M-8 -15L136 -15L136 145L-8 145Z" />
		</clipPath>
	</defs>
	<style>
		tspan { white-space:pre }
		.shp0 { fill: #3cc19d } 
		.shp1 { fill: #ffffff } 
	</style>
	<g id="Page 1" clip-path="url(#cp1)">
		<path id="Path 1" class="shp0" d="M129.68 65.22C129.68 100.95 100.72 129.9 65 129.9C29.28 129.9 0.32 100.95 0.32 65.22C0.32 29.5 29.28 0.54 65 0.54C100.72 0.54 129.68 29.5 129.68 65.22Z" />
		<path id="Path 3" class="shp1" d="M39.63 63.92C41.32 63.92 42.85 63.24 43.98 62.15L50.18 65.26C50.15 65.51 50.11 65.76 50.11 66.02C50.11 69.48 52.93 72.3 56.39 72.3C59.86 72.3 62.68 69.48 62.68 66.02C62.68 65.05 62.44 64.14 62.05 63.32L70.46 54.91C71.28 55.3 72.19 55.54 73.16 55.54C76.62 55.54 79.44 52.72 79.44 49.26C79.44 48.6 79.31 47.99 79.13 47.39L86.44 41.91C87.43 42.58 88.63 42.97 89.92 42.97C93.38 42.97 96.2 40.15 96.2 36.68C96.2 33.22 93.38 30.4 89.92 30.4C86.45 30.4 83.63 33.22 83.63 36.68C83.63 37.34 83.76 37.95 83.94 38.55L76.63 44.03C75.64 43.36 74.44 42.97 73.16 42.97C69.69 42.97 66.87 45.79 66.87 49.26C66.87 50.22 67.11 51.13 67.5 51.95L59.09 60.36C58.27 59.97 57.36 59.73 56.39 59.73C54.7 59.73 53.17 60.41 52.04 61.5L45.84 58.4C45.87 58.15 45.92 57.9 45.92 57.64C45.92 54.17 43.1 51.35 39.63 51.35C36.16 51.35 33.34 54.17 33.34 57.64C33.34 61.1 36.16 63.92 39.63 63.92ZM98.44 97.73L96.2 97.73L96.2 53.45C96.2 52.29 95.27 51.35 94.11 51.35L85.73 51.35C84.57 51.35 83.63 52.29 83.63 53.45L83.63 97.73L79.44 97.73L79.44 66.02C79.44 64.86 78.5 63.92 77.35 63.92L68.97 63.92C67.81 63.92 66.87 64.86 66.87 66.02L66.87 97.73L62.68 97.73L62.68 82.78C62.68 81.62 61.74 80.68 60.58 80.68L52.2 80.68C51.05 80.68 50.11 81.62 50.11 82.78L50.11 97.73L45.92 97.73L45.92 74.4C45.92 73.24 44.98 72.3 43.82 72.3L35.44 72.3C34.28 72.3 33.35 73.24 33.35 74.4L33.35 97.73L31.11 97.73C29.95 97.73 29.02 98.66 29.02 99.82C29.02 100.98 29.95 101.92 31.11 101.92L98.44 101.92C99.6 101.92 100.53 100.98 100.53 99.82C100.53 98.66 99.6 97.73 98.44 97.73Z" />
	</g>
</svg>