<svg xmlns="http://www.w3.org/2000/svg" viewBox="0 0 130 130" width="130" height="130">
	<defs>
		<clipPath clipPathUnits="userSpaceOnUse" id="cp1">
			<path d="M-8 -15L136 -15L136 145L-8 145Z" />
		</clipPath>
	</defs>
	<style>
		tspan { white-space:pre }
		.shp0 { fill: #f87925 } 
		.shp1 { fill: #ffffff } 
		.txt2 { font-size: 72px;fill: #f87925;font-family: "Roboto";font-weight: 400 } 
	</style>
	<g id="Page 1" clip-path="url(#cp1)">
		<path id="Path 1" class="shp0" d="M129.68 65.22C129.68 100.95 100.72 129.9 65 129.9C29.28 129.9 0.32 100.95 0.32 65.22C0.32 29.5 29.28 0.54 65 0.54C100.72 0.54 129.68 29.5 129.68 65.22Z" />
		<path id="Path 3" class="shp1" d="M61.68 59.91C60.79 59.93 60.19 60.03 59.87 60.12L59.87 65.69C60.24 65.78 60.7 65.81 61.34 65.81C63.7 65.83 65.18 64.66 65.18 62.68C65.18 60.91 63.91 59.87 61.68 59.91Z" />
		<path id="Path 4" fill-rule="evenodd" class="shp1" d="M103 37.47L103 92.93C103 95.72 100.72 98 97.93 98L74 98C73.9 98 73.8 97.99 73.69 97.99L73.69 104.81L27 98.41L27 32.03L73.69 25.79L73.69 32.42C73.8 32.41 73.9 32.4 74 32.4L97.93 32.4C100.72 32.4 103 34.68 103 37.47ZM100.1 37.47C100.1 36.27 99.13 35.3 97.93 35.3L74 35.3C73.9 35.3 73.79 35.32 73.69 35.33L73.69 64.34C75.27 63.7 78.48 63.7 78.48 63.7C78.48 63.7 75.17 64.35 75.24 65.14C75.31 65.94 85.85 66.01 89.81 64.93C89.1 65.55 88.29 66.84 81.44 67.08C77.53 67.22 74.94 66.86 73.69 66.25L73.69 74.15C74.43 74.09 75.04 74.06 75.16 74.05C75.16 74.05 74.44 74.18 73.69 74.38L73.69 76C75.92 76.46 80.06 76.8 83.97 76.59C89.6 76.3 93.11 75.34 93.49 74.96C93.88 74.58 93.59 74.24 93.59 74.24C93.59 74.24 94.41 74.77 93.78 75.44C93.16 76.11 89.36 77.7 80.7 77.7C77.58 77.7 75.32 77.57 73.69 77.34L73.69 95.07C73.79 95.09 73.9 95.1 74 95.1L97.93 95.1C99.13 95.1 100.1 94.13 100.1 92.93L100.1 37.47ZM80.29 56.77C80.21 59.52 82.16 63.27 82.16 63.27C82.16 63.27 76.83 59.16 78.48 55.55C80.14 51.94 84.4 50.72 85.56 48.62C86.71 46.53 86.28 44.51 86.28 44.51C86.28 44.51 88.22 47.25 86.5 50.07C84.76 52.88 80.34 54.82 80.29 56.77ZM85.27 55.84C84.11 57.93 86.13 58.58 86.57 60.67C87 62.77 84.41 64.57 84.41 64.57C84.41 64.57 85.2 62.98 84.91 62.04C84.62 61.1 82.82 60.17 82.82 57.28C82.82 54.39 89.45 51.87 89.45 51.87C89.45 51.87 86.04 54.44 85.27 55.84ZM96.09 65.58C96.68 68.84 90.32 70.12 90.32 70.12C90.32 70.12 94.36 67.45 94.07 65.65C93.78 63.85 90.82 63.85 90.82 63.85C90.82 63.85 95.37 61.61 96.09 65.58ZM83.6 69.04C85.85 68.79 88.71 68.39 88.71 68.39L87.46 69.4C87.46 69.4 83.4 70.73 79.78 70.49C75.55 70.19 73.57 68.68 77.19 67.82C77.19 67.82 76.39 68.1 76.68 68.61C76.97 69.11 80.6 69.38 83.6 69.04ZM82.99 72.24C84.78 72.19 85.02 72.08 88.17 71.67L87 72.56C86.5 72.97 85.7 73.55 80.88 73.66C76.83 73.76 76.22 73.32 76.32 72.46C76.42 71.59 78.05 71.55 78.05 71.55C78.05 71.55 77.76 71.74 77.91 72.07C78.05 72.41 81.2 72.29 82.99 72.24ZM95.47 76.16C95.47 76.16 95.23 78.14 91.13 78.85C82.57 80.34 75.07 78.57 75.07 78.57C75.07 78.57 86.61 79.05 90.41 78.28C94.21 77.51 95.47 76.16 95.47 76.16Z" />
		<text id="B " style="transform: matrix(1,0,0,1,24.951,89.89)" >
			<tspan x="0" y="0" class="txt2">B</tspan>
		</text>
	</g>
</svg>