<?xml version="1.0" encoding="UTF-8" standalone="no"?>
<svg
   xmlns:dc="http://purl.org/dc/elements/1.1/"
   xmlns:cc="http://creativecommons.org/ns#"
   xmlns:rdf="http://www.w3.org/1999/02/22-rdf-syntax-ns#"
   xmlns:svg="http://www.w3.org/2000/svg"
   xmlns="http://www.w3.org/2000/svg"
   viewBox="0 0 96 106.66667"
   height="106.66667"
   width="96"
   xml:space="preserve"
   id="svg2"
   version="1.1"><metadata
     id="metadata8"><rdf:RDF><cc:Work
         rdf:about=""><dc:format>image/svg+xml</dc:format><dc:type
           rdf:resource="http://purl.org/dc/dcmitype/StillImage" /></cc:Work></rdf:RDF></metadata><defs
     id="defs6"><clipPath
       id="clipPath28"
       clipPathUnits="userSpaceOnUse"><path
         id="path26"
         d="M 0,80 H 72 V 0 H 0 Z" /></clipPath></defs><g
     transform="matrix(1.3333333,0,0,-1.3333333,0,106.66667)"
     id="g10"><path
       id="path12"
       style="fill:#57bc75;fill-opacity:1;fill-rule:nonzero;stroke:none"
       d="M 0,20.876 H 72 V 80 H 0 Z" /><g
       transform="translate(55.1973,34.874)"
       id="g14"><path
         id="path16"
         style="fill:none;stroke:#ffffff;stroke-width:2;stroke-linecap:butt;stroke-linejoin:miter;stroke-miterlimit:10;stroke-dasharray:none;stroke-opacity:1"
         d="M 0,0 6.245,6.245 0.097,12.394" /></g><g
       transform="translate(61.4424,41.1191)"
       id="g18"><path
         id="path20"
         style="fill:none;stroke:#ffffff;stroke-width:2;stroke-linecap:butt;stroke-linejoin:miter;stroke-miterlimit:10;stroke-dasharray:none;stroke-opacity:1"
         d="M 0,0 -18.696,0.012" /></g><g
       id="g22"><g
         clip-path="url(#clipPath28)"
         id="g24"><g
           transform="translate(29.4048,32.8682)"
           id="g30"><path
             id="path32"
             style="fill:#ffffff;fill-opacity:1;fill-rule:nonzero;stroke:none"
             d="m 0,0 c -3.893,0 -7.057,3.164 -7.057,7.053 0,3.888 3.164,7.057 7.057,7.057 3.889,0 7.058,-3.169 7.058,-7.057 C 7.058,3.164 3.889,0 0,0 M 11.833,-3.553 6.81,1.471 c 1.245,1.518 1.996,3.463 1.996,5.582 0,4.861 -3.945,8.805 -8.806,8.805 -4.865,0 -8.806,-3.944 -8.806,-8.805 0,-4.862 3.941,-8.806 8.806,-8.806 2.12,0 4.06,0.746 5.578,1.991 l 5.023,-5.018 c 0.341,-0.342 0.892,-0.342 1.232,0 0.341,0.337 0.341,0.89 0,1.227" /></g><g
           transform="translate(7.6841,72.2861)"
           id="g34"><path
             id="path36"
             style="fill:none;stroke:#ffffff;stroke-width:2;stroke-linecap:butt;stroke-linejoin:miter;stroke-miterlimit:10;stroke-dasharray:none;stroke-opacity:1"
             d="M 0,0 H 15.468" /></g><g
           transform="translate(16.7026,64.0269)"
           id="g38"><path
             id="path40"
             style="fill:none;stroke:#ffffff;stroke-width:2;stroke-linecap:butt;stroke-linejoin:miter;stroke-miterlimit:10;stroke-dasharray:none;stroke-opacity:1"
             d="m 0,0 6.245,-6.245 6.149,6.148" /></g><g
           transform="translate(22.9478,57.7817)"
           id="g42"><path
             id="path44"
             style="fill:none;stroke:#ffffff;stroke-width:2;stroke-linecap:butt;stroke-linejoin:miter;stroke-miterlimit:10;stroke-dasharray:none;stroke-opacity:1"
             d="M 0,0 -0.033,15.504" /></g><path
           id="path46"
           style="fill:#ffffff;fill-opacity:1;fill-rule:nonzero;stroke:none"
           d="M 8.788,53.77 H 35.92 V 51.738 H 8.788 Z" /><path
           id="path48"
           style="fill:#ffffff;fill-opacity:1;fill-rule:nonzero;stroke:none"
           d="M 8.982,49.203 H 21.899 V 47.171 H 8.982 Z" /><path
           id="path50"
           style="fill:#ffffff;fill-opacity:1;fill-rule:nonzero;stroke:none"
           d="M 8.788,44.986 H 19.171 V 42.954 H 8.788 Z" /><path
           id="path52"
           style="fill:#ffffff;fill-opacity:1;fill-rule:nonzero;stroke:none"
           d="m 8.788,41.016 h 9.1 v -2.032 h -9.1 z" /><path
           id="path54"
           style="fill:#ffffff;fill-opacity:1;fill-rule:nonzero;stroke:none"
           d="M 8.788,37.134 H 19.171 V 35.102 H 8.788 Z" /><path
           id="path56"
           style="fill:#ffffff;fill-opacity:1;fill-rule:nonzero;stroke:none"
           d="M 8.788,33.036 H 21.9 V 31.004 H 8.788 Z" /></g></g></g></svg>