<?xml version="1.0" encoding="UTF-8" standalone="no"?>
<svg
   xmlns:dc="http://purl.org/dc/elements/1.1/"
   xmlns:cc="http://creativecommons.org/ns#"
   xmlns:rdf="http://www.w3.org/1999/02/22-rdf-syntax-ns#"
   xmlns:svg="http://www.w3.org/2000/svg"
   xmlns="http://www.w3.org/2000/svg"
   viewBox="0 0 96 106.66667"
   height="106.66667"
   width="96"
   xml:space="preserve"
   id="svg2"
   version="1.1"><metadata
     id="metadata8"><rdf:RDF><cc:Work
         rdf:about=""><dc:format>image/svg+xml</dc:format><dc:type
           rdf:resource="http://purl.org/dc/dcmitype/StillImage" /></cc:Work></rdf:RDF></metadata><defs
     id="defs6"><clipPath
       id="clipPath28"
       clipPathUnits="userSpaceOnUse"><path
         id="path26"
         d="M 0,80 H 72 V 0 H 0 Z" /></clipPath></defs><g
     transform="matrix(1.3333333,0,0,-1.3333333,0,106.66667)"
     id="g10"><path
       id="path12"
       style="fill:#489ad4;fill-opacity:1;fill-rule:nonzero;stroke:none"
       d="M 0,20.876 H 72 V 80 H 0 Z" /><g
       transform="translate(17.166,29.9551)"
       id="g14"><path
         id="path16"
         style="fill:none;stroke:#ffffff;stroke-width:2;stroke-linecap:butt;stroke-linejoin:miter;stroke-miterlimit:10;stroke-dasharray:none;stroke-opacity:1"
         d="M 0,0 6.246,6.245 0.097,12.394" /></g><g
       transform="translate(23.4116,36.2002)"
       id="g18"><path
         id="path20"
         style="fill:none;stroke:#ffffff;stroke-width:2;stroke-linecap:butt;stroke-linejoin:miter;stroke-miterlimit:10;stroke-dasharray:none;stroke-opacity:1"
         d="M 0,0 -15.505,-0.033" /></g><g
       id="g22"><g
         clip-path="url(#clipPath28)"
         id="g24"><g
           transform="translate(32.5498,36.2002)"
           id="g30"><path
             id="path32"
             style="fill:#ffffff;fill-opacity:1;fill-rule:nonzero;stroke:none"
             d="m 0,0 c 0,-1.324 -1.073,-2.397 -2.396,-2.397 -1.324,0 -2.397,1.073 -2.397,2.397 0,1.323 1.073,2.396 2.397,2.396 C -1.073,2.396 0,1.323 0,0" /></g><g
           transform="translate(43.085,36.7842)"
           id="g34"><path
             id="path36"
             style="fill:#ffffff;fill-opacity:1;fill-rule:nonzero;stroke:none"
             d="m 0,0 c 0.322,-1.283 -0.456,-2.586 -1.74,-2.908 -1.283,-0.323 -2.586,0.455 -2.908,1.739 -0.324,1.283 0.456,2.586 1.739,2.908 C -1.626,2.063 -0.323,1.284 0,0" /></g><g
           transform="translate(54.9922,30.0029)"
           id="g38"><path
             id="path40"
             style="fill:none;stroke:#ffffff;stroke-width:2;stroke-linecap:butt;stroke-linejoin:miter;stroke-miterlimit:10;stroke-dasharray:none;stroke-opacity:1"
             d="M 0,0 6.245,6.245 0.098,12.394" /></g><g
           transform="translate(61.2373,36.248)"
           id="g42"><path
             id="path44"
             style="fill:none;stroke:#ffffff;stroke-width:2;stroke-linecap:butt;stroke-linejoin:miter;stroke-miterlimit:10;stroke-dasharray:none;stroke-opacity:1"
             d="M 0,0 -15.504,-0.032" /></g><g
           transform="translate(34.5723,52.7578)"
           id="g46"><path
             id="path48"
             style="fill:none;stroke:#ffffff;stroke-width:2;stroke-linecap:butt;stroke-linejoin:miter;stroke-miterlimit:10;stroke-dasharray:none;stroke-opacity:1"
             d="m 0,0 6.245,-6.245 6.149,6.148" /></g><g
           transform="translate(40.8174,46.5127)"
           id="g50"><path
             id="path52"
             style="fill:none;stroke:#ffffff;stroke-width:2;stroke-linecap:butt;stroke-linejoin:miter;stroke-miterlimit:10;stroke-dasharray:none;stroke-opacity:1"
             d="M 0,0 V 24.53" /></g><g
           transform="translate(36.3105,65.2583)"
           id="g54"><path
             id="path56"
             style="fill:none;stroke:#ffffff;stroke-width:2;stroke-linecap:butt;stroke-linejoin:miter;stroke-miterlimit:10;stroke-dasharray:none;stroke-opacity:1"
             d="M 0,0 -6.246,6.245 -12.394,0.097" /></g><g
           transform="translate(30.0649,71.5034)"
           id="g58"><path
             id="path60"
             style="fill:none;stroke:#ffffff;stroke-width:2;stroke-linecap:butt;stroke-linejoin:miter;stroke-miterlimit:10;stroke-dasharray:none;stroke-opacity:1"
             d="M 0,0 V -24.53" /></g></g></g></g></svg>