<svg xmlns="http://www.w3.org/2000/svg" viewBox="0 0 130 130" width="130" height="130">
	<defs>
		<clipPath clipPathUnits="userSpaceOnUse" id="cp1">
			<path d="M-8 -8L136 -8L136 152L-8 152Z" />
		</clipPath>
	</defs>
	<style>
		tspan { white-space:pre }
		.shp0 { fill: #f87925 } 
		.shp1 { fill: #ffffff } 
		.txt2 { font-size: 72px;fill: #f87925;font-family: "Roboto";font-weight: 400 } 
	</style>
	<g id="Page 1" clip-path="url(#cp1)">
		<path id="Path 1" class="shp0" d="M129.68 65.22C129.68 100.95 100.72 129.9 65 129.9C29.28 129.9 0.32 100.95 0.32 65.22C0.32 29.5 29.28 0.54 65 0.54C100.72 0.54 129.68 29.5 129.68 65.22Z" />
		<path id="Path 3" class="shp1" d="M61.68 56.91C60.79 56.93 60.19 57.03 59.87 57.12L59.87 62.69C60.24 62.78 60.7 62.81 61.34 62.81C63.7 62.83 65.18 61.66 65.18 59.68C65.18 57.91 63.91 56.87 61.68 56.91Z" />
		<path id="Path 4" fill-rule="evenodd" class="shp1" d="M103 34.47L103 89.93C103 92.72 100.72 95 97.93 95L74 95C73.9 95 73.8 94.99 73.69 94.99L73.69 101.81L27 95.41L27 29.03L73.69 22.79L73.69 29.42C73.8 29.41 73.9 29.4 74 29.4L97.93 29.4C100.72 29.4 103 31.68 103 34.47ZM100.1 34.47C100.1 33.27 99.13 32.3 97.93 32.3L74 32.3C73.9 32.3 73.79 32.32 73.69 32.33L73.69 61.34C75.27 60.7 78.48 60.7 78.48 60.7C78.48 60.7 75.17 61.35 75.24 62.14C75.31 62.94 85.85 63.01 89.81 61.93C89.1 62.55 88.29 63.84 81.44 64.08C77.53 64.22 74.94 63.86 73.69 63.25L73.69 71.15C74.43 71.09 75.04 71.06 75.16 71.05C75.16 71.05 74.44 71.18 73.69 71.38L73.69 73C75.92 73.46 80.06 73.8 83.97 73.59C89.6 73.3 93.11 72.34 93.49 71.96C93.88 71.58 93.59 71.24 93.59 71.24C93.59 71.24 94.41 71.77 93.78 72.44C93.16 73.11 89.36 74.7 80.7 74.7C77.58 74.7 75.32 74.57 73.69 74.34L73.69 92.07C73.79 92.09 73.9 92.1 74 92.1L97.93 92.1C99.13 92.1 100.1 91.13 100.1 89.93L100.1 34.47ZM80.29 53.77C80.21 56.52 82.16 60.27 82.16 60.27C82.16 60.27 76.83 56.16 78.48 52.55C80.14 48.94 84.4 47.72 85.56 45.62C86.71 43.53 86.28 41.51 86.28 41.51C86.28 41.51 88.22 44.25 86.5 47.07C84.76 49.88 80.34 51.82 80.29 53.77ZM85.27 52.84C84.11 54.93 86.13 55.58 86.57 57.67C87 59.77 84.41 61.57 84.41 61.57C84.41 61.57 85.2 59.98 84.91 59.04C84.62 58.1 82.82 57.17 82.82 54.28C82.82 51.39 89.45 48.87 89.45 48.87C89.45 48.87 86.04 51.44 85.27 52.84ZM90.82 60.85C90.82 60.85 95.37 58.61 96.09 62.58C96.68 65.84 90.32 67.12 90.32 67.12C90.32 67.12 94.36 64.45 94.07 62.65C93.78 60.85 90.82 60.85 90.82 60.85ZM83.6 66.04C85.85 65.79 88.71 65.39 88.71 65.39L87.46 66.4C87.46 66.4 83.4 67.73 79.78 67.49C75.55 67.19 73.57 65.68 77.19 64.82C77.19 64.82 76.39 65.1 76.68 65.61C76.97 66.11 80.6 66.38 83.6 66.04ZM82.99 69.24C84.78 69.19 85.02 69.08 88.17 68.67L87 69.56C86.5 69.97 85.7 70.55 80.88 70.66C76.83 70.76 76.22 70.32 76.32 69.46C76.42 68.59 78.05 68.55 78.05 68.55C78.05 68.55 77.76 68.74 77.91 69.07C78.05 69.41 81.2 69.29 82.99 69.24ZM95.47 73.16C95.47 73.16 95.23 75.14 91.13 75.85C82.57 77.34 75.07 75.57 75.07 75.57C75.07 75.57 86.61 76.05 90.41 75.28C94.21 74.51 95.47 73.16 95.47 73.16Z" />
		<text id="C " style="transform: matrix(1,0,0,1,26.951,88.89)" >
			<tspan x="0" y="0" class="txt2">C</tspan>
		</text>
	</g>
</svg>