<svg xmlns="http://www.w3.org/2000/svg" viewBox="0 0 130 130" width="130" height="130">
	<defs>
		<clipPath clipPathUnits="userSpaceOnUse" id="cp1">
			<path d="M-8 -15L136 -15L136 145L-8 145Z" />
		</clipPath>
	</defs>
	<style>
		tspan { white-space:pre }
		.shp0 { fill: #3cc19d } 
		.shp1 { fill: none;stroke: #ffffff;stroke-width: 4 } 
	</style>
	<g id="Page 1" clip-path="url(#cp1)">
		<path id="Path 1" class="shp0" d="M129.68 65.22C129.68 100.95 100.72 129.9 65 129.9C29.28 129.9 0.32 100.95 0.32 65.22C0.32 29.5 29.28 0.54 65 0.54C100.72 0.54 129.68 29.5 129.68 65.22Z" />
		<path id="Path 3" class="shp1" d="M36.63 73.22L42.89 65.35L36.73 57.59M42.86 65.39L24 65.43M58.44 62.22L83.44 44.57M95.72 41.11L105.98 41.11M60.32 65.41C60.32 68.94 57.46 71.8 53.93 71.8C50.4 71.8 47.54 68.94 47.54 65.41C47.54 61.88 50.4 59.02 53.93 59.02C57.46 59.02 60.32 61.88 60.32 65.41ZM95.72 41.11C95.72 44.64 92.86 47.5 89.34 47.5C85.81 47.5 82.95 44.64 82.95 41.11C82.95 37.58 85.81 34.72 89.34 34.72C92.86 34.72 95.72 37.58 95.72 41.11ZM95.72 65.41L105.98 65.41M95.72 65.41C95.72 68.94 92.86 71.8 89.34 71.8C85.81 71.8 82.95 68.94 82.95 65.41C82.95 61.88 85.81 59.02 89.34 59.02C92.86 59.02 95.72 61.88 95.72 65.41ZM95.72 89.87L105.98 89.87M95.72 89.87C95.72 93.4 92.86 96.26 89.34 96.26C85.81 96.26 82.95 93.4 82.95 89.87C82.95 86.34 85.81 83.48 89.34 83.48C92.86 83.48 95.72 86.34 95.72 89.87Z" />
	</g>
</svg>