<svg xmlns="http://www.w3.org/2000/svg" viewBox="0 0 130 130" width="130" height="130">
	<defs>
		<clipPath clipPathUnits="userSpaceOnUse" id="cp1">
			<path d="M-8 -15L136 -15L136 145L-8 145Z" />
		</clipPath>
	</defs>
	<style>
		tspan { white-space:pre }
		.shp0 { fill: #8b58ad } 
		.shp1 { fill: none;stroke: #ffffff;stroke-width: 2 } 
	</style>
	<g id="Page 1" clip-path="url(#cp1)">
		<path id="Path 1" class="shp0" d="M129.68 65.22C129.68 100.95 100.72 129.9 65 129.9C29.28 129.9 0.32 100.95 0.32 65.22C0.32 29.5 29.28 0.54 65 0.54C100.72 0.54 129.68 29.5 129.68 65.22Z" />
		<path id="Path 3" class="shp1" d="M39.89 65.17C39.89 68.73 37.01 71.62 33.45 71.62C29.89 71.62 27 68.73 27 65.17C27 61.61 29.89 58.72 33.45 58.72C37.01 58.72 39.89 61.61 39.89 65.17ZM39.89 87.59C39.89 91.15 37.01 94.03 33.45 94.03C29.89 94.03 27 91.15 27 87.59C27 84.03 29.89 81.14 33.45 81.14C37.01 81.14 39.89 84.03 39.89 87.59ZM39.89 42.45C39.89 46.01 37.01 48.89 33.45 48.89C29.89 48.89 27 46.01 27 42.45C27 38.89 29.89 36 33.45 36C37.01 36 39.89 38.89 39.89 42.45ZM102.89 65.33C102.89 68.89 100 71.77 96.44 71.77C92.88 71.77 89.99 68.89 89.99 65.33C89.99 61.77 92.88 58.88 96.44 58.88C100 58.88 102.89 61.77 102.89 65.33ZM102.89 87.74C102.89 91.3 100 94.19 96.44 94.19C92.88 94.19 89.99 91.3 89.99 87.74C89.99 84.18 92.88 81.29 96.44 81.29C100 81.29 102.89 84.18 102.89 87.74ZM102.89 42.6C102.89 46.16 100 49.05 96.44 49.05C92.88 49.05 89.99 46.16 89.99 42.6C89.99 39.04 92.88 36.15 96.44 36.15C100 36.15 102.89 39.04 102.89 42.6ZM39.89 42.45L52.98 42.6L77.16 87.74L89.99 87.74M39.89 65.17L89.99 65.33" />
	</g>
</svg>