<svg xmlns="http://www.w3.org/2000/svg" viewBox="0 0 130 130" width="130" height="130">
	<defs>
		<clipPath clipPathUnits="userSpaceOnUse" id="cp1">
			<path d="M-8 -15L136 -15L136 145L-8 145Z" />
		</clipPath>
	</defs>
	<style>
		tspan { white-space:pre }
		.shp0 { fill: #4fc071 } 
		.shp1 { fill: #ffffff } 
	</style>
	<g id="Page 1" clip-path="url(#cp1)">
		<path id="Path 1" class="shp0" d="M129.68 65.22C129.68 100.95 100.72 129.9 65 129.9C29.28 129.9 0.32 100.95 0.32 65.22C0.32 29.5 29.28 0.54 65 0.54C100.72 0.54 129.68 29.5 129.68 65.22Z" />
		<path id="Path 3" fill-rule="evenodd" class="shp1" d="M70.92 95.91L71.77 100.39C67.94 101.11 64.05 101.46 60.15 101.45C43.56 101.45 31.04 95.67 31.04 88.01L31.04 43.23C31.04 35.57 43.56 29.8 60.15 29.8C76.74 29.8 89.26 35.57 89.26 43.23L89.26 65.62L84.78 65.62L84.78 50.58C79.72 54.29 70.79 56.67 60.15 56.67C49.52 56.67 40.58 54.29 35.52 50.58L35.52 65.62C35.52 69.85 46.05 74.58 60.15 74.58L62.39 74.58L62.39 79.06L60.15 79.06C49.52 79.06 40.58 76.68 35.52 72.97L35.52 88.01C35.52 92.24 46.05 96.97 60.15 96.97C63.77 96.96 67.37 96.6 70.92 95.91ZM35.52 43.23C35.52 47.46 46.05 52.19 60.15 52.19C74.26 52.19 84.78 47.46 84.78 43.23C84.78 39 74.26 34.28 60.15 34.28C46.05 34.28 35.52 39 35.52 43.23Z" />
		<path id="Path 4" fill-rule="evenodd" class="shp1" d="M97.56 95.38L94.41 98.54L86.48 90.61C82.74 93.09 77.87 93.09 74.12 90.61C68.97 87.2 67.55 80.25 70.97 75.1C74.38 69.94 81.33 68.53 86.48 71.94C91.64 75.35 93.05 82.3 89.64 87.45L97.56 95.38ZM87.02 81.3C87.02 77.58 84.01 74.58 80.3 74.58C76.59 74.58 73.59 77.58 73.59 81.3C73.59 85 76.59 88.01 80.3 88.01C84.01 88.01 87.02 85 87.02 81.3Z" />
	</g>
</svg>