<svg xmlns="http://www.w3.org/2000/svg" viewBox="0 0 130 130" width="130" height="130">
	<defs>
		<clipPath clipPathUnits="userSpaceOnUse" id="cp1">
			<path d="M-8 -15L136 -15L136 145L-8 145Z" />
		</clipPath>
	</defs>
	<style>
		tspan { white-space:pre }
		.shp0 { fill: #4fc071 } 
		.shp1 { fill: #ffffff } 
		.shp2 { fill: #ffffff;stroke: #ffffff } 
	</style>
	<g id="Page 1" clip-path="url(#cp1)">
		<path id="Path 1" class="shp0" d="M129.68 65.22C129.68 100.95 100.72 129.9 65 129.9C29.28 129.9 0.32 100.95 0.32 65.22C0.32 29.5 29.28 0.54 65 0.54C100.72 0.54 129.68 29.5 129.68 65.22Z" />
		<path id="Path 3" fill-rule="evenodd" class="shp1" d="M73.92 94.91L74.77 99.39C70.94 100.11 67.05 100.46 63.15 100.45C46.56 100.45 34.04 94.67 34.04 87.01L34.04 42.23C34.04 34.57 46.56 28.8 63.15 28.8C79.74 28.8 92.26 34.57 92.26 42.23L92.26 64.62L87.78 64.62L87.78 49.58C82.72 53.29 73.79 55.67 63.15 55.67C52.52 55.67 43.58 53.29 38.52 49.58L38.52 64.62C38.52 68.85 49.05 73.58 63.15 73.58L65.39 73.58L65.39 78.06L63.15 78.06C52.52 78.06 43.58 75.68 38.52 71.97L38.52 87.01C38.52 91.24 49.05 95.97 63.15 95.97C66.77 95.96 70.37 95.6 73.92 94.91ZM38.52 42.23C38.52 46.46 49.05 51.19 63.15 51.19C77.26 51.19 87.78 46.46 87.78 42.23C87.78 38 77.26 33.28 63.15 33.28C49.05 33.28 38.52 38 38.52 42.23Z" />
		<path id="Path 4" fill-rule="evenodd" class="shp1" d="M100.56 94.38L97.41 97.54L89.48 89.61C85.74 92.09 80.87 92.09 77.12 89.61C71.97 86.2 70.55 79.25 73.97 74.1C77.38 68.94 84.33 67.53 89.48 70.94C94.64 74.35 96.05 81.3 92.64 86.45L100.56 94.38ZM90.02 80.3C90.02 76.58 87.01 73.58 83.3 73.58C79.59 73.58 76.59 76.58 76.59 80.3C76.59 84 79.59 87.01 83.3 87.01C87.01 87.01 90.02 84 90.02 80.3Z" />
		<path id="Path 5" class="shp0" d="M98.22 80.29C98.22 88.09 91.9 94.41 84.11 94.41C76.31 94.41 69.99 88.09 69.99 80.29C69.99 72.5 76.31 66.18 84.11 66.18C91.9 66.18 98.22 72.5 98.22 80.29ZM82.18 79.19L111.06 79.19L111.06 101.43L82.18 101.43L82.18 79.19Z" />
		<path id="Path 6" fill-rule="evenodd" class="shp2" d="M96.59 75.36L95.89 76.05L83.07 88.88C83.06 88.88 83.06 88.89 83.05 88.89C83.01 88.94 82.96 88.97 82.9 88.99L78.98 90.36C78.76 90.44 78.5 90.32 78.42 90.09C78.34 89.86 78.46 89.61 78.69 89.53L81.94 88.39L78.24 84.69L76.23 90.4L76.82 90.19C77.05 90.11 77.3 90.23 77.39 90.46C77.47 90.69 77.34 90.94 77.12 91.02L75.66 91.53C75.61 91.55 75.56 91.55 75.51 91.55C75.4 91.55 75.29 91.51 75.2 91.43C75.08 91.31 75.04 91.13 75.1 90.97L77.64 83.73C77.66 83.67 77.69 83.62 77.74 83.57C77.74 83.57 77.75 83.57 77.75 83.56L90.57 70.74L91.27 70.04C92.61 68.7 94.79 68.7 96.13 70.04L96.59 70.49C97.93 71.84 97.93 74.02 96.59 75.36ZM94.96 75.74L90.88 71.67L78.68 83.87L82.76 87.95L94.96 75.74ZM95.97 71.12L95.51 70.66C94.51 69.66 92.89 69.66 91.89 70.66L91.51 71.05L93.54 73.08L95.58 75.12L95.97 74.74C96.97 73.74 96.97 72.11 95.97 71.12Z" />
		<path id="Path 7" class="shp2" d="M88.34 76.07L80.94 83.47C80.77 83.64 80.77 83.92 80.94 84.09C81.03 84.18 81.14 84.22 81.25 84.22C81.36 84.22 81.47 84.18 81.56 84.09L88.96 76.69C89.13 76.52 89.13 76.24 88.96 76.07C88.79 75.9 88.51 75.9 88.34 76.07Z" />
		<path id="Path 8" class="shp2" d="M90.53 73.88L89.81 74.6C89.64 74.77 89.64 75.05 89.81 75.22C89.9 75.31 90.01 75.35 90.12 75.35C90.23 75.35 90.35 75.31 90.43 75.22L91.15 74.51C91.32 74.33 91.32 74.06 91.15 73.88C90.98 73.71 90.7 73.71 90.53 73.88Z" />
	</g>
</svg>