<svg xmlns="http://www.w3.org/2000/svg" viewBox="0 0 130 130" width="130" height="130">
	<defs>
		<clipPath clipPathUnits="userSpaceOnUse" id="cp1">
			<path d="M-8 -15L136 -15L136 145L-8 145Z" />
		</clipPath>
	</defs>
	<style>
		tspan { white-space:pre }
		.shp0 { fill: #3ba0d8 } 
		.shp1 { fill: #ffffff } 
		.shp2 { fill: none;stroke: #ffffff;stroke-width: 6 } 
	</style>
	<g id="Page 1" clip-path="url(#cp1)">
		<path id="Path 1" class="shp0" d="M129.68 65.22C129.68 100.95 100.72 129.9 65 129.9C29.28 129.9 0.32 100.95 0.32 65.22C0.32 29.5 29.28 0.54 65 0.54C100.72 0.54 129.68 29.5 129.68 65.22Z" />
		<path id="Path 3" fill-rule="evenodd" class="shp1" d="M91.43 48.32L91.43 99.7L38.26 99.7L38.26 31.82L74.93 31.82L91.43 48.32ZM89.17 97.44L89.17 49.92L73.33 49.92L73.33 34.09L40.52 34.09L40.52 97.44L89.17 97.44ZM75.6 47.66L87.57 47.66L75.6 35.69L75.6 47.66ZM48.45 49.92C48.45 49.3 48.95 48.79 49.58 48.79L59.76 48.79C60.38 48.79 60.89 49.3 60.89 49.92C60.89 50.55 60.38 51.06 59.76 51.06L49.58 51.06C48.95 51.06 48.45 50.55 48.45 49.92ZM69.94 74.81C69.94 75.44 69.43 75.94 68.81 75.94L49.57 75.94C48.95 75.94 48.44 75.44 48.44 74.81C48.44 74.19 48.95 73.68 49.57 73.68L68.81 73.68C69.43 73.68 69.94 74.19 69.94 74.81ZM81.25 66.89C81.25 67.52 80.75 68.02 80.12 68.02L72.2 68.02C71.58 68.02 71.07 67.52 71.07 66.89C71.07 66.27 71.58 65.76 72.2 65.76L80.12 65.76C80.75 65.76 81.25 66.27 81.25 66.89ZM48.45 58.97C48.45 58.35 48.95 57.84 49.58 57.84L55.23 57.84C55.86 57.84 56.36 58.35 56.36 58.97C56.36 59.6 55.86 60.11 55.23 60.11L49.58 60.11C48.95 60.11 48.45 59.6 48.45 58.97ZM65.41 58.97C65.41 58.35 65.92 57.84 66.54 57.84L74.46 57.84C75.09 57.84 75.59 58.35 75.59 58.97C75.59 59.6 75.09 60.11 74.46 60.11L66.54 60.11C65.92 60.11 65.41 59.6 65.41 58.97ZM60.08 58.17C60.51 57.75 61.27 57.75 61.69 58.17C61.89 58.38 62.02 58.68 62.02 58.97C62.02 59.27 61.89 59.56 61.69 59.78C61.48 59.98 61.18 60.11 60.89 60.11C60.59 60.11 60.3 59.98 60.08 59.78C59.88 59.56 59.76 59.27 59.76 58.97C59.76 58.68 59.88 58.38 60.08 58.17ZM66.54 65.76C67.17 65.76 67.68 66.27 67.68 66.89C67.68 67.52 67.17 68.02 66.54 68.02L55.23 68.02C54.61 68.02 54.1 67.52 54.1 66.89C54.1 66.27 54.61 65.76 55.23 65.76L66.54 65.76ZM48.77 67.7C48.57 67.48 48.45 67.19 48.45 66.89C48.45 66.59 48.57 66.31 48.77 66.09C49.19 65.67 49.96 65.67 50.38 66.09C50.58 66.31 50.71 66.6 50.71 66.89C50.71 67.19 50.58 67.48 50.38 67.7C50.16 67.9 49.87 68.03 49.58 68.03C49.28 68.03 48.99 67.9 48.77 67.7ZM81.25 82.73C81.25 83.36 80.75 83.86 80.12 83.86L72.2 83.86C71.58 83.86 71.07 83.36 71.07 82.73C71.07 82.11 71.58 81.6 72.2 81.6L80.12 81.6C80.75 81.6 81.25 82.11 81.25 82.73ZM67.67 82.73C67.67 83.36 67.17 83.86 66.54 83.86L55.23 83.86C54.61 83.86 54.1 83.36 54.1 82.73C54.1 82.11 54.61 81.6 55.23 81.6L66.54 81.6C67.17 81.6 67.67 82.11 67.67 82.73ZM50.38 81.94C50.58 82.14 50.71 82.43 50.71 82.73C50.71 83.03 50.58 83.32 50.38 83.54C50.16 83.74 49.88 83.86 49.57 83.86C49.28 83.86 48.99 83.74 48.77 83.54C48.56 83.32 48.44 83.04 48.44 82.73C48.44 82.43 48.57 82.13 48.77 81.93C49.2 81.51 49.96 81.51 50.38 81.94ZM80.92 58.17C81.14 58.38 81.25 58.68 81.25 58.97C81.25 59.27 81.14 59.56 80.92 59.78C80.71 59.98 80.42 60.11 80.12 60.11C79.83 60.11 79.53 59.98 79.32 59.78C79.11 59.56 78.99 59.27 78.99 58.97C78.99 58.68 79.11 58.38 79.32 58.17C79.75 57.75 80.49 57.75 80.92 58.17ZM74.47 75.94C74.16 75.94 73.88 75.83 73.66 75.62C73.46 75.4 73.33 75.11 73.33 74.81C73.33 74.52 73.46 74.22 73.66 74.01C74.08 73.59 74.84 73.59 75.27 74.01C75.47 74.22 75.6 74.52 75.6 74.81C75.6 75.11 75.47 75.4 75.27 75.62C75.05 75.82 74.77 75.94 74.47 75.94ZM80.92 74.01C81.13 74.22 81.25 74.52 81.25 74.81C81.25 75.11 81.13 75.4 80.92 75.62C80.71 75.82 80.43 75.94 80.12 75.94C79.82 75.94 79.53 75.82 79.32 75.62C79.11 75.4 78.99 75.11 78.99 74.81C78.99 74.52 79.11 74.22 79.32 74.01C79.74 73.59 80.51 73.59 80.92 74.01Z" />
		<path id="Path 4" class="shp2" d="M25.17 34.13L104.83 96.26M25.17 96.26L104.83 34.13" />
	</g>
</svg>