<svg xmlns="http://www.w3.org/2000/svg" viewBox="0 0 130 130" width="130" height="130">
	<defs>
		<clipPath clipPathUnits="userSpaceOnUse" id="cp1">
			<path d="M-8 -15L136 -15L136 145L-8 145Z" />
		</clipPath>
	</defs>
	<style>
		tspan { white-space:pre }
		.shp0 { fill: #4fc071 } 
		.shp1 { fill: #ffffff;stroke: #ffffff } 
		.shp2 { fill: none;stroke: #ffffff;stroke-width: 2 } 
	</style>
	<g id="Page 1" clip-path="url(#cp1)">
		<path id="Path 1" class="shp0" d="M129.68 65.22C129.68 100.95 100.72 129.9 65 129.9C29.28 129.9 0.32 100.95 0.32 65.22C0.32 29.5 29.28 0.54 65 0.54C100.72 0.54 129.68 29.5 129.68 65.22Z" />
		<path id="Path 3" fill-rule="evenodd" class="shp1" d="M45.84 50.35L25.53 50.35C24.46 50.35 23.58 49.48 23.58 48.4L23.58 35.09C23.58 34.02 24.46 33.14 25.53 33.14L45.84 33.14C46.92 33.14 47.79 34.02 47.79 35.09L47.79 48.4C47.79 49.48 46.92 50.35 45.84 50.35ZM25.53 33.92C24.89 33.92 24.36 34.45 24.36 35.09L24.36 48.4C24.36 49.05 24.89 49.57 25.53 49.57L45.84 49.57C46.49 49.57 47.01 49.05 47.01 48.4L47.01 35.09C47.01 34.45 46.49 33.92 45.84 33.92L25.53 33.92Z" />
		<path id="Path 4" class="shp1" d="M35.69 43.71C35.17 43.71 34.65 43.54 34.25 43.19L24.27 34.5C24.11 34.36 24.1 34.11 24.24 33.95C24.38 33.78 24.63 33.77 24.79 33.91L34.77 42.6C35.27 43.04 36.11 43.04 36.61 42.6L46.58 33.91C46.74 33.77 46.99 33.78 47.13 33.95C47.27 34.11 47.26 34.36 47.09 34.5L37.12 43.19C36.72 43.54 36.2 43.71 35.69 43.71Z" />
		<path id="Path 5" fill-rule="evenodd" class="shp1" d="M44.79 98.26L24.49 98.26C23.41 98.26 22.53 97.38 22.53 96.31L22.53 83C22.53 81.92 23.41 81.04 24.49 81.04L44.79 81.04C45.87 81.04 46.75 81.92 46.75 83L46.75 96.31C46.75 97.38 45.87 98.26 44.79 98.26ZM24.49 81.83C23.84 81.83 23.32 82.35 23.32 83L23.32 96.31C23.32 96.95 23.84 97.48 24.49 97.48L44.79 97.48C45.44 97.48 45.97 96.95 45.97 96.31L45.97 83C45.97 82.35 45.44 81.83 44.79 81.83L24.49 81.83Z" />
		<path id="Path 6" class="shp1" d="M34.64 91.61C34.12 91.61 33.6 91.44 33.21 91.1L23.23 82.4C23.07 82.26 23.05 82.01 23.19 81.85C23.33 81.69 23.58 81.67 23.74 81.81L33.72 90.51C34.22 90.94 35.06 90.94 35.56 90.51L45.53 81.81C45.7 81.67 45.94 81.69 46.09 81.85C46.23 82.01 46.21 82.26 46.05 82.4L36.07 91.1C35.68 91.44 35.16 91.61 34.64 91.61Z" />
		<path id="Path 7" fill-rule="evenodd" class="shp1" d="M74.29 98.26L53.98 98.26C52.91 98.26 52.03 97.38 52.03 96.31L52.03 83C52.03 81.92 52.91 81.04 53.98 81.04L74.29 81.04C75.37 81.04 76.24 81.92 76.24 83L76.24 96.31C76.24 97.38 75.37 98.26 74.29 98.26ZM53.98 81.83C53.34 81.83 52.81 82.35 52.81 83L52.81 96.31C52.81 96.95 53.34 97.48 53.98 97.48L74.29 97.48C74.94 97.48 75.46 96.95 75.46 96.31L75.46 83C75.46 82.35 74.94 81.83 74.29 81.83L53.98 81.83Z" />
		<path id="Path 8" class="shp1" d="M64.14 91.61C63.62 91.61 63.1 91.44 62.7 91.1L52.73 82.4C52.56 82.26 52.55 82.01 52.69 81.85C52.83 81.69 53.08 81.67 53.24 81.81L63.22 90.51C63.72 90.94 64.56 90.94 65.06 90.51L75.03 81.81C75.19 81.67 75.44 81.69 75.58 81.85C75.72 82.01 75.71 82.26 75.54 82.4L65.57 91.1C65.17 91.44 64.66 91.61 64.14 91.61Z" />
		<path id="Path 9" fill-rule="evenodd" class="shp1" d="M103.51 98.26L83.2 98.26C82.13 98.26 81.25 97.38 81.25 96.31L81.25 83C81.25 81.92 82.13 81.04 83.2 81.04L103.51 81.04C104.59 81.04 105.46 81.92 105.46 83L105.46 96.31C105.46 97.38 104.59 98.26 103.51 98.26ZM83.2 81.83C82.56 81.83 82.03 82.35 82.03 83L82.03 96.31C82.03 96.95 82.56 97.48 83.2 97.48L103.51 97.48C104.16 97.48 104.68 96.95 104.68 96.31L104.68 83C104.68 82.35 104.16 81.83 103.51 81.83L83.2 81.83Z" />
		<path id="Path 10" class="shp1" d="M93.36 91.61C92.84 91.61 92.32 91.44 91.93 91.1L81.95 82.4C81.79 82.26 81.77 82.01 81.91 81.85C82.05 81.69 82.3 81.67 82.46 81.81L92.44 90.51C92.94 90.94 93.78 90.94 94.28 90.51L104.25 81.81C104.41 81.67 104.66 81.69 104.81 81.85C104.95 82.01 104.93 82.26 104.77 82.4L94.79 91.1C94.4 91.44 93.88 91.61 93.36 91.61Z" />
		<path id="Path 11" class="shp2" d="M27.36 67.13L35.75 75.52L44.01 67.26M35.67 75.04L35.74 55.88" />
	</g>
</svg>