<svg xmlns="http://www.w3.org/2000/svg" viewBox="0 0 130 130" width="130" height="130">
	<defs>
		<clipPath clipPathUnits="userSpaceOnUse" id="cp1">
			<path d="M-8 -15L136 -15L136 145L-8 145Z" />
		</clipPath>
	</defs>
	<style>
		tspan { white-space:pre }
		.shp0 { fill: #4fc071 } 
		.shp1 { fill: #ffffff } 
	</style>
	<g id="Page 1" clip-path="url(#cp1)">
		<path id="Path 1" class="shp0" d="M129.68 65.22C129.68 100.95 100.72 129.9 65 129.9C29.28 129.9 0.32 100.95 0.32 65.22C0.32 29.5 29.28 0.54 65 0.54C100.72 0.54 129.68 29.5 129.68 65.22Z" />
		<path id="Path 3" fill-rule="evenodd" class="shp1" d="M100.65 85.3C100.65 94.45 93.2 101.9 84.05 101.9C78.91 101.9 74.3 99.55 71.26 95.86L34.26 95.86C30.93 95.86 28.22 93.16 28.22 89.83L28.22 41.55C28.22 38.22 30.93 35.51 34.26 35.51L46.33 35.51L46.33 30.99C46.33 30.15 47.01 29.48 47.84 29.48C48.67 29.48 49.35 30.15 49.35 30.99L49.35 35.51L76.51 35.51L76.51 30.99C76.51 30.15 77.18 29.48 78.01 29.48C78.85 29.48 79.52 30.15 79.52 30.99L79.52 35.51L88.58 35.51C91.9 35.51 94.61 38.22 94.61 41.55L94.61 72.51C98.29 75.56 100.65 80.16 100.65 85.3ZM69.29 92.85C68.12 90.58 67.45 88.02 67.45 85.3C67.45 76.15 74.9 68.71 84.05 68.71C86.77 68.71 89.33 69.38 91.59 70.54L91.59 53.62L31.24 53.62L31.24 89.83C31.24 91.49 32.59 92.85 34.26 92.85L69.29 92.85ZM31.24 50.6L91.59 50.6L91.59 41.55C91.59 39.88 90.24 38.53 88.58 38.53L79.52 38.53L79.52 44.57C79.52 46.23 78.17 47.58 76.51 47.58C74.84 47.58 73.49 46.23 73.49 44.57C73.49 42.9 74.84 41.55 76.51 41.55L76.51 38.53L49.35 38.53L49.35 44.57C49.35 46.23 48 47.58 46.33 47.58C44.67 47.58 43.31 46.23 43.31 44.57C43.31 42.9 44.67 41.55 46.33 41.55L46.33 38.53L34.26 38.53C32.59 38.53 31.24 39.88 31.24 41.55L31.24 50.6ZM97.63 85.3C97.63 77.82 91.54 71.72 84.05 71.72C76.56 71.72 70.47 77.82 70.47 85.3C70.47 92.79 76.56 98.88 84.05 98.88C91.54 98.88 97.63 92.79 97.63 85.3ZM89.64 88.76C90.23 89.35 90.23 90.31 89.64 90.9C89.35 91.19 88.96 91.34 88.58 91.34C88.19 91.34 87.8 91.19 87.51 90.9L82.98 86.37C82.7 86.09 82.54 85.71 82.54 85.3L82.54 76.25C82.54 75.42 83.22 74.74 84.05 74.74C84.88 74.74 85.56 75.42 85.56 76.25L85.56 84.68L89.64 88.76ZM46.31 69.33L36.37 69.33L36.37 59.39L46.31 59.39L46.31 69.33ZM46.31 87.08L36.37 87.08L36.37 77.14L46.31 77.14L46.31 87.08ZM63.37 69.33L53.43 69.33L53.43 59.39L63.37 59.39L63.37 69.33ZM63.37 87.08L53.43 87.08L53.43 77.14L63.37 77.14L63.37 87.08Z" />
	</g>
</svg>