<svg xmlns="http://www.w3.org/2000/svg" viewBox="0 0 130 130" width="130" height="130">
	<defs>
		<clipPath clipPathUnits="userSpaceOnUse" id="cp1">
			<path d="M-8 -15L136 -15L136 145L-8 145Z" />
		</clipPath>
	</defs>
	<style>
		tspan { white-space:pre }
		.shp0 { fill: #8b58ad } 
		.shp1 { fill: #ffffff } 
		.txt2 { font-size: 12px;fill: #ffffff;font-family: "Roboto";font-weight: 400 } 
	</style>
	<g id="Page 1" clip-path="url(#cp1)">
		<path id="Path 1" class="shp0" d="M129.68 65.22C129.68 100.95 100.72 129.9 65 129.9C29.28 129.9 0.32 100.95 0.32 65.22C0.32 29.5 29.28 0.54 65 0.54C100.72 0.54 129.68 29.5 129.68 65.22Z" />
		<path id="Path 3" fill-rule="evenodd" class="shp1" d="M93.5 80.77L91.09 80.77L91.09 31.39L50.14 31.39L50.14 42.23C50.14 42.9 49.6 43.44 48.93 43.44L38.09 43.44L38.09 80.77L35.69 80.77L35.69 42.24C35.69 42.21 35.7 42.19 35.7 42.16C35.71 42.05 35.73 41.95 35.76 41.85C35.78 41.81 35.79 41.77 35.8 41.74C35.86 41.61 35.94 41.49 36.04 41.38L48.09 29.34C48.19 29.24 48.31 29.16 48.45 29.1C48.48 29.09 48.51 29.08 48.55 29.06C48.65 29.03 48.76 29.01 48.88 29C48.9 29 48.92 28.99 48.94 28.99L92.29 28.99C92.96 28.99 93.5 29.53 93.5 30.19L93.5 80.77ZM47.74 33.1L39.81 41.03L47.74 41.03L47.74 33.1ZM57.09 51.43L51.71 57.89L57.09 64.34L55.24 65.88L49.22 58.66C48.85 58.21 48.85 57.56 49.22 57.11L55.24 49.89L57.09 51.43ZM58.68 68.23L68.31 46.56L70.51 47.54L60.88 69.21L58.68 68.23ZM72.1 64.34L77.48 57.89L72.1 51.43L73.95 49.89L79.97 57.11C80.35 57.56 80.35 58.21 79.97 58.66L73.95 65.88L72.1 64.34ZM93.5 100.03C93.5 100.7 92.96 101.24 92.29 101.24L36.9 101.24C36.23 101.24 35.7 100.7 35.7 100.03L35.7 84.38C35.7 83.71 36.23 83.18 36.9 83.18L92.29 83.18C92.96 83.18 93.5 83.71 93.5 84.38L93.5 100.03ZM91.09 85.58L38.1 85.58L38.1 98.83L91.09 98.83L91.09 85.58Z" />
		<text id="Fast XSLT " style="transform: matrix(1,0,0,1,39.807,96.67)" >
			<tspan x="0" y="0" class="txt2" dx="0 0 0 0 0 0 0 0 0" >Fast XSLT</tspan>
		</text>
	</g>
</svg>