<svg xmlns="http://www.w3.org/2000/svg" viewBox="0 0 130 130" width="130" height="130">
	<defs>
		<clipPath clipPathUnits="userSpaceOnUse" id="cp1">
			<path d="M-8 -15L136 -15L136 145L-8 145Z" />
		</clipPath>
	</defs>
	<style>
		tspan { white-space:pre }
		.shp0 { fill: #8b58ad } 
		.shp1 { fill: #ffffff;stroke: #ffffff } 
		.shp2 { fill: #ffffff } 
	</style>
	<g id="Page 1" clip-path="url(#cp1)">
		<path id="Path 1" class="shp0" d="M129.68 65.22C129.68 100.95 100.72 129.9 65 129.9C29.28 129.9 0.32 100.95 0.32 65.22C0.32 29.5 29.28 0.54 65 0.54C100.72 0.54 129.68 29.5 129.68 65.22Z" />
		<path id="Path 3" fill-rule="evenodd" class="shp1" d="M85.87 83.4L31.1 83.4C28.2 83.4 25.84 81.04 25.84 78.14L25.84 42.25C25.84 39.34 28.2 36.98 31.1 36.98L85.87 36.98C88.77 36.98 91.13 39.34 91.13 42.25L91.13 78.14C91.13 81.04 88.77 83.4 85.87 83.4ZM31.1 39.09C29.36 39.09 27.94 40.5 27.94 42.25L27.94 78.14C27.94 79.88 29.36 81.3 31.1 81.3L85.87 81.3C87.61 81.3 89.03 79.88 89.03 78.14L89.03 42.25C89.03 40.5 87.61 39.09 85.87 39.09L31.1 39.09Z" />
		<path id="Path 4" class="shp1" d="M58.48 65.48C57.08 65.48 55.68 65.02 54.62 64.09L27.71 40.64C27.28 40.26 27.23 39.6 27.61 39.16C28 38.72 28.66 38.67 29.1 39.05L56 62.5C57.35 63.68 59.62 63.67 60.97 62.5L87.86 39.06C88.3 38.67 88.96 38.72 89.35 39.16C89.73 39.6 89.69 40.26 89.25 40.64L62.35 64.09C61.28 65.02 59.88 65.48 58.48 65.48Z" />
		<path id="Path 5" class="shp0" d="M99.28 75.38C99.28 83.26 92.89 89.65 85.01 89.65C77.13 89.65 70.74 83.26 70.74 75.38C70.74 67.5 77.13 61.11 85.01 61.11C92.89 61.11 99.28 67.5 99.28 75.38Z" />
		<path id="Path 6" fill-rule="evenodd" class="shp2" d="M103.15 75.34C103.15 85.42 95.05 93.52 84.97 93.52C74.89 93.52 66.79 85.42 66.79 75.34C66.79 65.26 74.89 57.16 84.97 57.16C95.05 57.16 103.15 65.26 103.15 75.34ZM87.61 75.09L93.81 68.89C93.98 68.73 94.06 68.48 94.06 68.32C94.06 68.15 93.98 67.9 93.81 67.74L92.66 66.58C92.49 66.42 92.32 66.33 92.08 66.33C91.91 66.33 91.66 66.42 91.5 66.58L85.3 72.78C85.13 72.95 84.89 72.95 84.72 72.78L78.52 66.58C78.36 66.42 78.11 66.33 77.94 66.33C77.78 66.33 77.53 66.42 77.36 66.58L76.21 67.74C76.04 67.9 75.96 68.15 75.96 68.32C75.96 68.48 76.04 68.73 76.21 68.89L82.41 75.09C82.57 75.26 82.57 75.51 82.41 75.67L76.21 81.87C76.04 82.04 75.96 82.28 75.96 82.45C75.96 82.62 76.04 82.86 76.21 83.03L77.36 84.19C77.53 84.35 77.7 84.43 77.94 84.43C78.11 84.43 78.36 84.35 78.52 84.19L84.72 77.99C84.89 77.82 85.13 77.82 85.3 77.99L91.5 84.19C91.66 84.35 91.83 84.43 92.08 84.43C92.24 84.43 92.49 84.35 92.66 84.19L93.81 83.03C93.98 82.86 94.06 82.62 94.06 82.45C94.06 82.28 93.98 82.04 93.81 81.87L87.61 75.67C87.45 75.51 87.45 75.18 87.61 75.09Z" />
	</g>
</svg>