<svg xmlns="http://www.w3.org/2000/svg" viewBox="0 0 130 130" width="130" height="130">
	<defs>
		<clipPath clipPathUnits="userSpaceOnUse" id="cp1">
			<path d="M-8 -15L136 -15L136 145L-8 145Z" />
		</clipPath>
	</defs>
	<style>
		tspan { white-space:pre }
		.shp0 { fill: #3ba0d8 } 
		.shp1 { fill: none;stroke: #ffffff;stroke-width: 6 } 
		.shp2 { fill: none;stroke: #ffffff;stroke-width: 4 } 
	</style>
	<g id="Page 1" clip-path="url(#cp1)">
		<path id="Path 1" class="shp0" d="M129.68 65.22C129.68 100.95 100.72 129.9 65 129.9C29.28 129.9 0.32 100.95 0.32 65.22C0.32 29.5 29.28 0.54 65 0.54C100.72 0.54 129.68 29.5 129.68 65.22Z" />
		<path id="Path 3" class="shp1" d="M23.73 38.96L82.03 38.96M23.73 94.96L104.27 94.96" />
		<path id="Path 4" class="shp2" d="M79.24 73.71L91.73 86.2L104.03 73.91M91.73 86.2L91.73 37.14" />
		<path id="Path 5" class="shp1" d="M23.73 54.24L55.56 54.24M59.79 54.24L82.03 54.24M34.83 68.95L66.65 68.95M23.73 81.66L45.97 81.66M50.74 81.66L76.3 81.66" />
	</g>
</svg>