<svg xmlns="http://www.w3.org/2000/svg" viewBox="0 0 130 130" width="130" height="130">
	<defs>
		<clipPath clipPathUnits="userSpaceOnUse" id="cp1">
			<path d="M-8 -15L136 -15L136 145L-8 145Z" />
		</clipPath>
	</defs>
	<style>
		tspan { white-space:pre }
		.shp0 { fill: #3ba0d8 } 
		.shp1 { fill: #ffffff } 
	</style>
	<g id="Page 1" clip-path="url(#cp1)">
		<path id="Path 1" class="shp0" d="M129.68 65.22C129.68 100.95 100.72 129.9 65 129.9C29.28 129.9 0.32 100.95 0.32 65.22C0.32 29.5 29.28 0.54 65 0.54C100.72 0.54 129.68 29.5 129.68 65.22Z" />
		<path id="Path 3" class="shp1" d="M110.43 66.4C110.41 56.12 103.91 46.97 94.22 43.56L101.81 40.62L99.75 35.3L82.04 42.16L88.9 59.86L94.22 57.8L90.59 48.42C98.88 50.45 104.71 57.87 104.72 66.4C105.26 75.29 98.49 82.93 89.6 83.46C89.29 83.48 88.97 83.49 88.66 83.49L43.05 43.59L41.98 43.59C29.94 43.03 19.72 52.34 19.17 64.38C19.14 65.06 19.14 65.73 19.17 66.4C19.17 79.41 29.59 89.22 43.41 89.22L43.41 85.74C32.67 85.74 24.87 76.32 24.87 66.4C24.34 57.52 31.11 49.88 40 49.34C40.31 49.33 40.63 49.32 40.94 49.32L86.54 89.22L87.61 89.22C99.66 89.78 109.87 80.47 110.43 68.42C110.46 67.75 110.46 67.08 110.43 66.4ZM19.85 66.61C19.93 76.72 26.36 85.69 35.92 89L28.47 91.93L30.53 97.15L47.9 90.31L41.06 72.93L35.84 74.99L39.47 84.2C31.3 82.24 25.52 74.97 25.46 66.58C24.89 57.84 31.51 50.29 40.25 49.72C40.56 49.7 40.87 49.69 41.18 49.68L86.25 88.7L87.3 88.69C99.15 89.18 109.15 79.97 109.64 68.12C109.67 67.45 109.66 66.79 109.63 66.13C109.56 53.33 101.51 46 87.91 46.07C98.48 46.01 106.5 58.46 106.55 68.21C107.13 76.95 99.16 84.97 90.42 85.54C90.11 85.56 88.34 85.34 88.03 85.34L43.23 44.04L42.18 44.05C30.33 43.56 20.33 52.77 19.84 64.62C19.81 65.28 19.82 65.95 19.85 66.61Z" />
	</g>
</svg>