<svg xmlns="http://www.w3.org/2000/svg" viewBox="0 0 130 130" width="130" height="130">
	<defs>
		<clipPath clipPathUnits="userSpaceOnUse" id="cp1">
			<path d="M-8 -15L136 -15L136 145L-8 145Z" />
		</clipPath>
	</defs>
	<style>
		tspan { white-space:pre }
		.shp0 { fill: #8b58ad } 
		.shp1 { fill: #ffffff } 
		.shp2 { fill: none;stroke: #ffffff;stroke-width: 4 } 
	</style>
	<g id="Page 1" clip-path="url(#cp1)">
		<path id="Path 1" class="shp0" d="M129.68 65.22C129.68 100.95 100.72 129.9 65 129.9C29.28 129.9 0.32 100.95 0.32 65.22C0.32 29.5 29.28 0.54 65 0.54C100.72 0.54 129.68 29.5 129.68 65.22Z" />
		<path id="Path 3" fill-rule="evenodd" class="shp1" d="M94.5 85.34C94.5 91.45 89.54 96.41 83.43 96.41L38.24 96.41C32.13 96.41 27.16 91.45 27.16 85.34C27.16 79.23 32.13 74.27 38.24 74.27L83.43 74.27C89.54 74.27 94.51 79.23 94.5 85.34ZM91.7 85.34C91.7 80.78 87.99 77.07 83.43 77.07L38.24 77.07C33.68 77.07 29.97 80.78 29.97 85.34C29.97 89.9 33.68 93.61 38.24 93.61L83.43 93.61C87.99 93.61 91.7 89.9 91.7 85.34Z" />
		<path id="Path 4" fill-rule="evenodd" class="shp1" d="M89.25 85.34C89.25 88.33 86.81 90.76 83.82 90.76C80.83 90.76 78.4 88.33 78.4 85.34C78.4 82.35 80.83 79.92 83.82 79.92C86.81 79.92 89.25 82.35 89.25 85.34ZM86.44 85.34C86.44 83.9 85.27 82.72 83.82 82.72C82.38 82.72 81.2 83.9 81.2 85.34C81.2 86.78 82.38 87.96 83.82 87.96C85.27 87.96 86.44 86.78 86.44 85.34ZM73.92 85.34C73.92 88.33 71.49 90.76 68.5 90.76C65.51 90.76 63.07 88.33 63.07 85.34C63.07 82.35 65.51 79.92 68.5 79.92C71.49 79.92 73.92 82.35 73.92 85.34ZM71.12 85.34C71.12 83.9 69.94 82.72 68.5 82.72C67.05 82.72 65.88 83.9 65.88 85.34C65.88 86.78 67.05 87.96 68.5 87.96C69.94 87.96 71.12 86.78 71.12 85.34ZM58.6 85.34C58.6 88.33 56.16 90.76 53.17 90.76C50.18 90.76 47.75 88.33 47.75 85.34C47.75 82.35 50.18 79.92 53.17 79.92C56.16 79.92 58.6 82.35 58.6 85.34ZM55.79 85.34C55.79 83.9 54.61 82.72 53.17 82.72C51.73 82.72 50.55 83.9 50.55 85.34C50.55 86.78 51.73 87.96 53.17 87.96C54.61 87.96 55.79 86.78 55.79 85.34ZM43.27 85.34C43.27 88.33 40.83 90.76 37.84 90.76C34.85 90.76 32.42 88.33 32.42 85.34C32.42 82.35 34.85 79.92 37.84 79.92C40.83 79.92 43.27 82.35 43.27 85.34ZM40.46 85.34C40.46 83.9 39.29 82.72 37.84 82.72C36.4 82.72 35.22 83.9 35.22 85.34C35.22 86.78 36.4 87.96 37.84 87.96C39.29 87.96 40.46 86.78 40.46 85.34ZM53.63 50.37L51.46 48.59L56.38 42.59L61.3 48.59L59.13 50.37L57.79 48.72L57.79 58.73L54.98 58.73L54.98 48.72L53.63 50.37ZM42.81 50.37L40.64 48.59L45.56 42.59L50.48 48.59L48.31 50.37L46.96 48.72L46.96 58.73L44.16 58.73L44.16 48.72L42.81 50.37ZM41.72 60.45L60.22 60.45L60.22 63.26L41.72 63.26L41.72 60.45Z" />
		<path id="Path 5" fill-rule="evenodd" class="shp1" d="M68.96 68.7L32.98 68.7L32.98 34.25L68.96 34.25L68.96 68.7ZM66.16 37.06L35.79 37.06L35.79 65.9L66.16 65.9L66.16 37.06Z" />
		<path id="Path 6" class="shp2" d="M90.41 64.96L102.9 52.47L90.61 40.17M102.9 52.47L77.36 52.52" />
	</g>
</svg>