<svg xmlns="http://www.w3.org/2000/svg" viewBox="0 0 130 130" width="130" height="130">
	<defs>
		<clipPath clipPathUnits="userSpaceOnUse" id="cp1">
			<path d="M-8 -15L136 -15L136 145L-8 145Z" />
		</clipPath>
	</defs>
	<style>
		tspan { white-space:pre }
		.shp0 { fill: #3ba0d8 } 
		.shp1 { fill: #ffffff;stroke: #ffffff;stroke-width: 2 } 
	</style>
	<g id="Page 1" clip-path="url(#cp1)">
		<path id="Path 1" class="shp0" d="M129.68 65.22C129.68 100.95 100.72 129.9 65 129.9C29.28 129.9 0.32 100.95 0.32 65.22C0.32 29.5 29.28 0.54 65 0.54C100.72 0.54 129.68 29.5 129.68 65.22Z" />
		<path id="Path 3" class="shp1" d="M31.25 96.6C30.66 96.6 30.08 96.36 29.66 95.94L25.51 91.77C24.64 90.88 24.64 89.46 25.52 88.58C26.4 87.71 27.83 87.71 28.71 88.59L31.1 91L38.07 82.56C38.86 81.6 40.28 81.46 41.24 82.25C42.19 83.04 42.33 84.46 41.54 85.42L32.99 95.78C32.59 96.27 31.99 96.57 31.36 96.6C31.32 96.6 31.29 96.6 31.25 96.6Z" />
		<path id="Path 4" class="shp1" d="M102.25 91.42L53.26 91.42C52.02 91.42 51.01 90.41 51.01 89.17C51.01 87.93 52.02 86.92 53.26 86.92L102.25 86.92C103.49 86.92 104.5 87.93 104.5 89.17C104.5 90.41 103.49 91.42 102.25 91.42Z" />
		<path id="Path 5" class="shp1" d="M31.25 72.5C30.66 72.5 30.08 72.26 29.66 71.83L25.51 67.66C24.64 66.78 24.64 65.35 25.52 64.48C26.4 63.6 27.83 63.61 28.71 64.49L31.1 66.89L38.07 58.45C38.86 57.49 40.28 57.36 41.23 58.15C42.19 58.94 42.33 60.36 41.54 61.32L32.99 71.68C32.59 72.17 31.99 72.47 31.36 72.5C31.32 72.5 31.29 72.5 31.25 72.5Z" />
		<path id="Path 6" class="shp1" d="M102.25 67.32L53.26 67.32C52.02 67.32 51.01 66.31 51.01 65.07C51.01 63.82 52.02 62.82 53.26 62.82L102.25 62.82C103.49 62.82 104.5 63.82 104.5 65.07C104.5 66.31 103.49 67.32 102.25 67.32Z" />
		<path id="Path 7" class="shp1" d="M31.25 48.39C30.66 48.39 30.08 48.16 29.66 47.73L25.51 43.56C24.64 42.68 24.64 41.25 25.52 40.38C26.4 39.5 27.83 39.5 28.71 40.39L31.1 42.79L38.07 34.35C38.86 33.39 40.28 33.25 41.23 34.05C42.19 34.84 42.33 36.26 41.54 37.22L32.99 47.58C32.59 48.07 31.99 48.36 31.36 48.39C31.32 48.39 31.29 48.39 31.25 48.39Z" />
		<path id="Path 8" class="shp1" d="M102.25 43.21L53.26 43.21C52.02 43.21 51.01 42.2 51.01 40.96C51.01 39.72 52.02 38.71 53.26 38.71L102.25 38.71C103.49 38.71 104.5 39.72 104.5 40.96C104.5 42.2 103.49 43.21 102.25 43.21Z" />
	</g>
</svg>