<svg xmlns="http://www.w3.org/2000/svg" viewBox="0 0 130 130" width="130" height="130">
	<defs>
		<clipPath clipPathUnits="userSpaceOnUse" id="cp1">
			<path d="M-8 -15L136 -15L136 145L-8 145Z" />
		</clipPath>
	</defs>
	<style>
		tspan { white-space:pre }
		.shp0 { fill: #3ba0d8 } 
		.shp1 { fill: #ffffff;stroke: #ffffff;stroke-width: 2 } 
		.shp2 { fill: none;stroke: #ffffff;stroke-width: 3 } 
	</style>
	<g id="Page 1" clip-path="url(#cp1)">
		<path id="Path 1" class="shp0" d="M129.68 65.22C129.68 100.95 100.72 129.9 65 129.9C29.28 129.9 0.32 100.95 0.32 65.22C0.32 29.5 29.28 0.54 65 0.54C100.72 0.54 129.68 29.5 129.68 65.22Z" />
		<path id="Path 3" class="shp1" d="M37.83 62.27C37.5 62.27 37.17 62.13 36.93 61.89L34.6 59.55C34.11 59.05 34.11 58.25 34.61 57.75C35.1 57.26 35.9 57.26 36.4 57.76L37.75 59.11L41.67 54.36C42.11 53.82 42.91 53.74 43.45 54.19C43.99 54.63 44.07 55.43 43.62 55.97L38.81 61.81C38.58 62.08 38.25 62.25 37.89 62.27C37.87 62.27 37.85 62.27 37.83 62.27Z" />
		<path id="Path 4" class="shp1" d="M77.8 59.35L50.22 59.35C49.52 59.35 48.95 58.78 48.95 58.08C48.95 57.38 49.52 56.82 50.22 56.82L77.8 56.82C78.5 56.82 79.07 57.38 79.07 58.08C79.07 58.78 78.5 59.35 77.8 59.35Z" />
		<path id="Path 5" class="shp1" d="M37.83 48.7C37.5 48.7 37.17 48.56 36.93 48.32L34.6 45.98C34.11 45.48 34.11 44.68 34.61 44.18C35.1 43.69 35.9 43.69 36.4 44.19L37.75 45.54L41.67 40.79C42.11 40.25 42.91 40.17 43.45 40.62C43.99 41.07 44.07 41.86 43.62 42.4L38.81 48.24C38.58 48.51 38.25 48.68 37.89 48.7C37.87 48.7 37.85 48.7 37.83 48.7Z" />
		<path id="Path 6" class="shp1" d="M77.8 45.78L50.22 45.78C49.52 45.78 48.95 45.21 48.95 44.51C48.95 43.81 49.52 43.25 50.22 43.25L77.8 43.25C78.5 43.25 79.07 43.81 79.07 44.51C79.07 45.21 78.5 45.78 77.8 45.78Z" />
		<path id="Path 7" class="shp1" d="M52.56 91.91C52.22 91.91 51.9 91.78 51.66 91.53L49.32 89.19C48.83 88.69 48.83 87.89 49.33 87.39C49.83 86.9 50.63 86.9 51.12 87.4L52.47 88.76L56.39 84C56.84 83.46 57.64 83.38 58.18 83.83C58.72 84.28 58.79 85.07 58.35 85.62L53.53 91.45C53.31 91.72 52.97 91.89 52.62 91.91L52.56 91.91Z" />
		<path id="Path 8" class="shp1" d="M92.53 88.99L64.95 88.99C64.25 88.99 63.68 88.43 63.68 87.72C63.68 87.03 64.25 86.46 64.95 86.46L92.53 86.46C93.23 86.46 93.79 87.03 93.79 87.72C93.79 88.43 93.23 88.99 92.53 88.99Z" />
		<path id="Path 9" class="shp1" d="M52.56 78.34C52.22 78.34 51.9 78.21 51.66 77.96L49.32 75.62C48.83 75.12 48.83 74.32 49.33 73.82C49.83 73.33 50.63 73.33 51.12 73.83L52.47 75.18L56.39 70.43C56.84 69.89 57.64 69.82 58.18 70.26C58.72 70.71 58.79 71.5 58.35 72.05L53.53 77.88C53.31 78.15 52.97 78.32 52.62 78.34L52.56 78.34Z" />
		<path id="Path 10" class="shp1" d="M92.53 75.42L64.95 75.42C64.25 75.42 63.68 74.85 63.68 74.15C63.68 73.45 64.25 72.89 64.95 72.89L92.53 72.89C93.23 72.89 93.79 73.45 93.79 74.15C93.79 74.85 93.23 75.42 92.53 75.42Z" />
		<path id="Path 11" class="shp2" d="M94.05 104.86L33.94 104.86C27.28 104.86 21.83 99.41 21.83 92.74L21.83 39.33C21.83 32.67 27.28 27.22 33.94 27.22L94.05 27.22C100.72 27.22 106.17 32.67 106.17 39.33L106.17 92.74C106.17 99.41 100.72 104.86 94.05 104.86Z" />
	</g>
</svg>