<svg xmlns="http://www.w3.org/2000/svg" viewBox="0 0 130 130" width="130" height="130">
	<defs>
		<clipPath clipPathUnits="userSpaceOnUse" id="cp1">
			<path d="M-8 -15L136 -15L136 145L-8 145Z" />
		</clipPath>
	</defs>
	<style>
		tspan { white-space:pre }
		.shp0 { fill: #3cc19d } 
		.shp1 { fill: #ffffff } 
	</style>
	<g id="Page 1" clip-path="url(#cp1)">
		<path id="Path 1" class="shp0" d="M129.68 65.22C129.68 100.95 100.72 129.9 65 129.9C29.28 129.9 0.32 100.95 0.32 65.22C0.32 29.5 29.28 0.54 65 0.54C100.72 0.54 129.68 29.5 129.68 65.22Z" />
		<path id="Path 3" fill-rule="evenodd" class="shp1" d="M108.5 67.3C108.44 67.35 108.38 67.4 108.32 67.44C108.28 67.46 108.25 67.49 108.21 67.52L51.87 95.9C51.36 96.16 50.75 96.07 50.33 95.68C50.31 95.67 50.3 95.65 50.28 95.63C49.9 95.25 49.79 94.67 49.99 94.16L61.58 65.83L49.64 38.21C49.41 37.69 49.54 37.07 49.96 36.68C50.38 36.28 51 36.19 51.51 36.45L108.21 65.08C108.25 65.1 108.29 65.13 108.32 65.16C108.39 65.2 108.45 65.24 108.51 65.29C108.57 65.35 108.62 65.41 108.67 65.47C108.71 65.52 108.75 65.58 108.78 65.64C108.82 65.71 108.85 65.79 108.88 65.87C108.89 65.91 108.91 65.94 108.93 65.98C108.93 66.01 108.93 66.04 108.93 66.07C108.94 66.14 108.95 66.22 108.94 66.3C108.94 66.38 108.94 66.45 108.93 66.53C108.92 66.56 108.93 66.59 108.92 66.62C108.91 66.66 108.89 66.69 108.87 66.74C108.84 66.81 108.82 66.88 108.78 66.96C108.74 67.02 108.7 67.08 108.65 67.14C108.61 67.19 108.56 67.25 108.5 67.3ZM63.96 64.46L101.74 64.86L53.65 40.59L63.96 64.46ZM101.97 67.6L63.97 67.2L53.9 91.81L101.97 67.6ZM49.62 67.04L22.57 66.76C22.19 66.75 21.85 66.6 21.61 66.35C21.36 66.1 21.21 65.75 21.22 65.37C21.22 64.62 21.84 64.02 22.6 64.02L49.65 64.31C50.4 64.32 51.01 64.94 51 65.69C50.99 66.45 50.37 67.05 49.62 67.04ZM47.99 76.29C47.98 77.04 47.36 77.65 46.61 77.64L33.08 77.49C32.71 77.49 32.36 77.33 32.12 77.08C31.88 76.83 31.73 76.49 31.73 76.11C31.74 75.36 32.36 74.75 33.11 74.76L46.64 74.91C47.39 74.91 48 75.53 47.99 76.29ZM31.96 54.86C31.96 54.1 32.58 53.5 33.34 53.51L46.86 53.65C47.62 53.66 48.22 54.28 48.21 55.03C48.2 55.79 47.59 56.39 46.83 56.38L33.31 56.24C32.93 56.24 32.59 56.08 32.35 55.83C32.1 55.58 31.95 55.24 31.96 54.86Z" />
	</g>
</svg>