<svg xmlns="http://www.w3.org/2000/svg" viewBox="0 0 130 130" width="130" height="130">
	<defs>
		<clipPath clipPathUnits="userSpaceOnUse" id="cp1">
			<path d="M-8 -15L136 -15L136 145L-8 145Z" />
		</clipPath>
	</defs>
	<style>
		tspan { white-space:pre }
		.shp0 { fill: #3ba0d8 } 
		.shp1 { fill: none;stroke: #ffffff;stroke-width: 4 } 
	</style>
	<g id="Page 1" clip-path="url(#cp1)">
		<path id="Path 1" class="shp0" d="M129.68 65.22C129.68 100.95 100.72 129.9 65 129.9C29.28 129.9 0.32 100.95 0.32 65.22C0.32 29.5 29.28 0.54 65 0.54C100.72 0.54 129.68 29.5 129.68 65.22Z" />
		<path id="Path 3" class="shp1" d="M28.52 37.14L28.48 85.85M36.71 37.15L36.67 85.86M61.26 37.17L61.22 85.88M53.07 37.16L53.04 85.87M69.44 37.18L69.4 85.88M77.62 41L77.58 89.71M85.8 45.66L85.76 94.37M93.99 41.01L93.95 89.72M102.17 37.2L102.14 85.91M44.89 37.16L44.85 85.86" />
	</g>
</svg>