<svg xmlns="http://www.w3.org/2000/svg" viewBox="0 0 130 130" width="130" height="130">
	<defs>
		<clipPath clipPathUnits="userSpaceOnUse" id="cp1">
			<path d="M-8 -15L136 -15L136 145L-8 145Z" />
		</clipPath>
	</defs>
	<style>
		tspan { white-space:pre }
		.shp0 { fill: #8b58ad } 
		.shp1 { fill: #ffffff } 
	</style>
	<g id="Page 1" clip-path="url(#cp1)">
		<path id="Path 1" class="shp0" d="M129.68 65.22C129.68 100.95 100.72 129.9 65 129.9C29.28 129.9 0.32 100.95 0.32 65.22C0.32 29.5 29.28 0.54 65 0.54C100.72 0.54 129.68 29.5 129.68 65.22Z" />
		<path id="Path 3" class="shp1" d="M26.13 38.92L37.02 43.82C37.02 43.82 39.4 41.8 42.33 41.19C45.27 40.58 49.13 40.64 49.13 40.64L50.23 35.74L65.04 44.8L62.59 47.37C62.59 47.37 64.94 49.16 65.77 50.65C67 52.85 67 54.96 67 54.96L74.71 54.96L76.05 67.68L64.35 63.4C64.35 63.4 62.13 64.72 57.57 65.48C54.55 65.98 51.09 65.72 51.09 65.72L50.36 73.56L35.55 65.08L41.3 59.6C41.3 59.6 38.12 58.5 36.65 56.18C35.18 53.85 35.43 52.26 35.43 52.26L26.13 51.77L26.13 38.92ZM65.04 46.76L72.63 46.76C72.63 46.76 73.24 45.65 74.95 43.94C76.66 42.23 79.11 41.37 79.11 41.37L79.11 37.82L89.88 37.82L89.88 41C89.88 41 91.47 41.74 92.08 42.29C92.7 42.84 93.43 44.06 93.43 44.06L98.82 42.29L103.83 49.57L94.65 50.18C94.65 50.18 92.89 52.2 91.96 53C90.45 54.28 87.92 54.65 87.92 54.65L89.64 60.34L77.77 59.6L80.09 54.65C80.09 54.65 79.22 55.14 76.66 53.85C75.43 53.23 74.58 51.9 74.58 51.9L69.08 53.85L65.04 46.76ZM53.05 68.51L66.92 66.01L66.49 69.3C66.49 69.3 68.64 69.23 70.43 70.16C72.21 71.09 72.86 71.59 72.86 71.59L78.79 68.16L85.52 75.16L75.36 78.31C75.36 78.31 75.07 80.13 73.48 82.16C72.19 83.81 68.78 85.89 68.78 85.89L72.14 91.97L58.56 94.4L58.77 88.54C58.77 88.54 57.09 88.49 55.77 88.18C53.79 87.72 52.69 86.82 52.69 86.82L46.9 90.11L39.82 83.03L49.26 80.21C49.26 80.21 49.19 78.17 50.68 75.96C51.8 74.3 54.34 73.09 54.34 73.09L53.05 68.51Z" />
	</g>
</svg>