<svg xmlns="http://www.w3.org/2000/svg" viewBox="0 0 130 130" width="130" height="130">
	<defs>
		<clipPath clipPathUnits="userSpaceOnUse" id="cp1">
			<path d="M-8 -15L136 -15L136 145L-8 145Z" />
		</clipPath>
	</defs>
	<style>
		tspan { white-space:pre }
		.shp0 { fill: #f87925 } 
		.shp1 { fill: #ffffff } 
		.shp2 { fill: #f77926 } 
		.txt3 { font-size: 72px;fill: #f87925;font-family: "Roboto";font-weight: 400 } 
	</style>
	<g id="Page 1" clip-path="url(#cp1)">
		<path id="Path 2" class="shp0" d="M129.68 65.22C129.68 100.95 100.72 129.9 65 129.9C29.28 129.9 0.32 100.95 0.32 65.22C0.32 29.5 29.28 0.54 65 0.54C100.72 0.54 129.68 29.5 129.68 65.22Z" />
		<path id="Path 3" class="shp1" d="M61.68 59.91C60.79 59.93 60.19 60.03 59.87 60.12L59.87 65.69C60.24 65.78 60.7 65.81 61.34 65.81C63.7 65.83 65.18 64.66 65.18 62.68C65.18 60.91 63.91 59.87 61.68 59.91Z" />
		<path id="Path 4" fill-rule="evenodd" class="shp1" d="M103 37.47L103 92.93C103 95.72 100.72 98 97.93 98L74 98C73.9 98 73.8 97.99 73.69 97.99L73.69 104.81L27 98.41L27 32.03L73.69 25.79L73.69 32.42C73.8 32.41 73.9 32.4 74 32.4L97.93 32.4C100.72 32.4 103 34.68 103 37.47ZM100.1 37.47C100.1 36.27 99.13 35.3 97.93 35.3L74 35.3C73.9 35.3 73.79 35.32 73.69 35.33L73.69 64.34C75.27 63.7 78.48 63.7 78.48 63.7C78.48 63.7 75.17 64.35 75.24 65.14C75.31 65.94 85.85 66.01 89.81 64.93C89.1 65.55 88.29 66.84 81.44 67.08C77.53 67.22 74.94 66.86 73.69 66.25L73.69 74.15C74.43 74.09 75.04 74.06 75.16 74.05C75.16 74.05 74.44 74.18 73.69 74.38L73.69 76C75.92 76.46 80.06 76.8 83.97 76.59C89.6 76.3 93.11 75.34 93.49 74.96C93.88 74.58 93.59 74.24 93.59 74.24C93.59 74.24 94.41 74.77 93.78 75.44C93.16 76.11 89.36 77.7 80.7 77.7C77.58 77.7 75.32 77.57 73.69 77.34L73.69 95.07C73.79 95.09 73.9 95.1 74 95.1L97.93 95.1C99.13 95.1 100.1 94.13 100.1 92.93L100.1 37.47Z" />
		<path id="Path 5" class="shp2" d="M97.75 92.13L73.69 92.13L73.69 55.75L97.75 55.75L97.75 92.13Z" />
		<text id="S " style="transform: matrix(1,0,0,1,28.951,88.89)" >
			<tspan x="0" y="0" class="txt3">S</tspan>
		</text>
		<path id="Path 7" fill-rule="evenodd" class="shp1" d="M95.91 55.24C94.72 57.73 91.79 59.63 89.25 60.23C86.88 60.8 84.77 60.33 82.58 61.18C77.56 63.11 77.64 69.1 80.4 70.44L80.57 70.53C80.57 70.53 84.62 69.72 86.87 68.9C90.15 67.68 93.74 64.69 94.93 61.22C94.29 64.83 91.21 68.3 88.09 69.89C86.44 70.74 85.15 70.93 82.43 71.87C82.09 72 81.83 72.11 81.83 72.11C82.52 72 83.21 71.96 83.21 71.96C87.09 71.78 93.14 73.05 95.97 69.27C98.85 65.43 97.25 59.21 95.91 55.24ZM98.03 65.05C97.6 71.03 92.57 75.73 86.58 75.73C83.88 75.73 81.26 74.77 79.19 73.02L78.76 72.65C76.48 70.48 75.19 67.46 75.19 64.32C75.19 58.01 80.38 52.82 86.68 52.82C89.72 52.82 92.65 54.03 94.8 56.18C95.29 55.51 95.7 54.78 96.02 54.01C97.49 58.42 98.35 62.12 98.03 65.05ZM80.25 71.33C80.08 71.19 79.85 71.11 79.63 71.11C79.09 71.11 78.65 71.55 78.65 72.09C78.65 72.63 79.09 73.08 79.63 73.08C79.93 73.08 80.21 72.94 80.39 72.71C80.73 72.29 80.67 71.67 80.25 71.33Z" />
	</g>
</svg>