<svg xmlns="http://www.w3.org/2000/svg" viewBox="0 0 130 130" width="130" height="130">
	<defs>
		<clipPath clipPathUnits="userSpaceOnUse" id="cp1">
			<path d="M-8 -15L136 -15L136 145L-8 145Z" />
		</clipPath>
	</defs>
	<style>
		tspan { white-space:pre }
		.shp0 { fill: #3ba0d8 } 
		.shp1 { fill: none;stroke: #ffffff;stroke-width: 4 } 
		.shp2 { fill: #ffffff } 
	</style>
	<g id="Page 1" clip-path="url(#cp1)">
		<path id="Path 1" class="shp0" d="M129.68 65.22C129.68 100.95 100.72 129.9 65 129.9C29.28 129.9 0.32 100.95 0.32 65.22C0.32 29.5 29.28 0.54 65 0.54C100.72 0.54 129.68 29.5 129.68 65.22Z" />
		<path id="Path 3" class="shp1" d="M24.3 31.13L104.83 31.13" />
		<path id="Path 4" fill-rule="evenodd" class="shp2" d="M86.87 59.16L86.87 91.55C86.87 91.71 86.83 91.85 86.76 91.98C85.7 96.25 76.46 99.43 64.99 99.43C53.49 99.43 44.24 96.24 43.21 91.95C43.14 91.83 43.1 91.7 43.1 91.55L43.1 59.16C43.1 59 43.16 58.86 43.23 58.73C44.24 54.98 51.79 51.28 64.99 51.28C78.19 51.28 85.73 54.98 86.75 58.73C86.82 58.86 86.87 59 86.87 59.16ZM44.85 59.6C44.85 62.71 53.12 66.17 64.99 66.17C76.85 66.17 85.12 62.71 85.12 59.6C85.12 56.5 76.85 53.04 64.99 53.04C53.12 53.04 44.85 56.5 44.85 59.6ZM84.78 63.21C84.72 63.26 84.66 63.31 84.6 63.36C84.33 63.57 84.05 63.77 83.74 63.97C83.68 64.01 83.61 64.05 83.54 64.09C83.28 64.26 83.01 64.41 82.73 64.57C82.62 64.62 82.51 64.68 82.4 64.73C82.08 64.9 81.75 65.05 81.4 65.21C81.34 65.23 81.29 65.26 81.23 65.29C80.82 65.46 80.38 65.63 79.93 65.79C79.8 65.83 79.67 65.87 79.54 65.92C79.18 66.04 78.81 66.16 78.42 66.27C78.28 66.31 78.15 66.35 78 66.39C77.49 66.53 76.96 66.67 76.41 66.79C76.33 66.81 76.25 66.82 76.17 66.84C75.68 66.95 75.17 67.04 74.65 67.14C74.48 67.17 74.3 67.2 74.12 67.23C73.62 67.31 73.11 67.38 72.59 67.45C72.45 67.47 72.32 67.49 72.18 67.51C71.53 67.59 70.86 67.65 70.17 67.71C70 67.72 69.82 67.73 69.65 67.75C69.09 67.79 68.52 67.82 67.94 67.85C67.73 67.86 67.52 67.87 67.31 67.87C66.55 67.9 65.79 67.92 64.99 67.92C64.19 67.92 63.42 67.9 62.67 67.87C62.45 67.87 62.24 67.86 62.03 67.85C61.45 67.82 60.89 67.79 60.33 67.75C60.16 67.73 59.98 67.72 59.81 67.71C59.12 67.65 58.44 67.59 57.79 67.51C57.66 67.49 57.53 67.47 57.39 67.45C56.87 67.38 56.36 67.31 55.86 67.23C55.68 67.2 55.5 67.17 55.32 67.14C54.8 67.04 54.29 66.95 53.8 66.84C53.73 66.82 53.65 66.81 53.57 66.79C53.01 66.67 52.49 66.53 51.97 66.39C51.83 66.35 51.69 66.31 51.55 66.27C51.17 66.16 50.8 66.04 50.44 65.92C50.31 65.87 50.17 65.83 50.05 65.79C49.6 65.63 49.16 65.46 48.75 65.29C48.69 65.26 48.64 65.23 48.58 65.21C48.23 65.06 47.89 64.9 47.57 64.73C47.46 64.68 47.36 64.62 47.25 64.57C46.97 64.41 46.69 64.25 46.44 64.09C46.37 64.05 46.3 64.01 46.23 63.97C45.93 63.77 45.64 63.57 45.38 63.36C45.31 63.31 45.25 63.26 45.19 63.21C45.08 63.11 44.96 63.02 44.85 62.92L44.85 69.42C44.89 69.55 44.9 69.68 44.88 69.81C44.87 69.91 44.85 70.01 44.85 70.11C44.85 70.25 44.89 70.39 44.92 70.53C44.95 70.63 44.98 70.74 45.02 70.85C45.06 70.93 45.1 71.02 45.15 71.11C45.21 71.21 45.27 71.32 45.35 71.43C45.41 71.51 45.47 71.59 45.54 71.67C45.64 71.79 45.74 71.9 45.86 72.01C45.93 72.09 46.01 72.15 46.09 72.22C46.23 72.35 46.38 72.47 46.55 72.59C46.62 72.65 46.7 72.7 46.77 72.75C46.97 72.89 47.18 73.02 47.4 73.16C47.46 73.19 47.53 73.23 47.59 73.26C47.85 73.41 48.12 73.56 48.42 73.7C48.46 73.71 48.5 73.73 48.53 73.75C48.86 73.91 49.2 74.06 49.57 74.21C49.58 74.21 49.59 74.21 49.6 74.22C51.59 75.01 54.13 75.68 57.1 76.12C57.11 76.12 57.13 76.12 57.14 76.12C57.72 76.21 58.31 76.28 58.92 76.35C59.01 76.36 59.12 76.37 59.22 76.38C59.75 76.43 60.28 76.48 60.83 76.52C61.09 76.54 61.35 76.55 61.61 76.57C62.02 76.59 62.43 76.62 62.86 76.63C63.56 76.66 64.26 76.67 64.99 76.67C65.71 76.67 66.42 76.66 67.12 76.64C67.54 76.62 67.95 76.59 68.37 76.57C68.62 76.55 68.89 76.55 69.14 76.53C69.69 76.49 70.23 76.44 70.76 76.38C70.86 76.37 70.96 76.36 71.06 76.35C71.67 76.29 72.26 76.21 72.83 76.13C72.85 76.12 72.86 76.12 72.88 76.12C75.84 75.68 78.39 75.01 80.37 74.22C80.38 74.22 80.39 74.21 80.41 74.21C80.77 74.06 81.11 73.91 81.44 73.75C81.48 73.74 81.52 73.72 81.56 73.7C81.85 73.56 82.13 73.41 82.39 73.26C82.45 73.23 82.51 73.2 82.57 73.16C82.8 73.03 83.01 72.89 83.2 72.75C83.28 72.7 83.36 72.65 83.43 72.6C83.59 72.47 83.75 72.35 83.89 72.22C83.97 72.16 84.04 72.09 84.12 72.02C84.23 71.9 84.34 71.79 84.43 71.67C84.5 71.59 84.57 71.51 84.63 71.43C84.7 71.32 84.77 71.22 84.83 71.11C84.87 71.02 84.92 70.94 84.95 70.85C85 70.74 85.03 70.64 85.05 70.53C85.09 70.39 85.12 70.25 85.12 70.11C85.12 70.01 85.11 69.91 85.1 69.81C85.08 69.68 85.09 69.55 85.12 69.42L85.12 62.92C85.02 63.02 84.9 63.11 84.78 63.21ZM85.12 80.61C85.12 80.51 85.11 80.41 85.1 80.32C85.08 80.18 85.09 80.05 85.12 79.93L85.12 73.43L85.12 73.43C84.9 73.63 84.66 73.83 84.4 74.02C81.08 76.5 74.51 78.42 64.99 78.42C55.43 78.42 48.84 76.49 45.54 73.99C45.32 73.83 45.12 73.66 44.93 73.49C44.91 73.47 44.88 73.45 44.85 73.43L44.85 79.93C44.89 80.05 44.9 80.18 44.88 80.32C44.87 80.41 44.85 80.51 44.85 80.61C44.85 80.75 44.89 80.89 44.92 81.03C44.95 81.14 44.98 81.25 45.02 81.35C45.06 81.44 45.1 81.52 45.15 81.61C45.21 81.72 45.27 81.83 45.35 81.93C45.41 82.02 45.47 82.1 45.54 82.18C45.64 82.29 45.74 82.41 45.86 82.52C45.93 82.59 46.01 82.66 46.09 82.73C46.23 82.85 46.38 82.98 46.55 83.1C46.62 83.15 46.7 83.2 46.77 83.26C46.97 83.39 47.18 83.53 47.4 83.66C47.46 83.7 47.53 83.73 47.59 83.77C47.85 83.92 48.12 84.06 48.42 84.2C48.46 84.22 48.5 84.24 48.53 84.26C48.86 84.41 49.2 84.56 49.57 84.71C49.58 84.71 49.59 84.72 49.6 84.72C51.59 85.52 54.13 86.18 57.1 86.62L57.14 86.63C57.72 86.71 58.31 86.79 58.92 86.85C59.01 86.87 59.12 86.87 59.22 86.88C59.75 86.94 60.28 86.99 60.83 87.03C61.09 87.05 61.35 87.06 61.61 87.07C62.02 87.1 62.43 87.12 62.86 87.14C63.56 87.16 64.26 87.18 64.99 87.18C65.71 87.18 66.42 87.16 67.12 87.14C67.54 87.13 67.95 87.1 68.37 87.08C68.62 87.06 68.89 87.05 69.14 87.03C69.69 86.99 70.23 86.94 70.76 86.89C70.86 86.88 70.96 86.87 71.06 86.86C71.67 86.79 72.26 86.72 72.83 86.63C72.85 86.63 72.86 86.63 72.88 86.62C75.84 86.19 78.39 85.52 80.37 84.73C80.38 84.72 80.39 84.72 80.41 84.71C80.77 84.57 81.11 84.41 81.44 84.26L81.56 84.21C81.85 84.06 82.13 83.92 82.39 83.77C82.45 83.74 82.51 83.7 82.57 83.67C82.8 83.53 83.01 83.4 83.2 83.26C83.28 83.21 83.36 83.16 83.43 83.1C83.59 82.98 83.75 82.85 83.89 82.73C83.97 82.66 84.04 82.59 84.12 82.52C84.23 82.41 84.34 82.29 84.43 82.18C84.5 82.1 84.57 82.02 84.63 81.94C84.7 81.83 84.77 81.72 84.83 81.61C84.87 81.53 84.92 81.44 84.95 81.35C85 81.25 85.03 81.14 85.05 81.04C85.09 80.89 85.12 80.75 85.12 80.61ZM85.12 83.93L85.12 83.93C84.9 84.14 84.66 84.33 84.4 84.53C81.08 87 74.51 88.93 64.99 88.93C55.43 88.93 48.84 86.99 45.54 84.5C45.32 84.34 45.12 84.17 44.93 84C44.91 83.98 44.88 83.95 44.85 83.93L44.85 91.3C44.87 91.34 44.88 91.37 44.88 91.41C45.38 94.44 53.58 97.68 64.99 97.68C76.4 97.68 84.6 94.44 85.09 91.41C85.1 91.37 85.11 91.33 85.12 91.29L85.12 83.93Z" />
		<path id="Path 5" class="shp1" d="M52.17 43.17L64.66 55.66L76.96 43.36M64.66 55.66L64.71 30.76" />
	</g>
</svg>