<svg xmlns="http://www.w3.org/2000/svg" viewBox="0 0 130 130" width="130" height="130">
	<defs>
		<clipPath clipPathUnits="userSpaceOnUse" id="cp1">
			<path d="M-8 -15L136 -15L136 145L-8 145Z" />
		</clipPath>
	</defs>
	<style>
		tspan { white-space:pre }
		.shp0 { fill: #8b58ad } 
		.shp1 { fill: #ffffff } 
		.shp2 { fill: none;stroke: #ffffff;stroke-width: 3 } 
	</style>
	<g id="Page 1" clip-path="url(#cp1)">
		<path id="Path 1" class="shp0" d="M129.68 65.22C129.68 100.95 100.72 129.9 65 129.9C29.28 129.9 0.32 100.95 0.32 65.22C0.32 29.5 29.28 0.54 65 0.54C100.72 0.54 129.68 29.5 129.68 65.22Z" />
		<path id="Path 3" class="shp1" d="M73.49 40.21C73.49 35.79 69.9 32.19 65.47 32.2L55.53 32.22C54.85 32.22 54.3 32.77 54.3 33.45C54.3 34.12 54.85 34.67 55.53 34.67L65.47 34.65C68.54 34.65 71.03 37.14 71.03 40.22C71.03 43.29 68.52 45.8 65.45 45.8L52.32 45.82C50.83 45.82 49.43 45.25 48.38 44.2C47.33 43.14 46.75 41.74 46.75 40.26C46.76 39.58 46.21 39.03 45.53 39.03C44.85 39.03 44.3 39.58 44.3 40.26C44.3 42.4 45.13 44.42 46.64 45.93C48.16 47.45 50.17 48.28 52.32 48.27L65.45 48.25C69.87 48.25 73.48 44.64 73.49 40.21ZM42.99 45.75L33.28 45.76C31.79 45.76 30.39 45.19 29.34 44.13C28.29 43.08 27.71 41.68 27.71 40.2C27.72 37.12 30.22 34.62 33.29 34.62L46.42 34.59C49.5 34.59 51.99 37.09 51.99 40.16C51.99 40.84 52.53 41.38 53.21 41.38C53.89 41.38 54.44 40.83 54.44 40.16C54.45 35.73 50.85 32.14 46.43 32.14L33.3 32.16C28.87 32.17 25.26 35.77 25.26 40.2C25.25 42.34 26.09 44.36 27.6 45.87C29.11 47.39 31.13 48.22 33.27 48.21L42.98 48.2C43.66 48.2 44.21 47.65 44.21 46.97C44.21 46.29 43.66 45.75 42.99 45.75ZM105.02 88.59C105.03 82.63 100.18 77.79 94.23 77.8L80.84 77.82C79.93 77.82 79.18 78.56 79.18 79.48C79.18 80.39 79.92 81.13 80.83 81.13L94.22 81.1C98.36 81.09 101.72 84.46 101.72 88.6C101.71 92.73 98.34 96.11 94.2 96.12L76.52 96.14C74.51 96.15 72.63 95.37 71.21 93.95C69.8 92.54 69.02 90.65 69.02 88.65C69.02 87.73 68.29 87 67.37 87C66.46 87 65.72 87.74 65.72 88.65C65.71 91.54 66.83 94.25 68.87 96.29C70.91 98.33 73.62 99.45 76.51 99.45L94.19 99.42C100.15 99.41 105.01 94.55 105.02 88.59ZM63.95 96.04L50.87 96.06C48.86 96.07 46.98 95.29 45.56 93.87C44.15 92.46 43.37 90.57 43.37 88.57C43.38 84.43 46.76 81.06 50.89 81.05L68.57 81.02C72.71 81.02 76.07 84.38 76.07 88.52C76.07 89.43 76.8 90.17 77.72 90.17C78.63 90.17 79.37 89.42 79.37 88.51C79.38 82.55 74.54 77.71 68.58 77.72L50.9 77.75C44.94 77.75 40.08 82.61 40.07 88.57C40.07 91.46 41.19 94.17 43.22 96.21C45.26 98.25 47.98 99.37 50.86 99.36L63.94 99.34C64.85 99.34 65.59 98.6 65.6 97.69C65.6 96.78 64.86 96.04 63.95 96.04Z" />
		<path id="Path 4" class="shp2" d="M52.52 71.46L66.48 71.46L66.48 57.72M65.7 70.76L49.79 54.93" />
	</g>
</svg>