<svg xmlns="http://www.w3.org/2000/svg" version="1.1" viewBox="0 0 100 120" xmlSpace="preserve">
    <path fill="#4775B9" d="M46.5 121.416c-23.583 0-42.768-14.301-42.768-31.879h8.469c0 12.908 15.387 23.408 34.299 23.408s34.299-10.5 34.299-23.408h8.469c.001 17.578-19.183 31.879-42.768 31.879zM89.269 33.878H80.8c0-12.906-15.387-23.407-34.299-23.407s-34.299 10.5-34.299 23.407h-8.47C3.732 16.3 22.918 2 46.5 2c23.585 0 42.769 14.3 42.769 31.878z"></path>
    <path fill="#63BA90" d="M6.715 57.486H61.114999999999995V65.955H6.715z" transform="rotate(35.914 33.912 61.719)"></path>
    <path fill="#63BA90" d="M32.225 57.438H86.625V65.906H32.225z" transform="rotate(35.914 59.422 61.671)"></path>
</svg>