<?xml version="1.0" encoding="utf-8"?>
<!-- Generator: Adobe Illustrator 16.0.0, SVG Export Plug-In . SVG Version: 6.00 Build 0)  -->
<!DOCTYPE svg PUBLIC "-//W3C//DTD SVG 1.1//EN" "http://www.w3.org/Graphics/SVG/1.1/DTD/svg11.dtd">
<svg version="1.1" id="Layer_1" xmlns="http://www.w3.org/2000/svg" xmlns:xlink="http://www.w3.org/1999/xlink" x="0px" y="0px"
	 width="128px" height="128px" viewBox="193.955 0 128 128" enable-background="new 193.955 0 128 128" xml:space="preserve">
<path d="M214.124,42.594c-4.132-0.002-7.481,3.355-7.482,7.484l0.005,31.334c0.001,4.143,3.352,7.487,7.485,7.486
	c4.135,0,7.485-3.344,7.481-7.485V50.073C221.611,45.947,218.257,42.592,214.124,42.594 M274.467,14.455l5.223-9.537
	c0.279-0.499,0.098-1.133-0.408-1.415c-0.51-0.271-1.139-0.087-1.41,0.415l-5.275,9.637c-4.438-1.976-9.406-3.083-14.662-3.078
	c-5.243-0.005-10.209,1.099-14.629,3.063l-5.282-9.612c-0.274-0.507-0.906-0.69-1.404-0.414c-0.507,0.274-0.694,0.909-0.412,1.407
	l5.226,9.53c-10.266,5.294-17.203,15.377-17.197,26.953l67.404-0.009C291.643,29.824,284.719,19.762,274.467,14.455 M242.603,29.194
	c-1.55-0.003-2.817-1.266-2.817-2.825c0-1.553,1.262-2.829,2.819-2.828c1.563-0.001,2.828,1.275,2.83,2.828
	C245.436,27.926,244.169,29.193,242.603,29.194 M273.297,29.187c-1.559,0.002-2.826-1.261-2.826-2.824
	c0.006-1.55,1.266-2.826,2.826-2.832c1.551,0.005,2.822,1.282,2.82,2.833C276.119,27.924,274.852,29.188,273.297,29.187
	 M224.511,44.008l0.012,48.562c-0.003,4.417,3.57,7.984,7.984,7.984l5.437,0.001l0.005,16.581c0,4.128,3.355,7.484,7.479,7.484
	c4.135,0,7.484-3.359,7.485-7.49l-0.003-16.577l10.103-0.003l0.002,16.58c0,4.125,3.357,7.489,7.482,7.48
	c4.135,0.003,7.486-3.355,7.486-7.486l-0.006-16.576l5.457-0.004c4.402,0.003,7.984-3.567,7.988-7.986l-0.01-48.562L224.511,44.008
	L224.511,44.008z M309.264,50.067c-0.002-4.134-3.352-7.484-7.484-7.481c-4.133-0.004-7.48,3.351-7.48,7.485l0.006,31.336
	c0,4.136,3.348,7.481,7.482,7.482c4.133-0.001,7.479-3.346,7.48-7.486L309.264,50.067L309.264,50.067z"/>
</svg>
