<?xml version="1.0" encoding="utf-8"?>
<!-- Generator: Adobe Illustrator 16.0.0, SVG Export Plug-In . SVG Version: 6.00 Build 0)  -->
<!DOCTYPE svg PUBLIC "-//W3C//DTD SVG 1.1//EN" "http://www.w3.org/Graphics/SVG/1.1/DTD/svg11.dtd">
<svg version="1.1" id="Layer_1" xmlns="http://www.w3.org/2000/svg" xmlns:xlink="http://www.w3.org/1999/xlink" x="0px" y="0px"
	 width="128px" height="128px" viewBox="193.955 0 128 128" enable-background="new 193.955 0 128 128" xml:space="preserve">
<path d="M257.77,2.702l-57.68,20.298l9.114,75.571l48.627,26.726l48.877-27.087l9.111-75.569L257.77,2.702z"/>
<path d="M310.067,27.01l-52.43-17.88v109.783l43.938-24.319L310.067,27.01z"/>
<path d="M206.562,27.331l7.813,67.586l43.26,23.996V9.128L206.562,27.331z"/>
<path fill="#F2F2F2" d="M272.069,67.573l-14.432,6.75h-15.213l-7.151,17.885l-13.299,0.247l35.663-79.339L272.069,67.573
	L272.069,67.573z M270.672,64.174l-12.941-25.62l-10.616,25.18h10.52L270.672,64.174z"/>
<path fill="#B3B3B3" d="M257.635,13.116l0.096,25.438l12.045,25.199h-12.115l-0.026,10.552l16.75,0.017l7.828,18.134l12.727,0.235
	L257.635,13.116z"/>
</svg>
