<?xml version="1.0" encoding="utf-8"?>
<!-- Generator: Adobe Illustrator 16.0.0, SVG Export Plug-In . SVG Version: 6.00 Build 0)  -->
<!DOCTYPE svg PUBLIC "-//W3C//DTD SVG 1.1//EN" "http://www.w3.org/Graphics/SVG/1.1/DTD/svg11.dtd">
<svg version="1.1" id="Layer_1" xmlns="http://www.w3.org/2000/svg" xmlns:xlink="http://www.w3.org/1999/xlink" x="0px" y="0px"
	 width="128px" height="128px" viewBox="193.955 0 128 128" enable-background="new 193.955 0 128 128" xml:space="preserve">
<path d="M238.85,49.255c4.51,13.791,6.218,38.392,19.406,38.392c1.002,0,2.018-0.098,3.037-0.292
	c-11.987-2.794-13.408-27.127-20.724-39.729C239.995,48.147,239.427,48.69,238.85,49.255"/>
<path d="M240.569,47.625c7.315,12.602,8.737,36.934,20.724,39.729c0.942-0.173,1.886-0.435,2.831-0.765
	c-10.76-5.272-13.733-28.9-22.042-40.276C241.579,46.733,241.074,47.17,240.569,47.625"/>
<path d="M251.108,40.132c-1,0-2.018,0.098-3.04,0.292c-2.667,0.503-5.378,1.651-8.111,3.391c0.746,0.737,1.457,1.579,2.125,2.499
	c2.78-2.306,5.541-4.01,8.291-5.035c1.033-0.383,2.062-0.67,3.093-0.859C252.721,40.231,251.938,40.132,251.108,40.132"/>
<path d="M272.524,81.731c1.1-0.875,2.203-1.843,3.308-2.899c-4.582-13.726-6.224-38.679-19.502-38.679
	c-0.949,0-1.907,0.088-2.863,0.265C265.562,43.427,267.112,69.743,272.524,81.731"/>
<path d="M253.467,40.419c-0.745-0.189-1.529-0.288-2.36-0.288l5.222,0.02C255.381,40.151,254.423,40.238,253.467,40.419"/>
<path d="M272.291,84.646c-0.52-0.495-1.013-1.038-1.498-1.617c-2.234,1.582-4.459,2.781-6.67,3.563
	c0.787,0.384,1.611,0.67,2.487,0.847c0.678,0.139,1.382,0.21,2.118,0.21c2.482,0,4.445-0.294,6.113-1.095
	C273.923,86.055,273.08,85.412,272.291,84.646"/>
<path d="M250.372,41.281c10.834,5.666,11.776,31.329,20.421,41.748c0.58-0.408,1.154-0.841,1.727-1.298
	c-5.411-11.987-6.958-38.308-19.052-41.313C252.436,40.611,251.406,40.897,250.372,41.281"/>
<path d="M242.082,46.314c8.308,11.376,11.281,35.005,22.042,40.277c2.211-0.781,4.438-1.979,6.67-3.563
	c-8.645-10.419-9.587-36.08-20.421-41.748C247.623,42.304,244.862,44.008,242.082,46.314"/>
<path d="M233.536,48.924c-1.302,2.943-2.632,6.813-4.239,11.865c3.197-4.506,6.384-8.387,9.553-11.533
	c-0.437-1.341-0.905-2.579-1.411-3.682C236.143,46.566,234.837,47.682,233.536,48.924"/>
<path d="M238.594,44.724c-0.382,0.274-0.767,0.554-1.154,0.85c0.505,1.104,0.973,2.341,1.409,3.683
	c0.576-0.563,1.148-1.108,1.72-1.63C239.955,46.572,239.302,45.598,238.594,44.724"/>
<path d="M239.958,43.814c-0.454,0.288-0.907,0.592-1.365,0.909c0.709,0.873,1.361,1.849,1.977,2.904
	c0.505-0.458,1.01-0.897,1.513-1.314C241.415,45.394,240.704,44.551,239.958,43.814"/>
<path d="M313.858,39.081c-6.128,23.63-18.926,42.611-29.654,47.396h-0.021l-0.58,0.248l-0.07,0.027l-0.164,0.063l-0.074,0.03
	l-0.268,0.096l-0.11,0.038l-0.134,0.045l-0.129,0.044l-0.114,0.039l-0.229,0.069l-0.099,0.025l-0.154,0.042l-0.104,0.029
	l-0.169,0.043l-0.205,0.046c0.485,0.178,0.99,0.269,1.535,0.269c10.174,0,20.434-18.232,37.408-48.555h-6.666L313.858,39.081z"/>
<path d="M227.086,41.091l0.019-0.016l0.023-0.016h0.014l0.164-0.063l0.033-0.016l0.043-0.018l0.176-0.063h0.01l0.391-0.137
	l0.059-0.016l0.167-0.05l0.077-0.024l0.168-0.05l0.064-0.018l0.56-0.146l0.077-0.017l0.163-0.032l0.08-0.024l0.164-0.03h0.039
	l0.34-0.063h0.067l0.157-0.027l0.089-0.016l0.15-0.022l0.083-0.017l0.366-0.032c-0.352-0.033-0.713-0.056-1.083-0.056
	c-11.459,0-27.246,21.26-34.356,48.793h1.371c2.276-4.059,4.32-7.898,6.189-11.503c4.982-19.502,15.125-32.802,24.137-36.325"/>
<path d="M233.536,48.924c1.302-1.242,2.607-2.358,3.903-3.351c-0.295-0.646-0.602-1.247-0.93-1.798
	C235.462,45.048,234.504,46.727,233.536,48.924"/>
<path d="M234.477,41.252c0.748,0.627,1.419,1.49,2.032,2.524c0.193-0.236,0.389-0.456,0.592-0.662
	c-0.852-0.795-1.771-1.446-2.769-1.938l0.123,0.059L234.477,41.252"/>
<path d="M202.95,77.414c10.448-20.134,15.398-32.876,24.137-36.325C218.076,44.616,207.931,57.915,202.95,77.414"/>
<path d="M237.1,43.115c-0.203,0.208-0.397,0.426-0.592,0.662c0.329,0.55,0.634,1.147,0.932,1.797
	c0.386-0.296,0.771-0.574,1.153-0.85C238.121,44.142,237.622,43.6,237.1,43.115"/>
<path d="M207.694,88.826l-0.19,0.022h-0.036l-0.161,0.016h-0.026l-0.384,0.026h-0.04c10.574-0.297,15.408-5.59,17.806-13.271
	c1.823-5.821,3.32-10.726,4.633-14.841c-4.429,6.234-8.879,13.665-13.352,21.992c-2.156,4.013-5.437,5.689-8.25,6.046"/>
<path d="M207.694,88.823c2.813-0.358,6.094-2.033,8.25-6.048c4.473-8.322,8.925-15.755,13.35-21.991
	c1.61-5.053,2.938-8.92,4.241-11.865c-8.82,8.396-17.675,22.356-25.842,39.898"/>
<path d="M202.95,77.415c-1.869,3.604-3.914,7.444-6.19,11.503h3.986c0.528-4.031,1.275-7.873,2.203-11.501"/>
<path d="M230.462,40.22l-0.084,0.016l-0.149,0.021l-0.088,0.016l-0.157,0.027l-0.067,0.017l-0.34,0.059h-0.039l-0.165,0.033
	l-0.083,0.022l-0.16,0.031l-0.076,0.019l-0.561,0.146l-0.064,0.019l-0.169,0.05l-0.077,0.021l-0.167,0.05l-0.061,0.017l-0.389,0.137
	l-0.177,0.062l-0.073,0.03l-0.165,0.062l-0.055,0.026c-8.738,3.448-13.688,16.19-24.136,36.323
	c-0.928,3.627-1.679,7.47-2.203,11.501h0.559l3.833-0.017h1.759l0.383-0.025h0.025l0.161-0.017h0.038l0.19-0.022
	c8.168-17.543,17.022-31.502,25.842-39.898c0.97-2.197,1.926-3.875,2.972-5.146c-0.612-1.034-1.282-1.9-2.03-2.527l-0.021-0.017
	l-0.125-0.061l-0.124-0.063l-0.12-0.058l-0.142-0.06l-0.11-0.048l-0.232-0.097l-0.099-0.037l-0.172-0.069l-0.093-0.03l-0.24-0.083
	h-0.02l-0.278-0.079l-0.062-0.02l-0.234-0.064l-0.054-0.016c-0.189-0.051-0.384-0.09-0.581-0.128l-0.06-0.017l-0.252-0.04
	l-0.05-0.016l-0.298-0.04h-0.052l-0.23-0.025l-0.366,0.033"/>
<path d="M289.924,52.163c-2.012,6.439-3.638,11.752-5.056,16.123c5.517-7.592,10.95-17.14,16.124-28.159
	C294.955,42.024,291.737,46.364,289.924,52.163"/>
<path d="M285.043,86.075c-0.281,0.143-0.564,0.279-0.84,0.402c10.729-4.785,23.527-23.767,29.654-47.396h-1.242
	C298.537,64.23,294.01,81.066,285.043,86.075"/>
<path d="M278.037,83.963c2.334-2.85,4.234-7.693,6.831-15.677c-2.995,4.113-6.009,7.649-9.026,10.533l-0.016,0.025
	c0.66,1.972,1.381,3.712,2.204,5.117"/>
<path d="M278.037,83.963c-0.795,0.97-1.637,1.708-2.572,2.255c-0.205,0.12-0.412,0.232-0.623,0.334
	c0.988,0.533,2.065,0.891,3.273,1.033l0.535,0.046h0.031l0.258,0.017h0.873l0.099-0.017l0.192-0.016h0.094l0.21-0.022h0.018
	l0.064-0.016l0.224-0.034h0.064l0.252-0.042h0.041l0.501-0.106c-1.386-0.507-2.544-1.702-3.542-3.404"/>
<path d="M258.257,87.648c1.002,0,2.017-0.098,3.036-0.294c0.943-0.17,1.887-0.433,2.831-0.763c0.787,0.384,1.612,0.67,2.486,0.849
	c0.678,0.138,1.383,0.209,2.121,0.209L258.257,87.648L258.257,87.648z"/>
<path d="M268.731,87.648c2.479,0,4.443-0.294,6.111-1.096c0.988,0.534,2.065,0.891,3.273,1.034l0.535,0.045h0.031l0.258,0.017h0.309
	H268.731z"/>
<path d="M279.248,87.648h0.572l0.1-0.017l0.194-0.016h0.095l0.207-0.022h0.018l0.063-0.017l0.224-0.033l0.068-0.016l0.252-0.041
	h0.04l0.501-0.106c0.485,0.179,0.99,0.27,1.535,0.27l-3.867,0.017L279.248,87.648L279.248,87.648z"/>
<path d="M275.834,78.846v-0.017c-1.104,1.057-2.207,2.024-3.309,2.899c-0.574,0.457-1.148,0.89-1.729,1.298
	c0.486,0.58,0.98,1.123,1.5,1.618c0.787,0.765,1.63,1.409,2.55,1.906c0.21-0.103,0.419-0.215,0.622-0.334
	c0.938-0.547,1.777-1.286,2.572-2.255c-0.822-1.405-1.545-3.146-2.201-5.117"/>
<path d="M308.684,39.081h-6.249l-0.99,0.048l-0.46,0.986c-5.176,11.02-10.607,20.568-16.123,28.159
	c-2.594,7.982-4.497,12.827-6.831,15.677c0.997,1.702,2.159,2.899,3.539,3.406l0.108-0.023h0.022l0.076-0.017l0.174-0.042
	l0.103-0.03l0.154-0.04l0.096-0.027l0.231-0.069l0.114-0.039l0.129-0.046l0.133-0.043l0.107-0.04l0.27-0.096l0.075-0.027
	l0.165-0.064l0.069-0.025l0.58-0.248h0.021c0.277-0.121,0.559-0.259,0.838-0.402c8.971-5.011,13.498-21.846,27.576-46.993h-3.932
	L308.684,39.081L308.684,39.081z"/>
<path d="M230.83,40.187l0.064,0.017l0.164,0.018h0.055l0.298,0.038l0.05,0.017l0.251,0.042l0.063,0.016l0.579,0.128l0.053,0.017
	l0.233,0.065l0.064,0.02l0.276,0.078l0.021,0.017l0.242,0.083l0.092,0.029l0.173,0.07l0.098,0.035l0.23,0.096l0.112,0.048
	l0.139,0.061l0.123,0.058l0.122,0.063c1,0.49,1.918,1.145,2.77,1.938c0.314-0.33,0.641-0.626,0.982-0.893
	c-1.861-1.32-3.972-2.072-6.402-2.072c-0.282,0-0.564,0.016-0.85,0.037"/>
<path d="M237.1,43.115c0.521,0.484,1.021,1.026,1.493,1.609c0.457-0.317,0.911-0.623,1.365-0.909
	c-0.595-0.596-1.223-1.131-1.877-1.593C237.74,42.488,237.414,42.785,237.1,43.115"/>
<g transform="matrix(5.048 0 0 -5.048 -9064.26 2270.61)">
	<path d="M1841.288,441.83l0.169,0.007c0.482,0,0.9-0.149,1.268-0.41c0.389,0.307,0.86,0.415,1.513,0.415h-3.164L1841.288,441.83"/>
</g>
<g transform="matrix(5.048 0 0 -5.048 -9064.26 2270.61)">
	<path d="M1844.238,441.841c-0.654,0-1.123-0.107-1.513-0.415c0.129-0.091,0.253-0.197,0.372-0.316
		c0.542,0.344,1.078,0.573,1.607,0.672c0.202,0.038,0.403,0.057,0.601,0.057h-1.067L1844.238,441.841L1844.238,441.841z"/>
</g>
<path d="M284.87,68.29c1.421-4.374,3.042-9.685,5.058-16.126c1.814-5.804,5.029-10.143,11.063-12.036l0.467-0.985
	c-9.839,0.589-14.438,5.594-16.75,13.006c-4.047,12.938-6.499,21.326-8.859,26.672C278.861,75.938,281.875,72.4,284.87,68.29"/>
</svg>
