<?xml version="1.0" encoding="utf-8"?>
<!-- Generator: Adobe Illustrator 21.1.0, SVG Export Plug-In . SVG Version: 6.00 Build 0)  -->
<svg version="1.1" id="Layer_1" xmlns="http://www.w3.org/2000/svg" xmlns:xlink="http://www.w3.org/1999/xlink" x="0px" y="0px"
	 viewBox="0 0 128 128" style="enable-background:new 0 0 128 128;" xml:space="preserve">
<style type="text/css">
	.st0{fill:#FFFFFF;}
</style>
<path d="M1.4,1.4h125.2v125.2H1.4L1.4,1.4z"/>
<path class="st0" d="M116.3,96.7c-0.9-5.7-4.6-10.5-15.7-15c-3.8-1.8-8.1-3-9.4-5.9c-0.5-1.7-0.5-2.6-0.2-3.7
	c0.8-3.3,4.8-4.4,7.9-3.4c2,0.7,3.9,2.2,5.1,4.7c5.4-3.5,5.4-3.5,9.2-5.9c-1.4-2.1-2.1-3.1-3-4c-3.2-3.6-7.7-5.5-14.8-5.4l-3.7,0.5
	c-3.5,0.9-6.9,2.7-8.9,5.2c-5.9,6.7-4.2,18.5,3,23.3c7.1,5.3,17.5,6.5,18.9,11.5c1.3,6.1-4.5,8.1-10.2,7.4c-4.2-0.9-6.6-3-9.1-6.9
	c-4.7,2.7-4.7,2.7-9.5,5.5c1.1,2.5,2.3,3.6,4.3,5.8c9.1,9.2,31.8,8.7,35.8-5.2C116.1,104.8,117.2,101.7,116.3,96.7z M69.5,58.9H57.8
	l0,30.3c0,6.4,0.3,12.3-0.7,14.1c-1.7,3.6-6.2,3.1-8.2,2.4c-2.1-1-3.1-2.5-4.3-4.5c-0.3-0.6-0.6-1-0.7-1.1l-9.5,5.8
	c1.6,3.2,3.9,6.1,6.9,7.9c4.5,2.7,10.5,3.5,16.7,2.1c4.1-1.2,7.6-3.7,9.4-7.4c2.7-4.9,2.1-10.9,2.1-17.4
	C69.5,80.4,69.5,69.7,69.5,58.9z"/>
</svg>
