<?xml version="1.0" encoding="utf-8"?>
<!-- Generator: Adobe Illustrator 21.1.0, SVG Export Plug-In . SVG Version: 6.00 Build 0)  -->
<svg version="1.1" id="Layer_1" xmlns="http://www.w3.org/2000/svg" xmlns:xlink="http://www.w3.org/1999/xlink" x="0px" y="0px"
	 viewBox="0 0 128 128" style="enable-background:new 0 0 128 128;" xml:space="preserve">
<path d="M9.6,32.2C-1.4,48,0,68.7,8.4,85.5c0.2,0.4,0.4,0.8,0.6,1.2l0.4,0.8l0.2,0.4l0.4,0.8c0.3,0.5,0.5,0.9,0.8,1.4l0.5,0.8
	c0.3,0.5,0.6,1,0.9,1.5l0.4,0.6c0.4,0.7,0.9,1.3,1.4,2l0,0.1l0.2,0.3c0.4,0.6,0.8,1.1,1.2,1.6l0.5,0.6c0.4,0.5,0.8,0.9,1.1,1.4
	l0.4,0.5c0.5,0.6,1,1.2,1.6,1.8l0,0l0.1,0.1c0.5,0.6,1.1,1.1,1.6,1.7l0.5,0.5c0.4,0.4,0.9,0.8,1.3,1.3l0.5,0.5
	c0.6,0.5,1.2,1.1,1.8,1.6l0,0l0.3,0.3c0.5,0.5,1.1,0.9,1.6,1.4l0.7,0.5c0.4,0.4,0.9,0.7,1.3,1l0.7,0.5c0.5,0.4,1,0.7,1.5,1.1
	l0.5,0.4l0.1,0.1c0.5,0.3,1,0.6,1.5,1l0.6,0.4c0.8,0.5,1.5,0.9,2.3,1.4l0.6,0.4c0.6,0.3,1.1,0.6,1.7,1c0.3,0.2,0.6,0.3,0.9,0.5
	c0.4,0.2,0.8,0.4,1.2,0.6l0.3,0.1l0.5,0.2c0.6,0.3,1.3,0.6,1.9,0.9l0.4,0.2c0.7,0.3,1.5,0.6,2.3,0.9l0.6,0.2
	c0.7,0.3,1.4,0.5,2.1,0.8l0.3,0.1c0.8,0.3,1.6,0.5,2.4,0.8l0.6,0.2c0.8,0.2,1.6,0.5,2.5,0.7c53.3,9.7,68.8-32.1,68.8-32.1
	c-13,17-36.1,21.4-58,16.4c-0.8-0.2-1.6-0.4-2.4-0.7l-0.6-0.2c-0.8-0.2-1.6-0.5-2.4-0.8l-0.3-0.1c-0.7-0.2-1.4-0.5-2.1-0.8l-0.6-0.2
	c-0.8-0.3-1.5-0.6-2.2-0.9l-0.4-0.2c-0.6-0.3-1.3-0.6-1.9-0.9l-0.5-0.3c-0.5-0.2-1-0.5-1.5-0.7c-0.3-0.2-0.7-0.3-1-0.5
	c-0.6-0.3-1.2-0.6-1.8-1L47,99.3c-0.8-0.5-1.5-0.9-2.3-1.4l-0.6-0.4c-0.5-0.4-1.1-0.7-1.6-1.1L42,96.1c-0.5-0.4-1-0.7-1.5-1.1
	l-0.7-0.5c-0.5-0.4-0.9-0.7-1.4-1.1l-0.6-0.5c-0.6-0.5-1.2-1-1.7-1.5l-0.2-0.2c-0.6-0.5-1.2-1.1-1.8-1.6l-0.5-0.5
	c-0.4-0.4-0.9-0.8-1.3-1.3l-0.5-0.5c-0.5-0.6-1.1-1.1-1.6-1.7L30,85.6c-0.6-0.6-1.1-1.2-1.6-1.8L28,83.2c-0.4-0.5-0.8-1-1.2-1.4
	l-0.4-0.5c-0.5-0.6-0.9-1.2-1.3-1.8C12.9,62.9,8.5,40,18.2,21.3 M43.9,18.8c-8,11.5-7.5,26.8-1.3,39c1,2,2.2,4,3.5,5.9
	c1.2,1.7,2.5,3.8,4.1,5.1c0.6,0.6,1.2,1.3,1.8,1.9l0.5,0.5c0.6,0.6,1.2,1.1,1.8,1.7l0.1,0.1l0,0c0.7,0.6,1.4,1.2,2.1,1.8l0.5,0.4
	c0.7,0.6,1.5,1.1,2.2,1.6l0.1,0c0.3,0.2,0.7,0.4,1,0.7l0.5,0.3c0.5,0.3,1.1,0.7,1.7,1l0.2,0.1c0.5,0.3,1,0.6,1.5,0.8l0.5,0.3
	c0.3,0.2,0.7,0.4,1,0.5l0.2,0.1c0.7,0.3,1.4,0.7,2.1,1l0.5,0.2c0.6,0.2,1.2,0.5,1.8,0.7l0.8,0.3c0.5,0.2,1.1,0.4,1.6,0.6l0.7,0.2
	c0.8,0.2,1.5,0.5,2.3,0.7c41.2,6.8,50.7-24.9,50.7-24.9c-8.6,12.3-25.2,18.2-42.9,13.6c-0.8-0.2-1.6-0.4-2.3-0.7l-0.7-0.2
	c-0.5-0.2-1.1-0.4-1.6-0.6L78,71.2c-0.6-0.2-1.2-0.5-1.8-0.7l-0.5-0.2c-0.7-0.3-1.4-0.7-2.1-1c-0.4-0.2-0.7-0.4-1.1-0.5l-0.6-0.3
	c-0.5-0.2-0.9-0.5-1.4-0.8l-0.3-0.2c-0.6-0.3-1.1-0.7-1.7-1l-0.5-0.3c-0.4-0.2-0.7-0.5-1.1-0.7c-0.8-0.5-1.5-1.1-2.2-1.6l-0.5-0.4
	c-7.8-6.1-13.9-14.5-16.8-24c-3.1-9.8-2.4-20.9,2.9-29.8 M72.7,8.8C68,15.8,67.5,24.4,70.8,32c3.4,8.1,10.5,14.5,18.7,17.5
	c0.3,0.1,0.7,0.2,1,0.4l0.5,0.1c0.5,0.2,1,0.3,1.5,0.4c22.7,4.4,28.9-11.7,30.5-14c-5.4,7.8-14.5,9.6-25.6,6.9
	c-0.9-0.2-1.8-0.5-2.7-0.8c-1.1-0.4-2.2-0.8-3.2-1.3c-2-1-3.9-2.1-5.6-3.4c-10-7.6-16.2-22-9.7-33.7"/>
</svg>
