<?xml version="1.0" encoding="utf-8"?>
<!-- Generator: Adobe Illustrator 21.1.0, SVG Export Plug-In . SVG Version: 6.00 Build 0)  -->
<svg version="1.1" id="Layer_1" xmlns="http://www.w3.org/2000/svg" xmlns:xlink="http://www.w3.org/1999/xlink" x="0px" y="0px"
	 viewBox="0 0 128 128" style="enable-background:new 0 0 128 128;" xml:space="preserve">
<path d="M64,33C30.3,33,2.9,46.9,2.9,64S30.3,95,64,95s61.1-13.9,61.1-31S97.7,33,64,33z M48.1,70c-1.5,1.4-3.1,1.9-4.9,2.5
	c-1.8,0.6-4.1,0.5-6.8,0.5h-6.3l-1.7,10h-7.3l6.5-34h14c4.2,0,7.3,1.2,9.2,3.4s2.5,5.4,1.7,9.3c-0.3,1.6-0.9,3.2-1.6,4.5
	C50.3,67.6,49.3,68.9,48.1,70z M69.4,73l2.9-14.4c0.3-1.7,0.2-2.9-0.4-3.6c-0.6-0.6-1.8-1-3.6-1h-5.8l-3.7,19h-7.2L58,40h7.2l-1.7,9
	H70c4.1,0,6.9,0.8,8.4,2.2s2,3.4,1.4,6.5l-3,15.2H69.4z M109.7,61.8c-0.3,1.6-0.9,3.1-1.6,4.5c-0.8,1.4-1.7,2.6-3,3.7
	c-1.5,1.4-3.1,1.9-4.9,2.5c-1.8,0.6-4.1,0.5-6.8,0.5h-6.3l-1.7,10h-7.3l6.5-34h14c4.2,0,7.3,1.2,9.2,3.4
	C109.9,54.6,110.4,57.8,109.7,61.8z M95.9,54h-5l-2.7,14h4.4c2.9,0,5.1-0.3,6.6-1.4c1.4-1.1,2.4-2.8,2.9-5.4
	c0.5-2.5,0.3-4.4-0.7-5.5C100.5,54.7,98.7,54,95.9,54z M38.9,54h-5l-2.7,14h4.4c2.9,0,5.1-0.3,6.6-1.4c1.4-1.1,2.4-2.8,2.9-5.4
	c0.5-2.5,0.3-4.4-0.7-5.5S41.7,54,38.9,54z"/>
</svg>
