<?xml version="1.0" encoding="utf-8"?>
<!-- Generator: Adobe Illustrator 21.1.0, SVG Export Plug-In . SVG Version: 6.00 Build 0)  -->
<svg version="1.1" id="Layer_1" xmlns="http://www.w3.org/2000/svg" xmlns:xlink="http://www.w3.org/1999/xlink" x="0px" y="0px"
	 viewBox="0 0 128 128" style="enable-background:new 0 0 128 128;" xml:space="preserve">
<style type="text/css">
	.st0{opacity:0.444;fill:url(#SVGID_1_);enable-background:new    ;}
</style>
<path d="M63,10.1c-4.2,0-8.2,0.4-11.7,1C40.9,12.9,39,16.8,39,23.9V33h25v3H30.1c-7.2,0-13.4,4.3-15.4,12.5c-2.3,9.4-2.4,15.2,0,25
	C16.5,80.8,20.7,86,27.8,86H36V75c0-8,6.9-15,15.1-15h24.7C82.6,60,88,54.3,88,47.5V23.9c0-6.7-5.6-11.7-12.3-12.8
	C71.5,10.4,67.2,10.1,63,10.1z M50,17.6c2.5,0,4.6,2.1,4.6,4.7c0,2.6-2.1,4.7-4.6,4.7c-2.6,0-4.6-2.1-4.6-4.7
	C45.4,19.7,47.5,17.6,50,17.6z"/>
<path d="M92,36v11.3C92,55.8,84.8,63,76.6,63H51.3C44.5,63,39,68.8,39,75.5v23.5c0,6.7,5.8,10.6,12.3,12.5c7.8,2.3,15.2,2.7,24.5,0
	c6.2-1.8,12.3-5.4,12.3-12.5V90H64v-4h37.4c7.2,0,9.9-5,12.5-12.5c2.6-7.7,2.5-15.1,0-25C112,41.4,108.6,36,101.4,36L92,36L92,36z
	 M77.8,95.9c2.6,0,4.6,2.1,4.6,4.7c0,2.6-2.1,4.7-4.6,4.7c-2.6,0-4.6-2.1-4.6-4.7C73.2,98,75.3,95.9,77.8,95.9z"/>
<radialGradient id="SVGID_1_" cx="205.5113" cy="244.986" r="26.743" gradientTransform="matrix(0 -0.24 1.055 0 -194.376 168.736)" gradientUnits="userSpaceOnUse">
	<stop  offset="0" style="stop-color:#B8B8B8;stop-opacity:0.498"/>
	<stop  offset="1" style="stop-color:#7F7F7F;stop-opacity:0"/>
</radialGradient>
<path class="st0" d="M97.3,119.6c0,3.5-14.8,6.4-33.1,6.4c-18.3,0-33.1-2.9-33.1-6.4c0-3.5,14.8-6.4,33.1-6.4
	C82.5,113.2,97.3,116.1,97.3,119.6z"/>
</svg>
