<?xml version="1.0" encoding="utf-8"?>
<!-- Generator: Adobe Illustrator 21.1.0, SVG Export Plug-In . SVG Version: 6.00 Build 0)  -->
<svg version="1.1" id="Layer_1" xmlns="http://www.w3.org/2000/svg" xmlns:xlink="http://www.w3.org/1999/xlink" x="0px" y="0px"
	 viewBox="0 0 128 128" style="enable-background:new 0 0 128 128;" xml:space="preserve">
<path d="M36,111.3c27.5,3.8,54.4,7.4,82,11.2c-9.4-15.6-18.5-30.8-27.7-46.1C90.2,76.4,36,111.3,36,111.3z M125.7,24.9
	c-2.4,3.6-4.8,7.3-7.3,10.9c-8.3,12.5-16.6,25-24.9,37.5c-0.5,0.7-1.1,1.2-0.4,2.3c8,13.2,16,26.5,23.9,39.8
	c1.3,2.1,2.5,4.2,4.2,6.2c1.6-32.2,3.2-64.4,4.8-96.6C126,25,125.7,24.9,125.7,24.9z M16.3,66.2c0.4,0.4,1.3,0.6,1.7,0.3
	c7.7-3.8,15.4-7.5,22.9-11.6c2.5-1.3,4.3-3.7,6.5-5.7c7-6.4,14-12.8,21-19.3c0.4-0.4,0.9-0.8,1.2-1.3c2.5-4.9,5-9.8,7.5-14.9
	c-3-1.1-5.9-2.3-8.8-3.3c-0.4-0.1-1,0.1-1.4,0.4c-6.8,3.8-13.6,7.4-20.2,11.5c-3.3,2.1-5.9,5.1-8.8,7.7c-4.7,4.3-9.3,8.5-13.9,12.9
	c-1.2,1.2-2.3,2.5-3.3,3.9c-3.1,4.6-6.2,9.2-9.4,14C12.9,62.8,14.5,64.6,16.3,66.2z M44.4,59.9c-3.8,16.2-7.6,32.2-11.6,48.8
	c18.4-11.9,36.4-23.5,54.3-35C72.9,69.2,58.7,64.6,44.4,59.9z M121,25.1c-15.6,2.6-30.8,5.1-46.2,7.7c5.2,12.8,10.4,25.2,15.7,38.1
	C100.7,55.5,110.7,40.5,121,25.1z M45,56.6c14,4.5,27.8,9,41.9,13.6c-5.3-12.8-10.3-25.1-15.5-37.7C62.6,40.6,53.9,48.5,45,56.6z
	 M16.8,75.6c-5,11.9-9.8,23.4-14.7,35c9.4-0.3,18.5-0.5,27.9-0.8C25.7,98.5,21.3,87.3,16.8,75.6z M30.4,101.7l0.3-0.1
	c3.4-13.9,6.8-27.8,10.2-42.3c-7.6,4-14.9,7.8-22.4,11.6C22.4,81,26.4,91.4,30.4,101.7z M115.4,22.8c-4.5-1.2-8.9-2.4-13.4-3.5
	c-6.4-1.7-12.8-3.4-19.2-5.1c-0.8-0.2-1.4-0.4-1.9,0.6c-2.3,4.6-4.6,9.2-6.9,13.9c-0.1,0.1-0.1,0.3-0.1,0.7
	c13.9-2.1,27.7-4.2,41.5-6.3C115.3,23.1,115.4,22.8,115.4,22.8z M89.5,12.3l36.3,10.1c-2.1-5.9-4-11.4-6-17.1l-30.3,6.7
	C89.5,11.9,89.5,12.3,89.5,12.3z M33.5,114c-4.5-0.5-9.1,0-13.7,0c-3.8,0.1-7.5,0.2-11.3,0.3c-0.4,0-0.8,0.1-1.2,0.5
	c31,2.9,62,5.7,93,8.6l0.1-0.4c-9.9-1.4-19.9-2.7-29.8-4.1C58.3,117.3,45.9,115.4,33.5,114z M2.8,100c4-9.3,8-18.5,12-27.8
	c0.4-0.9,0.4-1.6-0.4-2.3c-1.7-1.6-3.2-3.3-5.1-5.2C6.8,76.9,4.4,88.8,2,100.8l0.3,0.1C2.4,100.6,2.6,100.3,2.8,100z M81.5,9.8
	c6.7-1.7,13.6-3.1,20.4-4.6c0.4-0.1,0.9-0.2,1.3-0.4l-0.1-0.3C93.6,5.8,84,7.1,73.9,8.5C76.7,9.7,78.8,10.5,81.5,9.8z"/>
</svg>
