<svg version="1.1" id="Layer_1" xmlns="http://www.w3.org/2000/svg" xmlns:xlink="http://www.w3.org/1999/xlink" x="0px" y="0px"
	 viewBox="0 0 185 185" style="enable-background:new 0 0 185 185;" xml:space="preserve">
<style type="text/css">
	.st0{fill:#D7E2DE;}
	.st1{fill:none;stroke:#465867;stroke-miterlimit:10;}
	.st2{opacity:0.32;fill:#FFC808;}
	.st3{clip-path:url(#SVGID_2_);}
	.st4{fill:none;stroke:#465867;stroke-width:1.25;stroke-miterlimit:10;}
	.st5{fill:none;stroke:#FF7300;stroke-width:2;stroke-miterlimit:10;}
</style>
<g>
	<path class="st0" d="M145.1,140.3c5.4,0.5,7.5,3.3,10.9,7.6c3.5,4.4,4.5,9.4-0.3,15.5c-3.7,4.6-11.9,6.7-17.7,1.6s-7-11.1-3.3-18.9
		C136.4,142.5,139,139.7,145.1,140.3z"/>
	<path class="st0" d="M62.4,147.7c5.9,3.5,6.6,7.7,7.9,14c1.3,6.6-0.6,12.3-10,15.9c-7.1,2.8-17.9,0.3-21.5-8.2
		c-3.5-8.5-1.2-15.5,8-21.5C51,145.2,55.7,143.7,62.4,147.7z"/>
	<path class="st0" d="M35.3,84c3.5,5.9,2.3,10.1,0.5,16.7c-1.9,6.9-6.1,11.5-16.1,11c-7.5-0.4-15.9-7.3-15.1-16.9
		s6.1-15.3,16.9-17.1C26.4,76.8,31.3,77.4,35.3,84z"/>
	<path class="st0" d="M72.9,18.3c1.5,5.1-0.2,8-2.8,12.4c-2.7,4.6-6.8,7-14.2,4.3c-5.6-2-10.6-9-8.1-15.9s7.5-9.9,16-8.7
		C67.6,11,71.1,12.5,72.9,18.3z"/>
	<path class="st0" d="M135.9,11.6c6,2.1,7.3,5.5,9.3,10.6c2.1,5.4,1.1,10.4-7.4,14.9c-6.4,3.4-17,2.9-21.5-3.7
		c-4.5-6.6-3.2-12.9,4.8-19.2C124.8,11.2,129.1,9.2,135.9,11.6z"/>
	<path class="st0" d="M173.5,80.1c6.5,3.5,7.3,7.5,8.7,13.8c1.5,6.5-0.7,12.1-11.1,15.6c-7.9,2.7-19.9,0.3-23.8-8.1
		s-1.3-15.2,8.9-21.1C160.9,77.7,166.1,76.2,173.5,80.1z"/>
	<circle class="st1" cx="18.9" cy="91.1" r="16.6"/>
	<circle class="st1" cx="163.2" cy="91.6" r="16.6"/>
	<line class="st1" x1="35.4" y1="90.6" x2="55.1" y2="90.8"/>
	<line class="st1" x1="137" y1="90.6" x2="146.6" y2="90.6"/>
	<circle class="st1" cx="132.1" cy="25.8" r="16.6"/>
	<circle class="st1" cx="59.3" cy="19.5" r="13.2"/>
	<circle class="st1" cx="55.8" cy="160.9" r="16.6"/>
	<circle class="st1" cx="143.3" cy="153.7" r="12.6"/>
	<line class="st1" x1="65.9" y1="30.9" x2="77.7" y2="52.5"/>
	<line class="st1" x1="123.1" y1="39.7" x2="116" y2="52.9"/>
	<line class="st1" x1="63.4" y1="145.7" x2="76.7" y2="126.8"/>
	<line class="st1" x1="134.7" y1="143.9" x2="119.9" y2="126"/>
	<path class="st2" d="M116.6,61.8c12.3,7.4,13.8,16.1,16.5,29.4c2.7,13.9-1.2,25.7-21,33.4c-14.9,5.8-37.5,0.6-45-17.3
		s-2.5-32.5,16.7-45C92.7,56.6,102.6,53.3,116.6,61.8z"/>
	<g>
		<defs>
			<circle id="SVGID_1_" cx="96.5" cy="90.7" r="35.5"/>
		</defs>
		<clipPath id="SVGID_2_">
			<use xlink:href="#SVGID_1_"  style="overflow:visible;"/>
		</clipPath>
		<g class="st3">
			<g>
				<path class="st4" d="M138.9,87.4l4.3,0.5l1.6-5.6l-4-1.8c0.1-1.9,0-3.8-0.5-5.5l3.7-2.3l-2.4-5.3l-4.3,1.2
					c-1.1-1.5-2.4-2.8-3.9-3.9l1.3-4.2l-5.3-2.5l-2.6,3.7c-1.8-0.4-3.6-0.6-5.4-0.5l-1.7-4.1l-5.7,1.4l0.5,4.6
					c-1.6,0.8-3.1,1.8-4.4,3.1L106,64l-3.4,4.7l3.4,3.3c-0.3,0.7-0.6,1.5-0.8,2.3c-0.3,0.9-0.5,1.9-0.6,2.8l-4.5,1l0.4,5.8l4.7,0.4
					c0.5,1.7,1.2,3.3,2.2,4.8l-2.8,3.7l4.1,4.2l3.8-2.7c1.5,1,3.1,1.8,4.8,2.3l0.2,4.5l5.8,0.6l1.1-4.4c1.8-0.2,3.6-0.6,5.3-1.4
					l3,3.2l4.8-3.3l-1.9-4C136.9,90.6,138,89.1,138.9,87.4z"/>
				<circle class="st4" cx="122.6" cy="79.3" r="10.3"/>
			</g>
			<g>
				<path class="st4" d="M103.9,111.6l5.6-0.6l0.3-7.5l-5.6-1c-0.4-2.4-1.2-4.7-2.3-6.8l3.9-4.1l-4.7-5.9l-5,2.8
					c-1.8-1.5-3.9-2.8-6.1-3.7l0.3-5.7l-7.4-1.6l-2,5.5c-2.4,0-4.7,0.4-6.9,1.1l-3.5-4.7L63.8,83l2,5.6c-1.8,1.5-3.3,3.3-4.5,5.2
					l-5.8-1.4l-2.8,7l5.2,3.1c-0.2,1-0.3,2-0.3,3.1c0,1.3,0,2.5,0.2,3.7l-5.3,2.7l2.3,7.2l6-1c1.2,2,2.6,3.8,4.3,5.4l-2.4,5.5l6.4,4
					l3.9-4.6c2.1,0.8,4.4,1.3,6.8,1.4l1.7,5.6l7.5-1.1l0-5.9c2.2-0.8,4.3-1.9,6.2-3.3l4.8,3.1l5-5.6l-3.7-4.4
					C102.5,116.2,103.3,114,103.9,111.6z"/>
				<circle class="st4" cx="81" cy="106.5" r="13.3"/>
			</g>
		</g>
	</g>
	<circle class="st5" cx="96.5" cy="90.7" r="35.5"/>
</g>
</svg>
