<svg version="1.1" id="Layer_1" xmlns="http://www.w3.org/2000/svg" xmlns:xlink="http://www.w3.org/1999/xlink" x="0px" y="0px"
	 viewBox="0 0 185 185" style="enable-background:new 0 0 185 185;" xml:space="preserve">
<style type="text/css">
	.st0{fill:#E6E6E6;}
	.st1{fill:#D7E2DE;}
	.st2{fill:none;stroke:#465867;stroke-miterlimit:10;}
	.st3{fill:none;stroke:#465867;stroke-width:1.5;stroke-miterlimit:10;}
	.st4{fill:none;stroke:#465867;stroke-width:0.75;stroke-miterlimit:10;}
	.st5{fill:#E535AB;}
</style>
<g>
	<path class="st0" d="M120.9,118.1l0.2,0.1c2.2,1.2,4.9,0.7,6.4-1.3l1.3-1.6c1.5-2,1.4-4.7-0.3-6.5l-0.3-0.3c-1.3-1.4-1.7-3.5-1-5.3
		c0.4-1.2,0.8-2.4,1.1-3.6c0.5-1.9,2-3.5,3.9-3.8l0.2,0c2.4-0.5,4.2-2.6,4.1-5.1l-0.1-2.1c-0.1-2.5-2-4.5-4.5-4.8l-0.5-0.1
		c-1.9-0.2-3.5-1.5-4.2-3.4c-0.4-1.2-0.9-2.3-1.5-3.4c-0.9-1.8-0.7-3.9,0.6-5.5l0.2-0.3c1.6-1.9,1.5-4.7-0.2-6.5l-1.4-1.5
		c-1.7-1.8-4.4-2.2-6.5-0.8l-0.6,0.4c-1.6,1.1-3.7,1.1-5.3,0.1c-1-0.6-2.1-1.1-3.2-1.6c-1.8-0.8-3.1-2.6-3.1-4.6l0-0.5
		c0-2.5-1.9-4.6-4.3-4.9l-2-0.3c-2.5-0.3-4.8,1.2-5.5,3.6l-0.3,0.9c-0.5,1.9-2.1,3.2-4,3.6c-1.1,0.2-2.2,0.5-3.3,0.8
		c-1.9,0.6-4,0-5.3-1.5l-0.5-0.5c-1.6-1.9-4.4-2.3-6.5-1l-1.7,1.1c-2.1,1.3-2.9,4-1.9,6.3l0.4,0.9c0.8,1.7,0.5,3.7-0.7,5.2
		c-0.3,0.4-0.6,0.7-0.9,1.1c-0.4,0.5-0.8,1.1-1.2,1.7c-1.1,1.6-3,2.5-5,2.2L62.9,75c-2.4-0.4-4.8,1.1-5.6,3.4l-0.6,2
		c-0.8,2.4,0.3,4.9,2.6,6l0.9,0.4c1.7,0.9,2.8,2.7,2.8,4.6c0,1.1,0,2.2,0.2,3.3c0.2,2-0.7,3.9-2.4,4.9l-0.7,0.4
		c-2.1,1.3-3,3.9-2.1,6.2l0.8,1.9c0.9,2.3,3.4,3.6,5.8,3l0.8-0.2c1.9-0.5,3.9,0.3,5.1,1.8c0.7,0.9,1.5,1.7,2.3,2.5
		c1.4,1.4,1.9,3.4,1.3,5.3l-0.2,0.6c-0.8,2.3,0.2,4.9,2.4,6.1l1.8,1c2.2,1.2,4.9,0.5,6.4-1.5l0.4-0.5c1.2-1.6,3.1-2.3,5.1-1.9
		c1.2,0.2,2.4,0.4,3.6,0.5c2,0.2,3.7,1.4,4.4,3.2l0.2,0.4c0.9,2.3,3.3,3.6,5.7,3.1l2-0.4c2.4-0.5,4.1-2.8,3.9-5.2l0-0.5
		c-0.1-2,0.9-3.8,2.6-4.7c1.1-0.6,2.1-1.3,3.2-2C117.1,117.4,119.2,117.2,120.9,118.1z"/>
	<path class="st1" d="M145.1,140.3c5.4,0.5,7.5,3.3,10.9,7.6c3.5,4.4,4.5,9.4-0.3,15.5c-3.7,4.6-11.9,6.7-17.7,1.6s-7-11.1-3.3-18.9
		C136.4,142.5,139,139.7,145.1,140.3z"/>
	<path class="st1" d="M62.4,147.7c5.9,3.5,6.6,7.7,7.9,14c1.3,6.6-0.6,12.3-10,15.9c-7.1,2.8-17.9,0.3-21.5-8.2
		c-3.5-8.5-1.2-15.5,8-21.5C51,145.2,55.7,143.7,62.4,147.7z"/>
	<path class="st1" d="M35.3,84c3.5,5.9,2.3,10.1,0.5,16.7c-1.9,6.9-6.1,11.5-16.1,11c-7.5-0.4-15.9-7.3-15.1-16.9
		s6.1-15.3,16.9-17.1C26.4,76.8,31.3,77.4,35.3,84z"/>
	<path class="st1" d="M72.9,18.3c1.5,5.1-0.2,8-2.8,12.4c-2.7,4.6-6.8,7-14.2,4.3c-5.6-2-10.6-9-8.1-15.9s7.5-9.9,16-8.7
		C67.6,11,71.1,12.5,72.9,18.3z"/>
	<path class="st1" d="M135.9,11.6c6,2.1,7.3,5.5,9.3,10.6c2.1,5.4,1.1,10.4-7.4,14.9c-6.4,3.4-17,2.9-21.5-3.7
		c-4.5-6.6-3.2-12.9,4.8-19.2C124.8,11.2,129.1,9.2,135.9,11.6z"/>
	<path class="st1" d="M173.5,80.1c6.5,3.5,7.3,7.5,8.7,13.8c1.5,6.5-0.7,12.1-11.1,15.6c-7.9,2.7-19.9,0.3-23.8-8.1
		s-1.3-15.2,8.9-21.1C160.9,77.7,166.1,76.2,173.5,80.1z"/>
	<circle class="st2" cx="18.9" cy="91.1" r="16.6"/>
	<circle class="st2" cx="163.2" cy="91.6" r="16.6"/>
	<line class="st2" x1="35.4" y1="90.6" x2="53.2" y2="90.8"/>
	<line class="st2" x1="138.5" y1="90.8" x2="146.6" y2="90.6"/>
	<circle class="st3" cx="132.1" cy="25.8" r="16.6"/>
	<circle class="st4" cx="59.3" cy="19.5" r="13.2"/>
	<circle class="st4" cx="55.8" cy="160.9" r="16.6"/>
	<circle class="st2" cx="143.3" cy="153.7" r="12.6"/>
	<line class="st4" x1="65.9" y1="30.9" x2="75.8" y2="46.9"/>
	<line class="st3" x1="123.1" y1="39.7" x2="116" y2="52.9"/>
	<line class="st4" x1="63.4" y1="145.7" x2="73.3" y2="130.7"/>
	<line class="st2" x1="134.7" y1="143.9" x2="119.9" y2="126"/>
	<g>
		<g>
			<g>
				<g>
					<rect x="67.6" y="84.2" transform="matrix(0.5 -0.866 0.866 0.5 -30.337 117.8484)" class="st5" width="38.6" height="2"/>
				</g>
			</g>
			<g>
				<g>
					<rect x="76" y="98.7" class="st5" width="38.6" height="2"/>
				</g>
			</g>
			<g>
				<g>
					<rect x="85.9" y="93.4" transform="matrix(0.5 -0.866 0.866 0.5 -47.113 127.5392)" class="st5" width="2" height="22.3"/>
				</g>
			</g>
			<g>
				<g>
					<rect x="102.7" y="64.4" transform="matrix(0.5 -0.866 0.866 0.5 -13.5674 127.5381)" class="st5" width="2" height="22.3"/>
				</g>
			</g>
			<g>
				<g>
					<rect x="75.8" y="74.5" transform="matrix(0.866 -0.5 0.5 0.866 -26.1132 53.5694)" class="st5" width="22.3" height="2"/>
				</g>
			</g>
			<g>
				<g>
					<rect x="102.7" y="65.9" transform="matrix(0.866 -0.5 0.5 0.866 -28.7082 63.2574)" class="st5" width="2" height="38.6"/>
				</g>
			</g>
			<g>
				<g>
					<rect x="77.5" y="78.9" class="st5" width="2" height="22.3"/>
				</g>
			</g>
			<g>
				<g>
					<rect x="111.1" y="78.9" class="st5" width="2" height="22.3"/>
				</g>
			</g>
			<g>
				<g>
					<rect x="94" y="103.7" transform="matrix(0.866 -0.5 0.5 0.866 -38.3915 65.8447)" class="st5" width="19.4" height="1.7"/>
				</g>
			</g>
			<path class="st5" d="M115.7,101.8c-1.2,2-3.7,2.7-5.7,1.5s-2.7-3.7-1.5-5.7c1.2-2,3.7-2.7,5.7-1.5
				C116.2,97.3,116.9,99.8,115.7,101.8"/>
			<path class="st5" d="M82.1,82.4c-1.2,2-3.7,2.7-5.7,1.5c-2-1.2-2.7-3.7-1.5-5.7c1.2-2,3.7-2.7,5.7-1.5
				C82.6,77.9,83.3,80.4,82.1,82.4"/>
			<path class="st5" d="M74.9,101.8c-1.2-2-0.5-4.6,1.5-5.7c2-1.2,4.6-0.5,5.7,1.5c1.2,2,0.5,4.6-1.5,5.7
				C78.6,104.5,76,103.8,74.9,101.8"/>
			<path class="st5" d="M108.4,82.4c-1.2-2-0.5-4.6,1.5-5.7c2-1.2,4.6-0.5,5.7,1.5c1.2,2,0.5,4.6-1.5,5.7
				C112.2,85.1,109.6,84.5,108.4,82.4"/>
			<path class="st5" d="M95.3,113.6c-2.3,0-4.2-1.9-4.2-4.2c0-2.3,1.9-4.2,4.2-4.2c2.3,0,4.2,1.9,4.2,4.2
				C99.5,111.7,97.6,113.6,95.3,113.6"/>
			<path class="st5" d="M95.3,74.9c-2.3,0-4.2-1.9-4.2-4.2s1.9-4.2,4.2-4.2c2.3,0,4.2,1.9,4.2,4.2S97.6,74.9,95.3,74.9"/>
		</g>
	</g>
	<path class="st2" d="M113.1,115.9l6.1,4.4l7-7.2l-4.6-6.1c1.8-2.8,3-5.7,3.9-8.8l7.5-0.5l0.8-10l-7.5-1.7c-0.4-3.1-1.3-6.2-2.7-9.1
		l5.4-5.3l-5.9-8.2l-7,3.6c-2.4-2.2-5-3.9-7.8-5.2l0.8-7.7l-9.7-2.5l-3.1,7.4c-3.1-0.1-6.2,0.2-9.1,1l-4.4-6.6l-9.1,4.3l2.4,7.8
		C75,66.3,74,67.2,73,68.2c-1.2,1.2-2.2,2.5-3.2,3.8l-7.7-2.2L57.9,79l6.8,4.4c-0.7,3-0.9,6.1-0.6,9.1l-7.3,3.2l2.7,9.7l7.9-1
		c1.4,2.7,3.2,5.2,5.4,7.5l-3.4,7l8.3,5.7l5.3-5.7c2.9,1.2,6,2,9.1,2.3l1.9,7.4l10-1l0.4-7.6C107.6,119.1,110.5,117.7,113.1,115.9z"
		/>
</g>
</svg>
