<svg width="52" height="52" viewBox="0 0 52 52" fill="none" xmlns="http://www.w3.org/2000/svg">
<g filter="url(#filter0_d)">
<circle cx="26" cy="22" r="22" fill="#349D9D"/>
</g>
<path d="M26.05 15.37L25.61 15.31L20.05 24.9C20.29 25.11 20.45 25.38 20.52 25.68H31.58C31.65 25.38 31.81 25.11 32.05 24.9L26.49 15.31L26.05 15.37ZM20.65 26.53L24.93 29.06C25.22 28.79 25.62 28.63 26.05 28.63C26.48 28.63 26.88 28.79 27.17 29.06L31.45 26.53H20.65ZM26.05 32C25.6044 32 25.1771 31.823 24.8621 31.5079C24.547 31.1929 24.37 30.7656 24.37 30.32L24.46 29.76L20.16 27.21C19.85 27.57 19.4 27.79 18.89 27.79C18.4444 27.79 18.0171 27.613 17.7021 27.2979C17.387 26.9829 17.21 26.5556 17.21 26.11C17.21 25.32 17.74 24.66 18.47 24.47V19.36C17.64 19.25 17 18.54 17 17.68C17 17.2344 17.177 16.8071 17.4921 16.4921C17.8071 16.177 18.2344 16 18.68 16C19.23 16 19.71 16.26 20.02 16.66L24.43 14.13L24.37 13.68C24.37 12.75 25.12 12 26.05 12C26.98 12 27.73 12.75 27.73 13.68L27.67 14.13L32.08 16.66C32.39 16.26 32.87 16 33.42 16C33.8656 16 34.2929 16.177 34.6079 16.4921C34.923 16.8071 35.1 17.2344 35.1 17.68C35.1 18.54 34.46 19.25 33.63 19.36V24.47C34.36 24.66 34.89 25.32 34.89 26.11C34.89 26.5556 34.713 26.9829 34.3979 27.2979C34.0829 27.613 33.6556 27.79 33.21 27.79C32.7 27.79 32.25 27.57 31.94 27.21L27.64 29.76L27.73 30.32C27.73 30.7656 27.553 31.1929 27.2379 31.5079C26.9229 31.823 26.4956 32 26.05 32ZM24.85 14.86L20.35 17.44L20.37 17.68C20.37 18.39 19.93 19 19.31 19.25L19.34 24.5L24.85 14.86ZM27.25 14.86L32.76 24.5L32.79 19.25C32.17 19 31.73 18.39 31.73 17.68L31.75 17.44L27.25 14.86Z" fill="white"/>
<defs>
<filter id="filter0_d" x="0" y="0" width="52" height="52" filterUnits="userSpaceOnUse" color-interpolation-filters="sRGB">
<feFlood flood-opacity="0" result="BackgroundImageFix"/>
<feColorMatrix in="SourceAlpha" type="matrix" values="0 0 0 0 0 0 0 0 0 0 0 0 0 0 0 0 0 0 127 0"/>
<feOffset dy="4"/>
<feGaussianBlur stdDeviation="2"/>
<feColorMatrix type="matrix" values="0 0 0 0 0 0 0 0 0 0 0 0 0 0 0 0 0 0 0.25 0"/>
<feBlend mode="normal" in2="BackgroundImageFix" result="effect1_dropShadow"/>
<feBlend mode="normal" in="SourceGraphic" in2="effect1_dropShadow" result="shape"/>
</filter>
</defs>
</svg>
