<?xml version="1.0" encoding="UTF-8" standalone="no"?>
<svg
   xmlns:dc="http://purl.org/dc/elements/1.1/"
   xmlns:cc="http://creativecommons.org/ns#"
   xmlns:rdf="http://www.w3.org/1999/02/22-rdf-syntax-ns#"
   xmlns:svg="http://www.w3.org/2000/svg"
   xmlns="http://www.w3.org/2000/svg"
   xmlns:sodipodi="http://sodipodi.sourceforge.net/DTD/sodipodi-0.dtd"
   xmlns:inkscape="http://www.inkscape.org/namespaces/inkscape"
   version="1.1"
   id="Layer_1"
   x="0px"
   y="0px"
   viewBox="0 0 185 185"
   style="enable-background:new 0 0 185 185;"
   xml:space="preserve"
   sodipodi:docname="noapi.svg"
   inkscape:version="1.0.2 (e86c8708, 2021-01-15)"><metadata
   id="metadata81"><rdf:RDF><cc:Work
       rdf:about=""><dc:format>image/svg+xml</dc:format><dc:type
         rdf:resource="http://purl.org/dc/dcmitype/StillImage" /><dc:title></dc:title></cc:Work></rdf:RDF></metadata><defs
   id="defs79" /><sodipodi:namedview
   pagecolor="#ffffff"
   bordercolor="#666666"
   borderopacity="1"
   objecttolerance="10"
   gridtolerance="10"
   guidetolerance="10"
   inkscape:pageopacity="0"
   inkscape:pageshadow="2"
   inkscape:window-width="1680"
   inkscape:window-height="1050"
   id="namedview77"
   showgrid="false"
   inkscape:zoom="3.972973"
   inkscape:cx="87.969388"
   inkscape:cy="92.5"
   inkscape:window-x="0"
   inkscape:window-y="0"
   inkscape:window-maximized="0"
   inkscape:current-layer="g74" />
<style
   type="text/css"
   id="style10">
	.st0{fill:#D7E2DE;}
	.st1{fill:none;stroke:#465867;stroke-miterlimit:10;}
	.st2{opacity:0.32;fill:#FFC808;}
	.st3{clip-path:url(#SVGID_2_);}
	.st4{fill:none;stroke:#465867;stroke-width:1.25;stroke-miterlimit:10;}
	.st5{fill:none;stroke:#FF7300;stroke-width:2;stroke-miterlimit:10;}
</style>
<g
   id="g74">
	<path
   class="st0"
   d="M145.1,140.3c5.4,0.5,7.5,3.3,10.9,7.6c3.5,4.4,4.5,9.4-0.3,15.5c-3.7,4.6-11.9,6.7-17.7,1.6s-7-11.1-3.3-18.9   C136.4,142.5,139,139.7,145.1,140.3z"
   id="path12" />
	<path
   class="st0"
   d="M62.4,147.7c5.9,3.5,6.6,7.7,7.9,14c1.3,6.6-0.6,12.3-10,15.9c-7.1,2.8-17.9,0.3-21.5-8.2   c-3.5-8.5-1.2-15.5,8-21.5C51,145.2,55.7,143.7,62.4,147.7z"
   id="path14" />
	<path
   class="st0"
   d="M35.3,84c3.5,5.9,2.3,10.1,0.5,16.7c-1.9,6.9-6.1,11.5-16.1,11c-7.5-0.4-15.9-7.3-15.1-16.9   s6.1-15.3,16.9-17.1C26.4,76.8,31.3,77.4,35.3,84z"
   id="path16" />
	<path
   class="st0"
   d="M72.9,18.3c1.5,5.1-0.2,8-2.8,12.4c-2.7,4.6-6.8,7-14.2,4.3c-5.6-2-10.6-9-8.1-15.9s7.5-9.9,16-8.7   C67.6,11,71.1,12.5,72.9,18.3z"
   id="path18" />
	<path
   class="st0"
   d="M135.9,11.6c6,2.1,7.3,5.5,9.3,10.6c2.1,5.4,1.1,10.4-7.4,14.9c-6.4,3.4-17,2.9-21.5-3.7   c-4.5-6.6-3.2-12.9,4.8-19.2C124.8,11.2,129.1,9.2,135.9,11.6z"
   id="path20" />
	<path
   class="st0"
   d="M173.5,80.1c6.5,3.5,7.3,7.5,8.7,13.8c1.5,6.5-0.7,12.1-11.1,15.6c-7.9,2.7-19.9,0.3-23.8-8.1   s-1.3-15.2,8.9-21.1C160.9,77.7,166.1,76.2,173.5,80.1z"
   id="path22" />
	<circle
   class="st1"
   cx="18.9"
   cy="91.1"
   r="16.6"
   id="circle24" />
	<circle
   class="st1"
   cx="163.2"
   cy="91.6"
   r="16.6"
   id="circle26" />
	<line
   class="st1"
   x1="35.4"
   y1="90.6"
   x2="55.1"
   y2="90.8"
   id="line28" />
	<line
   class="st1"
   x1="137"
   y1="90.6"
   x2="146.6"
   y2="90.6"
   id="line30" />
	<circle
   class="st1"
   cx="132.1"
   cy="25.8"
   r="16.6"
   id="circle32" />
	<circle
   class="st1"
   cx="59.3"
   cy="19.5"
   r="13.2"
   id="circle34" />
	<circle
   class="st1"
   cx="55.8"
   cy="160.9"
   r="16.6"
   id="circle36" />
	<circle
   class="st1"
   cx="143.3"
   cy="153.7"
   r="12.6"
   id="circle38" />
	<line
   class="st1"
   x1="65.9"
   y1="30.9"
   x2="77.7"
   y2="52.5"
   id="line40" />
	<line
   class="st1"
   x1="123.1"
   y1="39.7"
   x2="116"
   y2="52.9"
   id="line42" />
	<line
   class="st1"
   x1="63.4"
   y1="145.7"
   x2="76.7"
   y2="126.8"
   id="line44" />
	<line
   class="st1"
   x1="134.7"
   y1="143.9"
   x2="119.9"
   y2="126"
   id="line46" />
	
	
	<circle
   class="st5"
   cx="96.5"
   cy="90.7"
   r="35.5"
   id="circle72"
   style="stroke:#d7e2de;stroke-opacity:1" />
</g>
</svg>
