<svg version="1.1" id="Layer_1" xmlns="http://www.w3.org/2000/svg" xmlns:xlink="http://www.w3.org/1999/xlink" x="0px" y="0px"
	 viewBox="0 0 185 185" style="enable-background:new 0 0 185 185;" xml:space="preserve">
<style type="text/css">
	.st0{opacity:0.64;fill:#39B54A;}
	.st1{fill:#D7E2DE;}
	.st2{fill:none;}
	.st3{fill:none;stroke:#465867;stroke-width:1.5;stroke-miterlimit:10;}
	.st4{fill:none;stroke:#FF7300;stroke-width:2.5;stroke-miterlimit:10;}
	.st5{fill:#465867;stroke:#465867;stroke-width:0.5;stroke-miterlimit:10;}
	.st6{fill:none;stroke:#465867;stroke-width:1.25;stroke-miterlimit:10;}
	.st7{fill:none;stroke:#465867;stroke-miterlimit:10;}
	.st8{fill:none;stroke:#465867;stroke-width:0.75;stroke-miterlimit:10;}
</style>
<g>
	<path class="st0" d="M112.1,113.2l0.2,0.1c1.5,0.9,3.4,0.5,4.5-0.9l0.9-1.1c1.1-1.4,1-3.3-0.2-4.6l-0.2-0.2c-0.9-1-1.2-2.4-0.7-3.7
		c0.3-0.8,0.6-1.7,0.8-2.6c0.3-1.4,1.4-2.4,2.8-2.7l0.2,0c1.7-0.3,2.9-1.9,2.9-3.6l-0.1-1.4c-0.1-1.7-1.4-3.2-3.1-3.4l-0.4,0
		c-1.4-0.2-2.5-1.1-2.9-2.4c-0.3-0.8-0.6-1.6-1-2.4c-0.6-1.3-0.5-2.8,0.4-3.9l0.2-0.2c1.1-1.4,1.1-3.3-0.1-4.6l-1-1.1
		c-1.2-1.3-3.1-1.5-4.6-0.6l-0.4,0.3c-1.1,0.8-2.6,0.8-3.8,0.1c-0.7-0.4-1.5-0.8-2.2-1.1c-1.3-0.6-2.2-1.8-2.2-3.2l0-0.4
		c0-1.7-1.3-3.2-3-3.5l-1.4-0.2c-1.7-0.2-3.4,0.8-3.9,2.5l-0.2,0.6c-0.4,1.3-1.5,2.2-2.8,2.5c-0.8,0.1-1.6,0.3-2.3,0.5
		c-1.3,0.4-2.8,0-3.7-1.1l-0.3-0.4c-1.1-1.3-3.1-1.6-4.5-0.7l-1.2,0.8c-1.5,0.9-2,2.8-1.4,4.4l0.3,0.7c0.5,1.2,0.4,2.6-0.5,3.6
		c-0.2,0.3-0.4,0.5-0.6,0.8c-0.3,0.4-0.6,0.8-0.8,1.2c-0.8,1.1-2.1,1.8-3.5,1.5l-0.6-0.1c-1.7-0.3-3.4,0.7-3.9,2.4L67,86.5
		c-0.5,1.7,0.2,3.5,1.8,4.3l0.6,0.3c1.2,0.6,2,1.9,1.9,3.3c0,0.8,0,1.6,0.1,2.3c0.1,1.4-0.5,2.7-1.7,3.4l-0.5,0.3
		c-1.5,0.9-2.1,2.7-1.5,4.4l0.5,1.3c0.7,1.6,2.4,2.5,4.1,2.1L73,108c1.3-0.3,2.7,0.2,3.6,1.3c0.5,0.6,1,1.2,1.6,1.8
		c1,1,1.4,2.4,0.9,3.7l-0.1,0.4c-0.6,1.6,0.1,3.5,1.7,4.3l1.3,0.7c1.5,0.8,3.4,0.4,4.5-1l0.3-0.4c0.8-1.1,2.2-1.6,3.6-1.4
		c0.8,0.2,1.7,0.3,2.5,0.3c1.4,0.1,2.6,1,3.1,2.3l0.1,0.3c0.6,1.6,2.3,2.6,4,2.2l1.4-0.3c1.7-0.4,2.9-1.9,2.8-3.7l0-0.3
		c-0.1-1.4,0.7-2.7,1.9-3.3c0.8-0.4,1.5-0.9,2.2-1.4C109.4,112.7,110.8,112.5,112.1,113.2z"/>
	<path class="st1" d="M146.4,141.8c5.4,0.5,7.5,3.3,10.9,7.6c3.5,4.4,4.5,9.4-0.3,15.5c-3.7,4.6-11.9,6.7-17.7,1.6
		c-5.8-5.1-7-11.1-3.3-18.9C137.8,144.1,140.4,141.2,146.4,141.8z"/>
	<path class="st1" d="M63.7,149.3c5.9,3.5,6.6,7.7,7.9,14c1.3,6.6-0.6,12.3-10,15.9c-7.1,2.8-17.9,0.3-21.5-8.2
		c-3.5-8.5-1.2-15.5,8-21.5C52.4,146.8,57.1,145.3,63.7,149.3z"/>
	<path class="st1" d="M36.7,85.5c3.5,5.9,2.3,10.1,0.5,16.7c-1.9,6.9-6.1,11.5-16.1,11C13.5,112.9,5.2,106,6,96.4S12,81,22.8,79.2
		C27.8,78.4,32.7,78.9,36.7,85.5z"/>
	<path class="st1" d="M74.3,19.9c1.5,5.1-0.2,8-2.8,12.4c-2.7,4.6-6.8,7-14.2,4.3c-5.6-2-10.6-9-8.1-15.9c2.4-6.9,7.5-9.9,16-8.7
		C69,12.5,72.5,14.1,74.3,19.9z"/>
	<path class="st1" d="M137.3,13.2c6,2.1,7.3,5.5,9.3,10.6c2.1,5.4,1.1,10.4-7.4,14.9c-6.4,3.4-17,2.9-21.5-3.7
		c-4.5-6.6-3.2-12.9,4.8-19.2C126.2,12.8,130.5,10.8,137.3,13.2z"/>
	<rect class="st2" width="185" height="185"/>
	<path class="st1" d="M174.9,81.7c6.5,3.5,7.3,7.5,8.7,13.8c1.5,6.5-0.7,12.1-11.1,15.6c-7.9,2.7-19.9,0.3-23.8-8.1
		c-3.9-8.4-1.3-15.2,8.9-21.1C162.3,79.3,167.5,77.8,174.9,81.7z"/>
	<path class="st3" d="M107.5,109.8l4.8,2.8l4.6-5.8l-3.8-4.1c1.1-2.2,1.8-4.4,2.2-6.7l5.4-1l-0.2-7.4l-5.6-0.7
		c-0.5-2.3-1.4-4.5-2.7-6.5l3.6-4.3l-4.9-5.6l-4.8,3.1c-1.9-1.4-4-2.5-6.1-3.2l0-5.7l-7.3-1.1l-1.7,5.6c-2.3,0.2-4.5,0.6-6.6,1.5
		l-3.8-4.5l-6.3,3.9l2.3,5.5c-0.7,0.7-1.4,1.5-2.1,2.3c-0.8,1-1.5,2-2,3l-5.8-1l-2.4,7l5.3,2.7c-0.3,2.2-0.2,4.5,0.2,6.7l-5.1,2.9
		l2.7,6.9l5.8-1.3c1.2,1.9,2.7,3.6,4.5,5.1l-2,5.4l6.5,3.6l3.5-4.6c2.2,0.7,4.6,1,6.9,1l1.9,5.3l7.3-1.5l-0.3-5.6
		C103.6,112.6,105.6,111.4,107.5,109.8z"/>
	<g>
		<g>
			<path class="st4" d="M63.3,61.5c0,0-7.6-1.6-7.3,7.8c0.2,5.5,2.2,9.7,0.7,16C55,92.8,50,92.1,50,92.1"/>
			<path class="st4" d="M63.3,122.7c0,0-7.6,1.6-7.3-7.8c0.2-5.5,2.2-9.7,0.7-16C55,91.4,50,92.1,50,92.1"/>
		</g>
		<g>
			<path class="st4" d="M121.6,61.5c0,0,7.6-1.6,7.3,7.8c-0.2,5.5-2.2,9.7-0.7,16c1.7,7.4,6.7,6.7,6.7,6.7"/>
			<path class="st4" d="M121.6,122.7c0,0,7.6,1.6,7.3-7.8c-0.2-5.5-2.2-9.7-0.7-16c1.7-7.4,6.7-6.7,6.7-6.7"/>
		</g>
		<g>
			<circle class="st5" cx="81.1" cy="92.1" r="3.2"/>
			<circle class="st5" cx="92.4" cy="92.1" r="3.2"/>
			<circle class="st5" cx="103.7" cy="92.1" r="3.2"/>
		</g>
	</g>
	<circle class="st3" cx="20.3" cy="92.6" r="16.6"/>
	<circle class="st6" cx="164.6" cy="93.1" r="16.6"/>
	<line class="st3" x1="36.8" y1="92.1" x2="47.2" y2="92.4"/>
	<line class="st6" x1="137.8" y1="92.4" x2="148" y2="92.1"/>
	<circle class="st6" cx="133.5" cy="27.4" r="16.6"/>
	<circle class="st7" cx="60.6" cy="21" r="13.2"/>
	<circle class="st8" cx="57.1" cy="162.4" r="16.6"/>
	<circle class="st7" cx="144.6" cy="155.2" r="12.6"/>
	<line class="st7" x1="67.3" y1="32.5" x2="80.1" y2="56.4"/>
	<line class="st6" x1="124.5" y1="41.2" x2="117.4" y2="54.5"/>
	<line class="st8" x1="64.8" y1="147.3" x2="74.7" y2="125.6"/>
	<line class="st7" x1="136.1" y1="145.4" x2="121.3" y2="127.5"/>
</g>
</svg>
