<svg width="52" height="52" viewBox="0 0 52 52" fill="none" xmlns="http://www.w3.org/2000/svg">
<g filter="url(#filter0_d)">
<circle cx="26" cy="22" r="22" fill="#34679D"/>
</g>
<path d="M24 14C22.9 14 22.01 14.9 22.01 16L22 32C22 33.1 22.89 34 23.99 34H36C37.1 34 38 33.1 38 32V20L32 14H24ZM31 21V15.5L36.5 21H31Z" fill="#89BDF4"/>
<path d="M29.0314 19.22C29.0728 18.9006 29.0934 18.5706 29.0934 18.2194C29.0934 17.8787 29.0728 17.5381 29.0211 17.2187L31.1193 15.5368C31.3053 15.3877 31.357 15.1003 31.2433 14.8874L29.2588 11.3532C29.1348 11.119 28.8764 11.0445 28.649 11.119L26.1787 12.141C25.6619 11.7365 25.1141 11.3958 24.5043 11.1403L24.1322 8.43645C24.0909 8.18097 23.8842 8 23.6361 8H19.6671C19.4191 8 19.2227 8.18097 19.1813 8.43645L18.8093 11.1403C18.1994 11.3958 17.6413 11.7471 17.1348 12.141L14.6646 11.119C14.4372 11.0339 14.1788 11.119 14.0548 11.3532L12.0806 14.8874C11.9566 15.111 11.9979 15.3877 12.2047 15.5368L14.3028 17.2187C14.2511 17.5381 14.2098 17.8894 14.2098 18.2194C14.2098 18.5494 14.2305 18.9006 14.2822 19.22L12.184 20.9019C11.9979 21.051 11.9463 21.3384 12.0599 21.5513L14.0444 25.0855C14.1685 25.3197 14.4269 25.3942 14.6542 25.3197L17.1245 24.2977C17.6413 24.7023 18.1891 25.0429 18.7989 25.2984L19.171 28.0023C19.2227 28.2577 19.4191 28.4387 19.6671 28.4387H23.6361C23.8842 28.4387 24.0909 28.2577 24.1219 28.0023L24.494 25.2984C25.1038 25.0429 25.6619 24.7023 26.1684 24.2977L28.6386 25.3197C28.866 25.4048 29.1244 25.3197 29.2485 25.0855L31.2329 21.5513C31.357 21.3171 31.3053 21.051 31.1089 20.9019L29.0314 19.22ZM21.6516 22.0516C19.6051 22.0516 17.9307 20.3271 17.9307 18.2194C17.9307 16.1116 19.6051 14.3871 21.6516 14.3871C23.6981 14.3871 25.3725 16.1116 25.3725 18.2194C25.3725 20.3271 23.6981 22.0516 21.6516 22.0516Z" fill="white"/>
<defs>
<filter id="filter0_d" x="0" y="0" width="52" height="52" filterUnits="userSpaceOnUse" color-interpolation-filters="sRGB">
<feFlood flood-opacity="0" result="BackgroundImageFix"/>
<feColorMatrix in="SourceAlpha" type="matrix" values="0 0 0 0 0 0 0 0 0 0 0 0 0 0 0 0 0 0 127 0"/>
<feOffset dy="4"/>
<feGaussianBlur stdDeviation="2"/>
<feColorMatrix type="matrix" values="0 0 0 0 0 0 0 0 0 0 0 0 0 0 0 0 0 0 0.25 0"/>
<feBlend mode="normal" in2="BackgroundImageFix" result="effect1_dropShadow"/>
<feBlend mode="normal" in="SourceGraphic" in2="effect1_dropShadow" result="shape"/>
</filter>
</defs>
</svg>
