<svg version="1.1" id="Layer_1" xmlns="http://www.w3.org/2000/svg" xmlns:xlink="http://www.w3.org/1999/xlink" x="0px" y="0px"
	 viewBox="0 0 185 185" style="enable-background:new 0 0 185 185;" xml:space="preserve">
<style type="text/css">
	.st0{opacity:0.26;fill:#FFC808;}
	.st1{fill:none;stroke:#465867;stroke-width:1.1897;stroke-miterlimit:10;}
	.st2{fill:none;stroke:#465867;stroke-width:0.9518;stroke-miterlimit:10;}
	.st3{fill:none;stroke:#FF7300;stroke-width:2;stroke-miterlimit:10;}
	.st4{fill:#D7E2DE;}
	.st5{fill:none;stroke:#465867;stroke-miterlimit:10;}
</style>
<g>
	<g>
		<path class="st0" d="M52.9,52.9L85,50.8c1.8-0.1,3.2,1.5,2.9,3.3l-4.3,24.9c-0.2,1.4-1.5,2.4-2.9,2.3l-29.3-1.3
			c-1.6-0.1-2.8-1.4-2.7-3l1.4-21.4C50.4,54.1,51.5,53,52.9,52.9z"/>
		<g>
			<path class="st1" d="M82.6,78.1H52.1c-2,0-3.7-1.6-3.7-3.7V54.5c0-2,1.6-3.7,3.7-3.7h30.6c2,0,3.7,1.6,3.7,3.7v19.9
				C86.3,76.4,84.7,78.1,82.6,78.1z"/>
			<g>
				<circle class="st2" cx="60.5" cy="60.6" r="3.5"/>
				<path class="st2" d="M59.9,57.2c0,0,0.1,1.3,0.7,2c1.3,1.6,3.4,1.4,3.4,1.4"/>
				<path class="st2" d="M59.9,58.7c0,0-0.2,0.6-1.2,1.2c-0.8,0.5-1.6,0.2-1.6,0.2"/>
				<path class="st2" d="M54.9,70.6c0,0.9,2.5,1.7,5.6,1.7s5.6-0.7,5.6-1.7c0,0,0-0.1,0-0.1"/>
				<path class="st2" d="M66.1,70.5c-0.1-3.8-1.5-6-5.6-6c-4,0-5.4,2.2-5.6,6c0,0,0,0.1,0,0.1"/>
			</g>
			<line class="st2" x1="69.3" y1="59.4" x2="80.1" y2="59.4"/>
			<line class="st2" x1="69.3" y1="64.5" x2="80.1" y2="64.5"/>
			<line class="st2" x1="69.3" y1="69.7" x2="80.1" y2="69.7"/>
		</g>
	</g>
	<g>
		<path class="st0" d="M93.2,48.5l32.1-2.2c1.8-0.1,3.2,1.5,2.9,3.3l-4.3,24.9c-0.2,1.4-1.5,2.4-2.9,2.3l-29.3-1.3
			c-1.6-0.1-2.8-1.4-2.7-3l1.4-21.4C90.7,49.7,91.8,48.6,93.2,48.5z"/>
		<g>
			<path class="st1" d="M122.9,73.6H92.3c-2,0-3.7-1.6-3.7-3.7V50.1c0-2,1.6-3.7,3.7-3.7h30.6c2,0,3.7,1.6,3.7,3.7v19.9
				C126.6,72,124.9,73.6,122.9,73.6z"/>
			<g>
				<circle class="st2" cx="100.8" cy="56.2" r="3.5"/>
				<path class="st2" d="M100.2,52.8c0,0,0.1,1.3,0.7,2c1.3,1.6,3.4,1.4,3.4,1.4"/>
				<path class="st2" d="M100.2,54.3c0,0-0.2,0.6-1.2,1.2c-0.8,0.5-1.6,0.2-1.6,0.2"/>
				<path class="st2" d="M95.2,66.1c0,0.9,2.5,1.7,5.6,1.7s5.6-0.7,5.6-1.7c0,0,0-0.1,0-0.1"/>
				<path class="st2" d="M106.4,66c-0.1-3.8-1.5-6-5.6-6c-4,0-5.4,2.2-5.6,6c0,0,0,0.1,0,0.1"/>
			</g>
			<line class="st2" x1="109.5" y1="54.9" x2="120.3" y2="54.9"/>
			<line class="st2" x1="109.5" y1="60.1" x2="120.3" y2="60.1"/>
			<line class="st2" x1="109.5" y1="65.2" x2="120.3" y2="65.2"/>
		</g>
	</g>
	<g>
		<path class="st0" d="M106,79.6l32.1-2.2c1.8-0.1,3.2,1.5,2.9,3.3l-4.3,24.9c-0.2,1.4-1.5,2.4-2.9,2.3l-29.3-1.3
			c-1.6-0.1-2.8-1.4-2.7-3l1.4-21.4C103.5,80.8,104.6,79.6,106,79.6z"/>
		<g>
			<path class="st1" d="M135.7,104.7h-30.6c-2,0-3.7-1.6-3.7-3.7V81.1c0-2,1.6-3.7,3.7-3.7h30.6c2,0,3.7,1.6,3.7,3.7V101
				C139.4,103,137.7,104.7,135.7,104.7z"/>
			<g>
				<circle class="st2" cx="113.6" cy="87.2" r="3.5"/>
				<path class="st2" d="M113,83.9c0,0,0.1,1.3,0.7,2c1.3,1.6,3.4,1.4,3.4,1.4"/>
				<path class="st2" d="M113,85.4c0,0-0.2,0.6-1.2,1.2c-0.8,0.5-1.6,0.2-1.6,0.2"/>
				<path class="st2" d="M108,97.2c0,0.9,2.5,1.7,5.6,1.7s5.6-0.7,5.6-1.7c0,0,0-0.1,0-0.1"/>
				<path class="st2" d="M119.2,97.1c-0.1-3.8-1.5-6-5.6-6c-4,0-5.4,2.2-5.6,6c0,0,0,0.1,0,0.1"/>
			</g>
			<line class="st2" x1="122.3" y1="86" x2="133.1" y2="86"/>
			<line class="st2" x1="122.3" y1="91.1" x2="133.1" y2="91.1"/>
			<line class="st2" x1="122.3" y1="96.3" x2="133.1" y2="96.3"/>
		</g>
	</g>
	<g>
		<path class="st0" d="M52.6,81.9l32.1-2.2c1.8-0.1,3.2,1.5,2.9,3.3l-4.3,24.9c-0.2,1.4-1.5,2.4-2.9,2.3l-29.3-1.3
			c-1.6-0.1-2.8-1.4-2.7-3L50,84.5C50.1,83.1,51.2,82,52.6,81.9z"/>
		<g>
			<path class="st1" d="M82.3,107.1H51.7c-2,0-3.7-1.6-3.7-3.7V83.5c0-2,1.6-3.7,3.7-3.7h30.6c2,0,3.7,1.6,3.7,3.7v19.9
				C86,105.4,84.4,107.1,82.3,107.1z"/>
			<g>
				<circle class="st2" cx="60.2" cy="89.6" r="3.5"/>
				<path class="st2" d="M59.6,86.2c0,0,0.1,1.3,0.7,2c1.3,1.6,3.4,1.4,3.4,1.4"/>
				<path class="st2" d="M59.6,87.7c0,0-0.2,0.6-1.2,1.2c-0.8,0.5-1.6,0.2-1.6,0.2"/>
				<path class="st2" d="M54.6,99.6c0,0.9,2.5,1.7,5.6,1.7s5.6-0.7,5.6-1.7c0,0,0-0.1,0-0.1"/>
				<path class="st2" d="M65.8,99.5c-0.1-3.8-1.5-6-5.6-6c-4,0-5.4,2.2-5.6,6c0,0,0,0.1,0,0.1"/>
			</g>
			<line class="st2" x1="68.9" y1="88.4" x2="79.8" y2="88.4"/>
			<line class="st2" x1="68.9" y1="93.5" x2="79.8" y2="93.5"/>
			<line class="st2" x1="68.9" y1="98.7" x2="79.8" y2="98.7"/>
		</g>
	</g>
	<g>
		<path class="st0" d="M61.1,112.1l32.1-2.2c1.8-0.1,3.2,1.5,2.9,3.3l-4.3,24.9c-0.2,1.4-1.5,2.4-2.9,2.3L59.7,139
			c-1.6-0.1-2.8-1.4-2.7-3l1.4-21.4C58.6,113.3,59.7,112.2,61.1,112.1z"/>
		<g>
			<path class="st1" d="M90.8,137.2H60.2c-2,0-3.7-1.6-3.7-3.7v-19.9c0-2,1.6-3.7,3.7-3.7h30.6c2,0,3.7,1.6,3.7,3.7v19.9
				C94.5,135.6,92.8,137.2,90.8,137.2z"/>
			<g>
				<circle class="st2" cx="68.7" cy="119.8" r="3.5"/>
				<path class="st2" d="M68.1,116.4c0,0,0.1,1.3,0.7,2c1.3,1.6,3.4,1.4,3.4,1.4"/>
				<path class="st2" d="M68.1,117.9c0,0-0.2,0.6-1.2,1.2c-0.8,0.5-1.6,0.2-1.6,0.2"/>
				<path class="st2" d="M63.1,129.7c0,0.9,2.5,1.7,5.6,1.7s5.6-0.7,5.6-1.7c0,0,0-0.1,0-0.1"/>
				<path class="st2" d="M74.3,129.6c-0.1-3.8-1.5-6-5.6-6c-4,0-5.4,2.2-5.6,6c0,0,0,0.1,0,0.1"/>
			</g>
			<line class="st2" x1="77.4" y1="118.5" x2="88.2" y2="118.5"/>
			<line class="st2" x1="77.4" y1="123.7" x2="88.2" y2="123.7"/>
			<line class="st2" x1="77.4" y1="128.8" x2="88.2" y2="128.8"/>
		</g>
	</g>
	<g>
		<path class="st0" d="M101.9,109.5l32.1-2.2c1.8-0.1,3.2,1.5,2.9,3.3l-4.3,24.9c-0.2,1.4-1.5,2.4-2.9,2.3l-29.3-1.3
			c-1.6-0.1-2.8-1.4-2.7-3l1.4-21.4C99.4,110.7,100.5,109.6,101.9,109.5z"/>
		<g>
			<path class="st1" d="M131.7,134.6h-30.6c-2,0-3.7-1.6-3.7-3.7v-19.9c0-2,1.6-3.7,3.7-3.7h30.6c2,0,3.7,1.6,3.7,3.7v19.9
				C135.3,133,133.7,134.6,131.7,134.6z"/>
			<g>
				<circle class="st2" cx="109.5" cy="117.2" r="3.5"/>
				<path class="st2" d="M108.9,113.8c0,0,0.1,1.3,0.7,2c1.3,1.6,3.4,1.4,3.4,1.4"/>
				<path class="st2" d="M108.9,115.3c0,0-0.2,0.6-1.2,1.2c-0.8,0.5-1.6,0.2-1.6,0.2"/>
				<path class="st2" d="M103.9,127.1c0,0.9,2.5,1.7,5.6,1.7s5.6-0.7,5.6-1.7c0,0,0-0.1,0-0.1"/>
				<path class="st2" d="M115.1,127c-0.1-3.8-1.5-6-5.6-6c-4,0-5.4,2.2-5.6,6c0,0,0,0.1,0,0.1"/>
			</g>
			<line class="st2" x1="118.3" y1="115.9" x2="129.1" y2="115.9"/>
			<line class="st2" x1="118.3" y1="121.1" x2="129.1" y2="121.1"/>
			<line class="st2" x1="118.3" y1="126.2" x2="129.1" y2="126.2"/>
		</g>
	</g>
	<circle class="st3" cx="93.3" cy="101.2" r="31.4"/>
	<g>
		<path class="st4" d="M145.1,140.3c5.4,0.5,7.5,3.3,10.9,7.6c3.5,4.4,4.5,9.4-0.3,15.5c-3.7,4.6-11.9,6.7-17.7,1.6
			s-7-11.1-3.3-18.9C136.4,142.5,139,139.7,145.1,140.3z"/>
		<path class="st4" d="M62.4,147.7c5.9,3.5,6.6,7.7,7.9,14c1.3,6.6-0.6,12.3-10,15.9c-7.1,2.8-17.9,0.3-21.5-8.2
			c-3.5-8.5-1.2-15.5,8-21.5C51,145.2,55.7,143.7,62.4,147.7z"/>
		<path class="st4" d="M35.3,84c3.5,5.9,2.3,10.1,0.5,16.7c-1.9,6.9-6.1,11.5-16.1,11c-7.5-0.4-15.9-7.3-15.1-16.9
			s6.1-15.3,16.9-17.1C26.4,76.8,31.3,77.4,35.3,84z"/>
		<path class="st4" d="M72.9,18.3c1.5,5.1-0.2,8-2.8,12.4c-2.7,4.6-6.8,7-14.2,4.3c-5.6-2-10.6-9-8.1-15.9s7.5-9.9,16-8.7
			C67.6,11,71.1,12.5,72.9,18.3z"/>
		<path class="st4" d="M135.9,11.6c6,2.1,7.3,5.5,9.3,10.6c2.1,5.4,1.1,10.4-7.4,14.9c-6.4,3.4-17,2.9-21.5-3.7
			c-4.5-6.6-3.2-12.9,4.8-19.2C124.8,11.2,129.1,9.2,135.9,11.6z"/>
		<path class="st4" d="M173.5,80.1c6.5,3.5,7.3,7.5,8.7,13.8c1.5,6.5-0.7,12.1-11.1,15.6c-7.9,2.7-19.9,0.3-23.8-8.1
			s-1.3-15.2,8.9-21.1C160.9,77.7,166.1,76.2,173.5,80.1z"/>
		<circle class="st5" cx="18.9" cy="91.1" r="16.6"/>
		<circle class="st5" cx="163.2" cy="91.6" r="16.6"/>
		<line class="st5" x1="35.4" y1="90.6" x2="59" y2="93.8"/>
		<line class="st5" x1="127.8" y1="95.3" x2="146.6" y2="92.7"/>
		<circle class="st5" cx="132.1" cy="25.8" r="16.6"/>
		<circle class="st5" cx="59.3" cy="19.5" r="13.2"/>
		<circle class="st5" cx="55.8" cy="160.9" r="16.6"/>
		<circle class="st5" cx="143.3" cy="153.7" r="12.6"/>
		<line class="st5" x1="65.9" y1="30.9" x2="83.8" y2="65"/>
		<line class="st5" x1="123.1" y1="39.7" x2="106.3" y2="66.6"/>
		<line class="st5" x1="63.4" y1="145.7" x2="75" y2="130.4"/>
		<line class="st5" x1="134.7" y1="143.9" x2="118.9" y2="127"/>
	</g>
</g>
</svg>
