<svg version="1.1" id="Layer_1" xmlns="http://www.w3.org/2000/svg" xmlns:xlink="http://www.w3.org/1999/xlink" x="0px" y="0px"
	 viewBox="0 0 185 185" style="enable-background:new 0 0 185 185;" xml:space="preserve">
<style type="text/css">
	.st0{fill:none;stroke:#465867;stroke-miterlimit:10;}
	.st1{fill:none;stroke:#212A32;stroke-miterlimit:10;}
	.st2{fill:none;stroke:#FF7300;stroke-miterlimit:10;}
	.st3{fill:#D7E2DE;}
	.st4{fill:none;stroke:#465867;stroke-width:1.5;stroke-miterlimit:10;}
	.st5{fill:#FFFFFF;stroke:#FF7300;stroke-width:1.5;stroke-miterlimit:10;}
</style>
<g>
	<g>
		<g>
			<line class="st0" x1="54.6" y1="128.1" x2="107.3" y2="114.2"/>
			<line class="st0" x1="57.9" y1="140.7" x2="110.6" y2="126.8"/>
			<path class="st0" d="M52.9,55.1l-25.4,6.7c-1.4,0.4-2.3,1.8-1.9,3.2l23.6,89.4c0.4,1.5,1.9,2.4,3.4,2l69.7-18.4
				c1.5-0.4,2.5-2,2-3.5l-2.2-8.3"/>
		</g>
		<g>
			<path class="st1" d="M50.1,69l-3.8,3.5l2.3,3.4c-0.9,1.3-1.6,2.8-2.1,4.3l-4.1,0.1l-0.6,5.2l4,1.1c0.1,0.7,0.2,1.4,0.3,2.1
				c0.2,0.9,0.5,1.7,0.8,2.4L43.8,94l2.8,4.4l3.8-1.7c0.7,0.7,1.4,1.3,2.2,1.9"/>
			<circle class="st1" cx="62" cy="85.2" r="9.2"/>
		</g>
	</g>
	<g>
		<g>
			<polyline class="st0" points="159.3,69.8 138.2,66.5 140.9,49.1 			"/>
			<line class="st0" x1="138" y1="80.4" x2="146.5" y2="81.7"/>
			<line class="st0" x1="132.1" y1="92.6" x2="144.5" y2="94.6"/>
			<line class="st0" x1="132.4" y1="105.8" x2="142.5" y2="107.4"/>
			<line class="st0" x1="129.8" y1="118.6" x2="140.5" y2="120.3"/>
			<line class="st0" x1="122.8" y1="130.7" x2="138.4" y2="133.2"/>
			<path class="st0" d="M106.8,142.2l37.9,6c1.6,0.2,3-0.8,3.3-2.4l11.5-73.1c0.2-1.4-0.2-2.8-1.1-3.8l-16.6-18.9
				c-0.9-1-2-1.6-3.3-1.8l-9.8-1.6"/>
		</g>
		<g>
			<path class="st2" d="M125.7,81.4l3.9,0.2l1-5.1l-3.7-1.3c0-1.7-0.3-3.3-0.8-4.9l3.1-2.4l-2.5-4.6l-3.7,1.4
				c-1.1-1.2-2.3-2.3-3.8-3.2l0.8-3.8l-4.9-1.9l-2,3.5c-1.6-0.2-3.3-0.2-4.8,0l-1.9-3.6l-4.9,1.7l0.8,4.1c-1.4,0.8-2.6,1.9-3.6,3.1
				l-3.8-1.6L92,67.6l3.2,2.7c-0.2,0.7-0.4,1.4-0.5,2.1c-0.2,0.9-0.3,1.7-0.3,2.5l-3.9,1.3l0.8,5.1l4.2,0c0.6,1.5,1.4,2.9,2.3,4.1
				l-2.2,3.5l3.9,3.4l3.1-2.7c1.4,0.8,2.9,1.3,4.5,1.7l0.5,4l5.2,0.1l0.7-4c1.6-0.3,3.2-0.9,4.6-1.6l2.9,2.7l4-3.3l-2-3.4
				C124.2,84.5,125.1,83,125.7,81.4z"/>
			<circle class="st2" cx="110.7" cy="75.5" r="9.2"/>
		</g>
	</g>
	<path class="st3" d="M55.4,34.1l67.1-3.2c4.9-0.2,9.1,3.5,9.4,8.4l4.2,73.1c0.3,4.9-2.9,9.3-7.6,10.5l-59.4,9.8
		c-4.7,1.2-9.5-1.9-10.2-6.8l-11.7-82C46.6,38.9,50.3,34.3,55.4,34.1z"/>
	<g>
		<g>
			<polyline class="st4" points="130.2,46.7 108.9,46.7 108.9,29 			"/>
			<line class="st4" x1="110.9" y1="60.4" x2="119.5" y2="60.4"/>
			<line class="st4" x1="106.9" y1="73.4" x2="119.5" y2="73.4"/>
			<line class="st4" x1="89.1" y1="86.5" x2="119.5" y2="86.5"/>
			<line class="st4" x1="65" y1="99.5" x2="119.5" y2="99.5"/>
			<line class="st4" x1="65" y1="112.5" x2="119.5" y2="112.5"/>
			<path class="st4" d="M130.8,123.5v-74c0-1.4-0.6-2.7-1.7-3.6l-19.4-16.1c-1-0.8-2.3-1.3-3.6-1.3H55.7c-1.5,0-2.6,1.2-2.6,2.6
				v92.5c0,1.5,1.3,2.8,2.8,2.8H128C129.5,126.4,130.8,125.1,130.8,123.5z"/>
		</g>
		<path class="st5" d="M102.7,63l0.2-5.2L99,57c-0.3-1.7-0.8-3.3-1.6-4.7l2.7-2.8l-3.2-4.1l-3.5,2c-1.3-1-2.7-1.9-4.2-2.5l0.2-3.9
			l-5.1-1.1l-1.4,3.8c-1.7,0-3.3,0.3-4.8,0.8l-2.4-3.2l-4.6,2.5l1.4,3.9c-1.2,1-2.3,2.2-3.1,3.6l-4-1L63.5,55l3.6,2.1
			c-0.1,0.7-0.2,1.4-0.2,2.1c0,0.9,0,1.7,0.1,2.6l-3.7,1.9l1.6,5L69,68c0.8,1.4,1.8,2.6,2.9,3.7l-1.6,3.8l4.4,2.8l2.7-3.2
			c1.5,0.5,3,0.9,4.7,1l1.2,3.9l5.2-0.7l0-4c1.6-0.6,3-1.3,4.3-2.3l3.3,2.2l3.5-3.9L97,68c0.8-1.4,1.4-3,1.8-4.6L102.7,63z M83.1,69
			c-5.1,0-9.2-4.1-9.2-9.2c0-5.1,4.1-9.2,9.2-9.2c5.1,0,9.2,4.1,9.2,9.2C92.2,64.9,88.1,69,83.1,69z"/>
	</g>
</g>
</svg>
