<svg version="1.1" id="Layer_1" xmlns="http://www.w3.org/2000/svg" xmlns:xlink="http://www.w3.org/1999/xlink" x="0px" y="0px"
	 viewBox="0 0 185 185" style="enable-background:new 0 0 185 185;" xml:space="preserve">
<style type="text/css">
	.st0{fill:none;stroke:#465867;stroke-miterlimit:10;}
	.st1{fill:#D7E2DE;}
	.st2{fill:none;stroke:#465867;stroke-width:0.75;stroke-miterlimit:10;}
	.st3{fill:none;stroke:#465867;stroke-width:1.25;stroke-miterlimit:10;}
	.st4{fill:none;stroke:#465867;stroke-width:1.5;stroke-miterlimit:10;}
	.st5{opacity:0.72;fill:#2C6E93;}
	.st6{fill:none;stroke:#FF7300;stroke-width:2;stroke-miterlimit:10;}
	.st7{fill:#FFFFFF;}
</style>
<g>
	<path class="st0" d="M112.9,118.5l5.6,4.8l7.5-6.5l-4-6.3c1.9-2.6,3.4-5.4,4.5-8.3l7.3,0.1l1.6-9.8l-7.2-2.3
		c-0.2-3.1-0.8-6.2-1.9-9.2l5.7-4.7l-5.1-8.5l-7.1,2.9c-2.2-2.3-4.6-4.2-7.2-5.7l1.4-7.5l-9.3-3.2l-3.6,7c-3-0.4-6-0.3-9,0.3
		l-3.8-6.8L79,58.4l1.7,7.8c-1.1,0.7-2.2,1.6-3.3,2.5c-1.2,1.1-2.4,2.2-3.4,3.5l-7.3-2.8L61.9,78l6.3,4.9c-0.9,2.9-1.3,5.9-1.4,8.9
		l-7.4,2.6l1.9,9.7l7.8-0.3c1.1,2.8,2.7,5.4,4.7,7.8L70,118l7.7,6.2l5.7-5.2c2.8,1.4,5.7,2.5,8.8,3l1.2,7.4l9.9-0.1l1-7.4
		C107.2,121.2,110.2,120.1,112.9,118.5z"/>
	<path class="st1" d="M145.1,140.3c5.4,0.5,7.5,3.3,10.9,7.6c3.5,4.4,4.5,9.4-0.3,15.5c-3.7,4.6-11.9,6.7-17.7,1.6s-7-11.1-3.3-18.9
		C136.4,142.5,139,139.7,145.1,140.3z"/>
	<path class="st1" d="M62.4,147.7c5.9,3.5,6.6,7.7,7.9,14c1.3,6.6-0.6,12.3-10,15.9c-7.1,2.8-17.9,0.3-21.5-8.2
		c-3.5-8.5-1.2-15.5,8-21.5C51,145.2,55.7,143.7,62.4,147.7z"/>
	<path class="st1" d="M35.3,84c3.5,5.9,2.3,10.1,0.5,16.7c-1.9,6.9-6.1,11.5-16.1,11c-7.5-0.4-15.9-7.3-15.1-16.9
		s6.1-15.3,16.9-17.1C26.4,76.8,31.3,77.4,35.3,84z"/>
	<path class="st1" d="M72.9,18.3c1.5,5.1-0.2,8-2.8,12.4c-2.7,4.6-6.8,7-14.2,4.3c-5.6-2-10.6-9-8.1-15.9s7.5-9.9,16-8.7
		C67.6,11,71.1,12.5,72.9,18.3z"/>
	<path class="st1" d="M135.9,11.6c6,2.1,7.3,5.5,9.3,10.6c2.1,5.4,1.1,10.4-7.4,14.9c-6.4,3.4-17,2.9-21.5-3.7
		c-4.5-6.6-3.2-12.9,4.8-19.2C124.8,11.2,129.1,9.2,135.9,11.6z"/>
	<path class="st1" d="M173.5,80.1c6.5,3.5,7.3,7.5,8.7,13.8c1.5,6.5-0.7,12.1-11.1,15.6c-7.9,2.7-19.9,0.3-23.8-8.1
		s-1.3-15.2,8.9-21.1C160.9,77.7,166.1,76.2,173.5,80.1z"/>
	<circle class="st2" cx="18.9" cy="91.1" r="16.6"/>
	<circle class="st3" cx="163.2" cy="91.6" r="16.6"/>
	<line class="st2" x1="35.4" y1="90.6" x2="51.1" y2="90.7"/>
	<line class="st3" x1="138.5" y1="90.8" x2="146.6" y2="90.6"/>
	<circle class="st3" cx="132.1" cy="25.8" r="16.6"/>
	<circle class="st0" cx="59.3" cy="19.5" r="13.2"/>
	<circle class="st4" cx="55.8" cy="160.9" r="16.6"/>
	<circle class="st0" cx="143.3" cy="153.7" r="12.6"/>
	<line class="st0" x1="65.9" y1="30.9" x2="79.9" y2="51"/>
	<line class="st3" x1="123.1" y1="39.7" x2="114.4" y2="52.7"/>
	<line class="st4" x1="63.4" y1="145.7" x2="74.9" y2="128.9"/>
	<line class="st0" x1="134.7" y1="143.9" x2="121" y2="128"/>
	<path class="st5" d="M116,110.6l-48.6,2.5c-7,0.2-12.7-5-11.9-11l3.2-21.7c0.5-3.6,3.9-6.4,8.2-6.6l55.6-2.6c4.8-0.2,8.7,3.4,8,7.5
		l-3.8,23.6C126,106.9,121.5,110.5,116,110.6z"/>
	<path class="st6" d="M117.5,109H64.1c-4.7,0-8.5-3.8-8.5-8.5v-22c0-4.7,3.8-8.5,8.5-8.5h53.4c4.7,0,8.5,3.8,8.5,8.5v22
		C126,105.3,122.2,109,117.5,109z"/>
	<g>
		<g>
			<path class="st7" d="M87.5,86l-3.4,10.4h-2.6l-2.3-7l-2.4,7h-2.6L70.9,86h2.5l2.3,7.3l2.5-7.3h2.2l2.4,7.4l2.4-7.4H87.5z"/>
			<path class="st7" d="M90.2,96.2c-0.8-0.2-1.4-0.5-1.8-0.9l0.8-1.8c0.4,0.3,1,0.6,1.6,0.8c0.6,0.2,1.2,0.3,1.8,0.3
				c0.7,0,1.2-0.1,1.5-0.3c0.3-0.2,0.5-0.5,0.5-0.8c0-0.2-0.1-0.5-0.3-0.6c-0.2-0.2-0.4-0.3-0.7-0.4c-0.3-0.1-0.7-0.2-1.2-0.3
				c-0.8-0.2-1.4-0.4-1.9-0.6c-0.5-0.2-0.9-0.5-1.3-0.9c-0.4-0.4-0.5-1-0.5-1.7c0-0.6,0.2-1.2,0.5-1.6c0.3-0.5,0.8-0.9,1.5-1.2
				c0.7-0.3,1.5-0.4,2.4-0.4c0.7,0,1.3,0.1,1.9,0.2s1.2,0.4,1.7,0.7l-0.7,1.8c-1-0.5-1.9-0.8-2.9-0.8c-0.7,0-1.2,0.1-1.5,0.3
				c-0.3,0.2-0.5,0.5-0.5,0.9c0,0.4,0.2,0.6,0.6,0.8c0.4,0.2,0.9,0.3,1.7,0.5c0.8,0.2,1.4,0.4,1.9,0.6c0.5,0.2,0.9,0.5,1.3,0.9
				c0.4,0.4,0.5,1,0.5,1.6c0,0.6-0.2,1.1-0.5,1.6c-0.3,0.5-0.8,0.9-1.5,1.2c-0.7,0.3-1.5,0.4-2.4,0.4C91.7,96.5,90.9,96.4,90.2,96.2
				z"/>
			<path class="st7" d="M98.9,86h4.7c1.1,0,2.1,0.2,3,0.6c0.9,0.4,1.5,1,2,1.8c0.5,0.8,0.7,1.7,0.7,2.7c0,1-0.2,2-0.7,2.7
				c-0.5,0.8-1.2,1.4-2,1.8c-0.9,0.4-1.9,0.6-3,0.6h-4.7V86z M103.5,94.4c1,0,1.9-0.3,2.5-0.9s0.9-1.4,0.9-2.4c0-1-0.3-1.8-0.9-2.4
				c-0.6-0.6-1.4-0.9-2.5-0.9h-2.2v6.4H103.5z"/>
			<path class="st7" d="M111.5,86h2.4v8.4h5.2v2h-7.6V86z"/>
		</g>
		<circle class="st7" cx="65.8" cy="93.9" r="2.7"/>
	</g>
</g>
</svg>
