<svg width="52" height="52" viewBox="0 0 52 52" fill="none" xmlns="http://www.w3.org/2000/svg">
<g filter="url(#filter0_d)">
<circle cx="26" cy="22" r="22" fill="#466ED3"/>
</g>
<path d="M25.5001 24.3818C26.8656 24.3818 27.9725 23.2749 27.9725 21.9094C27.9725 20.5438 26.8656 19.4369 25.5001 19.4369C24.1345 19.4369 23.0276 20.5438 23.0276 21.9094C23.0276 23.2749 24.1345 24.3818 25.5001 24.3818Z" fill="white"/>
<path d="M29.6317 15.2556C32.2419 17.2044 32.857 19.7164 32.9781 21.5231C33.0991 23.3297 31.9902 26.0491 29.6317 28.6309C29.0081 28.6309 28.506 28.1 28.506 27.4405C28.506 27.4405 31.4135 25.3969 31.1846 21.4125C30.9556 17.4282 28.506 16.4461 28.506 16.4461C28.506 16.4461 28.2755 14.8435 29.6317 15.2556Z" fill="white"/>
<path d="M34.0967 12.0677C37.4329 15.2809 38.9759 18.4006 38.9998 21.6318C39.0237 24.863 36.7966 28.9386 34.9997 31.8127C34.3761 31.8127 33.6493 31.9754 33.874 30.6222C33.874 30.6222 37.4195 25.9062 37.2063 21.5213C36.993 17.1363 32.971 13.2582 32.971 13.2582C32.971 13.2582 32.7405 11.6557 34.0967 12.0677Z" fill="white"/>
<path d="M21.3683 15.2556C18.7582 17.2044 18.143 19.7164 18.022 21.5231C17.9009 23.3297 19.0099 26.0491 21.3683 28.6309C21.992 28.6309 22.494 28.1 22.494 27.4405C22.494 27.4405 19.5866 25.3969 19.8155 21.4125C20.0444 17.4282 22.494 16.4461 22.494 16.4461C22.494 16.4461 22.7245 14.8435 21.3683 15.2556Z" fill="white"/>
<path d="M16.9033 12.0677C13.567 15.2809 12.0241 18.4006 12.0002 21.6318C11.9763 24.863 14.2033 28.9386 16.0003 31.8127C16.6239 31.8127 17.3507 31.9754 17.126 30.6222C17.126 30.6222 13.5805 25.9062 13.7937 21.5213C14.0069 17.1363 18.029 13.2582 18.029 13.2582C18.029 13.2582 18.2595 11.6557 16.9033 12.0677Z" fill="white"/>
<defs>
<filter id="filter0_d" x="0" y="0" width="52" height="52" filterUnits="userSpaceOnUse" color-interpolation-filters="sRGB">
<feFlood flood-opacity="0" result="BackgroundImageFix"/>
<feColorMatrix in="SourceAlpha" type="matrix" values="0 0 0 0 0 0 0 0 0 0 0 0 0 0 0 0 0 0 127 0"/>
<feOffset dy="4"/>
<feGaussianBlur stdDeviation="2"/>
<feColorMatrix type="matrix" values="0 0 0 0 0 0 0 0 0 0 0 0 0 0 0 0 0 0 0.25 0"/>
<feBlend mode="normal" in2="BackgroundImageFix" result="effect1_dropShadow"/>
<feBlend mode="normal" in="SourceGraphic" in2="effect1_dropShadow" result="shape"/>
</filter>
</defs>
</svg>
