<?xml version="1.0" encoding="utf-8"?>
<!-- Generator: Adobe Illustrator 16.0.0, SVG Export Plug-In . SVG Version: 6.00 Build 0)  -->
<!DOCTYPE svg PUBLIC "-//W3C//DTD SVG 1.1//EN" "http://www.w3.org/Graphics/SVG/1.1/DTD/svg11.dtd">
<svg version="1.1" id="Layer_1" xmlns="http://www.w3.org/2000/svg" xmlns:xlink="http://www.w3.org/1999/xlink" x="0px" y="0px"
	 width="128px" height="128px" viewBox="193.955 0 128 128" enable-background="new 193.955 0 128 128" xml:space="preserve">
<path d="M309.571,30.594l-48.455-27.89c-0.802-0.501-1.905-0.702-3.109-0.702s-2.308,0.3-3.11,0.702l-48.154,27.99
	c-1.706,1.003-2.909,3.511-2.909,5.417v55.878c0,1.104,0.201,2.408,1.003,3.511l107.142-62.199
	C311.377,32.098,310.474,31.195,309.571,30.594L309.571,30.594z"/>
<path d="M204.535,95.401c0.501,0.802,1.203,1.504,1.905,1.905l48.355,27.99c0.803,0.501,1.906,0.703,3.11,0.703
	c1.204,0,2.308-0.3,3.11-0.703l48.154-27.99c1.704-1.002,2.908-3.511,2.908-5.417V36.01c0-0.903-0.101-1.906-0.601-2.81
	L204.535,95.401L204.535,95.401z"/>
<path fill="#FFFFFF" d="M279.374,76.138c-4.213,7.424-12.239,12.44-21.368,12.44c-13.544,0-24.579-11.036-24.579-24.579
	c0-13.543,11.035-24.579,24.579-24.579c9.129,0,17.155,5.017,21.368,12.54l13.042-7.523c-6.822-11.938-19.663-20.064-34.41-20.064
	c-21.87,0-39.627,17.757-39.627,39.626c0,21.87,17.757,39.627,39.627,39.627c14.647,0,27.487-8.026,34.31-19.863L279.374,76.138
	L279.374,76.138z"/>
</svg>
