<?xml version="1.0" encoding="UTF-8" standalone="no"?>
<!-- Created with Inkscape (http://www.inkscape.org/) -->

<svg
   xmlns:dc="http://purl.org/dc/elements/1.1/"
   xmlns:cc="http://creativecommons.org/ns#"
   xmlns:rdf="http://www.w3.org/1999/02/22-rdf-syntax-ns#"
   xmlns:svg="http://www.w3.org/2000/svg"
   xmlns="http://www.w3.org/2000/svg"
   xmlns:sodipodi="http://sodipodi.sourceforge.net/DTD/sodipodi-0.dtd"
   xmlns:inkscape="http://www.inkscape.org/namespaces/inkscape"
   width="259.29166mm"
   height="244.39561mm"
   viewBox="0 0 259.29166 244.39561"
   version="1.1"
   id="svg8"
   inkscape:version="0.92.2 5c3e80d, 2017-08-06"
   sodipodi:docname="defaut.svg">
  <defs
     id="defs2" />
  <sodipodi:namedview
     id="base"
     pagecolor="#ffffff"
     bordercolor="#666666"
     borderopacity="1.0"
     inkscape:pageopacity="0.0"
     inkscape:pageshadow="2"
     inkscape:zoom="0.35355339"
     inkscape:cx="-330.69712"
     inkscape:cy="666.9132"
     inkscape:document-units="mm"
     inkscape:current-layer="layer1"
     showgrid="false"
     fit-margin-top="0"
     fit-margin-left="0"
     fit-margin-right="0"
     fit-margin-bottom="0"
     inkscape:window-width="1680"
     inkscape:window-height="957"
     inkscape:window-x="0"
     inkscape:window-y="1"
     inkscape:window-maximized="1" />
  <metadata
     id="metadata5">
    <rdf:RDF>
      <cc:Work
         rdf:about="">
        <dc:format>image/svg+xml</dc:format>
        <dc:type
           rdf:resource="http://purl.org/dc/dcmitype/StillImage" />
        <dc:title></dc:title>
      </cc:Work>
    </rdf:RDF>
  </metadata>
  <g
     inkscape:label="Layer 1"
     inkscape:groupmode="layer"
     id="layer1"
     transform="translate(19.356197,-9.3207767)">
    <g
       id="g894"
       transform="matrix(0.26458333,0,0,0.26458333,-22.00203,-0.75984815)"
       style="fill:#969696;fill-opacity:1">
      <path
         id="path888"
         d="M 747.5,387.6 V 182.4 L 500,38.1 252.5,182.4 V 389.6 L 10,529.3 V 817.6 L 257.5,961.8 500,820.5 742.5,961.8 990,817.6 V 529.4 Z M 279.1,197.6 500,68.9 720.9,197.7 V 455.4 L 500,584.1 279.1,455.4 Z M 257.5,931.1 36.6,802.4 V 544.7 L 252.5,420.2 v 50.4 L 478.4,602.3 V 802.4 Z M 963.4,802.4 742.5,931.1 521.6,802.4 V 602.3 L 747.5,470.6 v -52.2 l 215.9,126.2 z"
         inkscape:connector-curvature="0"
         style="fill:#969696;fill-opacity:1" />
      <path
         id="path890"
         d="m 64.2,584.5 186.3,125 15.3,200 12.2,-200 128.7,-110 -140.9,86.3 z"
         inkscape:connector-curvature="0"
         style="fill:#969696;fill-opacity:1" />
      <path
         id="path892"
         d="m 600.5,599.5 128.8,110 12.1,200 15.3,-200 186.3,-125 -201.6,101.3 z"
         inkscape:connector-curvature="0"
         style="fill:#969696;fill-opacity:1" />
    </g>
    <g
       id="g963"
       transform="matrix(0.05149113,0,0,0.05149113,65.308165,46.224656)"
       style="fill:#919191;fill-opacity:1">
      <path
         id="path961"
         d="m 500,316.3 c -101.5,0 -183.7,82.3 -183.7,183.7 0,101.5 82.3,183.7 183.7,183.7 101.5,0 183.7,-82.3 183.7,-183.7 C 683.8,398.5 601.5,316.3 500,316.3 Z m 0,306.2 c -67.7,0 -122.5,-54.8 -122.5,-122.5 0,-67.7 54.8,-122.5 122.5,-122.5 67.7,0 122.5,54.8 122.5,122.5 0,67.7 -54.8,122.5 -122.5,122.5 z M 941.2,369.3 c -17.8,-3.7 -36.9,-7.2 -57.1,-10.5 -3.8,-10.4 -8,-20.5 -12.6,-30.5 12.2,-16.9 23.2,-33 33,-48.1 15.7,-24.3 12.4,-56.2 -8.1,-76.7 l -100,-100 C 784.6,91.7 768.9,85.6 753.1,85.6 c -11.5,0 -23.1,3.2 -33.3,9.9 -15.1,9.8 -31.2,20.9 -48.1,33 -10,-4.6 -20.1,-8.8 -30.4,-12.6 C 638,95.4 634.4,76.2 630.6,58.5 624.6,30.2 599.6,10 570.7,10 H 429.3 c -28.9,0 -53.9,20.2 -59.9,48.5 -3.8,17.7 -7.3,36.9 -10.7,57.4 -10.3,3.8 -20.5,8 -30.4,12.6 -16.9,-12.2 -33,-23.2 -48.1,-33 -10.2,-6.6 -21.8,-9.9 -33.3,-9.9 -15.8,0 -31.5,6.1 -43.3,17.9 l -100,100 c -20.4,20.4 -23.8,52.4 -8.1,76.7 9.8,15.1 20.9,31.2 33,48.1 -4.6,10 -8.8,20.1 -12.6,30.4 -20.5,3.3 -39.7,6.9 -57.4,10.7 -28.3,6 -48.5,31 -48.5,59.9 v 141.5 c 0,28.9 20.2,53.9 48.5,59.9 17.6,3.8 36.8,7.3 57.4,10.7 3.8,10.3 8,20.5 12.6,30.4 -12.2,16.9 -23.2,33 -33,48.1 -15.7,24.2 -12.4,56.2 8.1,76.7 l 100,100 c 11.8,11.8 27.5,17.9 43.3,17.9 11.5,0 23.1,-3.2 33.3,-9.9 15.1,-9.8 31.2,-20.9 48.1,-33 10,4.6 20.1,8.8 30.4,12.6 3.3,20.5 6.9,39.7 10.7,57.4 6,28.3 31,48.5 59.9,48.5 h 141.5 c 28.9,0 53.9,-20.2 59.9,-48.5 3.8,-17.7 7.3,-36.9 10.7,-57.4 10.4,-3.8 20.5,-8 30.5,-12.6 16.6,12 32.6,23 47.7,32.9 10.3,6.7 22,10 33.6,10 15.8,0 31.5,-6.1 43.3,-17.9 l 100,-100 c 20.5,-20.5 23.8,-52.6 7.9,-76.9 -10,-15.2 -21,-31.2 -32.9,-47.7 4.6,-10 8.9,-20.3 12.7,-30.7 20.2,-3.3 39.3,-6.8 57.1,-10.5 28.4,-5.9 48.8,-30.9 48.8,-60 V 429.3 c -0.1,-29 -20.5,-54.1 -48.9,-60 z m -12.4,201.4 c -27.7,5.8 -58.5,11 -91.6,15.5 -8.3,32.5 -21.1,63 -37.7,91.1 20.2,26.7 38.3,52.1 53.8,75.7 l -100,100 c -23.7,-15.5 -49.1,-33.6 -75.7,-53.8 -28.1,16.7 -58.6,29.4 -91,37.7 -4.6,33.4 -9.8,64.3 -15.7,91.6 H 429.3 c -5.8,-27.4 -11.1,-58.2 -15.7,-91.6 -32.4,-8.3 -62.9,-21 -90.9,-37.6 -26.9,20.4 -52.4,38.5 -75.9,53.7 l -100,-100 c 15.2,-23.5 33.3,-49 53.7,-75.9 -16.6,-28 -29.4,-58.5 -37.6,-90.9 -33.4,-4.6 -64.3,-9.8 -91.6,-15.7 V 429.3 c 27.4,-5.8 58.2,-11.1 91.6,-15.7 8.3,-32.4 21,-62.9 37.6,-90.9 -20.4,-26.9 -38.5,-52.4 -53.7,-75.9 l 100,-100 c 23.5,15.2 49,33.3 75.9,53.7 28,-16.6 58.5,-29.4 90.9,-37.6 4.6,-33.4 9.8,-64.3 15.7,-91.6 h 141.5 c 5.8,27.4 11.1,58.2 15.7,91.6 32.4,8.3 62.9,21 90.9,37.6 26.9,-20.4 52.4,-38.5 75.9,-53.7 l 100,100 c -15.2,23.5 -33.3,49 -53.7,75.9 16.6,28.1 29.4,58.6 37.7,91 33.1,4.6 63.9,9.8 91.6,15.5 v 141.5 z"
         inkscape:connector-curvature="0"
         style="fill:#919191;fill-opacity:1" />
    </g>
    <g
       transform="matrix(0.05149113,0,0,0.05149113,108.0251,69.130838)"
       id="g975"
       style="fill:#919191;fill-opacity:1">
      <path
         inkscape:connector-curvature="0"
         d="m 500,316.3 c -101.5,0 -183.7,82.3 -183.7,183.7 0,101.5 82.3,183.7 183.7,183.7 101.5,0 183.7,-82.3 183.7,-183.7 C 683.8,398.5 601.5,316.3 500,316.3 Z m 0,306.2 c -67.7,0 -122.5,-54.8 -122.5,-122.5 0,-67.7 54.8,-122.5 122.5,-122.5 67.7,0 122.5,54.8 122.5,122.5 0,67.7 -54.8,122.5 -122.5,122.5 z M 941.2,369.3 c -17.8,-3.7 -36.9,-7.2 -57.1,-10.5 -3.8,-10.4 -8,-20.5 -12.6,-30.5 12.2,-16.9 23.2,-33 33,-48.1 15.7,-24.3 12.4,-56.2 -8.1,-76.7 l -100,-100 C 784.6,91.7 768.9,85.6 753.1,85.6 c -11.5,0 -23.1,3.2 -33.3,9.9 -15.1,9.8 -31.2,20.9 -48.1,33 -10,-4.6 -20.1,-8.8 -30.4,-12.6 C 638,95.4 634.4,76.2 630.6,58.5 624.6,30.2 599.6,10 570.7,10 H 429.3 c -28.9,0 -53.9,20.2 -59.9,48.5 -3.8,17.7 -7.3,36.9 -10.7,57.4 -10.3,3.8 -20.5,8 -30.4,12.6 -16.9,-12.2 -33,-23.2 -48.1,-33 -10.2,-6.6 -21.8,-9.9 -33.3,-9.9 -15.8,0 -31.5,6.1 -43.3,17.9 l -100,100 c -20.4,20.4 -23.8,52.4 -8.1,76.7 9.8,15.1 20.9,31.2 33,48.1 -4.6,10 -8.8,20.1 -12.6,30.4 -20.5,3.3 -39.7,6.9 -57.4,10.7 -28.3,6 -48.5,31 -48.5,59.9 v 141.5 c 0,28.9 20.2,53.9 48.5,59.9 17.6,3.8 36.8,7.3 57.4,10.7 3.8,10.3 8,20.5 12.6,30.4 -12.2,16.9 -23.2,33 -33,48.1 -15.7,24.2 -12.4,56.2 8.1,76.7 l 100,100 c 11.8,11.8 27.5,17.9 43.3,17.9 11.5,0 23.1,-3.2 33.3,-9.9 15.1,-9.8 31.2,-20.9 48.1,-33 10,4.6 20.1,8.8 30.4,12.6 3.3,20.5 6.9,39.7 10.7,57.4 6,28.3 31,48.5 59.9,48.5 h 141.5 c 28.9,0 53.9,-20.2 59.9,-48.5 3.8,-17.7 7.3,-36.9 10.7,-57.4 10.4,-3.8 20.5,-8 30.5,-12.6 16.6,12 32.6,23 47.7,32.9 10.3,6.7 22,10 33.6,10 15.8,0 31.5,-6.1 43.3,-17.9 l 100,-100 c 20.5,-20.5 23.8,-52.6 7.9,-76.9 -10,-15.2 -21,-31.2 -32.9,-47.7 4.6,-10 8.9,-20.3 12.7,-30.7 20.2,-3.3 39.3,-6.8 57.1,-10.5 28.4,-5.9 48.8,-30.9 48.8,-60 V 429.3 c -0.1,-29 -20.5,-54.1 -48.9,-60 z m -12.4,201.4 c -27.7,5.8 -58.5,11 -91.6,15.5 -8.3,32.5 -21.1,63 -37.7,91.1 20.2,26.7 38.3,52.1 53.8,75.7 l -100,100 c -23.7,-15.5 -49.1,-33.6 -75.7,-53.8 -28.1,16.7 -58.6,29.4 -91,37.7 -4.6,33.4 -9.8,64.3 -15.7,91.6 H 429.3 c -5.8,-27.4 -11.1,-58.2 -15.7,-91.6 -32.4,-8.3 -62.9,-21 -90.9,-37.6 -26.9,20.4 -52.4,38.5 -75.9,53.7 l -100,-100 c 15.2,-23.5 33.3,-49 53.7,-75.9 -16.6,-28 -29.4,-58.5 -37.6,-90.9 -33.4,-4.6 -64.3,-9.8 -91.6,-15.7 V 429.3 c 27.4,-5.8 58.2,-11.1 91.6,-15.7 8.3,-32.4 21,-62.9 37.6,-90.9 -20.4,-26.9 -38.5,-52.4 -53.7,-75.9 l 100,-100 c 23.5,15.2 49,33.3 75.9,53.7 28,-16.6 58.5,-29.4 90.9,-37.6 4.6,-33.4 9.8,-64.3 15.7,-91.6 h 141.5 c 5.8,27.4 11.1,58.2 15.7,91.6 32.4,8.3 62.9,21 90.9,37.6 26.9,-20.4 52.4,-38.5 75.9,-53.7 l 100,100 c -15.2,23.5 -33.3,49 -53.7,75.9 16.6,28.1 29.4,58.6 37.7,91 33.1,4.6 63.9,9.8 91.6,15.5 v 141.5 z"
         id="path973"
         style="fill:#919191;fill-opacity:1" />
    </g>
  </g>
</svg>
