<svg id="svg" version="1.1" xmlns="http://www.w3.org/2000/svg" xmlns:xlink="http://www.w3.org/1999/xlink" width="400" height="400" viewBox="0, 0, 400,400"><g id="svgg"><path id="path0" d="M297.800 182.628 C 296.480 182.916,293.780 183.272,291.800 183.419 C 289.785 183.568,287.792 183.943,287.274 184.269 C 286.764 184.590,285.235 185.032,283.876 185.251 C 282.499 185.473,281.262 185.904,281.082 186.224 C 280.905 186.541,280.328 186.800,279.799 186.800 C 278.698 186.800,276.800 187.580,276.800 188.032 C 276.800 188.200,276.215 188.464,275.500 188.620 C 274.785 188.776,273.691 189.330,273.069 189.852 C 272.447 190.373,271.677 190.800,271.357 190.800 C 271.037 190.800,270.674 191.063,270.550 191.385 C 270.427 191.706,270.004 192.072,269.611 192.197 C 269.217 192.322,268.527 192.733,268.076 193.112 C 267.626 193.490,266.593 194.340,265.780 195.000 C 263.941 196.492,262.105 198.338,260.800 200.008 C 259.742 201.362,259.058 202.219,257.414 204.258 C 256.856 204.950,256.400 205.734,256.400 206.000 C 256.400 206.266,255.950 207.019,255.400 207.673 C 254.850 208.327,254.400 209.238,254.400 209.699 C 254.400 210.160,254.108 210.860,253.751 211.254 C 253.394 211.648,252.945 212.813,252.752 213.843 C 252.560 214.872,252.177 215.986,251.901 216.318 C 251.626 216.650,251.184 218.631,250.920 220.721 C 250.655 222.811,250.250 224.710,250.020 224.940 C 249.339 225.621,249.471 237.661,250.175 239.017 C 250.491 239.626,250.874 241.714,251.026 243.656 C 251.193 245.791,251.511 247.361,251.831 247.626 C 252.123 247.868,252.476 248.906,252.616 249.933 C 252.757 250.960,253.216 252.288,253.636 252.884 C 254.056 253.480,254.400 254.300,254.400 254.706 C 254.400 255.112,254.850 256.055,255.400 256.800 C 255.950 257.545,256.400 258.362,256.400 258.615 C 256.400 258.869,256.850 259.599,257.400 260.238 C 257.949 260.877,258.399 261.631,258.400 261.913 C 258.400 262.194,258.670 262.529,259.000 262.655 C 259.330 262.782,259.600 263.102,259.600 263.367 C 259.600 263.631,261.445 265.679,263.700 267.917 C 268.958 273.136,269.263 273.411,270.100 273.718 C 270.485 273.859,270.800 274.161,270.800 274.387 C 270.800 274.614,271.064 274.800,271.386 274.800 C 271.708 274.800,272.587 275.340,273.339 276.000 C 274.091 276.660,274.879 277.200,275.092 277.200 C 275.304 277.200,275.893 277.560,276.400 278.000 C 276.907 278.440,277.537 278.800,277.799 278.800 C 278.061 278.800,278.593 279.150,278.979 279.577 C 279.366 280.005,280.186 280.465,280.800 280.600 C 281.414 280.735,282.234 281.195,282.621 281.623 C 283.007 282.050,283.739 282.400,284.246 282.400 C 284.754 282.400,285.491 282.745,285.884 283.168 C 286.278 283.590,287.140 284.067,287.800 284.229 C 288.460 284.390,289.429 284.855,289.954 285.261 C 290.479 285.667,291.309 286.000,291.800 286.000 C 292.291 286.000,293.150 286.360,293.709 286.800 C 294.269 287.240,294.986 287.600,295.304 287.600 C 295.621 287.600,296.727 288.050,297.762 288.600 C 298.796 289.150,300.055 289.600,300.559 289.600 C 301.063 289.600,301.782 289.938,302.156 290.352 C 302.531 290.765,303.555 291.219,304.434 291.359 C 305.312 291.499,306.126 291.863,306.243 292.168 C 306.360 292.472,307.108 292.844,307.906 292.994 C 308.704 293.143,309.796 293.611,310.333 294.033 C 310.869 294.455,311.609 294.800,311.976 294.800 C 312.344 294.800,313.255 295.250,314.000 295.800 C 314.745 296.350,315.658 296.800,316.029 296.800 C 316.399 296.800,316.918 297.061,317.183 297.380 C 317.448 297.698,318.280 298.162,319.032 298.411 C 319.784 298.659,320.400 299.026,320.400 299.226 C 320.400 299.426,320.987 299.835,321.705 300.135 C 323.651 300.948,329.049 306.543,329.353 308.063 C 329.490 308.751,329.917 309.544,330.301 309.825 C 331.506 310.706,331.336 322.041,330.100 323.193 C 329.605 323.654,329.200 324.314,329.200 324.660 C 329.200 325.677,326.154 329.020,323.807 330.578 C 322.613 331.371,321.527 332.195,321.394 332.410 C 321.261 332.624,320.738 332.800,320.230 332.800 C 319.723 332.800,318.879 333.134,318.354 333.542 C 317.801 333.973,316.362 334.400,314.928 334.559 C 313.568 334.710,311.858 335.135,311.128 335.504 C 309.095 336.531,301.863 336.395,298.258 335.262 C 296.750 334.788,294.657 334.400,293.607 334.400 C 292.402 334.400,291.515 334.180,291.202 333.803 C 290.930 333.474,289.969 333.007,289.067 332.764 C 288.166 332.522,286.993 331.980,286.460 331.561 C 285.928 331.143,285.344 330.800,285.164 330.800 C 283.783 330.800,273.600 321.974,273.600 320.778 C 273.600 320.592,273.343 320.296,273.029 320.120 C 272.379 319.756,270.000 316.579,270.000 316.076 C 270.000 315.683,267.835 313.200,267.493 313.200 C 267.363 313.200,266.955 313.502,266.585 313.872 C 265.871 314.586,264.287 315.536,262.000 316.622 C 261.230 316.987,260.456 317.537,260.280 317.843 C 260.104 318.149,259.637 318.400,259.242 318.400 C 258.847 318.400,258.001 318.850,257.362 319.400 C 256.723 319.949,255.879 320.399,255.487 320.400 C 255.096 320.400,254.677 320.656,254.557 320.969 C 254.437 321.282,253.677 321.823,252.869 322.171 C 251.266 322.862,250.461 323.330,248.527 324.699 C 247.826 325.195,246.999 325.600,246.689 325.600 C 246.378 325.600,245.601 326.050,244.962 326.600 C 244.323 327.149,243.513 327.599,243.162 327.600 C 242.811 327.600,242.207 327.950,241.821 328.377 C 241.434 328.805,240.581 329.272,239.925 329.416 C 238.644 329.698,238.581 331.016,239.784 332.400 C 240.071 332.730,240.429 333.405,240.580 333.900 C 240.730 334.395,241.000 334.800,241.178 334.800 C 241.357 334.800,241.734 335.357,242.016 336.038 C 242.298 336.719,242.859 337.664,243.264 338.138 C 245.451 340.703,245.999 341.438,246.000 341.804 C 246.000 342.026,246.360 342.432,246.800 342.707 C 247.240 342.982,247.600 343.463,247.600 343.776 C 247.600 344.090,247.960 344.460,248.400 344.600 C 248.840 344.740,249.200 345.042,249.200 345.272 C 249.200 345.501,250.226 346.614,251.481 347.745 C 252.735 348.875,254.151 350.205,254.627 350.700 C 255.102 351.195,255.625 351.600,255.788 351.600 C 255.951 351.600,256.572 352.005,257.168 352.500 C 259.271 354.247,263.629 357.182,264.137 357.193 C 264.322 357.197,264.931 357.560,265.491 358.000 C 266.050 358.440,266.816 358.800,267.192 358.800 C 267.568 358.800,268.186 359.142,268.564 359.560 C 268.943 359.979,269.906 360.443,270.705 360.593 C 271.504 360.743,272.596 361.211,273.133 361.633 C 273.669 362.055,274.701 362.400,275.425 362.400 C 276.150 362.400,277.025 362.682,277.371 363.028 C 278.121 363.778,280.132 364.400,281.808 364.400 C 282.476 364.400,283.432 364.687,283.932 365.038 C 284.504 365.438,286.319 365.803,288.817 366.020 C 291.004 366.210,293.610 366.643,294.610 366.983 C 297.244 367.877,314.356 367.877,316.990 366.983 C 317.990 366.643,320.620 366.208,322.836 366.016 C 325.546 365.780,327.093 365.459,327.564 365.033 C 327.948 364.685,328.879 364.398,329.631 364.396 C 330.384 364.394,331.900 363.950,333.000 363.409 C 334.100 362.868,335.467 362.419,336.038 362.413 C 336.609 362.406,337.402 362.040,337.800 361.600 C 338.198 361.160,338.932 360.800,339.431 360.800 C 339.930 360.800,340.873 360.350,341.527 359.800 C 342.181 359.250,343.034 358.800,343.424 358.800 C 343.814 358.800,344.418 358.525,344.766 358.189 C 345.648 357.338,348.032 355.696,349.045 355.241 C 349.510 355.032,350.000 354.577,350.133 354.231 C 350.266 353.884,350.548 353.600,350.760 353.600 C 351.292 353.600,357.200 347.779,357.200 347.254 C 357.200 347.020,357.560 346.635,358.000 346.400 C 358.440 346.165,358.800 345.708,358.800 345.386 C 358.800 345.064,359.142 344.458,359.561 344.039 C 359.979 343.621,360.434 342.923,360.572 342.487 C 360.711 342.051,361.178 341.286,361.612 340.786 C 362.045 340.287,362.406 339.590,362.412 339.239 C 362.419 338.887,362.868 337.880,363.410 337.000 C 363.952 336.120,364.397 334.824,364.398 334.120 C 364.399 333.392,364.662 332.693,365.008 332.499 C 365.420 332.269,365.738 331.099,365.990 328.887 C 366.195 327.087,366.642 324.795,366.982 323.793 C 367.437 322.451,367.600 320.296,367.600 315.600 C 367.600 310.904,367.437 308.749,366.982 307.407 C 366.642 306.405,366.197 304.123,365.993 302.336 C 365.789 300.550,365.371 298.798,365.064 298.444 C 364.757 298.090,364.386 297.011,364.240 296.046 C 364.093 295.082,363.619 293.842,363.187 293.292 C 362.754 292.742,362.400 291.937,362.400 291.504 C 362.400 291.070,361.950 290.181,361.400 289.527 C 360.850 288.873,360.400 288.082,360.400 287.769 C 360.400 287.456,360.085 286.851,359.700 286.425 C 359.315 285.999,358.691 285.234,358.314 284.725 C 355.319 280.686,353.772 279.116,348.800 275.072 C 346.710 273.372,344.715 271.716,344.366 271.391 C 344.018 271.066,343.547 270.800,343.320 270.800 C 343.094 270.800,342.401 270.401,341.781 269.913 C 340.574 268.964,338.990 268.024,336.900 267.016 C 336.185 266.671,335.600 266.240,335.600 266.058 C 335.600 265.876,334.901 265.517,334.047 265.261 C 333.194 265.006,332.272 264.527,331.998 264.198 C 331.725 263.869,331.188 263.600,330.805 263.600 C 330.422 263.600,329.664 263.251,329.122 262.825 C 328.580 262.398,327.611 261.921,326.968 261.764 C 326.326 261.607,325.387 261.158,324.881 260.767 C 324.376 260.375,323.386 259.933,322.681 259.783 C 321.977 259.633,321.130 259.279,320.800 258.995 C 320.470 258.712,319.527 258.297,318.705 258.073 C 317.883 257.850,316.925 257.382,316.577 257.034 C 316.228 256.685,315.444 256.400,314.833 256.400 C 314.223 256.400,313.414 256.058,313.036 255.640 C 312.657 255.221,311.694 254.757,310.895 254.607 C 310.096 254.457,309.004 253.989,308.467 253.567 C 307.931 253.145,307.101 252.800,306.624 252.800 C 306.146 252.800,305.145 252.350,304.400 251.800 C 303.655 251.250,302.624 250.800,302.110 250.800 C 301.596 250.800,301.076 250.541,300.954 250.224 C 300.833 249.908,300.230 249.538,299.616 249.403 C 299.001 249.269,297.901 248.718,297.172 248.179 C 296.442 247.641,295.610 247.200,295.322 247.200 C 295.035 247.200,294.800 247.025,294.800 246.810 C 294.800 246.596,294.262 246.142,293.604 245.802 C 291.940 244.942,287.600 240.508,287.600 239.669 C 287.600 239.289,287.258 238.685,286.839 238.326 C 286.251 237.823,286.012 236.877,285.786 234.169 C 285.306 228.409,285.775 224.850,287.383 222.043 C 288.083 220.819,291.857 216.800,292.305 216.800 C 292.492 216.800,293.255 216.350,294.000 215.800 C 294.755 215.243,295.901 214.800,296.589 214.800 C 297.267 214.800,298.267 214.485,298.811 214.100 C 300.063 213.214,308.277 213.068,309.296 213.914 C 309.637 214.196,310.826 214.536,311.940 214.667 C 313.079 214.802,314.315 215.234,314.765 215.654 C 315.206 216.064,315.827 216.400,316.146 216.400 C 317.119 216.400,321.683 220.396,323.800 223.103 C 324.900 224.509,326.089 225.980,326.442 226.372 C 326.795 226.764,327.208 227.578,327.360 228.181 C 327.677 229.447,329.220 229.357,330.486 227.999 C 330.864 227.594,331.539 227.146,331.986 227.004 C 332.434 226.862,332.800 226.590,332.800 226.399 C 332.800 226.208,333.430 225.824,334.200 225.546 C 334.970 225.267,335.600 224.904,335.600 224.738 C 335.600 224.573,336.230 224.139,337.000 223.773 C 337.770 223.408,338.400 222.963,338.400 222.785 C 338.400 222.608,339.030 222.254,339.800 222.000 C 340.570 221.746,341.200 221.380,341.200 221.188 C 341.200 220.995,341.830 220.539,342.600 220.173 C 343.370 219.808,344.000 219.361,344.000 219.181 C 344.000 219.001,344.405 218.727,344.900 218.572 C 345.395 218.417,346.309 217.865,346.931 217.345 C 347.553 216.825,348.278 216.400,348.542 216.400 C 348.806 216.400,349.330 216.040,349.707 215.600 C 350.084 215.160,350.642 214.800,350.947 214.800 C 351.252 214.800,351.749 214.502,352.051 214.138 C 352.353 213.774,353.182 213.233,353.893 212.936 C 356.177 211.981,356.032 210.190,353.398 206.800 C 352.629 205.810,351.880 204.730,351.733 204.400 C 350.735 202.160,341.053 192.400,339.828 192.400 C 339.507 192.400,339.010 192.076,338.723 191.680 C 338.435 191.284,337.628 190.727,336.929 190.443 C 336.230 190.159,335.560 189.673,335.441 189.363 C 335.322 189.054,334.776 188.800,334.228 188.800 C 333.680 188.800,332.909 188.456,332.516 188.035 C 332.122 187.615,331.080 187.139,330.200 186.977 C 329.320 186.816,328.171 186.350,327.646 185.942 C 327.117 185.531,326.045 185.200,325.240 185.200 C 324.442 185.200,323.161 184.867,322.394 184.460 C 321.493 183.981,319.669 183.621,317.234 183.440 C 315.163 183.287,312.103 182.900,310.434 182.581 C 306.800 181.885,301.105 181.906,297.800 182.628 M198.000 184.794 L 180.600 185.000 180.365 252.600 C 180.137 318.138,180.064 321.913,178.998 323.200 C 178.725 323.530,178.385 324.450,178.243 325.245 C 178.101 326.040,177.628 327.013,177.192 327.407 C 176.756 327.801,176.400 328.314,176.400 328.545 C 176.400 329.160,172.481 332.800,171.819 332.800 C 171.510 332.800,170.943 333.115,170.559 333.500 C 170.147 333.913,168.620 334.406,166.831 334.703 C 165.164 334.980,162.720 335.390,161.400 335.614 C 159.463 335.943,158.623 335.898,157.049 335.386 C 155.975 335.036,154.219 334.646,153.145 334.519 C 152.071 334.392,150.807 333.953,150.335 333.544 C 149.864 333.135,149.264 332.800,149.002 332.800 C 148.197 332.800,142.799 327.851,141.096 325.550 C 140.710 325.028,139.945 324.034,139.396 323.342 C 138.848 322.650,138.400 321.866,138.400 321.600 C 138.400 321.334,137.950 320.581,137.400 319.927 C 136.850 319.273,136.400 318.479,136.400 318.161 C 136.400 316.861,134.531 316.619,133.191 317.746 C 132.502 318.326,131.710 318.800,131.431 318.800 C 131.152 318.800,130.598 319.160,130.200 319.600 C 129.802 320.040,129.247 320.400,128.967 320.400 C 128.686 320.400,128.181 320.677,127.843 321.015 C 127.505 321.353,126.592 321.895,125.814 322.220 C 125.036 322.545,124.400 322.961,124.400 323.145 C 124.400 323.328,123.725 323.770,122.900 324.126 C 121.203 324.858,120.303 325.406,118.672 326.700 C 118.049 327.195,117.187 327.600,116.757 327.600 C 116.327 327.600,115.873 327.865,115.749 328.188 C 115.625 328.511,114.911 328.997,114.162 329.268 C 113.413 329.539,112.800 329.902,112.800 330.075 C 112.800 330.248,112.215 330.634,111.500 330.933 C 110.785 331.232,109.953 331.774,109.651 332.138 C 109.349 332.502,108.770 332.800,108.364 332.800 C 106.449 332.800,106.255 336.229,108.055 338.226 C 108.465 338.680,108.800 339.201,108.800 339.384 C 108.800 339.567,109.475 340.700,110.300 341.900 C 111.125 343.101,112.003 344.437,112.251 344.869 C 113.152 346.441,119.741 353.600,120.287 353.600 C 120.409 353.600,120.930 354.005,121.444 354.500 C 123.106 356.097,123.992 356.800,124.346 356.800 C 124.536 356.800,125.199 357.199,125.819 357.687 C 127.058 358.661,128.653 359.602,130.800 360.624 C 131.570 360.990,132.309 361.463,132.442 361.674 C 132.575 361.886,133.448 362.231,134.381 362.440 C 135.315 362.650,136.333 363.076,136.644 363.387 C 136.955 363.698,138.062 364.073,139.105 364.220 C 140.147 364.366,141.412 364.746,141.916 365.063 C 142.420 365.380,144.330 365.810,146.160 366.018 C 147.990 366.226,150.256 366.667,151.194 366.998 C 153.667 367.871,169.154 367.863,171.634 366.988 C 172.588 366.651,174.938 366.214,176.857 366.015 C 178.776 365.817,180.763 365.393,181.273 365.074 C 181.783 364.755,182.989 364.377,183.954 364.234 C 184.918 364.091,186.158 363.619,186.708 363.187 C 187.258 362.754,188.196 362.400,188.792 362.400 C 189.388 362.400,190.202 362.040,190.600 361.600 C 190.998 361.160,191.631 360.800,192.007 360.800 C 192.383 360.800,193.369 360.260,194.200 359.600 C 195.031 358.940,195.865 358.400,196.055 358.400 C 196.245 358.400,196.740 358.085,197.155 357.700 C 197.570 357.315,198.772 356.280,199.826 355.400 C 200.880 354.520,202.295 353.185,202.971 352.433 C 203.647 351.681,204.605 350.703,205.100 350.261 C 205.595 349.818,206.000 349.246,206.000 348.990 C 206.000 348.734,206.360 348.198,206.800 347.800 C 207.240 347.402,207.600 346.853,207.600 346.580 C 207.600 346.307,208.047 345.660,208.593 345.142 C 209.139 344.624,209.589 343.823,209.593 343.362 C 209.597 342.901,209.947 342.210,210.371 341.826 C 210.795 341.443,211.261 340.425,211.406 339.565 C 211.551 338.704,211.936 337.852,212.260 337.670 C 212.604 337.478,212.981 336.377,213.163 335.032 C 213.336 333.762,213.703 332.584,213.979 332.413 C 214.270 332.233,214.699 330.334,214.996 327.910 C 215.278 325.604,215.754 323.287,216.054 322.759 C 216.508 321.962,216.619 310.361,216.713 253.898 C 216.823 187.901,216.767 184.140,215.686 184.494 C 215.529 184.545,207.570 184.680,198.000 184.794 " stroke="none" fill="#333333" fill-rule="evenodd"></path><path id="path1" d="M0.000 200.800 L 0.000 400.000 198.953 400.000 L 397.907 400.000 398.148 399.100 C 398.655 397.209,398.428 2.588,397.920 2.080 C 397.548 1.708,352.747 1.600,198.720 1.600 L 0.000 1.600 0.000 200.800 M315.600 181.628 C 316.590 181.865,318.904 182.307,320.742 182.611 C 322.581 182.915,324.471 183.413,324.942 183.719 C 325.414 184.025,326.583 184.398,327.540 184.548 C 328.496 184.699,329.544 185.087,329.868 185.410 C 330.191 185.734,330.938 186.100,331.528 186.223 C 332.118 186.347,332.870 186.621,333.200 186.834 C 333.530 187.046,334.565 187.584,335.500 188.029 C 336.435 188.473,337.200 189.009,337.200 189.219 C 337.200 189.428,337.456 189.600,337.769 189.600 C 338.082 189.600,338.873 190.050,339.527 190.600 C 340.181 191.150,340.851 191.600,341.016 191.600 C 341.181 191.600,341.695 191.961,342.158 192.403 C 349.365 199.272,352.191 202.311,352.617 203.653 C 352.747 204.064,352.999 204.400,353.176 204.400 C 353.353 204.400,354.106 205.398,354.849 206.618 C 355.592 207.838,356.515 209.215,356.900 209.679 C 358.353 211.429,357.022 213.011,352.100 215.384 C 351.385 215.729,350.800 216.155,350.800 216.331 C 350.800 216.508,350.215 216.967,349.500 217.353 C 346.761 218.831,345.738 219.438,345.179 219.916 C 344.156 220.791,341.481 222.465,340.526 222.828 C 340.017 223.022,339.600 223.362,339.600 223.585 C 339.600 223.807,339.015 224.265,338.300 224.602 C 336.671 225.369,334.860 226.440,334.034 227.125 C 330.117 230.369,326.400 231.057,326.400 228.538 C 326.400 228.242,326.222 228.000,326.005 228.000 C 325.788 228.000,325.358 227.415,325.049 226.700 C 324.584 225.624,322.759 223.328,320.837 221.400 C 319.238 219.796,315.536 217.200,314.848 217.200 C 314.544 217.200,313.643 216.795,312.847 216.300 C 311.487 215.454,310.981 215.401,304.400 215.418 L 297.400 215.437 295.114 216.690 C 291.651 218.588,288.963 221.083,288.530 222.800 C 288.391 223.350,287.945 224.229,287.539 224.754 C 286.399 226.225,286.445 235.223,287.600 236.691 C 288.040 237.250,288.400 238.045,288.400 238.457 C 288.400 239.158,293.550 244.800,294.190 244.800 C 294.352 244.800,295.019 245.250,295.673 245.800 C 296.327 246.350,297.111 246.800,297.415 246.800 C 297.720 246.800,298.291 247.135,298.684 247.544 C 299.078 247.953,299.926 248.414,300.568 248.568 C 301.211 248.723,302.180 249.198,302.722 249.625 C 303.264 250.051,303.977 250.400,304.307 250.400 C 304.636 250.400,305.467 250.738,306.153 251.151 C 306.839 251.565,308.075 252.119,308.900 252.383 C 309.725 252.646,310.400 253.012,310.400 253.196 C 310.400 253.379,311.115 253.650,311.988 253.798 C 312.862 253.946,314.015 254.411,314.551 254.833 C 315.087 255.255,315.803 255.600,316.142 255.600 C 316.481 255.600,317.604 256.050,318.638 256.600 C 319.673 257.150,320.830 257.600,321.211 257.600 C 321.591 257.600,322.126 257.870,322.400 258.200 C 322.674 258.530,323.098 258.800,323.343 258.800 C 323.588 258.800,324.691 259.228,325.794 259.751 C 326.897 260.275,328.250 260.910,328.800 261.164 C 329.350 261.417,330.250 261.879,330.800 262.190 C 331.350 262.502,332.070 262.866,332.400 263.001 C 332.730 263.135,333.900 263.767,335.000 264.405 C 336.100 265.043,337.554 265.832,338.232 266.159 C 338.909 266.486,339.696 267.034,339.981 267.377 C 340.265 267.720,340.682 268.000,340.908 268.000 C 341.534 268.000,345.600 270.791,345.600 271.221 C 345.600 271.430,345.951 271.600,346.380 271.600 C 346.809 271.600,347.304 271.826,347.480 272.102 C 347.656 272.379,348.520 273.139,349.400 273.793 C 352.052 275.763,358.735 282.710,359.603 284.400 C 359.886 284.950,360.361 285.544,360.658 285.720 C 360.956 285.896,361.200 286.266,361.200 286.542 C 361.200 286.818,361.650 287.655,362.200 288.400 C 362.750 289.145,363.200 290.007,363.200 290.315 C 363.200 290.622,363.540 291.306,363.955 291.833 C 364.370 292.361,364.835 293.470,364.989 294.297 C 365.142 295.123,365.512 296.072,365.810 296.405 C 366.108 296.738,366.531 298.123,366.750 299.483 C 366.969 300.843,367.362 302.356,367.623 302.844 C 368.863 305.159,368.864 326.039,367.625 328.354 C 367.376 328.818,366.984 330.233,366.752 331.499 C 366.520 332.764,366.098 334.070,365.816 334.400 C 365.533 334.730,365.185 335.652,365.042 336.449 C 364.900 337.245,364.427 338.308,363.992 338.810 C 363.556 339.312,363.200 340.055,363.200 340.461 C 363.200 340.868,362.858 341.542,362.439 341.961 C 362.021 342.379,361.545 343.144,361.382 343.661 C 361.219 344.177,360.751 344.835,360.343 345.123 C 359.934 345.410,359.600 345.841,359.600 346.081 C 359.600 346.320,359.231 346.895,358.780 347.358 C 358.328 347.821,356.686 349.595,355.130 351.300 C 353.574 353.005,352.166 354.400,352.001 354.400 C 351.836 354.400,350.913 355.120,349.951 356.000 C 348.988 356.880,348.053 357.600,347.873 357.600 C 347.694 357.600,346.957 358.050,346.236 358.600 C 345.514 359.150,344.814 359.600,344.680 359.600 C 344.546 359.600,343.772 360.050,342.962 360.600 C 342.151 361.150,341.176 361.600,340.793 361.600 C 340.411 361.600,339.883 361.858,339.621 362.174 C 339.359 362.490,338.572 362.870,337.872 363.017 C 337.173 363.165,336.060 363.604,335.400 363.992 C 334.740 364.380,333.390 364.820,332.400 364.969 C 331.410 365.118,330.206 365.499,329.724 365.814 C 329.242 366.129,327.802 366.502,326.524 366.643 C 325.246 366.783,323.120 367.266,321.800 367.717 C 318.454 368.858,293.630 368.941,290.000 367.823 C 288.790 367.450,286.541 366.969,285.002 366.754 C 283.462 366.539,281.810 366.106,281.330 365.791 C 280.849 365.476,279.679 365.103,278.728 364.962 C 277.778 364.821,276.640 364.482,276.200 364.210 C 275.760 363.937,274.365 363.413,273.100 363.046 C 271.835 362.678,270.800 362.225,270.800 362.039 C 270.800 361.852,270.245 361.589,269.568 361.454 C 268.890 361.318,267.875 360.845,267.314 360.404 C 266.752 359.962,265.984 359.600,265.608 359.600 C 265.232 359.600,264.602 359.245,264.209 358.810 C 263.816 358.376,263.137 357.907,262.700 357.768 C 262.263 357.629,261.161 356.988,260.253 356.343 C 259.344 355.699,257.970 354.753,257.200 354.242 C 256.430 353.731,255.196 352.747,254.458 352.056 C 253.719 351.365,253.040 350.800,252.949 350.800 C 252.780 350.800,248.400 346.354,248.400 346.182 C 248.400 346.131,247.577 345.214,246.572 344.145 C 244.054 341.467,243.780 341.132,243.225 340.070 C 242.958 339.558,242.393 338.793,241.970 338.370 C 241.546 337.946,241.200 337.330,241.200 337.000 C 241.200 336.670,241.017 336.400,240.794 336.400 C 240.570 336.400,240.075 335.725,239.694 334.900 C 239.312 334.075,238.781 333.220,238.513 333.000 C 237.197 331.918,237.422 329.233,238.881 328.624 C 239.641 328.306,240.496 327.766,240.781 327.423 C 241.065 327.080,241.610 326.800,241.991 326.800 C 242.372 326.800,243.169 326.350,243.762 325.800 C 244.356 325.250,245.170 324.800,245.572 324.800 C 245.973 324.800,246.535 324.520,246.819 324.177 C 247.104 323.834,247.891 323.287,248.568 322.961 C 251.310 321.642,252.674 320.834,253.173 320.233 C 253.462 319.885,253.938 319.600,254.231 319.600 C 254.525 319.600,255.428 319.150,256.238 318.600 C 257.049 318.050,257.957 317.600,258.256 317.600 C 258.555 317.600,258.800 317.428,258.800 317.219 C 258.800 317.009,259.587 316.489,260.548 316.064 C 261.510 315.639,262.421 315.090,262.572 314.845 C 262.723 314.600,263.126 314.400,263.466 314.400 C 263.806 314.400,264.619 313.950,265.273 313.400 C 267.184 311.792,270.800 313.085,270.800 315.376 C 270.800 315.613,271.160 316.032,271.600 316.307 C 272.040 316.582,272.400 317.006,272.400 317.249 C 272.400 318.279,279.717 326.026,281.618 327.009 C 282.268 327.346,282.800 327.796,282.800 328.010 C 282.800 328.225,283.070 328.400,283.400 328.400 C 283.730 328.400,284.342 328.742,284.761 329.161 C 285.179 329.579,285.944 330.049,286.461 330.206 C 286.977 330.363,287.940 330.811,288.600 331.202 C 289.260 331.594,290.430 332.041,291.200 332.196 C 291.970 332.351,292.975 332.716,293.434 333.005 C 295.959 334.600,313.660 334.603,316.150 333.009 C 316.618 332.710,317.744 332.269,318.653 332.030 C 319.563 331.790,320.530 331.326,320.802 330.997 C 321.075 330.669,321.520 330.400,321.791 330.400 C 322.062 330.400,322.749 329.969,323.318 329.441 C 323.887 328.914,324.498 328.419,324.676 328.341 C 325.305 328.067,328.400 324.082,328.401 323.544 C 328.402 323.245,328.732 322.460,329.135 321.800 C 330.987 318.763,330.117 310.663,327.587 307.394 C 326.263 305.684,321.079 300.800,320.587 300.800 C 320.296 300.800,319.781 300.523,319.443 300.185 C 319.105 299.847,318.204 299.310,317.441 298.992 C 316.679 298.673,315.950 298.243,315.823 298.037 C 315.695 297.830,315.068 297.547,314.428 297.406 C 313.789 297.266,312.863 296.802,312.372 296.375 C 311.880 295.949,311.128 295.600,310.701 295.600 C 310.273 295.600,309.435 295.252,308.837 294.827 C 308.240 294.401,307.222 293.927,306.576 293.773 C 305.929 293.619,305.130 293.263,304.800 292.983 C 304.470 292.704,303.456 292.276,302.547 292.034 C 301.637 291.792,300.689 291.348,300.439 291.047 C 300.189 290.746,299.292 290.389,298.444 290.253 C 297.597 290.118,296.695 289.756,296.440 289.448 C 296.185 289.140,295.196 288.693,294.244 288.453 C 293.291 288.213,292.285 287.743,292.007 287.408 C 291.729 287.074,291.109 286.800,290.629 286.800 C 290.148 286.800,289.145 286.350,288.400 285.800 C 287.655 285.250,286.838 284.800,286.586 284.800 C 286.104 284.800,281.144 282.425,280.800 282.030 C 280.690 281.903,279.895 281.440,279.033 281.000 C 275.415 279.152,274.800 278.774,274.800 278.397 C 274.800 278.179,274.555 278.000,274.255 278.000 C 273.738 278.000,271.332 276.323,269.966 275.009 C 269.618 274.674,269.174 274.400,268.981 274.400 C 268.561 274.400,267.997 273.895,263.795 269.756 C 260.261 266.277,257.600 263.301,257.600 262.830 C 257.600 262.662,257.150 262.001,256.600 261.362 C 256.051 260.723,255.601 260.003,255.600 259.761 C 255.600 259.520,255.244 258.912,254.808 258.410 C 254.373 257.908,253.905 256.903,253.769 256.176 C 253.633 255.450,253.286 254.765,252.998 254.655 C 252.711 254.544,252.348 253.857,252.192 253.127 C 252.037 252.397,251.570 251.045,251.155 250.122 C 250.740 249.199,250.392 247.939,250.382 247.322 C 250.373 246.705,250.107 245.480,249.792 244.600 C 248.179 240.092,247.857 223.774,249.323 220.835 C 249.687 220.105,250.103 218.584,250.247 217.454 C 250.392 216.324,250.823 214.770,251.206 214.000 C 251.589 213.230,252.031 212.003,252.189 211.273 C 252.346 210.543,252.711 209.856,252.998 209.745 C 253.286 209.635,253.633 208.952,253.769 208.227 C 253.904 207.503,254.372 206.587,254.808 206.193 C 255.244 205.799,255.600 205.312,255.600 205.111 C 255.600 204.911,256.050 204.157,256.600 203.436 C 257.150 202.714,257.600 201.980,257.600 201.804 C 257.600 201.628,257.964 201.105,258.409 200.642 C 263.397 195.449,265.257 193.600,265.492 193.600 C 265.646 193.600,266.138 193.236,266.586 192.791 C 267.846 191.540,272.389 188.663,275.233 187.316 C 280.762 184.696,281.481 184.400,282.314 184.400 C 282.788 184.400,283.856 184.055,284.688 183.634 C 285.519 183.212,287.370 182.742,288.800 182.589 C 290.230 182.436,291.607 182.144,291.859 181.940 C 293.204 180.855,311.377 180.616,315.600 181.628 M216.935 183.303 C 217.582 183.776,217.617 188.028,217.512 254.603 L 217.400 325.400 216.537 327.800 C 216.063 329.120,215.575 331.028,215.453 332.040 C 215.331 333.052,214.955 334.402,214.617 335.040 C 214.279 335.678,213.815 336.965,213.586 337.900 C 213.357 338.835,213.004 339.600,212.803 339.600 C 212.601 339.600,212.321 340.214,212.180 340.965 C 212.039 341.716,211.581 342.699,211.162 343.149 C 210.743 343.599,210.400 344.182,210.400 344.446 C 210.400 344.709,209.950 345.514,209.400 346.236 C 208.850 346.957,208.400 347.732,208.400 347.959 C 208.400 348.186,208.040 348.565,207.600 348.800 C 207.160 349.035,206.800 349.490,206.800 349.811 C 206.800 350.131,206.440 350.618,206.000 350.893 C 205.560 351.168,205.200 351.548,205.200 351.739 C 205.200 352.096,201.632 355.575,199.806 357.000 C 199.241 357.440,198.483 358.070,198.120 358.400 C 196.991 359.426,193.453 361.600,192.913 361.600 C 192.631 361.600,192.400 361.758,192.400 361.951 C 192.400 362.145,191.815 362.515,191.100 362.775 C 190.385 363.035,189.134 363.597,188.321 364.024 C 187.507 364.451,186.515 364.800,186.115 364.800 C 185.715 364.800,184.700 365.169,183.859 365.620 C 183.017 366.071,181.220 366.594,179.865 366.782 C 178.509 366.970,176.590 367.441,175.600 367.829 C 172.898 368.886,149.909 368.888,147.200 367.831 C 146.210 367.444,144.370 366.968,143.112 366.771 C 141.854 366.575,140.146 366.051,139.318 365.607 C 138.490 365.163,137.421 364.800,136.943 364.800 C 136.191 364.800,133.061 363.471,131.200 362.362 C 130.870 362.165,129.939 361.719,129.131 361.371 C 128.323 361.023,127.563 360.482,127.443 360.169 C 127.323 359.856,126.930 359.600,126.570 359.600 C 126.210 359.600,125.350 359.152,124.658 358.604 C 123.966 358.055,122.970 357.290,122.444 356.904 C 121.918 356.517,121.087 355.795,120.598 355.300 C 120.109 354.805,119.516 354.400,119.281 354.400 C 119.046 354.400,118.740 354.040,118.600 353.600 C 118.460 353.160,118.133 352.796,117.873 352.791 C 117.613 352.787,116.860 352.133,116.200 351.339 C 115.540 350.544,114.595 349.526,114.100 349.075 C 113.605 348.624,113.200 348.127,113.200 347.970 C 113.200 347.813,112.650 347.095,111.977 346.375 C 111.304 345.655,110.110 344.061,109.323 342.833 C 108.536 341.605,107.582 340.147,107.202 339.592 C 106.823 339.038,106.373 338.146,106.203 337.611 C 106.034 337.075,105.648 336.391,105.347 336.090 C 104.204 334.947,105.656 332.000,107.362 332.000 C 107.691 332.000,108.104 331.749,108.280 331.443 C 108.456 331.137,109.275 330.606,110.100 330.263 C 110.925 329.921,111.600 329.471,111.600 329.264 C 111.600 329.056,112.095 328.763,112.700 328.612 C 113.305 328.461,114.103 328.065,114.472 327.732 C 115.186 327.089,116.959 326.048,119.100 325.016 C 119.815 324.671,120.400 324.226,120.400 324.026 C 120.400 323.826,121.029 323.455,121.797 323.201 C 122.565 322.947,123.330 322.528,123.497 322.270 C 123.831 321.752,125.443 320.767,127.600 319.762 C 128.370 319.404,129.106 318.942,129.235 318.736 C 129.482 318.344,131.278 317.286,133.541 316.199 C 135.945 315.045,136.607 315.518,138.865 320.000 C 139.142 320.550,139.781 321.509,140.284 322.131 C 140.788 322.753,141.200 323.474,141.200 323.734 C 141.200 323.995,141.560 324.432,142.000 324.707 C 142.440 324.982,142.800 325.402,142.800 325.640 C 142.800 326.706,149.740 332.400,151.040 332.400 C 151.317 332.400,151.858 332.715,152.243 333.100 C 153.268 334.125,167.852 334.166,168.423 333.146 C 168.624 332.786,169.383 332.380,170.109 332.243 C 171.447 331.993,175.600 328.458,175.600 327.571 C 175.600 327.325,175.971 326.602,176.425 325.966 C 176.878 325.329,177.353 324.131,177.481 323.304 C 177.609 322.477,178.002 321.260,178.356 320.600 C 178.938 319.515,179.019 312.913,179.200 251.761 C 179.367 195.237,179.490 184.014,179.949 183.461 C 180.675 182.587,215.751 182.437,216.935 183.303 " stroke="none" fill="#f3dc4c" fill-rule="evenodd"></path><path id="path2" d="M296.200 182.022 C 295.320 182.203,293.070 182.563,291.200 182.820 C 289.330 183.078,287.170 183.550,286.400 183.870 C 285.630 184.190,284.113 184.621,283.028 184.829 C 281.943 185.037,280.773 185.455,280.428 185.759 C 280.083 186.062,279.170 186.441,278.400 186.600 C 277.630 186.759,276.730 187.121,276.400 187.405 C 276.070 187.688,275.170 188.218,274.400 188.582 C 267.354 191.910,259.528 199.176,255.855 205.800 C 255.489 206.460,255.024 207.270,254.821 207.600 C 253.056 210.472,251.245 215.786,249.826 222.257 C 249.098 225.579,248.949 237.750,249.610 240.003 C 249.835 240.771,250.209 242.750,250.440 244.400 C 250.672 246.050,251.208 248.188,251.631 249.151 C 252.054 250.114,252.400 251.151,252.400 251.456 C 252.400 254.618,259.474 264.995,265.220 270.262 C 266.382 271.328,267.622 272.470,267.975 272.800 C 268.767 273.540,269.438 274.016,273.657 276.829 C 278.529 280.078,279.098 280.421,282.400 282.100 C 284.050 282.939,285.670 283.774,286.000 283.956 C 286.638 284.309,289.544 285.671,293.275 287.366 C 294.526 287.935,295.809 288.400,296.126 288.400 C 296.443 288.400,296.917 288.658,297.179 288.974 C 297.441 289.290,298.228 289.673,298.928 289.824 C 299.627 289.976,300.830 290.420,301.600 290.812 C 302.370 291.203,304.170 292.021,305.600 292.629 C 310.328 294.642,319.526 299.229,320.016 299.819 C 320.281 300.139,320.707 300.400,320.962 300.400 C 321.807 300.400,325.581 303.727,327.679 306.320 C 331.735 311.335,331.723 321.124,327.655 326.097 C 325.475 328.762,320.795 332.400,319.548 332.400 C 319.234 332.400,318.570 332.686,318.072 333.035 C 316.371 334.226,306.330 335.668,302.844 335.220 C 301.170 335.006,298.900 334.727,297.800 334.601 L 295.800 334.373 298.200 335.214 C 301.440 336.350,309.123 336.524,311.128 335.507 C 311.858 335.136,313.568 334.710,314.928 334.559 C 316.362 334.400,317.801 333.973,318.354 333.542 C 318.879 333.134,319.723 332.800,320.230 332.800 C 320.738 332.800,321.261 332.624,321.394 332.410 C 321.527 332.195,322.613 331.371,323.807 330.578 C 326.154 329.020,329.200 325.677,329.200 324.660 C 329.200 324.314,329.605 323.654,330.100 323.193 C 331.336 322.041,331.506 310.706,330.301 309.825 C 329.917 309.544,329.490 308.751,329.353 308.063 C 329.049 306.543,323.651 300.948,321.705 300.135 C 320.987 299.835,320.400 299.426,320.400 299.226 C 320.400 299.026,319.784 298.659,319.032 298.411 C 318.280 298.162,317.448 297.698,317.183 297.380 C 316.918 297.061,316.399 296.800,316.029 296.800 C 315.658 296.800,314.745 296.350,314.000 295.800 C 313.255 295.250,312.344 294.800,311.976 294.800 C 311.609 294.800,310.869 294.455,310.333 294.033 C 309.796 293.611,308.704 293.143,307.906 292.994 C 307.108 292.844,306.360 292.472,306.243 292.168 C 306.126 291.863,305.312 291.499,304.434 291.359 C 303.555 291.219,302.531 290.765,302.156 290.352 C 301.782 289.938,301.063 289.600,300.559 289.600 C 300.055 289.600,298.796 289.150,297.762 288.600 C 296.727 288.050,295.621 287.600,295.304 287.600 C 294.986 287.600,294.269 287.240,293.709 286.800 C 293.150 286.360,292.291 286.000,291.800 286.000 C 291.309 286.000,290.479 285.667,289.954 285.261 C 289.429 284.855,288.460 284.390,287.800 284.229 C 287.140 284.067,286.278 283.590,285.884 283.168 C 285.491 282.745,284.754 282.400,284.246 282.400 C 283.739 282.400,283.007 282.050,282.621 281.623 C 282.234 281.195,281.414 280.735,280.800 280.600 C 280.186 280.465,279.366 280.005,278.979 279.577 C 278.593 279.150,278.061 278.800,277.799 278.800 C 277.537 278.800,276.907 278.440,276.400 278.000 C 275.893 277.560,275.304 277.200,275.092 277.200 C 274.879 277.200,274.091 276.660,273.339 276.000 C 272.587 275.340,271.708 274.800,271.386 274.800 C 271.064 274.800,270.800 274.614,270.800 274.387 C 270.800 274.161,270.485 273.859,270.100 273.718 C 269.263 273.411,268.958 273.136,263.700 267.917 C 261.445 265.679,259.600 263.631,259.600 263.367 C 259.600 263.102,259.330 262.782,259.000 262.655 C 258.670 262.529,258.400 262.194,258.400 261.913 C 258.399 261.631,257.949 260.877,257.400 260.238 C 256.850 259.599,256.400 258.869,256.400 258.615 C 256.400 258.362,255.950 257.545,255.400 256.800 C 254.850 256.055,254.400 255.112,254.400 254.706 C 254.400 254.300,254.056 253.480,253.636 252.884 C 253.216 252.288,252.757 250.960,252.616 249.933 C 252.476 248.906,252.123 247.868,251.831 247.626 C 251.511 247.361,251.193 245.791,251.026 243.656 C 250.874 241.714,250.491 239.626,250.175 239.017 C 249.471 237.661,249.339 225.621,250.020 224.940 C 250.250 224.710,250.655 222.811,250.920 220.721 C 251.184 218.631,251.626 216.650,251.901 216.318 C 252.177 215.986,252.560 214.872,252.752 213.843 C 252.945 212.813,253.394 211.648,253.751 211.254 C 254.108 210.860,254.400 210.160,254.400 209.699 C 254.400 209.238,254.850 208.327,255.400 207.673 C 255.950 207.019,256.400 206.266,256.400 206.000 C 256.400 205.734,256.805 205.016,257.300 204.405 C 257.795 203.794,258.650 202.714,259.200 202.004 C 261.786 198.667,263.467 196.877,265.780 195.000 C 266.593 194.340,267.626 193.490,268.076 193.112 C 268.527 192.733,269.217 192.322,269.611 192.197 C 270.004 192.072,270.427 191.706,270.550 191.385 C 270.674 191.063,271.037 190.800,271.357 190.800 C 271.677 190.800,272.447 190.373,273.069 189.852 C 273.691 189.330,274.785 188.776,275.500 188.620 C 276.215 188.464,276.800 188.200,276.800 188.032 C 276.800 187.580,278.698 186.800,279.799 186.800 C 280.328 186.800,280.905 186.541,281.082 186.224 C 281.262 185.904,282.499 185.473,283.876 185.251 C 285.235 185.032,286.764 184.591,287.274 184.272 C 287.789 183.948,289.797 183.572,291.800 183.423 C 293.780 183.276,296.660 182.895,298.200 182.578 C 301.777 181.840,306.571 181.841,310.434 182.581 C 312.103 182.900,315.163 183.287,317.234 183.440 C 319.669 183.621,321.493 183.981,322.394 184.460 C 323.161 184.867,324.442 185.200,325.240 185.200 C 326.045 185.200,327.117 185.531,327.646 185.942 C 328.171 186.350,329.320 186.816,330.200 186.977 C 331.080 187.139,332.122 187.615,332.516 188.035 C 332.909 188.456,333.680 188.800,334.228 188.800 C 334.776 188.800,335.322 189.054,335.441 189.363 C 335.560 189.673,336.230 190.159,336.929 190.443 C 337.628 190.727,338.435 191.284,338.723 191.680 C 339.010 192.076,339.507 192.400,339.828 192.400 C 341.053 192.400,350.735 202.160,351.733 204.400 C 351.880 204.730,352.629 205.810,353.398 206.800 C 356.032 210.190,356.177 211.981,353.893 212.936 C 353.182 213.233,352.353 213.774,352.051 214.138 C 351.749 214.502,351.252 214.800,350.947 214.800 C 350.642 214.800,350.084 215.160,349.707 215.600 C 349.330 216.040,348.806 216.400,348.542 216.400 C 348.278 216.400,347.553 216.825,346.931 217.345 C 346.309 217.865,345.395 218.417,344.900 218.572 C 344.405 218.727,344.000 219.001,344.000 219.181 C 344.000 219.361,343.370 219.808,342.600 220.173 C 341.830 220.539,341.200 220.995,341.200 221.188 C 341.200 221.380,340.570 221.746,339.800 222.000 C 339.030 222.254,338.400 222.608,338.400 222.785 C 338.400 222.963,337.770 223.408,337.000 223.773 C 336.230 224.139,335.600 224.573,335.600 224.738 C 335.600 224.904,334.970 225.267,334.200 225.546 C 333.430 225.824,332.800 226.208,332.800 226.399 C 332.800 226.590,332.434 226.862,331.986 227.004 C 331.539 227.146,330.864 227.594,330.486 227.999 C 329.220 229.357,327.677 229.447,327.360 228.181 C 327.208 227.578,326.795 226.764,326.442 226.372 C 326.089 225.980,324.900 224.509,323.800 223.103 C 321.683 220.396,317.119 216.400,316.146 216.400 C 315.827 216.400,315.206 216.064,314.765 215.654 C 314.315 215.234,313.079 214.802,311.940 214.667 C 310.826 214.536,309.637 214.196,309.296 213.914 C 308.277 213.068,300.063 213.214,298.811 214.100 C 298.267 214.485,297.267 214.800,296.589 214.800 C 295.901 214.800,294.755 215.243,294.000 215.800 C 293.255 216.350,292.492 216.800,292.305 216.800 C 291.857 216.800,288.083 220.819,287.383 222.043 C 285.775 224.850,285.306 228.409,285.786 234.169 C 286.012 236.877,286.251 237.823,286.839 238.326 C 287.258 238.685,287.600 239.289,287.600 239.669 C 287.600 240.508,291.940 244.942,293.604 245.802 C 294.262 246.142,294.800 246.596,294.800 246.810 C 294.800 247.025,295.035 247.200,295.322 247.200 C 295.610 247.200,296.442 247.641,297.172 248.179 C 297.901 248.718,299.001 249.269,299.616 249.403 C 300.230 249.538,300.833 249.908,300.954 250.224 C 301.076 250.541,301.596 250.800,302.110 250.800 C 302.624 250.800,303.655 251.250,304.400 251.800 C 305.145 252.350,306.146 252.800,306.624 252.800 C 307.101 252.800,307.931 253.145,308.467 253.567 C 309.004 253.989,310.096 254.457,310.895 254.607 C 311.694 254.757,312.657 255.221,313.036 255.640 C 313.414 256.058,314.223 256.400,314.833 256.400 C 315.444 256.400,316.228 256.685,316.577 257.034 C 316.925 257.382,317.883 257.850,318.705 258.073 C 319.527 258.297,320.470 258.712,320.800 258.995 C 321.130 259.279,321.977 259.633,322.681 259.783 C 323.386 259.933,324.376 260.375,324.881 260.767 C 325.387 261.158,326.326 261.607,326.968 261.764 C 327.611 261.921,328.580 262.398,329.122 262.825 C 329.664 263.251,330.422 263.600,330.805 263.600 C 331.188 263.600,331.725 263.869,331.998 264.198 C 332.272 264.527,333.194 265.006,334.047 265.261 C 334.901 265.517,335.600 265.876,335.600 266.058 C 335.600 266.240,336.185 266.671,336.900 267.016 C 338.990 268.024,340.574 268.964,341.781 269.913 C 342.401 270.401,343.094 270.800,343.320 270.800 C 343.547 270.800,344.018 271.066,344.366 271.391 C 344.715 271.716,346.710 273.372,348.800 275.072 C 353.772 279.116,355.319 280.686,358.314 284.725 C 358.691 285.234,359.315 285.999,359.700 286.425 C 360.085 286.851,360.400 287.456,360.400 287.769 C 360.400 288.082,360.850 288.873,361.400 289.527 C 361.950 290.181,362.400 291.070,362.400 291.504 C 362.400 291.937,362.754 292.742,363.187 293.292 C 363.619 293.842,364.093 295.082,364.240 296.046 C 364.386 297.011,364.757 298.090,365.064 298.444 C 365.371 298.798,365.789 300.550,365.993 302.336 C 366.197 304.123,366.642 306.405,366.982 307.407 C 367.855 309.978,367.855 321.222,366.982 323.793 C 366.642 324.795,366.195 327.087,365.990 328.887 C 365.738 331.099,365.420 332.269,365.008 332.499 C 364.662 332.693,364.399 333.392,364.398 334.120 C 364.397 334.824,363.952 336.120,363.410 337.000 C 362.868 337.880,362.419 338.887,362.412 339.239 C 362.406 339.590,362.045 340.287,361.612 340.786 C 361.178 341.286,360.711 342.051,360.572 342.487 C 360.434 342.923,359.979 343.621,359.561 344.039 C 359.142 344.458,358.800 345.064,358.800 345.386 C 358.800 345.708,358.440 346.165,358.000 346.400 C 357.560 346.635,357.200 347.020,357.200 347.254 C 357.200 347.779,351.292 353.600,350.760 353.600 C 350.548 353.600,350.266 353.884,350.133 354.231 C 350.000 354.577,349.510 355.032,349.045 355.241 C 348.032 355.696,345.648 357.338,344.766 358.189 C 344.418 358.525,343.814 358.800,343.424 358.800 C 343.034 358.800,342.181 359.250,341.527 359.800 C 340.873 360.350,339.930 360.800,339.431 360.800 C 338.932 360.800,338.198 361.160,337.800 361.600 C 337.402 362.040,336.609 362.406,336.038 362.413 C 335.467 362.419,334.100 362.868,333.000 363.409 C 331.900 363.950,330.384 364.394,329.631 364.396 C 328.879 364.398,327.948 364.685,327.564 365.033 C 327.093 365.459,325.546 365.780,322.836 366.016 C 320.620 366.208,317.990 366.643,316.990 366.983 C 314.356 367.877,297.244 367.877,294.610 366.983 C 293.610 366.643,291.004 366.210,288.817 366.020 C 286.319 365.803,284.504 365.438,283.932 365.038 C 283.432 364.687,282.476 364.400,281.808 364.400 C 280.132 364.400,278.121 363.778,277.371 363.028 C 277.025 362.682,276.150 362.400,275.425 362.400 C 274.701 362.400,273.669 362.055,273.133 361.633 C 272.596 361.211,271.504 360.743,270.705 360.593 C 269.906 360.443,268.943 359.979,268.564 359.560 C 268.186 359.142,267.568 358.800,267.192 358.800 C 266.816 358.800,266.050 358.440,265.491 358.000 C 264.931 357.560,264.322 357.197,264.137 357.193 C 263.629 357.182,259.271 354.247,257.168 352.500 C 256.572 352.005,255.951 351.600,255.788 351.600 C 255.625 351.600,255.102 351.195,254.627 350.700 C 254.151 350.205,252.735 348.875,251.481 347.745 C 250.226 346.614,249.200 345.501,249.200 345.272 C 249.200 345.042,248.840 344.740,248.400 344.600 C 247.960 344.460,247.600 344.090,247.600 343.776 C 247.600 343.463,247.240 342.982,246.800 342.707 C 246.360 342.432,246.000 342.026,246.000 341.804 C 245.999 341.438,245.451 340.703,243.264 338.138 C 242.859 337.664,242.298 336.719,242.016 336.038 C 241.734 335.357,241.357 334.800,241.178 334.800 C 241.000 334.800,240.730 334.395,240.580 333.900 C 240.429 333.405,240.071 332.730,239.784 332.400 C 238.581 331.016,238.644 329.698,239.925 329.416 C 240.581 329.272,241.434 328.805,241.821 328.377 C 242.207 327.950,242.811 327.600,243.162 327.600 C 243.513 327.599,244.323 327.149,244.962 326.600 C 245.601 326.050,246.378 325.600,246.689 325.600 C 246.999 325.600,247.826 325.195,248.527 324.699 C 250.461 323.330,251.266 322.862,252.869 322.171 C 253.677 321.823,254.437 321.282,254.557 320.969 C 254.677 320.656,255.096 320.400,255.487 320.400 C 255.879 320.399,256.723 319.949,257.362 319.400 C 258.001 318.850,258.847 318.400,259.242 318.400 C 259.637 318.400,260.104 318.149,260.280 317.843 C 260.456 317.537,261.230 316.987,262.000 316.622 C 264.287 315.536,265.871 314.586,266.585 313.872 C 266.955 313.502,267.363 313.200,267.493 313.200 C 267.835 313.200,270.000 315.683,270.000 316.076 C 270.000 316.579,272.379 319.756,273.029 320.120 C 273.343 320.296,273.600 320.592,273.600 320.778 C 273.600 321.974,283.783 330.800,285.164 330.800 C 285.344 330.800,285.928 331.143,286.460 331.561 C 286.993 331.980,288.166 332.522,289.067 332.764 C 289.969 333.007,290.930 333.474,291.202 333.803 C 291.534 334.203,292.375 334.386,293.749 334.356 L 295.800 334.312 294.200 333.990 C 293.320 333.812,292.060 333.383,291.400 333.036 C 290.740 332.689,290.004 332.404,289.764 332.402 C 289.059 332.398,284.523 330.030,283.990 329.388 C 283.722 329.065,283.332 328.800,283.124 328.800 C 282.122 328.800,275.406 322.577,273.200 319.605 C 272.650 318.864,271.795 317.769,271.300 317.171 C 270.805 316.573,270.400 315.966,270.400 315.821 C 270.400 314.125,267.494 312.410,266.359 313.437 C 265.661 314.069,264.478 314.774,261.400 316.393 C 260.520 316.855,259.080 317.670,258.200 318.202 C 257.320 318.735,255.970 319.544,255.200 320.000 C 254.430 320.456,253.080 321.265,252.200 321.798 C 251.320 322.330,249.880 323.131,249.000 323.578 C 247.413 324.383,247.102 324.565,244.400 326.257 C 243.630 326.740,242.010 327.661,240.800 328.304 C 238.417 329.571,237.752 330.999,238.922 332.335 C 239.242 332.701,239.801 333.540,240.164 334.200 C 240.821 335.393,241.478 336.424,242.993 338.640 C 246.240 343.388,252.802 350.113,257.401 353.404 C 259.875 355.174,260.951 355.889,264.200 357.920 C 264.640 358.195,265.720 358.781,266.600 359.222 C 267.480 359.663,268.470 360.175,268.800 360.358 C 270.675 361.400,273.974 362.800,274.556 362.800 C 274.928 362.800,275.909 363.145,276.736 363.567 C 277.563 363.989,279.131 364.515,280.220 364.736 C 281.309 364.956,283.010 365.412,284.000 365.748 C 284.990 366.084,287.150 366.544,288.800 366.770 C 290.450 366.997,292.777 367.360,293.970 367.578 C 300.346 368.742,315.203 368.423,320.644 367.005 C 321.922 366.672,323.695 366.396,324.584 366.391 C 325.473 366.386,326.920 366.056,327.800 365.657 C 328.680 365.258,330.182 364.807,331.137 364.655 C 332.092 364.503,333.570 364.024,334.421 363.589 C 335.272 363.155,336.200 362.796,336.484 362.791 C 336.768 362.787,338.170 362.165,339.600 361.411 C 341.030 360.657,342.740 359.785,343.400 359.475 C 344.718 358.854,349.248 355.846,350.751 354.593 C 353.063 352.666,359.200 346.215,359.200 345.713 C 359.200 345.621,359.605 344.974,360.101 344.273 C 363.907 338.895,365.937 333.327,367.638 323.605 C 368.191 320.444,367.909 306.743,367.255 305.000 C 367.007 304.340,366.634 302.720,366.427 301.400 C 365.911 298.122,363.499 291.843,361.510 288.600 C 359.564 285.427,358.791 284.319,357.041 282.200 C 353.979 278.493,347.244 272.477,344.066 270.609 C 343.139 270.065,341.671 269.128,340.440 268.297 C 339.868 267.911,338.680 267.221,337.800 266.764 C 336.920 266.307,335.480 265.499,334.600 264.969 C 333.720 264.439,332.370 263.730,331.600 263.393 C 330.830 263.056,329.930 262.604,329.600 262.388 C 329.270 262.172,328.730 261.883,328.400 261.746 C 328.070 261.609,325.948 260.621,323.683 259.549 C 321.419 258.477,319.344 257.600,319.072 257.600 C 318.800 257.600,318.223 257.354,317.789 257.054 C 317.355 256.754,316.550 256.372,316.000 256.206 C 314.769 255.835,310.785 254.087,305.160 251.450 C 303.928 250.872,302.758 250.396,302.560 250.391 C 302.362 250.386,301.750 250.030,301.200 249.600 C 300.650 249.170,299.973 248.814,299.696 248.809 C 298.765 248.792,292.466 244.422,290.524 242.445 C 283.064 234.849,284.989 221.188,294.200 216.364 C 300.632 212.995,312.751 213.838,317.711 217.999 C 317.980 218.225,318.865 218.920,319.678 219.544 C 321.413 220.875,324.498 224.529,326.394 227.500 C 328.091 230.158,328.284 230.143,332.985 227.000 C 335.124 225.570,336.975 224.400,337.099 224.400 C 337.223 224.400,337.914 223.950,338.636 223.400 C 339.357 222.850,340.068 222.400,340.216 222.400 C 340.363 222.400,341.019 221.950,341.673 221.400 C 342.327 220.850,343.090 220.400,343.369 220.400 C 343.648 220.400,344.202 220.040,344.600 219.600 C 344.998 219.160,345.538 218.800,345.800 218.800 C 346.062 218.800,346.598 218.445,346.991 218.010 C 347.384 217.576,348.084 217.100,348.547 216.953 C 349.009 216.807,350.291 216.032,351.394 215.232 C 352.497 214.432,353.850 213.578,354.400 213.335 C 355.886 212.679,356.979 210.646,356.196 209.996 C 355.868 209.725,355.600 209.343,355.600 209.148 C 355.600 208.953,355.105 208.096,354.500 207.244 C 353.895 206.392,353.130 205.286,352.800 204.786 C 348.888 198.861,337.084 188.400,334.310 188.400 C 333.988 188.400,333.398 188.040,333.000 187.600 C 332.602 187.160,331.982 186.800,331.623 186.800 C 331.263 186.800,330.256 186.435,329.385 185.988 C 328.513 185.542,326.810 184.922,325.600 184.611 C 324.390 184.299,322.416 183.765,321.213 183.422 C 320.010 183.080,318.300 182.794,317.413 182.786 C 316.526 182.778,314.630 182.515,313.200 182.200 C 310.341 181.571,298.964 181.452,296.200 182.022 M180.576 184.168 C 179.814 184.725,179.796 186.004,179.600 252.668 L 179.400 320.600 178.373 323.200 C 174.801 332.242,169.144 335.367,157.600 334.675 C 155.510 334.550,153.980 334.507,154.200 334.580 C 157.968 335.833,159.117 335.997,161.405 335.611 C 162.722 335.389,165.164 334.980,166.831 334.703 C 168.620 334.406,170.147 333.913,170.559 333.500 C 170.943 333.115,171.510 332.800,171.819 332.800 C 172.481 332.800,176.400 329.160,176.400 328.545 C 176.400 328.314,176.756 327.801,177.192 327.407 C 177.628 327.013,178.101 326.040,178.243 325.245 C 178.385 324.450,178.725 323.530,178.998 323.200 C 180.064 321.913,180.137 318.138,180.365 252.600 L 180.600 185.000 198.200 184.800 C 213.443 184.627,215.869 184.680,216.313 185.194 C 217.096 186.102,216.842 321.375,216.054 322.759 C 215.754 323.287,215.278 325.604,214.996 327.910 C 214.699 330.334,214.270 332.233,213.979 332.413 C 213.703 332.584,213.336 333.762,213.163 335.032 C 212.981 336.377,212.604 337.478,212.260 337.670 C 211.936 337.852,211.551 338.704,211.406 339.565 C 211.261 340.425,210.795 341.443,210.371 341.826 C 209.947 342.210,209.597 342.901,209.593 343.362 C 209.589 343.823,209.139 344.624,208.593 345.142 C 208.047 345.660,207.600 346.307,207.600 346.580 C 207.600 346.853,207.240 347.402,206.800 347.800 C 206.360 348.198,206.000 348.734,206.000 348.990 C 206.000 349.246,205.595 349.818,205.100 350.261 C 204.605 350.703,203.647 351.681,202.971 352.433 C 202.295 353.185,200.880 354.520,199.826 355.400 C 198.772 356.280,197.570 357.315,197.155 357.700 C 196.740 358.085,196.245 358.400,196.055 358.400 C 195.865 358.400,195.031 358.940,194.200 359.600 C 193.369 360.260,192.383 360.800,192.007 360.800 C 191.631 360.800,190.998 361.160,190.600 361.600 C 190.202 362.040,189.388 362.400,188.792 362.400 C 188.196 362.400,187.258 362.754,186.708 363.187 C 186.158 363.619,184.918 364.091,183.954 364.234 C 182.989 364.377,181.783 364.755,181.273 365.074 C 180.763 365.393,178.776 365.817,176.857 366.015 C 174.938 366.214,172.588 366.651,171.634 366.988 C 169.154 367.863,153.667 367.871,151.194 366.998 C 150.256 366.667,147.990 366.226,146.160 366.018 C 144.330 365.810,142.420 365.380,141.916 365.063 C 141.412 364.746,140.147 364.366,139.105 364.220 C 138.062 364.073,136.955 363.698,136.644 363.387 C 136.333 363.076,135.315 362.650,134.381 362.440 C 133.448 362.231,132.575 361.886,132.442 361.674 C 132.309 361.463,131.570 360.990,130.800 360.624 C 128.653 359.602,127.058 358.661,125.819 357.687 C 125.199 357.199,124.536 356.800,124.346 356.800 C 123.992 356.800,123.106 356.097,121.444 354.500 C 120.930 354.005,120.409 353.600,120.287 353.600 C 119.741 353.600,113.152 346.441,112.251 344.869 C 112.003 344.437,111.125 343.101,110.300 341.900 C 109.475 340.700,108.800 339.567,108.800 339.384 C 108.800 339.201,108.465 338.680,108.055 338.226 C 106.255 336.229,106.449 332.800,108.364 332.800 C 108.770 332.800,109.349 332.502,109.651 332.138 C 109.953 331.774,110.785 331.232,111.500 330.933 C 112.215 330.634,112.800 330.248,112.800 330.075 C 112.800 329.902,113.413 329.539,114.162 329.268 C 114.911 328.997,115.625 328.511,115.749 328.188 C 115.873 327.865,116.327 327.600,116.757 327.600 C 117.187 327.600,118.049 327.195,118.672 326.700 C 120.303 325.406,121.203 324.858,122.900 324.126 C 123.725 323.770,124.400 323.328,124.400 323.145 C 124.400 322.961,125.036 322.545,125.814 322.220 C 126.592 321.895,127.505 321.353,127.843 321.015 C 128.181 320.677,128.686 320.400,128.967 320.400 C 129.247 320.400,129.802 320.040,130.200 319.600 C 130.598 319.160,131.152 318.800,131.431 318.800 C 131.710 318.800,132.502 318.326,133.191 317.746 C 134.531 316.619,136.400 316.861,136.400 318.161 C 136.400 318.479,136.850 319.273,137.400 319.927 C 137.950 320.581,138.400 321.334,138.400 321.600 C 138.400 321.866,138.848 322.650,139.396 323.342 C 139.945 324.034,140.710 325.028,141.096 325.550 C 142.799 327.851,148.197 332.800,149.002 332.800 C 149.264 332.800,149.893 333.160,150.400 333.600 C 150.926 334.056,151.855 334.385,152.561 334.366 C 153.762 334.332,153.769 334.321,152.800 334.004 C 150.918 333.388,147.600 331.599,147.600 331.199 C 147.600 330.980,147.369 330.800,147.086 330.800 C 146.373 330.800,141.865 325.948,140.262 323.456 C 137.903 319.789,137.433 319.019,136.812 317.800 C 136.037 316.280,134.304 315.976,133.058 317.143 C 132.586 317.585,131.750 318.142,131.200 318.381 C 130.650 318.620,129.390 319.343,128.400 319.988 C 127.410 320.632,126.023 321.455,125.318 321.817 C 124.614 322.178,123.826 322.727,123.569 323.037 C 123.312 323.347,122.786 323.600,122.400 323.600 C 122.014 323.600,121.468 323.877,121.188 324.215 C 120.907 324.553,119.490 325.490,118.039 326.297 C 116.588 327.105,115.162 327.998,114.871 328.283 C 114.581 328.567,114.167 328.800,113.952 328.800 C 113.737 328.800,112.445 329.542,111.081 330.448 C 109.716 331.354,108.204 332.246,107.721 332.430 C 106.117 333.040,105.356 334.678,106.094 335.932 C 106.439 336.520,107.183 337.870,107.747 338.933 C 110.409 343.954,119.300 354.421,122.015 355.731 C 122.337 355.887,123.320 356.557,124.200 357.221 C 126.558 358.999,128.783 360.428,130.172 361.057 C 130.847 361.362,131.670 361.774,132.000 361.972 C 133.430 362.828,137.113 364.347,138.400 364.610 C 139.170 364.768,140.312 365.158,140.938 365.478 C 141.564 365.798,143.544 366.303,145.338 366.601 C 147.132 366.898,149.410 367.324,150.400 367.547 C 155.283 368.649,170.963 368.431,174.157 367.216 C 174.679 367.018,176.513 366.660,178.234 366.421 C 179.955 366.181,181.731 365.748,182.181 365.457 C 182.632 365.166,183.630 364.808,184.400 364.660 C 185.762 364.399,186.373 364.142,191.400 361.714 C 197.851 358.600,204.277 352.793,208.790 346.000 C 209.447 345.010,209.989 344.003,209.993 343.761 C 209.997 343.520,210.360 342.907,210.800 342.400 C 211.240 341.893,211.601 341.190,211.601 340.839 C 211.602 340.487,211.952 339.628,212.378 338.929 C 212.804 338.230,213.277 336.970,213.430 336.129 C 213.582 335.288,213.988 334.060,214.331 333.400 C 214.675 332.740,215.177 330.760,215.447 329.000 C 215.717 327.240,216.169 325.080,216.452 324.200 C 217.180 321.929,217.465 185.854,216.744 184.500 L 216.265 183.600 198.809 183.600 C 184.365 183.600,181.219 183.698,180.576 184.168 " stroke="none" fill="#7c743c" fill-rule="evenodd"></path><path id="path3" d="M295.459 181.209 C 293.732 181.407,292.112 181.736,291.859 181.940 C 291.607 182.144,290.230 182.436,288.800 182.589 C 287.370 182.742,285.519 183.212,284.688 183.634 C 283.856 184.055,282.788 184.400,282.314 184.400 C 281.481 184.400,280.762 184.696,275.233 187.316 C 272.389 188.663,267.846 191.540,266.586 192.791 C 266.138 193.236,265.646 193.600,265.492 193.600 C 265.257 193.600,263.397 195.449,258.409 200.642 C 257.964 201.105,257.600 201.628,257.600 201.804 C 257.600 201.980,257.150 202.714,256.600 203.436 C 256.050 204.157,255.600 204.911,255.600 205.111 C 255.600 205.312,255.244 205.799,254.808 206.193 C 254.372 206.587,253.904 207.503,253.769 208.227 C 253.633 208.952,253.286 209.635,252.998 209.745 C 252.711 209.856,252.346 210.543,252.189 211.273 C 252.031 212.003,251.589 213.230,251.206 214.000 C 250.823 214.770,250.392 216.324,250.247 217.454 C 250.103 218.584,249.687 220.105,249.323 220.835 C 247.857 223.774,248.179 240.092,249.792 244.600 C 250.107 245.480,250.373 246.705,250.382 247.322 C 250.392 247.939,250.740 249.199,251.155 250.122 C 251.570 251.045,252.037 252.397,252.192 253.127 C 252.348 253.857,252.711 254.544,252.998 254.655 C 253.286 254.765,253.633 255.450,253.769 256.176 C 253.905 256.903,254.373 257.908,254.808 258.410 C 255.244 258.912,255.600 259.520,255.600 259.761 C 255.601 260.003,256.051 260.723,256.600 261.362 C 257.150 262.001,257.600 262.662,257.600 262.830 C 257.600 263.301,260.261 266.277,263.795 269.756 C 267.997 273.895,268.561 274.400,268.981 274.400 C 269.174 274.400,269.618 274.674,269.966 275.009 C 271.332 276.323,273.738 278.000,274.255 278.000 C 274.555 278.000,274.800 278.179,274.800 278.397 C 274.800 278.774,275.415 279.152,279.033 281.000 C 279.895 281.440,280.690 281.903,280.800 282.030 C 281.144 282.425,286.104 284.800,286.586 284.800 C 286.838 284.800,287.655 285.250,288.400 285.800 C 289.145 286.350,290.148 286.800,290.629 286.800 C 291.109 286.800,291.729 287.074,292.007 287.408 C 292.285 287.743,293.291 288.213,294.244 288.453 C 295.196 288.693,296.185 289.140,296.440 289.448 C 296.695 289.756,297.597 290.118,298.444 290.253 C 299.292 290.389,300.189 290.746,300.439 291.047 C 300.689 291.348,301.637 291.792,302.547 292.034 C 303.456 292.276,304.470 292.704,304.800 292.983 C 305.130 293.263,305.929 293.619,306.576 293.773 C 307.222 293.927,308.240 294.401,308.837 294.827 C 309.435 295.252,310.273 295.600,310.701 295.600 C 311.128 295.600,311.880 295.949,312.372 296.375 C 312.863 296.802,313.789 297.266,314.428 297.406 C 315.068 297.547,315.695 297.830,315.823 298.037 C 315.950 298.243,316.679 298.673,317.441 298.992 C 318.204 299.310,319.105 299.847,319.443 300.185 C 319.781 300.523,320.296 300.800,320.587 300.800 C 321.079 300.800,326.263 305.684,327.587 307.394 C 330.117 310.663,330.987 318.763,329.135 321.800 C 328.732 322.460,328.402 323.245,328.401 323.544 C 328.400 324.082,325.305 328.067,324.676 328.341 C 324.498 328.419,323.887 328.914,323.318 329.441 C 322.749 329.969,322.062 330.400,321.791 330.400 C 321.520 330.400,321.075 330.669,320.802 330.997 C 320.530 331.326,319.563 331.790,318.653 332.030 C 317.744 332.269,316.618 332.710,316.150 333.009 C 313.660 334.603,295.959 334.600,293.434 333.005 C 292.975 332.716,291.970 332.351,291.200 332.196 C 290.430 332.041,289.260 331.594,288.600 331.202 C 287.940 330.811,286.977 330.363,286.461 330.206 C 285.944 330.049,285.179 329.579,284.761 329.161 C 284.342 328.742,283.730 328.400,283.400 328.400 C 283.070 328.400,282.800 328.225,282.800 328.010 C 282.800 327.796,282.268 327.346,281.618 327.009 C 279.717 326.026,272.400 318.279,272.400 317.249 C 272.400 317.006,272.040 316.582,271.600 316.307 C 271.160 316.032,270.800 315.613,270.800 315.376 C 270.800 313.085,267.184 311.792,265.273 313.400 C 264.619 313.950,263.806 314.400,263.466 314.400 C 263.126 314.400,262.723 314.600,262.572 314.845 C 262.421 315.090,261.510 315.639,260.548 316.064 C 259.587 316.489,258.800 317.009,258.800 317.219 C 258.800 317.428,258.555 317.600,258.256 317.600 C 257.957 317.600,257.049 318.050,256.238 318.600 C 255.428 319.150,254.525 319.600,254.231 319.600 C 253.938 319.600,253.462 319.885,253.173 320.233 C 252.674 320.834,251.310 321.642,248.568 322.961 C 247.891 323.287,247.104 323.834,246.819 324.177 C 246.535 324.520,245.973 324.800,245.572 324.800 C 245.170 324.800,244.356 325.250,243.762 325.800 C 243.169 326.350,242.372 326.800,241.991 326.800 C 241.610 326.800,241.065 327.080,240.781 327.423 C 240.496 327.766,239.641 328.306,238.881 328.624 C 237.422 329.233,237.197 331.918,238.513 333.000 C 238.781 333.220,239.312 334.075,239.694 334.900 C 240.075 335.725,240.570 336.400,240.794 336.400 C 241.017 336.400,241.200 336.670,241.200 337.000 C 241.200 337.330,241.546 337.946,241.970 338.370 C 242.393 338.793,242.958 339.558,243.225 340.070 C 243.780 341.132,244.054 341.467,246.572 344.145 C 247.577 345.214,248.400 346.131,248.400 346.182 C 248.400 346.354,252.780 350.800,252.949 350.800 C 253.040 350.800,253.719 351.365,254.458 352.056 C 255.196 352.747,256.430 353.731,257.200 354.242 C 257.970 354.753,259.344 355.699,260.253 356.343 C 261.161 356.988,262.263 357.629,262.700 357.768 C 263.137 357.907,263.816 358.376,264.209 358.810 C 264.602 359.245,265.232 359.600,265.608 359.600 C 265.984 359.600,266.752 359.962,267.314 360.404 C 267.875 360.845,268.890 361.318,269.568 361.454 C 270.245 361.589,270.800 361.852,270.800 362.039 C 270.800 362.225,271.835 362.678,273.100 363.046 C 274.365 363.413,275.760 363.937,276.200 364.210 C 276.640 364.482,277.778 364.821,278.728 364.962 C 279.679 365.103,280.849 365.476,281.330 365.791 C 281.810 366.106,283.462 366.539,285.002 366.754 C 286.541 366.969,288.790 367.450,290.000 367.823 C 293.630 368.941,318.454 368.858,321.800 367.717 C 323.120 367.266,325.246 366.783,326.524 366.643 C 327.802 366.502,329.242 366.129,329.724 365.814 C 330.206 365.499,331.410 365.118,332.400 364.969 C 333.390 364.820,334.740 364.380,335.400 363.992 C 336.060 363.604,337.173 363.165,337.872 363.017 C 338.572 362.870,339.359 362.490,339.621 362.174 C 339.883 361.858,340.411 361.600,340.793 361.600 C 341.176 361.600,342.151 361.150,342.962 360.600 C 343.772 360.050,344.546 359.600,344.680 359.600 C 344.814 359.600,345.514 359.150,346.236 358.600 C 346.957 358.050,347.694 357.600,347.873 357.600 C 348.053 357.600,348.988 356.880,349.951 356.000 C 350.913 355.120,351.836 354.400,352.001 354.400 C 352.166 354.400,353.574 353.005,355.130 351.300 C 356.686 349.595,358.328 347.821,358.780 347.358 C 359.231 346.895,359.600 346.320,359.600 346.081 C 359.600 345.841,359.934 345.410,360.343 345.123 C 360.751 344.835,361.219 344.177,361.382 343.661 C 361.545 343.144,362.021 342.379,362.439 341.961 C 362.858 341.542,363.200 340.868,363.200 340.461 C 363.200 340.055,363.556 339.312,363.992 338.810 C 364.427 338.308,364.900 337.245,365.042 336.449 C 365.185 335.652,365.533 334.730,365.816 334.400 C 366.098 334.070,366.520 332.764,366.752 331.499 C 366.984 330.233,367.376 328.818,367.625 328.354 C 368.864 326.039,368.863 305.159,367.623 302.844 C 367.362 302.356,366.969 300.843,366.750 299.483 C 366.531 298.123,366.108 296.738,365.810 296.405 C 365.512 296.072,365.142 295.123,364.989 294.297 C 364.835 293.470,364.370 292.361,363.955 291.833 C 363.540 291.306,363.200 290.622,363.200 290.315 C 363.200 290.007,362.750 289.145,362.200 288.400 C 361.650 287.655,361.200 286.818,361.200 286.542 C 361.200 286.266,360.956 285.896,360.658 285.720 C 360.361 285.544,359.886 284.950,359.603 284.400 C 358.735 282.710,352.052 275.763,349.400 273.793 C 348.520 273.139,347.656 272.379,347.480 272.102 C 347.304 271.826,346.809 271.600,346.380 271.600 C 345.951 271.600,345.600 271.430,345.600 271.221 C 345.600 270.791,341.534 268.000,340.908 268.000 C 340.682 268.000,340.265 267.720,339.981 267.377 C 339.696 267.034,338.909 266.486,338.232 266.159 C 337.554 265.832,336.100 265.043,335.000 264.405 C 333.900 263.767,332.730 263.135,332.400 263.001 C 332.070 262.866,331.350 262.502,330.800 262.190 C 330.250 261.879,329.350 261.417,328.800 261.164 C 328.250 260.910,326.897 260.275,325.794 259.751 C 324.691 259.228,323.588 258.800,323.343 258.800 C 323.098 258.800,322.674 258.530,322.400 258.200 C 322.126 257.870,321.591 257.600,321.211 257.600 C 320.830 257.600,319.673 257.150,318.638 256.600 C 317.604 256.050,316.481 255.600,316.142 255.600 C 315.803 255.600,315.087 255.255,314.551 254.833 C 314.015 254.411,312.862 253.946,311.988 253.798 C 311.115 253.650,310.400 253.379,310.400 253.196 C 310.400 253.012,309.725 252.646,308.900 252.383 C 308.075 252.119,306.839 251.565,306.153 251.151 C 305.467 250.738,304.636 250.400,304.307 250.400 C 303.977 250.400,303.264 250.051,302.722 249.625 C 302.180 249.198,301.211 248.723,300.568 248.568 C 299.926 248.414,299.078 247.953,298.684 247.544 C 298.291 247.135,297.720 246.800,297.415 246.800 C 297.111 246.800,296.327 246.350,295.673 245.800 C 295.019 245.250,294.352 244.800,294.190 244.800 C 293.550 244.800,288.400 239.158,288.400 238.457 C 288.400 238.045,288.040 237.250,287.600 236.691 C 286.445 235.223,286.399 226.225,287.539 224.754 C 287.945 224.229,288.391 223.350,288.530 222.800 C 288.963 221.083,291.651 218.588,295.114 216.690 L 297.400 215.437 304.400 215.418 C 310.981 215.401,311.487 215.454,312.847 216.300 C 313.643 216.795,314.544 217.200,314.848 217.200 C 315.536 217.200,319.238 219.796,320.837 221.400 C 322.759 223.328,324.584 225.624,325.049 226.700 C 325.358 227.415,325.788 228.000,326.005 228.000 C 326.222 228.000,326.400 228.242,326.400 228.538 C 326.400 231.057,330.117 230.369,334.034 227.125 C 334.860 226.440,336.671 225.369,338.300 224.602 C 339.015 224.265,339.600 223.807,339.600 223.585 C 339.600 223.362,340.017 223.022,340.526 222.828 C 341.481 222.465,344.156 220.791,345.179 219.916 C 345.738 219.438,346.761 218.831,349.500 217.353 C 350.215 216.967,350.800 216.508,350.800 216.331 C 350.800 216.155,351.385 215.729,352.100 215.384 C 357.022 213.011,358.353 211.429,356.900 209.679 C 356.515 209.215,355.592 207.838,354.849 206.618 C 354.106 205.398,353.353 204.400,353.176 204.400 C 352.999 204.400,352.747 204.064,352.617 203.653 C 352.191 202.311,349.365 199.272,342.158 192.403 C 341.695 191.961,341.181 191.600,341.016 191.600 C 340.851 191.600,340.181 191.150,339.527 190.600 C 338.873 190.050,338.082 189.600,337.769 189.600 C 337.456 189.600,337.200 189.428,337.200 189.219 C 337.200 189.009,336.435 188.473,335.500 188.029 C 334.565 187.584,333.530 187.046,333.200 186.834 C 332.870 186.621,332.118 186.347,331.528 186.223 C 330.938 186.100,330.191 185.734,329.868 185.410 C 329.544 185.087,328.496 184.699,327.540 184.548 C 326.583 184.398,325.414 184.025,324.942 183.719 C 324.471 183.413,322.581 182.915,320.742 182.611 C 318.904 182.307,316.590 181.865,315.600 181.628 C 313.175 181.047,299.371 180.760,295.459 181.209 M313.200 182.200 C 314.630 182.515,316.526 182.778,317.413 182.786 C 318.300 182.794,320.010 183.080,321.213 183.422 C 322.416 183.765,324.390 184.299,325.600 184.611 C 326.810 184.922,328.513 185.542,329.385 185.988 C 330.256 186.435,331.263 186.800,331.623 186.800 C 331.982 186.800,332.602 187.160,333.000 187.600 C 333.398 188.040,333.988 188.400,334.310 188.400 C 337.084 188.400,348.888 198.861,352.800 204.786 C 353.130 205.286,353.895 206.392,354.500 207.244 C 355.105 208.096,355.600 208.953,355.600 209.148 C 355.600 209.343,355.868 209.725,356.196 209.996 C 356.979 210.646,355.886 212.679,354.400 213.335 C 353.850 213.578,352.497 214.432,351.394 215.232 C 350.291 216.032,349.009 216.807,348.547 216.953 C 348.084 217.100,347.384 217.576,346.991 218.010 C 346.598 218.445,346.062 218.800,345.800 218.800 C 345.538 218.800,344.998 219.160,344.600 219.600 C 344.202 220.040,343.648 220.400,343.369 220.400 C 343.090 220.400,342.327 220.850,341.673 221.400 C 341.019 221.950,340.363 222.400,340.216 222.400 C 340.068 222.400,339.357 222.850,338.636 223.400 C 337.914 223.950,337.223 224.400,337.099 224.400 C 336.975 224.400,335.124 225.570,332.985 227.000 C 328.284 230.143,328.091 230.158,326.394 227.500 C 324.498 224.529,321.413 220.875,319.678 219.544 C 318.865 218.920,317.980 218.225,317.711 217.999 C 312.751 213.838,300.632 212.995,294.200 216.364 C 284.989 221.188,283.064 234.849,290.524 242.445 C 292.466 244.422,298.765 248.792,299.696 248.809 C 299.973 248.814,300.650 249.170,301.200 249.600 C 301.750 250.030,302.362 250.386,302.560 250.391 C 302.758 250.396,303.928 250.872,305.160 251.450 C 310.785 254.087,314.769 255.835,316.000 256.206 C 316.550 256.372,317.355 256.754,317.789 257.054 C 318.223 257.354,318.800 257.600,319.072 257.600 C 319.344 257.600,321.419 258.477,323.683 259.549 C 325.948 260.621,328.070 261.609,328.400 261.746 C 328.730 261.883,329.270 262.172,329.600 262.388 C 329.930 262.604,330.830 263.056,331.600 263.393 C 332.370 263.730,333.720 264.439,334.600 264.969 C 335.480 265.499,336.920 266.307,337.800 266.764 C 338.680 267.221,339.868 267.911,340.440 268.297 C 341.671 269.128,343.139 270.065,344.066 270.609 C 347.244 272.477,353.979 278.493,357.041 282.200 C 358.791 284.319,359.564 285.427,361.510 288.600 C 363.499 291.843,365.911 298.122,366.427 301.400 C 366.634 302.720,367.007 304.340,367.255 305.000 C 367.909 306.743,368.191 320.444,367.638 323.605 C 365.937 333.327,363.907 338.895,360.101 344.273 C 359.605 344.974,359.200 345.621,359.200 345.713 C 359.200 346.215,353.063 352.666,350.751 354.593 C 349.248 355.846,344.718 358.854,343.400 359.475 C 342.740 359.785,341.030 360.657,339.600 361.411 C 338.170 362.165,336.768 362.787,336.484 362.791 C 336.200 362.796,335.272 363.155,334.421 363.589 C 333.570 364.024,332.092 364.503,331.137 364.655 C 330.182 364.807,328.680 365.258,327.800 365.657 C 326.920 366.056,325.473 366.386,324.584 366.391 C 323.695 366.396,321.922 366.672,320.644 367.005 C 315.203 368.423,300.346 368.742,293.970 367.578 C 292.777 367.360,290.450 366.997,288.800 366.770 C 287.150 366.544,284.990 366.084,284.000 365.748 C 283.010 365.412,281.309 364.956,280.220 364.736 C 279.131 364.515,277.563 363.989,276.736 363.567 C 275.909 363.145,274.928 362.800,274.556 362.800 C 273.974 362.800,270.675 361.400,268.800 360.358 C 268.470 360.175,267.480 359.663,266.600 359.222 C 265.720 358.781,264.640 358.195,264.200 357.920 C 260.951 355.889,259.875 355.174,257.401 353.404 C 252.802 350.113,246.240 343.388,242.993 338.640 C 241.478 336.424,240.821 335.393,240.164 334.200 C 239.801 333.540,239.242 332.701,238.922 332.335 C 237.752 330.999,238.417 329.571,240.800 328.304 C 242.010 327.661,243.630 326.740,244.400 326.257 C 247.102 324.565,247.413 324.383,249.000 323.578 C 249.880 323.131,251.320 322.330,252.200 321.798 C 253.080 321.265,254.430 320.456,255.200 320.000 C 255.970 319.544,257.320 318.735,258.200 318.202 C 259.080 317.670,260.520 316.855,261.400 316.393 C 264.478 314.774,265.661 314.069,266.359 313.437 C 267.494 312.410,270.400 314.125,270.400 315.821 C 270.400 315.966,270.805 316.573,271.300 317.171 C 271.795 317.769,272.650 318.864,273.200 319.605 C 275.406 322.577,282.122 328.800,283.124 328.800 C 283.332 328.800,283.722 329.065,283.990 329.388 C 284.523 330.030,289.059 332.398,289.764 332.402 C 290.004 332.404,290.740 332.691,291.400 333.041 C 292.606 333.680,296.609 334.450,302.648 335.204 C 306.339 335.665,316.321 334.261,318.072 333.035 C 318.570 332.686,319.234 332.400,319.548 332.400 C 320.795 332.400,325.475 328.762,327.655 326.097 C 331.723 321.124,331.735 311.335,327.679 306.320 C 325.581 303.727,321.807 300.400,320.962 300.400 C 320.707 300.400,320.281 300.139,320.016 299.819 C 319.526 299.229,310.328 294.642,305.600 292.629 C 304.170 292.021,302.370 291.203,301.600 290.812 C 300.830 290.420,299.627 289.976,298.928 289.824 C 298.228 289.673,297.441 289.290,297.179 288.974 C 296.917 288.658,296.443 288.400,296.126 288.400 C 295.809 288.400,294.526 287.935,293.275 287.366 C 289.544 285.671,286.638 284.309,286.000 283.956 C 285.670 283.774,284.050 282.939,282.400 282.100 C 279.098 280.421,278.529 280.078,273.657 276.829 C 269.438 274.016,268.767 273.540,267.975 272.800 C 267.622 272.470,266.382 271.328,265.220 270.262 C 259.474 264.995,252.400 254.618,252.400 251.456 C 252.400 251.151,252.054 250.114,251.631 249.151 C 251.208 248.188,250.672 246.050,250.440 244.400 C 250.209 242.750,249.835 240.771,249.610 240.003 C 248.949 237.750,249.098 225.579,249.826 222.257 C 251.245 215.786,253.056 210.472,254.821 207.600 C 255.024 207.270,255.489 206.460,255.855 205.800 C 259.528 199.176,267.354 191.910,274.400 188.582 C 275.170 188.218,276.070 187.688,276.400 187.405 C 276.730 187.121,277.630 186.759,278.400 186.600 C 279.170 186.441,280.083 186.062,280.428 185.759 C 280.773 185.455,281.943 185.037,283.028 184.829 C 284.113 184.621,285.630 184.190,286.400 183.870 C 287.170 183.550,289.330 183.078,291.200 182.820 C 293.070 182.563,295.320 182.203,296.200 182.022 C 298.964 181.452,310.341 181.571,313.200 182.200 M179.949 183.461 C 179.490 184.014,179.367 195.237,179.200 251.761 C 179.019 312.913,178.938 319.515,178.356 320.600 C 178.002 321.260,177.609 322.477,177.481 323.304 C 177.353 324.131,176.878 325.329,176.425 325.966 C 175.971 326.602,175.600 327.325,175.600 327.571 C 175.600 328.458,171.447 331.993,170.109 332.243 C 169.383 332.380,168.624 332.786,168.423 333.146 C 167.852 334.166,153.268 334.125,152.243 333.100 C 151.858 332.715,151.317 332.400,151.040 332.400 C 149.740 332.400,142.800 326.706,142.800 325.640 C 142.800 325.402,142.440 324.982,142.000 324.707 C 141.560 324.432,141.200 323.995,141.200 323.734 C 141.200 323.474,140.788 322.753,140.284 322.131 C 139.781 321.509,139.142 320.550,138.865 320.000 C 136.607 315.518,135.945 315.045,133.541 316.199 C 131.278 317.286,129.482 318.344,129.235 318.736 C 129.106 318.942,128.370 319.404,127.600 319.762 C 125.443 320.767,123.831 321.752,123.497 322.270 C 123.330 322.528,122.565 322.947,121.797 323.201 C 121.029 323.455,120.400 323.826,120.400 324.026 C 120.400 324.226,119.815 324.671,119.100 325.016 C 116.959 326.048,115.186 327.089,114.472 327.732 C 114.103 328.065,113.305 328.461,112.700 328.612 C 112.095 328.763,111.600 329.056,111.600 329.264 C 111.600 329.471,110.925 329.921,110.100 330.263 C 109.275 330.606,108.456 331.137,108.280 331.443 C 108.104 331.749,107.691 332.000,107.362 332.000 C 105.656 332.000,104.204 334.947,105.347 336.090 C 105.648 336.391,106.034 337.075,106.203 337.611 C 106.373 338.146,106.823 339.038,107.202 339.592 C 107.582 340.147,108.536 341.605,109.323 342.833 C 110.110 344.061,111.304 345.655,111.977 346.375 C 112.650 347.095,113.200 347.813,113.200 347.970 C 113.200 348.127,113.605 348.624,114.100 349.075 C 114.595 349.526,115.540 350.544,116.200 351.339 C 116.860 352.133,117.613 352.787,117.873 352.791 C 118.133 352.796,118.460 353.160,118.600 353.600 C 118.740 354.040,119.046 354.400,119.281 354.400 C 119.516 354.400,120.109 354.805,120.598 355.300 C 121.087 355.795,121.918 356.517,122.444 356.904 C 122.970 357.290,123.966 358.055,124.658 358.604 C 125.350 359.152,126.210 359.600,126.570 359.600 C 126.930 359.600,127.323 359.856,127.443 360.169 C 127.563 360.482,128.323 361.023,129.131 361.371 C 129.939 361.719,130.870 362.165,131.200 362.362 C 133.061 363.471,136.191 364.800,136.943 364.800 C 137.421 364.800,138.490 365.163,139.318 365.607 C 140.146 366.051,141.854 366.575,143.112 366.771 C 144.370 366.968,146.210 367.444,147.200 367.831 C 149.909 368.888,172.898 368.886,175.600 367.829 C 176.590 367.441,178.509 366.970,179.865 366.782 C 181.220 366.594,183.017 366.071,183.859 365.620 C 184.700 365.169,185.715 364.800,186.115 364.800 C 186.515 364.800,187.507 364.451,188.321 364.024 C 189.134 363.597,190.385 363.035,191.100 362.775 C 191.815 362.515,192.400 362.145,192.400 361.951 C 192.400 361.758,192.631 361.600,192.913 361.600 C 193.453 361.600,196.991 359.426,198.120 358.400 C 198.483 358.070,199.241 357.440,199.806 357.000 C 201.632 355.575,205.200 352.096,205.200 351.739 C 205.200 351.548,205.560 351.168,206.000 350.893 C 206.440 350.618,206.800 350.131,206.800 349.811 C 206.800 349.490,207.160 349.035,207.600 348.800 C 208.040 348.565,208.400 348.186,208.400 347.959 C 208.400 347.732,208.850 346.957,209.400 346.236 C 209.950 345.514,210.400 344.709,210.400 344.446 C 210.400 344.182,210.743 343.599,211.162 343.149 C 211.581 342.699,212.039 341.716,212.180 340.965 C 212.321 340.214,212.601 339.600,212.803 339.600 C 213.004 339.600,213.357 338.835,213.586 337.900 C 213.815 336.965,214.279 335.678,214.617 335.040 C 214.955 334.402,215.331 333.052,215.453 332.040 C 215.575 331.028,216.063 329.120,216.537 327.800 L 217.400 325.400 217.512 254.603 C 217.617 188.028,217.582 183.776,216.935 183.303 C 215.751 182.437,180.675 182.587,179.949 183.461 M216.744 184.500 C 217.465 185.854,217.180 321.929,216.452 324.200 C 216.169 325.080,215.717 327.240,215.447 329.000 C 215.177 330.760,214.675 332.740,214.331 333.400 C 213.988 334.060,213.582 335.288,213.430 336.129 C 213.277 336.970,212.804 338.230,212.378 338.929 C 211.952 339.628,211.602 340.487,211.601 340.839 C 211.601 341.190,211.240 341.893,210.800 342.400 C 210.360 342.907,209.997 343.520,209.993 343.761 C 209.989 344.003,209.447 345.010,208.790 346.000 C 204.277 352.793,197.851 358.600,191.400 361.714 C 186.373 364.142,185.762 364.399,184.400 364.660 C 183.630 364.808,182.632 365.166,182.181 365.457 C 181.731 365.748,179.955 366.181,178.234 366.421 C 176.513 366.660,174.679 367.018,174.157 367.216 C 170.963 368.431,155.283 368.649,150.400 367.547 C 149.410 367.324,147.132 366.898,145.338 366.601 C 143.544 366.303,141.564 365.798,140.938 365.478 C 140.312 365.158,139.170 364.768,138.400 364.610 C 137.113 364.347,133.430 362.828,132.000 361.972 C 131.670 361.774,130.847 361.362,130.172 361.057 C 128.783 360.428,126.558 358.999,124.200 357.221 C 123.320 356.557,122.337 355.887,122.015 355.731 C 119.300 354.421,110.409 343.954,107.747 338.933 C 107.183 337.870,106.439 336.520,106.094 335.932 C 105.356 334.678,106.117 333.040,107.721 332.430 C 108.204 332.246,109.716 331.354,111.081 330.448 C 112.445 329.542,113.737 328.800,113.952 328.800 C 114.167 328.800,114.581 328.567,114.871 328.283 C 115.162 327.998,116.588 327.105,118.039 326.297 C 119.490 325.490,120.907 324.553,121.188 324.215 C 121.468 323.877,122.014 323.600,122.400 323.600 C 122.786 323.600,123.312 323.347,123.569 323.037 C 123.826 322.727,124.614 322.178,125.318 321.817 C 126.023 321.455,127.410 320.632,128.400 319.988 C 129.390 319.343,130.650 318.620,131.200 318.381 C 131.750 318.142,132.586 317.585,133.058 317.143 C 134.304 315.976,136.037 316.280,136.812 317.800 C 137.433 319.019,137.903 319.789,140.262 323.456 C 141.865 325.948,146.373 330.800,147.086 330.800 C 147.369 330.800,147.600 330.975,147.600 331.189 C 147.600 332.159,152.634 334.075,156.334 334.512 C 168.106 335.905,174.688 332.527,178.373 323.200 L 179.400 320.600 179.600 252.668 C 179.796 186.004,179.814 184.725,180.576 184.168 C 181.219 183.698,184.365 183.600,198.809 183.600 L 216.265 183.600 216.744 184.500 " stroke="none" fill="#9c9040" fill-rule="evenodd"></path><path id="path4" d="M0.000 0.800 C 0.000 1.599,0.267 1.600,198.751 1.600 C 365.641 1.600,397.574 1.687,397.953 2.143 C 398.286 2.544,398.377 54.496,398.302 201.343 L 398.200 400.000 399.100 400.000 L 400.000 400.000 400.000 200.000 L 400.000 0.000 200.000 0.000 C 0.267 0.000,0.000 0.001,0.000 0.800 " stroke="none" fill="#f4e484" fill-rule="evenodd"></path></g></svg>