<?xml version="1.0" encoding="utf-8"?>
<!-- Generator: Adobe Illustrator 21.1.0, SVG Export Plug-In . SVG Version: 6.00 Build 0)  -->
<svg version="1.1" id="Layer_1" xmlns="http://www.w3.org/2000/svg" xmlns:xlink="http://www.w3.org/1999/xlink" x="0px" y="0px"
	 viewBox="0 0 128 128" style="enable-background:new 0 0 128 128;" xml:space="preserve">
<path d="M112.8,30.3L68.7,4.7c-2.8-1.6-6.4-1.6-9.2,0L14.9,30.3C12,32,10,35.1,10,38.4v51.1c0,3.3,2.1,6.4,5,8.1l11.8,6.7
	c5.6,2.8,7.6,2.8,10.2,2.8c8.3,0,13.1-5,13.1-13.8V42.8c0-0.7-0.4-1.8-1.1-1.8h-5.6c-0.7,0-2.3,1.1-2.3,1.8v50.5
	c0,3.9-3.5,7.8-10.1,4.5l-12.2-7C18.3,90.5,18,90,18,89.5V38.4c0-0.5,0.6-1,1-1.2l44.4-25.6c0.4-0.2,1-0.2,1.4,0l43.9,25.6
	c0.4,0.3,0.3,0.7,0.3,1.2v51.1c0,0.5,0.2,1-0.2,1.2l-44.1,25.6c-0.4,0.2-0.8,0.2-1.3,0l-11.3-6.7c-0.3-0.2-0.7-0.3-1.1-0.1
	c-3.1,1.8-3.7,2-6.7,3c-0.7,0.3-1.8,0.7,0.4,1.9l14.8,8.8c1.4,0.8,3,1.2,4.6,1.2c1.6,0,3.3-0.4,4.7-1.2l43.9-25.6
	c2.9-1.7,4.2-4.8,4.2-8.1V38.4C117,35.1,115.6,32,112.8,30.3z M77.9,81.4c-11.7,0-14.3-3.2-15.2-9.1c-0.1-0.6-0.6-1.4-1.3-1.4h-5.7
	c-0.7,0-1.3,0.9-1.3,1.6c0,7.5,4.1,16.5,23.5,16.5c14,0,22.1-5.5,22.1-15.1c0-9.6-6.5-12.1-20.1-13.9c-13.8-1.8-15.2-2.7-15.2-6
	c0-2.7,1.2-6.2,11.4-6.2c9.1,0,12.5,2,13.8,8.1c0.1,0.6,0.6,1,1.2,1H97c0.4,0,0.7-0.1,0.9-0.4c0.2-0.3,0.4-0.6,0.3-1
	c-0.9-10.6-7.9-15.5-22.1-15.5C63.5,40.1,56,45.5,56,54.4c0,9.7,7.5,12.4,19.6,13.6c14.5,1.4,15.6,3.5,15.6,6.4
	C91.2,79.3,87.2,81.4,77.9,81.4z"/>
</svg>
